G75*
%MOIN*%
%OFA0B0*%
%FSLAX25Y25*%
%IPPOS*%
%LPD*%
%AMOC8*
5,1,8,0,0,1.08239X$1,22.5*
%
%ADD10C,0.00000*%
%ADD11C,0.05150*%
%ADD12C,0.06500*%
%ADD13R,0.04134X0.04252*%
%ADD14R,0.04252X0.04134*%
%ADD15C,0.06400*%
%ADD16R,0.07400X0.07400*%
%ADD17C,0.07400*%
%ADD18R,0.05937X0.05937*%
%ADD19C,0.05937*%
%ADD20C,0.10630*%
%ADD21R,0.03937X0.04331*%
%ADD22R,0.04331X0.03937*%
%ADD23R,0.07087X0.06299*%
%ADD24R,0.03937X0.03937*%
%ADD25R,0.06299X0.07087*%
%ADD26R,0.04724X0.01181*%
%ADD27R,0.01969X0.03150*%
%ADD28C,0.07677*%
%ADD29R,0.01181X0.04724*%
%ADD30C,0.03169*%
%ADD31C,0.02400*%
%ADD32C,0.01000*%
%ADD33C,0.03562*%
%ADD34R,0.03169X0.03169*%
%ADD35C,0.01600*%
D10*
X0125000Y0011800D02*
X0125000Y0208650D01*
X0321850Y0208650D01*
X0321850Y0011800D01*
X0125000Y0011800D01*
X0135352Y0195800D02*
X0135354Y0195960D01*
X0135360Y0196119D01*
X0135370Y0196278D01*
X0135384Y0196437D01*
X0135402Y0196596D01*
X0135423Y0196754D01*
X0135449Y0196911D01*
X0135479Y0197068D01*
X0135512Y0197224D01*
X0135550Y0197379D01*
X0135591Y0197533D01*
X0135636Y0197686D01*
X0135685Y0197838D01*
X0135738Y0197988D01*
X0135794Y0198137D01*
X0135854Y0198285D01*
X0135918Y0198431D01*
X0135986Y0198576D01*
X0136057Y0198719D01*
X0136131Y0198860D01*
X0136209Y0198999D01*
X0136291Y0199136D01*
X0136376Y0199271D01*
X0136464Y0199404D01*
X0136555Y0199535D01*
X0136650Y0199663D01*
X0136748Y0199789D01*
X0136849Y0199913D01*
X0136953Y0200033D01*
X0137060Y0200152D01*
X0137170Y0200267D01*
X0137283Y0200380D01*
X0137398Y0200490D01*
X0137517Y0200597D01*
X0137637Y0200701D01*
X0137761Y0200802D01*
X0137887Y0200900D01*
X0138015Y0200995D01*
X0138146Y0201086D01*
X0138279Y0201174D01*
X0138414Y0201259D01*
X0138551Y0201341D01*
X0138690Y0201419D01*
X0138831Y0201493D01*
X0138974Y0201564D01*
X0139119Y0201632D01*
X0139265Y0201696D01*
X0139413Y0201756D01*
X0139562Y0201812D01*
X0139712Y0201865D01*
X0139864Y0201914D01*
X0140017Y0201959D01*
X0140171Y0202000D01*
X0140326Y0202038D01*
X0140482Y0202071D01*
X0140639Y0202101D01*
X0140796Y0202127D01*
X0140954Y0202148D01*
X0141113Y0202166D01*
X0141272Y0202180D01*
X0141431Y0202190D01*
X0141590Y0202196D01*
X0141750Y0202198D01*
X0141910Y0202196D01*
X0142069Y0202190D01*
X0142228Y0202180D01*
X0142387Y0202166D01*
X0142546Y0202148D01*
X0142704Y0202127D01*
X0142861Y0202101D01*
X0143018Y0202071D01*
X0143174Y0202038D01*
X0143329Y0202000D01*
X0143483Y0201959D01*
X0143636Y0201914D01*
X0143788Y0201865D01*
X0143938Y0201812D01*
X0144087Y0201756D01*
X0144235Y0201696D01*
X0144381Y0201632D01*
X0144526Y0201564D01*
X0144669Y0201493D01*
X0144810Y0201419D01*
X0144949Y0201341D01*
X0145086Y0201259D01*
X0145221Y0201174D01*
X0145354Y0201086D01*
X0145485Y0200995D01*
X0145613Y0200900D01*
X0145739Y0200802D01*
X0145863Y0200701D01*
X0145983Y0200597D01*
X0146102Y0200490D01*
X0146217Y0200380D01*
X0146330Y0200267D01*
X0146440Y0200152D01*
X0146547Y0200033D01*
X0146651Y0199913D01*
X0146752Y0199789D01*
X0146850Y0199663D01*
X0146945Y0199535D01*
X0147036Y0199404D01*
X0147124Y0199271D01*
X0147209Y0199136D01*
X0147291Y0198999D01*
X0147369Y0198860D01*
X0147443Y0198719D01*
X0147514Y0198576D01*
X0147582Y0198431D01*
X0147646Y0198285D01*
X0147706Y0198137D01*
X0147762Y0197988D01*
X0147815Y0197838D01*
X0147864Y0197686D01*
X0147909Y0197533D01*
X0147950Y0197379D01*
X0147988Y0197224D01*
X0148021Y0197068D01*
X0148051Y0196911D01*
X0148077Y0196754D01*
X0148098Y0196596D01*
X0148116Y0196437D01*
X0148130Y0196278D01*
X0148140Y0196119D01*
X0148146Y0195960D01*
X0148148Y0195800D01*
X0148146Y0195640D01*
X0148140Y0195481D01*
X0148130Y0195322D01*
X0148116Y0195163D01*
X0148098Y0195004D01*
X0148077Y0194846D01*
X0148051Y0194689D01*
X0148021Y0194532D01*
X0147988Y0194376D01*
X0147950Y0194221D01*
X0147909Y0194067D01*
X0147864Y0193914D01*
X0147815Y0193762D01*
X0147762Y0193612D01*
X0147706Y0193463D01*
X0147646Y0193315D01*
X0147582Y0193169D01*
X0147514Y0193024D01*
X0147443Y0192881D01*
X0147369Y0192740D01*
X0147291Y0192601D01*
X0147209Y0192464D01*
X0147124Y0192329D01*
X0147036Y0192196D01*
X0146945Y0192065D01*
X0146850Y0191937D01*
X0146752Y0191811D01*
X0146651Y0191687D01*
X0146547Y0191567D01*
X0146440Y0191448D01*
X0146330Y0191333D01*
X0146217Y0191220D01*
X0146102Y0191110D01*
X0145983Y0191003D01*
X0145863Y0190899D01*
X0145739Y0190798D01*
X0145613Y0190700D01*
X0145485Y0190605D01*
X0145354Y0190514D01*
X0145221Y0190426D01*
X0145086Y0190341D01*
X0144949Y0190259D01*
X0144810Y0190181D01*
X0144669Y0190107D01*
X0144526Y0190036D01*
X0144381Y0189968D01*
X0144235Y0189904D01*
X0144087Y0189844D01*
X0143938Y0189788D01*
X0143788Y0189735D01*
X0143636Y0189686D01*
X0143483Y0189641D01*
X0143329Y0189600D01*
X0143174Y0189562D01*
X0143018Y0189529D01*
X0142861Y0189499D01*
X0142704Y0189473D01*
X0142546Y0189452D01*
X0142387Y0189434D01*
X0142228Y0189420D01*
X0142069Y0189410D01*
X0141910Y0189404D01*
X0141750Y0189402D01*
X0141590Y0189404D01*
X0141431Y0189410D01*
X0141272Y0189420D01*
X0141113Y0189434D01*
X0140954Y0189452D01*
X0140796Y0189473D01*
X0140639Y0189499D01*
X0140482Y0189529D01*
X0140326Y0189562D01*
X0140171Y0189600D01*
X0140017Y0189641D01*
X0139864Y0189686D01*
X0139712Y0189735D01*
X0139562Y0189788D01*
X0139413Y0189844D01*
X0139265Y0189904D01*
X0139119Y0189968D01*
X0138974Y0190036D01*
X0138831Y0190107D01*
X0138690Y0190181D01*
X0138551Y0190259D01*
X0138414Y0190341D01*
X0138279Y0190426D01*
X0138146Y0190514D01*
X0138015Y0190605D01*
X0137887Y0190700D01*
X0137761Y0190798D01*
X0137637Y0190899D01*
X0137517Y0191003D01*
X0137398Y0191110D01*
X0137283Y0191220D01*
X0137170Y0191333D01*
X0137060Y0191448D01*
X0136953Y0191567D01*
X0136849Y0191687D01*
X0136748Y0191811D01*
X0136650Y0191937D01*
X0136555Y0192065D01*
X0136464Y0192196D01*
X0136376Y0192329D01*
X0136291Y0192464D01*
X0136209Y0192601D01*
X0136131Y0192740D01*
X0136057Y0192881D01*
X0135986Y0193024D01*
X0135918Y0193169D01*
X0135854Y0193315D01*
X0135794Y0193463D01*
X0135738Y0193612D01*
X0135685Y0193762D01*
X0135636Y0193914D01*
X0135591Y0194067D01*
X0135550Y0194221D01*
X0135512Y0194376D01*
X0135479Y0194532D01*
X0135449Y0194689D01*
X0135423Y0194846D01*
X0135402Y0195004D01*
X0135384Y0195163D01*
X0135370Y0195322D01*
X0135360Y0195481D01*
X0135354Y0195640D01*
X0135352Y0195800D01*
X0187399Y0195800D02*
X0187401Y0195960D01*
X0187407Y0196119D01*
X0187417Y0196278D01*
X0187431Y0196437D01*
X0187449Y0196596D01*
X0187470Y0196754D01*
X0187496Y0196911D01*
X0187526Y0197068D01*
X0187559Y0197224D01*
X0187597Y0197379D01*
X0187638Y0197533D01*
X0187683Y0197686D01*
X0187732Y0197838D01*
X0187785Y0197988D01*
X0187841Y0198137D01*
X0187901Y0198285D01*
X0187965Y0198431D01*
X0188033Y0198576D01*
X0188104Y0198719D01*
X0188178Y0198860D01*
X0188256Y0198999D01*
X0188338Y0199136D01*
X0188423Y0199271D01*
X0188511Y0199404D01*
X0188602Y0199535D01*
X0188697Y0199663D01*
X0188795Y0199789D01*
X0188896Y0199913D01*
X0189000Y0200033D01*
X0189107Y0200152D01*
X0189217Y0200267D01*
X0189330Y0200380D01*
X0189445Y0200490D01*
X0189564Y0200597D01*
X0189684Y0200701D01*
X0189808Y0200802D01*
X0189934Y0200900D01*
X0190062Y0200995D01*
X0190193Y0201086D01*
X0190326Y0201174D01*
X0190461Y0201259D01*
X0190598Y0201341D01*
X0190737Y0201419D01*
X0190878Y0201493D01*
X0191021Y0201564D01*
X0191166Y0201632D01*
X0191312Y0201696D01*
X0191460Y0201756D01*
X0191609Y0201812D01*
X0191759Y0201865D01*
X0191911Y0201914D01*
X0192064Y0201959D01*
X0192218Y0202000D01*
X0192373Y0202038D01*
X0192529Y0202071D01*
X0192686Y0202101D01*
X0192843Y0202127D01*
X0193001Y0202148D01*
X0193160Y0202166D01*
X0193319Y0202180D01*
X0193478Y0202190D01*
X0193637Y0202196D01*
X0193797Y0202198D01*
X0193957Y0202196D01*
X0194116Y0202190D01*
X0194275Y0202180D01*
X0194434Y0202166D01*
X0194593Y0202148D01*
X0194751Y0202127D01*
X0194908Y0202101D01*
X0195065Y0202071D01*
X0195221Y0202038D01*
X0195376Y0202000D01*
X0195530Y0201959D01*
X0195683Y0201914D01*
X0195835Y0201865D01*
X0195985Y0201812D01*
X0196134Y0201756D01*
X0196282Y0201696D01*
X0196428Y0201632D01*
X0196573Y0201564D01*
X0196716Y0201493D01*
X0196857Y0201419D01*
X0196996Y0201341D01*
X0197133Y0201259D01*
X0197268Y0201174D01*
X0197401Y0201086D01*
X0197532Y0200995D01*
X0197660Y0200900D01*
X0197786Y0200802D01*
X0197910Y0200701D01*
X0198030Y0200597D01*
X0198149Y0200490D01*
X0198264Y0200380D01*
X0198377Y0200267D01*
X0198487Y0200152D01*
X0198594Y0200033D01*
X0198698Y0199913D01*
X0198799Y0199789D01*
X0198897Y0199663D01*
X0198992Y0199535D01*
X0199083Y0199404D01*
X0199171Y0199271D01*
X0199256Y0199136D01*
X0199338Y0198999D01*
X0199416Y0198860D01*
X0199490Y0198719D01*
X0199561Y0198576D01*
X0199629Y0198431D01*
X0199693Y0198285D01*
X0199753Y0198137D01*
X0199809Y0197988D01*
X0199862Y0197838D01*
X0199911Y0197686D01*
X0199956Y0197533D01*
X0199997Y0197379D01*
X0200035Y0197224D01*
X0200068Y0197068D01*
X0200098Y0196911D01*
X0200124Y0196754D01*
X0200145Y0196596D01*
X0200163Y0196437D01*
X0200177Y0196278D01*
X0200187Y0196119D01*
X0200193Y0195960D01*
X0200195Y0195800D01*
X0200193Y0195640D01*
X0200187Y0195481D01*
X0200177Y0195322D01*
X0200163Y0195163D01*
X0200145Y0195004D01*
X0200124Y0194846D01*
X0200098Y0194689D01*
X0200068Y0194532D01*
X0200035Y0194376D01*
X0199997Y0194221D01*
X0199956Y0194067D01*
X0199911Y0193914D01*
X0199862Y0193762D01*
X0199809Y0193612D01*
X0199753Y0193463D01*
X0199693Y0193315D01*
X0199629Y0193169D01*
X0199561Y0193024D01*
X0199490Y0192881D01*
X0199416Y0192740D01*
X0199338Y0192601D01*
X0199256Y0192464D01*
X0199171Y0192329D01*
X0199083Y0192196D01*
X0198992Y0192065D01*
X0198897Y0191937D01*
X0198799Y0191811D01*
X0198698Y0191687D01*
X0198594Y0191567D01*
X0198487Y0191448D01*
X0198377Y0191333D01*
X0198264Y0191220D01*
X0198149Y0191110D01*
X0198030Y0191003D01*
X0197910Y0190899D01*
X0197786Y0190798D01*
X0197660Y0190700D01*
X0197532Y0190605D01*
X0197401Y0190514D01*
X0197268Y0190426D01*
X0197133Y0190341D01*
X0196996Y0190259D01*
X0196857Y0190181D01*
X0196716Y0190107D01*
X0196573Y0190036D01*
X0196428Y0189968D01*
X0196282Y0189904D01*
X0196134Y0189844D01*
X0195985Y0189788D01*
X0195835Y0189735D01*
X0195683Y0189686D01*
X0195530Y0189641D01*
X0195376Y0189600D01*
X0195221Y0189562D01*
X0195065Y0189529D01*
X0194908Y0189499D01*
X0194751Y0189473D01*
X0194593Y0189452D01*
X0194434Y0189434D01*
X0194275Y0189420D01*
X0194116Y0189410D01*
X0193957Y0189404D01*
X0193797Y0189402D01*
X0193637Y0189404D01*
X0193478Y0189410D01*
X0193319Y0189420D01*
X0193160Y0189434D01*
X0193001Y0189452D01*
X0192843Y0189473D01*
X0192686Y0189499D01*
X0192529Y0189529D01*
X0192373Y0189562D01*
X0192218Y0189600D01*
X0192064Y0189641D01*
X0191911Y0189686D01*
X0191759Y0189735D01*
X0191609Y0189788D01*
X0191460Y0189844D01*
X0191312Y0189904D01*
X0191166Y0189968D01*
X0191021Y0190036D01*
X0190878Y0190107D01*
X0190737Y0190181D01*
X0190598Y0190259D01*
X0190461Y0190341D01*
X0190326Y0190426D01*
X0190193Y0190514D01*
X0190062Y0190605D01*
X0189934Y0190700D01*
X0189808Y0190798D01*
X0189684Y0190899D01*
X0189564Y0191003D01*
X0189445Y0191110D01*
X0189330Y0191220D01*
X0189217Y0191333D01*
X0189107Y0191448D01*
X0189000Y0191567D01*
X0188896Y0191687D01*
X0188795Y0191811D01*
X0188697Y0191937D01*
X0188602Y0192065D01*
X0188511Y0192196D01*
X0188423Y0192329D01*
X0188338Y0192464D01*
X0188256Y0192601D01*
X0188178Y0192740D01*
X0188104Y0192881D01*
X0188033Y0193024D01*
X0187965Y0193169D01*
X0187901Y0193315D01*
X0187841Y0193463D01*
X0187785Y0193612D01*
X0187732Y0193762D01*
X0187683Y0193914D01*
X0187638Y0194067D01*
X0187597Y0194221D01*
X0187559Y0194376D01*
X0187526Y0194532D01*
X0187496Y0194689D01*
X0187470Y0194846D01*
X0187449Y0195004D01*
X0187431Y0195163D01*
X0187417Y0195322D01*
X0187407Y0195481D01*
X0187401Y0195640D01*
X0187399Y0195800D01*
X0230352Y0196300D02*
X0230354Y0196460D01*
X0230360Y0196619D01*
X0230370Y0196778D01*
X0230384Y0196937D01*
X0230402Y0197096D01*
X0230423Y0197254D01*
X0230449Y0197411D01*
X0230479Y0197568D01*
X0230512Y0197724D01*
X0230550Y0197879D01*
X0230591Y0198033D01*
X0230636Y0198186D01*
X0230685Y0198338D01*
X0230738Y0198488D01*
X0230794Y0198637D01*
X0230854Y0198785D01*
X0230918Y0198931D01*
X0230986Y0199076D01*
X0231057Y0199219D01*
X0231131Y0199360D01*
X0231209Y0199499D01*
X0231291Y0199636D01*
X0231376Y0199771D01*
X0231464Y0199904D01*
X0231555Y0200035D01*
X0231650Y0200163D01*
X0231748Y0200289D01*
X0231849Y0200413D01*
X0231953Y0200533D01*
X0232060Y0200652D01*
X0232170Y0200767D01*
X0232283Y0200880D01*
X0232398Y0200990D01*
X0232517Y0201097D01*
X0232637Y0201201D01*
X0232761Y0201302D01*
X0232887Y0201400D01*
X0233015Y0201495D01*
X0233146Y0201586D01*
X0233279Y0201674D01*
X0233414Y0201759D01*
X0233551Y0201841D01*
X0233690Y0201919D01*
X0233831Y0201993D01*
X0233974Y0202064D01*
X0234119Y0202132D01*
X0234265Y0202196D01*
X0234413Y0202256D01*
X0234562Y0202312D01*
X0234712Y0202365D01*
X0234864Y0202414D01*
X0235017Y0202459D01*
X0235171Y0202500D01*
X0235326Y0202538D01*
X0235482Y0202571D01*
X0235639Y0202601D01*
X0235796Y0202627D01*
X0235954Y0202648D01*
X0236113Y0202666D01*
X0236272Y0202680D01*
X0236431Y0202690D01*
X0236590Y0202696D01*
X0236750Y0202698D01*
X0236910Y0202696D01*
X0237069Y0202690D01*
X0237228Y0202680D01*
X0237387Y0202666D01*
X0237546Y0202648D01*
X0237704Y0202627D01*
X0237861Y0202601D01*
X0238018Y0202571D01*
X0238174Y0202538D01*
X0238329Y0202500D01*
X0238483Y0202459D01*
X0238636Y0202414D01*
X0238788Y0202365D01*
X0238938Y0202312D01*
X0239087Y0202256D01*
X0239235Y0202196D01*
X0239381Y0202132D01*
X0239526Y0202064D01*
X0239669Y0201993D01*
X0239810Y0201919D01*
X0239949Y0201841D01*
X0240086Y0201759D01*
X0240221Y0201674D01*
X0240354Y0201586D01*
X0240485Y0201495D01*
X0240613Y0201400D01*
X0240739Y0201302D01*
X0240863Y0201201D01*
X0240983Y0201097D01*
X0241102Y0200990D01*
X0241217Y0200880D01*
X0241330Y0200767D01*
X0241440Y0200652D01*
X0241547Y0200533D01*
X0241651Y0200413D01*
X0241752Y0200289D01*
X0241850Y0200163D01*
X0241945Y0200035D01*
X0242036Y0199904D01*
X0242124Y0199771D01*
X0242209Y0199636D01*
X0242291Y0199499D01*
X0242369Y0199360D01*
X0242443Y0199219D01*
X0242514Y0199076D01*
X0242582Y0198931D01*
X0242646Y0198785D01*
X0242706Y0198637D01*
X0242762Y0198488D01*
X0242815Y0198338D01*
X0242864Y0198186D01*
X0242909Y0198033D01*
X0242950Y0197879D01*
X0242988Y0197724D01*
X0243021Y0197568D01*
X0243051Y0197411D01*
X0243077Y0197254D01*
X0243098Y0197096D01*
X0243116Y0196937D01*
X0243130Y0196778D01*
X0243140Y0196619D01*
X0243146Y0196460D01*
X0243148Y0196300D01*
X0243146Y0196140D01*
X0243140Y0195981D01*
X0243130Y0195822D01*
X0243116Y0195663D01*
X0243098Y0195504D01*
X0243077Y0195346D01*
X0243051Y0195189D01*
X0243021Y0195032D01*
X0242988Y0194876D01*
X0242950Y0194721D01*
X0242909Y0194567D01*
X0242864Y0194414D01*
X0242815Y0194262D01*
X0242762Y0194112D01*
X0242706Y0193963D01*
X0242646Y0193815D01*
X0242582Y0193669D01*
X0242514Y0193524D01*
X0242443Y0193381D01*
X0242369Y0193240D01*
X0242291Y0193101D01*
X0242209Y0192964D01*
X0242124Y0192829D01*
X0242036Y0192696D01*
X0241945Y0192565D01*
X0241850Y0192437D01*
X0241752Y0192311D01*
X0241651Y0192187D01*
X0241547Y0192067D01*
X0241440Y0191948D01*
X0241330Y0191833D01*
X0241217Y0191720D01*
X0241102Y0191610D01*
X0240983Y0191503D01*
X0240863Y0191399D01*
X0240739Y0191298D01*
X0240613Y0191200D01*
X0240485Y0191105D01*
X0240354Y0191014D01*
X0240221Y0190926D01*
X0240086Y0190841D01*
X0239949Y0190759D01*
X0239810Y0190681D01*
X0239669Y0190607D01*
X0239526Y0190536D01*
X0239381Y0190468D01*
X0239235Y0190404D01*
X0239087Y0190344D01*
X0238938Y0190288D01*
X0238788Y0190235D01*
X0238636Y0190186D01*
X0238483Y0190141D01*
X0238329Y0190100D01*
X0238174Y0190062D01*
X0238018Y0190029D01*
X0237861Y0189999D01*
X0237704Y0189973D01*
X0237546Y0189952D01*
X0237387Y0189934D01*
X0237228Y0189920D01*
X0237069Y0189910D01*
X0236910Y0189904D01*
X0236750Y0189902D01*
X0236590Y0189904D01*
X0236431Y0189910D01*
X0236272Y0189920D01*
X0236113Y0189934D01*
X0235954Y0189952D01*
X0235796Y0189973D01*
X0235639Y0189999D01*
X0235482Y0190029D01*
X0235326Y0190062D01*
X0235171Y0190100D01*
X0235017Y0190141D01*
X0234864Y0190186D01*
X0234712Y0190235D01*
X0234562Y0190288D01*
X0234413Y0190344D01*
X0234265Y0190404D01*
X0234119Y0190468D01*
X0233974Y0190536D01*
X0233831Y0190607D01*
X0233690Y0190681D01*
X0233551Y0190759D01*
X0233414Y0190841D01*
X0233279Y0190926D01*
X0233146Y0191014D01*
X0233015Y0191105D01*
X0232887Y0191200D01*
X0232761Y0191298D01*
X0232637Y0191399D01*
X0232517Y0191503D01*
X0232398Y0191610D01*
X0232283Y0191720D01*
X0232170Y0191833D01*
X0232060Y0191948D01*
X0231953Y0192067D01*
X0231849Y0192187D01*
X0231748Y0192311D01*
X0231650Y0192437D01*
X0231555Y0192565D01*
X0231464Y0192696D01*
X0231376Y0192829D01*
X0231291Y0192964D01*
X0231209Y0193101D01*
X0231131Y0193240D01*
X0231057Y0193381D01*
X0230986Y0193524D01*
X0230918Y0193669D01*
X0230854Y0193815D01*
X0230794Y0193963D01*
X0230738Y0194112D01*
X0230685Y0194262D01*
X0230636Y0194414D01*
X0230591Y0194567D01*
X0230550Y0194721D01*
X0230512Y0194876D01*
X0230479Y0195032D01*
X0230449Y0195189D01*
X0230423Y0195346D01*
X0230402Y0195504D01*
X0230384Y0195663D01*
X0230370Y0195822D01*
X0230360Y0195981D01*
X0230354Y0196140D01*
X0230352Y0196300D01*
X0282399Y0196300D02*
X0282401Y0196460D01*
X0282407Y0196619D01*
X0282417Y0196778D01*
X0282431Y0196937D01*
X0282449Y0197096D01*
X0282470Y0197254D01*
X0282496Y0197411D01*
X0282526Y0197568D01*
X0282559Y0197724D01*
X0282597Y0197879D01*
X0282638Y0198033D01*
X0282683Y0198186D01*
X0282732Y0198338D01*
X0282785Y0198488D01*
X0282841Y0198637D01*
X0282901Y0198785D01*
X0282965Y0198931D01*
X0283033Y0199076D01*
X0283104Y0199219D01*
X0283178Y0199360D01*
X0283256Y0199499D01*
X0283338Y0199636D01*
X0283423Y0199771D01*
X0283511Y0199904D01*
X0283602Y0200035D01*
X0283697Y0200163D01*
X0283795Y0200289D01*
X0283896Y0200413D01*
X0284000Y0200533D01*
X0284107Y0200652D01*
X0284217Y0200767D01*
X0284330Y0200880D01*
X0284445Y0200990D01*
X0284564Y0201097D01*
X0284684Y0201201D01*
X0284808Y0201302D01*
X0284934Y0201400D01*
X0285062Y0201495D01*
X0285193Y0201586D01*
X0285326Y0201674D01*
X0285461Y0201759D01*
X0285598Y0201841D01*
X0285737Y0201919D01*
X0285878Y0201993D01*
X0286021Y0202064D01*
X0286166Y0202132D01*
X0286312Y0202196D01*
X0286460Y0202256D01*
X0286609Y0202312D01*
X0286759Y0202365D01*
X0286911Y0202414D01*
X0287064Y0202459D01*
X0287218Y0202500D01*
X0287373Y0202538D01*
X0287529Y0202571D01*
X0287686Y0202601D01*
X0287843Y0202627D01*
X0288001Y0202648D01*
X0288160Y0202666D01*
X0288319Y0202680D01*
X0288478Y0202690D01*
X0288637Y0202696D01*
X0288797Y0202698D01*
X0288957Y0202696D01*
X0289116Y0202690D01*
X0289275Y0202680D01*
X0289434Y0202666D01*
X0289593Y0202648D01*
X0289751Y0202627D01*
X0289908Y0202601D01*
X0290065Y0202571D01*
X0290221Y0202538D01*
X0290376Y0202500D01*
X0290530Y0202459D01*
X0290683Y0202414D01*
X0290835Y0202365D01*
X0290985Y0202312D01*
X0291134Y0202256D01*
X0291282Y0202196D01*
X0291428Y0202132D01*
X0291573Y0202064D01*
X0291716Y0201993D01*
X0291857Y0201919D01*
X0291996Y0201841D01*
X0292133Y0201759D01*
X0292268Y0201674D01*
X0292401Y0201586D01*
X0292532Y0201495D01*
X0292660Y0201400D01*
X0292786Y0201302D01*
X0292910Y0201201D01*
X0293030Y0201097D01*
X0293149Y0200990D01*
X0293264Y0200880D01*
X0293377Y0200767D01*
X0293487Y0200652D01*
X0293594Y0200533D01*
X0293698Y0200413D01*
X0293799Y0200289D01*
X0293897Y0200163D01*
X0293992Y0200035D01*
X0294083Y0199904D01*
X0294171Y0199771D01*
X0294256Y0199636D01*
X0294338Y0199499D01*
X0294416Y0199360D01*
X0294490Y0199219D01*
X0294561Y0199076D01*
X0294629Y0198931D01*
X0294693Y0198785D01*
X0294753Y0198637D01*
X0294809Y0198488D01*
X0294862Y0198338D01*
X0294911Y0198186D01*
X0294956Y0198033D01*
X0294997Y0197879D01*
X0295035Y0197724D01*
X0295068Y0197568D01*
X0295098Y0197411D01*
X0295124Y0197254D01*
X0295145Y0197096D01*
X0295163Y0196937D01*
X0295177Y0196778D01*
X0295187Y0196619D01*
X0295193Y0196460D01*
X0295195Y0196300D01*
X0295193Y0196140D01*
X0295187Y0195981D01*
X0295177Y0195822D01*
X0295163Y0195663D01*
X0295145Y0195504D01*
X0295124Y0195346D01*
X0295098Y0195189D01*
X0295068Y0195032D01*
X0295035Y0194876D01*
X0294997Y0194721D01*
X0294956Y0194567D01*
X0294911Y0194414D01*
X0294862Y0194262D01*
X0294809Y0194112D01*
X0294753Y0193963D01*
X0294693Y0193815D01*
X0294629Y0193669D01*
X0294561Y0193524D01*
X0294490Y0193381D01*
X0294416Y0193240D01*
X0294338Y0193101D01*
X0294256Y0192964D01*
X0294171Y0192829D01*
X0294083Y0192696D01*
X0293992Y0192565D01*
X0293897Y0192437D01*
X0293799Y0192311D01*
X0293698Y0192187D01*
X0293594Y0192067D01*
X0293487Y0191948D01*
X0293377Y0191833D01*
X0293264Y0191720D01*
X0293149Y0191610D01*
X0293030Y0191503D01*
X0292910Y0191399D01*
X0292786Y0191298D01*
X0292660Y0191200D01*
X0292532Y0191105D01*
X0292401Y0191014D01*
X0292268Y0190926D01*
X0292133Y0190841D01*
X0291996Y0190759D01*
X0291857Y0190681D01*
X0291716Y0190607D01*
X0291573Y0190536D01*
X0291428Y0190468D01*
X0291282Y0190404D01*
X0291134Y0190344D01*
X0290985Y0190288D01*
X0290835Y0190235D01*
X0290683Y0190186D01*
X0290530Y0190141D01*
X0290376Y0190100D01*
X0290221Y0190062D01*
X0290065Y0190029D01*
X0289908Y0189999D01*
X0289751Y0189973D01*
X0289593Y0189952D01*
X0289434Y0189934D01*
X0289275Y0189920D01*
X0289116Y0189910D01*
X0288957Y0189904D01*
X0288797Y0189902D01*
X0288637Y0189904D01*
X0288478Y0189910D01*
X0288319Y0189920D01*
X0288160Y0189934D01*
X0288001Y0189952D01*
X0287843Y0189973D01*
X0287686Y0189999D01*
X0287529Y0190029D01*
X0287373Y0190062D01*
X0287218Y0190100D01*
X0287064Y0190141D01*
X0286911Y0190186D01*
X0286759Y0190235D01*
X0286609Y0190288D01*
X0286460Y0190344D01*
X0286312Y0190404D01*
X0286166Y0190468D01*
X0286021Y0190536D01*
X0285878Y0190607D01*
X0285737Y0190681D01*
X0285598Y0190759D01*
X0285461Y0190841D01*
X0285326Y0190926D01*
X0285193Y0191014D01*
X0285062Y0191105D01*
X0284934Y0191200D01*
X0284808Y0191298D01*
X0284684Y0191399D01*
X0284564Y0191503D01*
X0284445Y0191610D01*
X0284330Y0191720D01*
X0284217Y0191833D01*
X0284107Y0191948D01*
X0284000Y0192067D01*
X0283896Y0192187D01*
X0283795Y0192311D01*
X0283697Y0192437D01*
X0283602Y0192565D01*
X0283511Y0192696D01*
X0283423Y0192829D01*
X0283338Y0192964D01*
X0283256Y0193101D01*
X0283178Y0193240D01*
X0283104Y0193381D01*
X0283033Y0193524D01*
X0282965Y0193669D01*
X0282901Y0193815D01*
X0282841Y0193963D01*
X0282785Y0194112D01*
X0282732Y0194262D01*
X0282683Y0194414D01*
X0282638Y0194567D01*
X0282597Y0194721D01*
X0282559Y0194876D01*
X0282526Y0195032D01*
X0282496Y0195189D01*
X0282470Y0195346D01*
X0282449Y0195504D01*
X0282431Y0195663D01*
X0282417Y0195822D01*
X0282407Y0195981D01*
X0282401Y0196140D01*
X0282399Y0196300D01*
D11*
X0185750Y0139300D03*
X0175750Y0139300D03*
X0165750Y0139300D03*
X0155750Y0139300D03*
X0155750Y0109300D03*
X0165750Y0109300D03*
X0175750Y0109300D03*
X0185750Y0109300D03*
X0209250Y0121629D03*
X0209250Y0131471D03*
D12*
X0141750Y0091550D03*
X0141750Y0071550D03*
X0279750Y0069800D03*
X0279750Y0089800D03*
D13*
X0285305Y0083050D03*
X0285555Y0077050D03*
X0292445Y0077050D03*
X0292195Y0083050D03*
X0288195Y0028550D03*
X0281305Y0028550D03*
X0183195Y0118050D03*
X0183195Y0124300D03*
X0176305Y0124300D03*
X0176305Y0118050D03*
X0139195Y0081550D03*
X0132305Y0081550D03*
D14*
X0195250Y0124605D03*
X0195250Y0131495D03*
X0231750Y0082245D03*
X0237000Y0081995D03*
X0237000Y0075105D03*
X0231750Y0075355D03*
X0257000Y0076245D03*
X0263000Y0076495D03*
X0263000Y0069605D03*
X0257000Y0069355D03*
X0293250Y0100605D03*
X0293250Y0107495D03*
X0299500Y0107855D03*
X0299500Y0114745D03*
D15*
X0249750Y0041550D03*
X0239750Y0040550D03*
X0229750Y0041550D03*
X0239750Y0031550D03*
X0229750Y0030550D03*
X0249750Y0030550D03*
D16*
X0309500Y0075050D03*
D17*
X0309500Y0065050D03*
X0309500Y0055050D03*
X0309500Y0045050D03*
X0309500Y0035050D03*
X0309500Y0025050D03*
X0312000Y0110050D03*
X0312000Y0120050D03*
X0312000Y0130050D03*
X0312000Y0140050D03*
X0312000Y0150050D03*
D18*
X0249703Y0186300D03*
X0154703Y0185800D03*
D19*
X0162734Y0185800D03*
X0170766Y0185800D03*
X0178797Y0185800D03*
X0174781Y0178792D03*
X0166750Y0178792D03*
X0158719Y0178792D03*
X0182813Y0178792D03*
X0186789Y0159816D03*
X0195805Y0159816D03*
X0236789Y0160316D03*
X0245805Y0160316D03*
X0253719Y0179292D03*
X0261750Y0179292D03*
X0269781Y0179292D03*
X0277813Y0179292D03*
X0273797Y0186300D03*
X0265766Y0186300D03*
X0257734Y0186300D03*
X0281789Y0160316D03*
X0290805Y0160316D03*
X0150805Y0159816D03*
X0141789Y0159816D03*
D20*
X0134742Y0182296D03*
X0200805Y0182296D03*
X0229742Y0182796D03*
X0295805Y0182796D03*
D21*
X0247000Y0142146D03*
X0240000Y0142396D03*
X0240000Y0135704D03*
X0247000Y0135454D03*
X0273750Y0112646D03*
X0273750Y0105954D03*
X0279250Y0059396D03*
X0279250Y0052704D03*
X0183750Y0036396D03*
X0183750Y0029704D03*
X0154250Y0125704D03*
X0154250Y0132396D03*
D22*
X0176904Y0131050D03*
X0183596Y0131050D03*
X0214154Y0091550D03*
X0220846Y0091550D03*
X0237154Y0052550D03*
X0243846Y0052550D03*
X0222846Y0047550D03*
X0216154Y0047550D03*
D23*
X0202000Y0038562D03*
X0202000Y0027538D03*
X0300000Y0031788D03*
X0300000Y0042812D03*
X0300500Y0136788D03*
X0300500Y0147812D03*
D24*
X0168453Y0130137D03*
X0162547Y0130137D03*
X0165500Y0121081D03*
D25*
X0161238Y0167550D03*
X0172262Y0167550D03*
X0261238Y0167050D03*
X0272262Y0167050D03*
X0289238Y0065050D03*
X0300262Y0065050D03*
X0300262Y0055800D03*
X0289238Y0055800D03*
X0170262Y0018550D03*
X0159238Y0018550D03*
X0160512Y0038050D03*
X0149488Y0038050D03*
X0149488Y0047550D03*
X0160512Y0047550D03*
D26*
X0172667Y0073831D03*
X0172667Y0075800D03*
X0172667Y0077769D03*
X0179833Y0077769D03*
X0179833Y0075800D03*
X0179833Y0073831D03*
X0282917Y0144831D03*
X0282917Y0146800D03*
X0282917Y0148769D03*
X0290083Y0148769D03*
X0290083Y0146800D03*
X0290083Y0144831D03*
D27*
X0294833Y0015800D03*
X0297667Y0015800D03*
D28*
X0139000Y0018800D03*
X0139000Y0028800D03*
X0139000Y0038800D03*
X0139000Y0048800D03*
D29*
X0154031Y0058217D03*
X0156000Y0058217D03*
X0157969Y0058217D03*
X0157969Y0065383D03*
X0156000Y0065383D03*
X0154031Y0065383D03*
D30*
X0162000Y0069050D03*
X0158000Y0070550D03*
X0166500Y0063550D03*
X0173500Y0059800D03*
X0172500Y0052800D03*
X0163500Y0058300D03*
X0176250Y0070550D03*
X0200250Y0059050D03*
X0190750Y0053800D03*
X0194000Y0039300D03*
X0174500Y0036300D03*
X0188000Y0022550D03*
X0204500Y0022050D03*
X0218250Y0032550D03*
X0212500Y0034550D03*
X0225750Y0022050D03*
X0262000Y0027300D03*
X0282250Y0036050D03*
X0300750Y0025050D03*
X0288500Y0015050D03*
X0262000Y0044300D03*
X0235500Y0046550D03*
X0225000Y0052800D03*
X0224750Y0061050D03*
X0237250Y0070300D03*
X0249250Y0068550D03*
X0256250Y0081050D03*
X0247750Y0085300D03*
X0242500Y0085050D03*
X0222000Y0083550D03*
X0220750Y0078800D03*
X0211000Y0070800D03*
X0181250Y0090800D03*
X0176250Y0093300D03*
X0171000Y0091050D03*
X0167750Y0097800D03*
X0161000Y0100800D03*
X0182000Y0096800D03*
X0192750Y0096800D03*
X0201500Y0101050D03*
X0209750Y0104800D03*
X0213000Y0097300D03*
X0222000Y0101050D03*
X0233750Y0101050D03*
X0246250Y0099050D03*
X0258250Y0107300D03*
X0266250Y0114550D03*
X0260000Y0117050D03*
X0246500Y0115550D03*
X0239750Y0115550D03*
X0239750Y0130550D03*
X0233750Y0132300D03*
X0227500Y0141550D03*
X0221750Y0145050D03*
X0223375Y0154675D03*
X0218351Y0154949D03*
X0230250Y0153550D03*
X0239500Y0147800D03*
X0254000Y0137050D03*
X0246250Y0130050D03*
X0270250Y0140550D03*
X0272750Y0135300D03*
X0271000Y0130800D03*
X0285750Y0131800D03*
X0293250Y0136300D03*
X0287500Y0139300D03*
X0275750Y0148800D03*
X0269524Y0148050D03*
X0257000Y0153550D03*
X0256750Y0159050D03*
X0251500Y0171550D03*
X0282000Y0173550D03*
X0220000Y0171550D03*
X0181750Y0147800D03*
X0180750Y0136050D03*
X0200750Y0119050D03*
X0154500Y0118050D03*
X0135000Y0111800D03*
X0148250Y0084800D03*
X0134500Y0070550D03*
X0146750Y0022050D03*
X0262250Y0096550D03*
X0268750Y0103050D03*
X0287750Y0101050D03*
X0289750Y0092800D03*
X0308000Y0098800D03*
X0313250Y0101550D03*
X0292000Y0119550D03*
X0275500Y0117300D03*
X0270000Y0091050D03*
X0278750Y0079800D03*
X0270250Y0070800D03*
X0294750Y0071800D03*
X0143000Y0146050D03*
X0148000Y0172050D03*
D31*
X0161238Y0164812D02*
X0165250Y0160800D01*
X0178500Y0160800D01*
X0185250Y0167550D01*
X0216000Y0167550D01*
X0220000Y0171550D01*
X0256750Y0159050D02*
X0264262Y0159050D01*
X0272262Y0167050D01*
X0275500Y0167050D01*
X0282000Y0173550D01*
X0307000Y0120050D02*
X0312000Y0120050D01*
X0307000Y0120050D02*
X0304750Y0117800D01*
X0304750Y0105550D01*
X0308000Y0102300D01*
X0308000Y0098800D01*
X0318750Y0085550D02*
X0318250Y0085050D01*
X0318250Y0017550D01*
X0316000Y0015300D01*
X0304000Y0015300D01*
X0302250Y0017050D01*
X0302250Y0015800D01*
X0297667Y0015800D01*
X0302250Y0017050D02*
X0295500Y0023800D01*
X0295500Y0027288D01*
X0300000Y0031788D01*
X0288195Y0028550D02*
X0288195Y0024105D01*
X0288500Y0023800D01*
X0295500Y0023800D01*
X0288500Y0023800D02*
X0279000Y0014300D01*
X0219000Y0014300D01*
X0211250Y0022050D01*
X0211250Y0026026D01*
X0209738Y0027538D01*
X0211250Y0029050D01*
X0211250Y0033300D01*
X0212500Y0034550D01*
X0209738Y0027538D02*
X0202000Y0027538D01*
X0195131Y0020669D01*
X0193012Y0018550D01*
X0170262Y0018550D01*
X0161012Y0027800D01*
X0151250Y0027800D01*
X0157750Y0018550D02*
X0154250Y0015050D01*
X0142750Y0015050D01*
X0139000Y0018800D01*
X0157750Y0018550D02*
X0159238Y0018550D01*
X0194000Y0039300D02*
X0194738Y0038562D01*
X0202000Y0038562D01*
X0229750Y0041550D02*
X0229750Y0056300D01*
X0231000Y0057550D01*
X0238000Y0064550D01*
X0238000Y0069550D01*
X0237250Y0070300D02*
X0237250Y0074855D01*
X0255610Y0074855D01*
X0257000Y0076245D02*
X0257000Y0080300D01*
X0307262Y0042812D02*
X0309500Y0045050D01*
X0307262Y0042812D02*
X0300000Y0042812D01*
X0175750Y0109300D02*
X0169500Y0115550D01*
X0173805Y0115550D01*
X0176305Y0118050D01*
X0176305Y0124300D01*
X0169500Y0115550D02*
X0158750Y0115550D01*
X0156250Y0118050D01*
X0154500Y0118050D01*
D32*
X0154250Y0125704D02*
X0154346Y0125800D01*
X0160750Y0125800D01*
X0162547Y0127597D01*
X0162547Y0130137D01*
X0162547Y0136097D01*
X0165750Y0139300D01*
X0167000Y0139300D01*
X0178500Y0150800D01*
X0212750Y0150800D01*
X0213000Y0151050D01*
X0214453Y0151050D01*
X0218351Y0154949D01*
X0249703Y0186300D01*
X0253719Y0179292D02*
X0253226Y0178800D01*
X0247500Y0178800D01*
X0223375Y0154675D01*
X0213500Y0144800D01*
X0181500Y0144550D01*
X0176250Y0139300D01*
X0175750Y0139300D01*
X0168453Y0132003D01*
X0168453Y0130137D01*
X0175990Y0130137D01*
X0176904Y0131050D01*
X0183596Y0131050D02*
X0185750Y0131050D01*
X0195250Y0131050D01*
X0195250Y0131495D01*
X0185750Y0133204D02*
X0185750Y0139300D01*
X0185750Y0133204D02*
X0183596Y0131050D01*
X0157750Y0132550D02*
X0154404Y0132550D01*
X0154250Y0132396D01*
X0155750Y0109300D02*
X0156000Y0109050D01*
X0156000Y0086050D01*
X0168219Y0073831D01*
X0172667Y0073831D01*
X0172667Y0075800D02*
X0169500Y0075800D01*
X0165250Y0080050D01*
X0165250Y0086050D01*
X0161000Y0090300D01*
X0161000Y0100800D01*
X0166500Y0096550D02*
X0167750Y0097800D01*
X0166500Y0096550D02*
X0166500Y0090050D01*
X0172667Y0083883D01*
X0172667Y0077769D01*
X0176250Y0074800D02*
X0176250Y0071800D01*
X0179833Y0073831D02*
X0180614Y0073050D01*
X0186000Y0073050D01*
X0183000Y0075800D02*
X0179833Y0075800D01*
X0177250Y0075800D01*
X0176250Y0074800D01*
X0179833Y0077769D02*
X0179864Y0077800D01*
X0185000Y0077800D01*
X0185750Y0077050D01*
X0189000Y0077050D01*
X0170250Y0067550D02*
X0163750Y0074050D01*
X0157250Y0074050D01*
X0154031Y0070831D01*
X0154031Y0065383D01*
X0154031Y0058217D01*
X0156000Y0058217D02*
X0156000Y0053300D01*
X0155750Y0053050D01*
X0157969Y0058217D02*
X0157969Y0065383D01*
X0158333Y0065383D01*
X0162000Y0069050D01*
X0164750Y0067550D02*
X0170250Y0067550D01*
X0213000Y0067550D01*
X0216750Y0071300D01*
X0220500Y0065300D02*
X0224750Y0061050D01*
X0220500Y0065300D02*
X0167750Y0065300D01*
X0166500Y0064050D01*
X0166500Y0063550D01*
X0166500Y0062300D01*
X0166500Y0041550D01*
X0163000Y0038050D01*
X0160512Y0038050D01*
X0149488Y0038050D02*
X0140238Y0028800D01*
X0139000Y0028800D01*
X0139000Y0038800D02*
X0139000Y0040300D01*
X0146500Y0047800D01*
X0149238Y0047800D01*
X0149488Y0047550D01*
X0160512Y0047550D02*
X0160512Y0063312D01*
X0164750Y0067550D01*
X0158000Y0070550D02*
X0156000Y0069050D01*
X0156000Y0065383D01*
X0141750Y0071550D02*
X0139195Y0074105D01*
X0139195Y0081550D01*
X0171000Y0091050D02*
X0171250Y0091300D01*
X0171250Y0101800D01*
X0174250Y0104800D01*
X0209750Y0104800D01*
X0201500Y0101050D02*
X0180750Y0101050D01*
X0176250Y0096550D01*
X0176250Y0093300D01*
X0181250Y0091300D02*
X0181250Y0090800D01*
X0181250Y0091300D02*
X0186750Y0096800D01*
X0192750Y0096800D01*
X0213000Y0097300D02*
X0214154Y0096146D01*
X0214154Y0091550D01*
X0220846Y0091550D02*
X0222000Y0090396D01*
X0222000Y0083550D01*
X0231750Y0075355D02*
X0232000Y0075105D01*
X0237000Y0075105D01*
X0237250Y0074855D01*
X0237250Y0070300D02*
X0238000Y0069550D01*
X0231000Y0057550D02*
X0236000Y0052550D01*
X0237154Y0052550D01*
X0243846Y0052550D02*
X0245000Y0052550D01*
X0245000Y0035300D01*
X0249750Y0030550D01*
X0250750Y0031550D01*
X0267500Y0031550D01*
X0274500Y0024550D01*
X0293250Y0039300D02*
X0300000Y0032550D01*
X0300000Y0031788D01*
X0289750Y0045550D02*
X0288000Y0047300D01*
X0288000Y0054562D01*
X0289238Y0055800D01*
X0281750Y0052300D02*
X0279654Y0052300D01*
X0279250Y0052704D01*
X0274750Y0048550D02*
X0272750Y0050550D01*
X0252000Y0050550D01*
X0261654Y0059396D02*
X0258000Y0063050D01*
X0256750Y0063050D01*
X0261654Y0059396D02*
X0279250Y0059396D01*
X0288000Y0062800D02*
X0288000Y0063050D01*
X0288000Y0063812D01*
X0289238Y0065050D01*
X0289238Y0064288D01*
X0288000Y0063050D01*
X0279750Y0069800D02*
X0286055Y0076105D01*
X0285555Y0077050D01*
X0285305Y0083050D02*
X0285750Y0083800D01*
X0279750Y0089800D01*
X0273250Y0096050D02*
X0286500Y0096050D01*
X0289750Y0092800D01*
X0273500Y0096300D02*
X0273250Y0096050D01*
X0269250Y0096050D01*
X0263750Y0101550D01*
X0263750Y0106300D01*
X0270096Y0112646D01*
X0273750Y0112646D01*
X0273750Y0115550D01*
X0275500Y0117300D01*
X0275250Y0123550D02*
X0266250Y0114550D01*
X0273750Y0105954D02*
X0270846Y0103050D01*
X0268750Y0103050D01*
X0262250Y0096550D02*
X0255500Y0089800D01*
X0252250Y0089800D01*
X0247750Y0085300D01*
X0256250Y0081050D02*
X0257000Y0080300D01*
X0257000Y0076245D02*
X0255610Y0074855D01*
X0257000Y0076245D02*
X0262750Y0076245D01*
X0263000Y0076495D01*
X0246250Y0099050D02*
X0246250Y0115300D01*
X0246500Y0115550D01*
X0239750Y0115550D02*
X0239750Y0102300D01*
X0240250Y0101800D01*
X0275250Y0123550D02*
X0289500Y0123550D01*
X0292000Y0121050D01*
X0292000Y0119550D01*
X0293250Y0118300D01*
X0293250Y0107495D01*
X0293250Y0108495D01*
X0299500Y0114745D01*
X0285750Y0131800D02*
X0276250Y0131800D01*
X0272750Y0135300D01*
X0270250Y0140550D02*
X0278636Y0140550D01*
X0282917Y0144831D01*
X0282699Y0145050D01*
X0282917Y0146800D02*
X0279000Y0146800D01*
X0277750Y0145550D01*
X0275750Y0148800D02*
X0282886Y0148800D01*
X0282917Y0148769D01*
X0290083Y0148769D02*
X0299543Y0148769D01*
X0300500Y0147812D01*
X0295000Y0146550D02*
X0294750Y0146800D01*
X0290083Y0146800D01*
X0290083Y0144831D02*
X0290083Y0141883D01*
X0287500Y0139300D01*
X0293250Y0140550D02*
X0293250Y0136300D01*
X0293250Y0140550D02*
X0295000Y0142300D01*
X0295000Y0146550D01*
X0308738Y0136788D02*
X0312000Y0140050D01*
X0308738Y0136788D02*
X0300500Y0136788D01*
X0269524Y0148050D02*
X0269274Y0147800D01*
X0239500Y0147800D01*
X0236789Y0150839D02*
X0227500Y0141550D01*
X0228346Y0142396D01*
X0240000Y0142396D01*
X0247000Y0142146D02*
X0263620Y0142146D01*
X0269524Y0148050D01*
X0247000Y0135454D02*
X0246250Y0134704D01*
X0246250Y0130050D01*
X0240000Y0130800D02*
X0239750Y0130550D01*
X0240000Y0130800D02*
X0240000Y0135704D01*
X0236789Y0150839D02*
X0236789Y0160316D01*
X0261238Y0167050D02*
X0261500Y0167050D01*
X0267250Y0172800D01*
X0274500Y0172800D01*
X0277750Y0176050D01*
X0277750Y0179229D01*
X0277813Y0179292D01*
X0182813Y0178792D02*
X0172262Y0168241D01*
X0172262Y0167550D01*
X0161238Y0167550D02*
X0161238Y0164812D01*
X0300262Y0065050D02*
X0309500Y0065050D01*
X0308750Y0055800D02*
X0300262Y0055800D01*
X0308750Y0055800D02*
X0309500Y0055050D01*
X0239750Y0031550D02*
X0235000Y0036300D01*
X0218000Y0036300D01*
X0200500Y0053800D01*
X0190750Y0053800D01*
X0189750Y0052800D01*
X0172500Y0052800D01*
X0187596Y0036396D02*
X0189750Y0038550D01*
X0187596Y0036396D02*
X0183750Y0036396D01*
X0183750Y0029704D02*
X0186096Y0029704D01*
X0195131Y0020669D01*
X0214366Y0046800D02*
X0216154Y0047550D01*
X0222846Y0047550D02*
X0223596Y0048050D01*
D33*
X0223596Y0048050D03*
X0214366Y0046800D03*
X0189750Y0038550D03*
X0147750Y0064300D03*
X0186000Y0073050D03*
X0189000Y0077050D03*
X0148500Y0097800D03*
X0185750Y0131050D03*
X0157750Y0132550D03*
X0221250Y0166550D03*
X0240250Y0101800D03*
X0289238Y0065050D03*
X0281750Y0052300D03*
X0274750Y0048550D03*
X0289750Y0045550D03*
X0293250Y0039300D03*
X0274500Y0024550D03*
X0252000Y0050550D03*
X0256750Y0063050D03*
X0300250Y0077800D03*
X0318750Y0085550D03*
D34*
X0216750Y0071300D03*
X0151250Y0027800D03*
D35*
X0148266Y0027785D02*
X0144239Y0027785D01*
X0144239Y0027758D02*
X0144239Y0029842D01*
X0144159Y0030034D01*
X0147232Y0033107D01*
X0153218Y0033107D01*
X0154038Y0033927D01*
X0154038Y0042173D01*
X0153411Y0042800D01*
X0154038Y0043427D01*
X0154038Y0051673D01*
X0153218Y0052493D01*
X0145759Y0052493D01*
X0144939Y0051673D01*
X0144939Y0048926D01*
X0144600Y0048587D01*
X0144333Y0048320D01*
X0139480Y0048320D01*
X0139480Y0049280D01*
X0138520Y0049280D01*
X0138520Y0054433D01*
X0137680Y0054300D01*
X0136836Y0054025D01*
X0136045Y0053623D01*
X0135327Y0053101D01*
X0134699Y0052473D01*
X0134177Y0051755D01*
X0133775Y0050964D01*
X0133500Y0050120D01*
X0133367Y0049280D01*
X0138520Y0049280D01*
X0138520Y0048320D01*
X0133367Y0048320D01*
X0133500Y0047480D01*
X0133775Y0046636D01*
X0134177Y0045845D01*
X0134699Y0045127D01*
X0135327Y0044499D01*
X0136045Y0043977D01*
X0136836Y0043575D01*
X0136837Y0043574D01*
X0136033Y0043241D01*
X0134559Y0041767D01*
X0133761Y0039842D01*
X0133761Y0037758D01*
X0134559Y0035833D01*
X0136033Y0034359D01*
X0137382Y0033800D01*
X0136033Y0033241D01*
X0134559Y0031767D01*
X0133761Y0029842D01*
X0133761Y0027758D01*
X0134559Y0025833D01*
X0136033Y0024359D01*
X0137382Y0023800D01*
X0136033Y0023241D01*
X0134559Y0021767D01*
X0133761Y0019842D01*
X0133761Y0017758D01*
X0134559Y0015833D01*
X0136033Y0014359D01*
X0137865Y0013600D01*
X0126800Y0013600D01*
X0126800Y0206850D01*
X0320050Y0206850D01*
X0320050Y0088455D01*
X0319383Y0088731D01*
X0318117Y0088731D01*
X0316948Y0088247D01*
X0316053Y0087352D01*
X0315569Y0086183D01*
X0315569Y0084917D01*
X0315650Y0084721D01*
X0315650Y0018627D01*
X0314923Y0017900D01*
X0305077Y0017900D01*
X0303723Y0019254D01*
X0298100Y0024877D01*
X0298100Y0026211D01*
X0299127Y0027239D01*
X0304123Y0027239D01*
X0304774Y0027889D01*
X0304403Y0027161D01*
X0304135Y0026338D01*
X0304000Y0025483D01*
X0304000Y0025250D01*
X0309300Y0025250D01*
X0309300Y0024850D01*
X0309700Y0024850D01*
X0309700Y0025250D01*
X0315000Y0025250D01*
X0315000Y0025483D01*
X0314865Y0026338D01*
X0314597Y0027161D01*
X0314204Y0027933D01*
X0313695Y0028633D01*
X0313083Y0029245D01*
X0312383Y0029754D01*
X0311611Y0030147D01*
X0311263Y0030260D01*
X0312389Y0030726D01*
X0313824Y0032161D01*
X0314600Y0034036D01*
X0314600Y0036064D01*
X0313824Y0037939D01*
X0312389Y0039374D01*
X0310756Y0040050D01*
X0312389Y0040726D01*
X0313824Y0042161D01*
X0314600Y0044036D01*
X0314600Y0046064D01*
X0313824Y0047939D01*
X0312389Y0049374D01*
X0310756Y0050050D01*
X0312389Y0050726D01*
X0313824Y0052161D01*
X0314600Y0054036D01*
X0314600Y0056064D01*
X0313824Y0057939D01*
X0312389Y0059374D01*
X0310756Y0060050D01*
X0312389Y0060726D01*
X0313824Y0062161D01*
X0314600Y0064036D01*
X0314600Y0066064D01*
X0313824Y0067939D01*
X0312389Y0069374D01*
X0310997Y0069950D01*
X0313780Y0069950D01*
X0314600Y0070770D01*
X0314600Y0079330D01*
X0313780Y0080150D01*
X0305220Y0080150D01*
X0304400Y0079330D01*
X0304400Y0070770D01*
X0305220Y0069950D01*
X0308003Y0069950D01*
X0306611Y0069374D01*
X0305176Y0067939D01*
X0304811Y0067058D01*
X0304811Y0069173D01*
X0303991Y0069993D01*
X0296532Y0069993D01*
X0295712Y0069173D01*
X0295712Y0060927D01*
X0296214Y0060425D01*
X0295712Y0059923D01*
X0295712Y0051677D01*
X0296532Y0050857D01*
X0303991Y0050857D01*
X0304811Y0051677D01*
X0304811Y0053042D01*
X0305176Y0052161D01*
X0306611Y0050726D01*
X0308244Y0050050D01*
X0306611Y0049374D01*
X0305176Y0047939D01*
X0304699Y0046786D01*
X0304123Y0047361D01*
X0295877Y0047361D01*
X0295057Y0046541D01*
X0295057Y0041992D01*
X0295052Y0041997D01*
X0293883Y0042481D01*
X0292617Y0042481D01*
X0291448Y0041997D01*
X0290553Y0041102D01*
X0290069Y0039933D01*
X0290069Y0038667D01*
X0290553Y0037498D01*
X0291448Y0036603D01*
X0292617Y0036119D01*
X0293744Y0036119D01*
X0295057Y0034806D01*
X0295057Y0030522D01*
X0294027Y0029492D01*
X0293296Y0028761D01*
X0292900Y0027805D01*
X0292900Y0026400D01*
X0291662Y0026400D01*
X0291662Y0031256D01*
X0290842Y0032076D01*
X0285548Y0032076D01*
X0284974Y0031502D01*
X0284812Y0031781D01*
X0284477Y0032116D01*
X0284067Y0032353D01*
X0283609Y0032476D01*
X0281539Y0032476D01*
X0281539Y0028784D01*
X0281072Y0028784D01*
X0281072Y0032476D01*
X0279001Y0032476D01*
X0278543Y0032353D01*
X0278133Y0032116D01*
X0277798Y0031781D01*
X0277561Y0031371D01*
X0277438Y0030913D01*
X0277438Y0028783D01*
X0281072Y0028783D01*
X0281072Y0028317D01*
X0277438Y0028317D01*
X0277438Y0026187D01*
X0277561Y0025729D01*
X0277798Y0025319D01*
X0278133Y0024984D01*
X0278543Y0024747D01*
X0279001Y0024624D01*
X0281072Y0024624D01*
X0281072Y0028316D01*
X0281539Y0028316D01*
X0281539Y0024624D01*
X0283609Y0024624D01*
X0284067Y0024747D01*
X0284477Y0024984D01*
X0284812Y0025319D01*
X0284974Y0025598D01*
X0285548Y0025024D01*
X0285595Y0025024D01*
X0285595Y0024572D01*
X0277923Y0016900D01*
X0220077Y0016900D01*
X0213850Y0023127D01*
X0213850Y0026544D01*
X0213454Y0027499D01*
X0213415Y0027538D01*
X0213454Y0027577D01*
X0213850Y0028533D01*
X0213850Y0031879D01*
X0214190Y0032020D01*
X0215030Y0032860D01*
X0215484Y0033956D01*
X0215484Y0035144D01*
X0215030Y0036240D01*
X0214190Y0037080D01*
X0213094Y0037534D01*
X0211906Y0037534D01*
X0210810Y0037080D01*
X0209970Y0036240D01*
X0209586Y0035313D01*
X0209046Y0034773D01*
X0208650Y0033817D01*
X0208650Y0030138D01*
X0206943Y0030138D01*
X0206943Y0031268D01*
X0206123Y0032088D01*
X0197877Y0032088D01*
X0197057Y0031268D01*
X0197057Y0026272D01*
X0194636Y0023851D01*
X0187118Y0031368D01*
X0187118Y0032449D01*
X0186517Y0033050D01*
X0187118Y0033651D01*
X0187118Y0034496D01*
X0188383Y0034496D01*
X0189256Y0035369D01*
X0190383Y0035369D01*
X0191552Y0035853D01*
X0192422Y0036723D01*
X0193237Y0036386D01*
X0193265Y0036358D01*
X0194221Y0035962D01*
X0197057Y0035962D01*
X0197057Y0034832D01*
X0197877Y0034012D01*
X0206123Y0034012D01*
X0206943Y0034832D01*
X0206943Y0042291D01*
X0206123Y0043111D01*
X0197877Y0043111D01*
X0197057Y0042291D01*
X0197057Y0041162D01*
X0196359Y0041162D01*
X0195690Y0041830D01*
X0194594Y0042284D01*
X0193406Y0042284D01*
X0192310Y0041830D01*
X0191639Y0041160D01*
X0191552Y0041247D01*
X0190383Y0041731D01*
X0189117Y0041731D01*
X0187948Y0041247D01*
X0187053Y0040352D01*
X0186718Y0039542D01*
X0186298Y0039962D01*
X0181202Y0039962D01*
X0180381Y0039142D01*
X0180381Y0033651D01*
X0180983Y0033050D01*
X0180381Y0032449D01*
X0180381Y0026958D01*
X0181202Y0026138D01*
X0186298Y0026138D01*
X0186637Y0026476D01*
X0191949Y0021164D01*
X0191935Y0021150D01*
X0174811Y0021150D01*
X0174811Y0022673D01*
X0173991Y0023493D01*
X0168995Y0023493D01*
X0162485Y0030004D01*
X0161529Y0030400D01*
X0153798Y0030400D01*
X0153414Y0030784D01*
X0149086Y0030784D01*
X0148266Y0029964D01*
X0148266Y0025636D01*
X0149086Y0024816D01*
X0153414Y0024816D01*
X0153798Y0025200D01*
X0159935Y0025200D01*
X0161642Y0023493D01*
X0155509Y0023493D01*
X0154689Y0022673D01*
X0154689Y0019166D01*
X0153173Y0017650D01*
X0144194Y0017650D01*
X0144239Y0017758D01*
X0144239Y0019842D01*
X0143441Y0021767D01*
X0141967Y0023241D01*
X0140618Y0023800D01*
X0141967Y0024359D01*
X0143441Y0025833D01*
X0144239Y0027758D01*
X0144239Y0029384D02*
X0148266Y0029384D01*
X0145107Y0030982D02*
X0180381Y0030982D01*
X0180381Y0029384D02*
X0163105Y0029384D01*
X0164704Y0027785D02*
X0180381Y0027785D01*
X0181153Y0026187D02*
X0166302Y0026187D01*
X0167901Y0024588D02*
X0188525Y0024588D01*
X0190123Y0022990D02*
X0174495Y0022990D01*
X0174811Y0021391D02*
X0191722Y0021391D01*
X0196333Y0018194D02*
X0211429Y0018194D01*
X0213028Y0016596D02*
X0194734Y0016596D01*
X0194485Y0016346D02*
X0196604Y0018465D01*
X0201127Y0022989D01*
X0206123Y0022989D01*
X0206943Y0023809D01*
X0206943Y0024938D01*
X0208650Y0024938D01*
X0208650Y0021533D01*
X0209046Y0020577D01*
X0209777Y0019846D01*
X0216023Y0013600D01*
X0156477Y0013600D01*
X0156484Y0013607D01*
X0162968Y0013607D01*
X0163788Y0014427D01*
X0163788Y0021347D01*
X0165712Y0019423D01*
X0165712Y0014427D01*
X0166532Y0013607D01*
X0173991Y0013607D01*
X0174811Y0014427D01*
X0174811Y0015950D01*
X0193529Y0015950D01*
X0194485Y0016346D01*
X0197931Y0019793D02*
X0209830Y0019793D01*
X0209777Y0019846D02*
X0209777Y0019846D01*
X0208709Y0021391D02*
X0199530Y0021391D01*
X0195373Y0024588D02*
X0193899Y0024588D01*
X0192300Y0026187D02*
X0196971Y0026187D01*
X0197057Y0027785D02*
X0190702Y0027785D01*
X0189103Y0029384D02*
X0197057Y0029384D01*
X0197057Y0030982D02*
X0187505Y0030982D01*
X0186987Y0032581D02*
X0208650Y0032581D01*
X0208650Y0030982D02*
X0206943Y0030982D01*
X0206290Y0034179D02*
X0208800Y0034179D01*
X0209778Y0035778D02*
X0206943Y0035778D01*
X0206943Y0037376D02*
X0211525Y0037376D01*
X0212638Y0038975D02*
X0206943Y0038975D01*
X0206943Y0040573D02*
X0211040Y0040573D01*
X0209441Y0042172D02*
X0206943Y0042172D01*
X0207843Y0043770D02*
X0168400Y0043770D01*
X0168400Y0042172D02*
X0193135Y0042172D01*
X0194865Y0042172D02*
X0197057Y0042172D01*
X0187274Y0040573D02*
X0168210Y0040573D01*
X0168400Y0040763D02*
X0168400Y0061230D01*
X0169030Y0061860D01*
X0169484Y0062956D01*
X0169484Y0063400D01*
X0219713Y0063400D01*
X0221766Y0061347D01*
X0221766Y0060456D01*
X0222220Y0059360D01*
X0223060Y0058520D01*
X0224156Y0058066D01*
X0225344Y0058066D01*
X0226440Y0058520D01*
X0227280Y0059360D01*
X0227734Y0060456D01*
X0227734Y0061644D01*
X0227280Y0062740D01*
X0226440Y0063580D01*
X0225344Y0064034D01*
X0224453Y0064034D01*
X0221287Y0067200D01*
X0215337Y0067200D01*
X0216453Y0068316D01*
X0218914Y0068316D01*
X0219734Y0069136D01*
X0219734Y0073464D01*
X0218914Y0074284D01*
X0214586Y0074284D01*
X0213766Y0073464D01*
X0213766Y0071003D01*
X0212213Y0069450D01*
X0171037Y0069450D01*
X0168555Y0071931D01*
X0169635Y0071931D01*
X0169725Y0071841D01*
X0175609Y0071841D01*
X0176250Y0072482D01*
X0176891Y0071841D01*
X0179136Y0071841D01*
X0179827Y0071150D01*
X0183401Y0071150D01*
X0184198Y0070353D01*
X0185367Y0069869D01*
X0186633Y0069869D01*
X0187802Y0070353D01*
X0188697Y0071248D01*
X0189181Y0072417D01*
X0189181Y0073683D01*
X0189104Y0073869D01*
X0189633Y0073869D01*
X0190802Y0074353D01*
X0191697Y0075248D01*
X0192181Y0076417D01*
X0192181Y0077683D01*
X0191697Y0078852D01*
X0190802Y0079747D01*
X0189633Y0080231D01*
X0188367Y0080231D01*
X0187198Y0079747D01*
X0186469Y0079018D01*
X0185787Y0079700D01*
X0182834Y0079700D01*
X0182775Y0079759D01*
X0176891Y0079759D01*
X0176250Y0079118D01*
X0175609Y0079759D01*
X0174567Y0079759D01*
X0174567Y0084670D01*
X0171171Y0088066D01*
X0171594Y0088066D01*
X0172690Y0088520D01*
X0173530Y0089360D01*
X0173984Y0090456D01*
X0173984Y0091345D01*
X0174560Y0090770D01*
X0175656Y0090316D01*
X0176844Y0090316D01*
X0177940Y0090770D01*
X0178266Y0091095D01*
X0178266Y0090206D01*
X0178720Y0089110D01*
X0179560Y0088270D01*
X0180656Y0087816D01*
X0181844Y0087816D01*
X0182940Y0088270D01*
X0183780Y0089110D01*
X0184234Y0090206D01*
X0184234Y0091394D01*
X0184175Y0091538D01*
X0187537Y0094900D01*
X0190430Y0094900D01*
X0191060Y0094270D01*
X0192156Y0093816D01*
X0193344Y0093816D01*
X0194440Y0094270D01*
X0195280Y0095110D01*
X0195734Y0096206D01*
X0195734Y0097394D01*
X0195280Y0098490D01*
X0194620Y0099150D01*
X0199180Y0099150D01*
X0199810Y0098520D01*
X0200906Y0098066D01*
X0202094Y0098066D01*
X0203190Y0098520D01*
X0204030Y0099360D01*
X0204484Y0100456D01*
X0204484Y0101644D01*
X0204030Y0102740D01*
X0203870Y0102900D01*
X0207430Y0102900D01*
X0208060Y0102270D01*
X0209156Y0101816D01*
X0210344Y0101816D01*
X0211440Y0102270D01*
X0212280Y0103110D01*
X0212734Y0104206D01*
X0212734Y0105394D01*
X0212280Y0106490D01*
X0211440Y0107330D01*
X0210344Y0107784D01*
X0209156Y0107784D01*
X0208060Y0107330D01*
X0207430Y0106700D01*
X0188771Y0106700D01*
X0189120Y0107048D01*
X0189725Y0108509D01*
X0189725Y0110091D01*
X0189120Y0111552D01*
X0188002Y0112670D01*
X0186541Y0113275D01*
X0184959Y0113275D01*
X0183498Y0112670D01*
X0182380Y0111552D01*
X0181775Y0110091D01*
X0181775Y0108509D01*
X0182380Y0107048D01*
X0182729Y0106700D01*
X0178771Y0106700D01*
X0179120Y0107048D01*
X0179725Y0108509D01*
X0179725Y0110091D01*
X0179120Y0111552D01*
X0178002Y0112670D01*
X0176541Y0113275D01*
X0175452Y0113275D01*
X0175329Y0113397D01*
X0176456Y0114524D01*
X0178952Y0114524D01*
X0179526Y0115098D01*
X0179688Y0114819D01*
X0180023Y0114484D01*
X0180433Y0114247D01*
X0180891Y0114124D01*
X0182961Y0114124D01*
X0182961Y0117816D01*
X0183428Y0117816D01*
X0183428Y0114124D01*
X0185499Y0114124D01*
X0185957Y0114247D01*
X0186367Y0114484D01*
X0186702Y0114819D01*
X0186939Y0115229D01*
X0187062Y0115687D01*
X0187062Y0117817D01*
X0183428Y0117817D01*
X0183428Y0118283D01*
X0187062Y0118283D01*
X0187062Y0120413D01*
X0186939Y0120871D01*
X0186763Y0121175D01*
X0186939Y0121479D01*
X0187062Y0121937D01*
X0187062Y0124067D01*
X0183428Y0124067D01*
X0183428Y0124533D01*
X0187062Y0124533D01*
X0187062Y0126663D01*
X0186939Y0127121D01*
X0186702Y0127531D01*
X0186447Y0127787D01*
X0186633Y0127972D01*
X0187552Y0128353D01*
X0188349Y0129150D01*
X0191724Y0129150D01*
X0191724Y0128848D01*
X0192298Y0128274D01*
X0192019Y0128112D01*
X0191684Y0127777D01*
X0191447Y0127367D01*
X0191324Y0126909D01*
X0191324Y0124839D01*
X0195016Y0124839D01*
X0195016Y0124372D01*
X0191324Y0124372D01*
X0191324Y0122301D01*
X0191447Y0121843D01*
X0191684Y0121433D01*
X0192019Y0121098D01*
X0192429Y0120861D01*
X0192887Y0120738D01*
X0195017Y0120738D01*
X0195017Y0124372D01*
X0195483Y0124372D01*
X0195483Y0120738D01*
X0197613Y0120738D01*
X0198071Y0120861D01*
X0198481Y0121098D01*
X0198816Y0121433D01*
X0199053Y0121843D01*
X0199176Y0122301D01*
X0199176Y0124372D01*
X0195484Y0124372D01*
X0195484Y0124839D01*
X0199176Y0124839D01*
X0199176Y0126909D01*
X0199053Y0127367D01*
X0198816Y0127777D01*
X0198481Y0128112D01*
X0198202Y0128274D01*
X0198776Y0128848D01*
X0198776Y0134142D01*
X0197956Y0134962D01*
X0192544Y0134962D01*
X0191724Y0134142D01*
X0191724Y0132950D01*
X0188349Y0132950D01*
X0187650Y0133649D01*
X0187650Y0135785D01*
X0188002Y0135930D01*
X0189120Y0137048D01*
X0189725Y0138509D01*
X0189725Y0140091D01*
X0189120Y0141552D01*
X0188002Y0142670D01*
X0187928Y0142700D01*
X0213508Y0142900D01*
X0214287Y0142900D01*
X0214293Y0142906D01*
X0214302Y0142906D01*
X0214849Y0143462D01*
X0223078Y0151691D01*
X0223969Y0151691D01*
X0225065Y0152145D01*
X0225905Y0152985D01*
X0226359Y0154081D01*
X0226359Y0154972D01*
X0232421Y0161034D01*
X0232421Y0159447D01*
X0233086Y0157841D01*
X0234315Y0156612D01*
X0234889Y0156374D01*
X0234889Y0151626D01*
X0227797Y0144534D01*
X0226906Y0144534D01*
X0225810Y0144080D01*
X0224970Y0143240D01*
X0224516Y0142144D01*
X0224516Y0140956D01*
X0224970Y0139860D01*
X0225810Y0139020D01*
X0226906Y0138566D01*
X0228094Y0138566D01*
X0229190Y0139020D01*
X0230030Y0139860D01*
X0230294Y0140496D01*
X0236631Y0140496D01*
X0236631Y0139651D01*
X0237233Y0139050D01*
X0236631Y0138449D01*
X0236631Y0132958D01*
X0237285Y0132305D01*
X0237220Y0132240D01*
X0236766Y0131144D01*
X0236766Y0129956D01*
X0237220Y0128860D01*
X0238060Y0128020D01*
X0239156Y0127566D01*
X0240344Y0127566D01*
X0241440Y0128020D01*
X0242280Y0128860D01*
X0242734Y0129956D01*
X0242734Y0131144D01*
X0242322Y0132138D01*
X0242548Y0132138D01*
X0243368Y0132958D01*
X0243368Y0138449D01*
X0242767Y0139050D01*
X0243368Y0139651D01*
X0243368Y0145142D01*
X0242610Y0145900D01*
X0264687Y0145900D01*
X0262833Y0144046D01*
X0250368Y0144046D01*
X0250368Y0144892D01*
X0249548Y0145712D01*
X0244452Y0145712D01*
X0243631Y0144892D01*
X0243631Y0139401D01*
X0244233Y0138800D01*
X0243631Y0138199D01*
X0243631Y0132708D01*
X0244160Y0132180D01*
X0243720Y0131740D01*
X0243266Y0130644D01*
X0243266Y0129456D01*
X0243720Y0128360D01*
X0244560Y0127520D01*
X0245656Y0127066D01*
X0246844Y0127066D01*
X0247940Y0127520D01*
X0248780Y0128360D01*
X0249234Y0129456D01*
X0249234Y0130644D01*
X0248780Y0131740D01*
X0248632Y0131888D01*
X0249548Y0131888D01*
X0250368Y0132708D01*
X0250368Y0138199D01*
X0249767Y0138800D01*
X0250368Y0139401D01*
X0250368Y0140246D01*
X0264407Y0140246D01*
X0269226Y0145066D01*
X0270117Y0145066D01*
X0271214Y0145520D01*
X0272054Y0146360D01*
X0272508Y0147456D01*
X0272508Y0148644D01*
X0272054Y0149740D01*
X0271214Y0150580D01*
X0270117Y0151034D01*
X0268930Y0151034D01*
X0267833Y0150580D01*
X0266994Y0149740D01*
X0266977Y0149700D01*
X0241820Y0149700D01*
X0241190Y0150330D01*
X0240094Y0150784D01*
X0238906Y0150784D01*
X0238689Y0150694D01*
X0238689Y0156374D01*
X0239264Y0156612D01*
X0240493Y0157841D01*
X0241127Y0159372D01*
X0241154Y0159199D01*
X0241386Y0158485D01*
X0241727Y0157816D01*
X0242168Y0157209D01*
X0242699Y0156679D01*
X0243306Y0156237D01*
X0243975Y0155897D01*
X0244688Y0155665D01*
X0245430Y0155547D01*
X0245621Y0155547D01*
X0245621Y0160131D01*
X0245989Y0160131D01*
X0245989Y0155547D01*
X0246180Y0155547D01*
X0246922Y0155665D01*
X0247636Y0155897D01*
X0248304Y0156237D01*
X0248912Y0156679D01*
X0249442Y0157209D01*
X0249884Y0157816D01*
X0250224Y0158485D01*
X0250456Y0159199D01*
X0250574Y0159940D01*
X0250574Y0160131D01*
X0245989Y0160131D01*
X0245989Y0160500D01*
X0245621Y0160500D01*
X0245621Y0165084D01*
X0245430Y0165084D01*
X0244688Y0164967D01*
X0243975Y0164735D01*
X0243306Y0164394D01*
X0242699Y0163953D01*
X0242168Y0163422D01*
X0241727Y0162815D01*
X0241386Y0162146D01*
X0241154Y0161432D01*
X0241127Y0161260D01*
X0240493Y0162790D01*
X0239264Y0164019D01*
X0237658Y0164684D01*
X0236071Y0164684D01*
X0248287Y0176900D01*
X0249981Y0176900D01*
X0250015Y0176818D01*
X0251244Y0175589D01*
X0252850Y0174924D01*
X0254587Y0174924D01*
X0256193Y0175589D01*
X0257422Y0176818D01*
X0257734Y0177572D01*
X0258047Y0176818D01*
X0259275Y0175589D01*
X0260881Y0174924D01*
X0262619Y0174924D01*
X0264225Y0175589D01*
X0265453Y0176818D01*
X0265560Y0177074D01*
X0265703Y0176793D01*
X0266144Y0176186D01*
X0266675Y0175655D01*
X0267282Y0175214D01*
X0267951Y0174873D01*
X0268483Y0174700D01*
X0266463Y0174700D01*
X0265350Y0173587D01*
X0263756Y0171993D01*
X0257509Y0171993D01*
X0256689Y0171173D01*
X0256689Y0162927D01*
X0257509Y0162107D01*
X0263642Y0162107D01*
X0263185Y0161650D01*
X0258271Y0161650D01*
X0257344Y0162034D01*
X0256156Y0162034D01*
X0255060Y0161580D01*
X0254220Y0160740D01*
X0253766Y0159644D01*
X0253766Y0158456D01*
X0254220Y0157360D01*
X0255060Y0156520D01*
X0256156Y0156066D01*
X0257344Y0156066D01*
X0258271Y0156450D01*
X0264779Y0156450D01*
X0265735Y0156846D01*
X0270995Y0162107D01*
X0275991Y0162107D01*
X0276811Y0162927D01*
X0276811Y0164779D01*
X0276973Y0164846D01*
X0282763Y0170636D01*
X0283690Y0171020D01*
X0284530Y0171860D01*
X0284984Y0172956D01*
X0284984Y0174144D01*
X0284530Y0175240D01*
X0283690Y0176080D01*
X0282594Y0176534D01*
X0281406Y0176534D01*
X0281111Y0176412D01*
X0281516Y0176818D01*
X0282181Y0178423D01*
X0282181Y0180161D01*
X0281516Y0181767D01*
X0280288Y0182996D01*
X0278682Y0183661D01*
X0277774Y0183661D01*
X0277876Y0183801D01*
X0278216Y0184470D01*
X0278448Y0185183D01*
X0278566Y0185925D01*
X0278566Y0186116D01*
X0273982Y0186116D01*
X0273982Y0186484D01*
X0278566Y0186484D01*
X0278566Y0186675D01*
X0278448Y0187417D01*
X0278216Y0188130D01*
X0277876Y0188799D01*
X0277434Y0189406D01*
X0276904Y0189937D01*
X0276296Y0190378D01*
X0275628Y0190719D01*
X0274914Y0190951D01*
X0274173Y0191068D01*
X0273981Y0191068D01*
X0273981Y0186484D01*
X0273613Y0186484D01*
X0273613Y0191068D01*
X0273422Y0191068D01*
X0272681Y0190951D01*
X0271967Y0190719D01*
X0271298Y0190378D01*
X0270691Y0189937D01*
X0270160Y0189406D01*
X0269719Y0188799D01*
X0269575Y0188518D01*
X0269469Y0188775D01*
X0268240Y0190003D01*
X0266635Y0190668D01*
X0264897Y0190668D01*
X0263291Y0190003D01*
X0262062Y0188775D01*
X0261956Y0188518D01*
X0261813Y0188799D01*
X0261371Y0189406D01*
X0260841Y0189937D01*
X0260233Y0190378D01*
X0259565Y0190719D01*
X0258851Y0190951D01*
X0258110Y0191068D01*
X0257919Y0191068D01*
X0257919Y0186484D01*
X0257550Y0186484D01*
X0257550Y0191068D01*
X0257359Y0191068D01*
X0256618Y0190951D01*
X0255904Y0190719D01*
X0255235Y0190378D01*
X0254628Y0189937D01*
X0254097Y0189406D01*
X0254071Y0189371D01*
X0254071Y0189848D01*
X0253251Y0190668D01*
X0246154Y0190668D01*
X0245334Y0189848D01*
X0245334Y0184618D01*
X0218649Y0157933D01*
X0217758Y0157933D01*
X0216661Y0157479D01*
X0215821Y0156639D01*
X0215367Y0155542D01*
X0215367Y0154651D01*
X0213666Y0152950D01*
X0212213Y0152950D01*
X0211963Y0152700D01*
X0177713Y0152700D01*
X0176600Y0151587D01*
X0176600Y0151587D01*
X0167776Y0142763D01*
X0166541Y0143275D01*
X0164959Y0143275D01*
X0163498Y0142670D01*
X0162380Y0141552D01*
X0161775Y0140091D01*
X0161775Y0138509D01*
X0161921Y0138158D01*
X0160647Y0136884D01*
X0160647Y0133868D01*
X0160447Y0134352D01*
X0159552Y0135247D01*
X0158383Y0135731D01*
X0157521Y0135731D01*
X0158002Y0135930D01*
X0159120Y0137048D01*
X0159725Y0138509D01*
X0159725Y0140091D01*
X0159120Y0141552D01*
X0158002Y0142670D01*
X0156541Y0143275D01*
X0154959Y0143275D01*
X0153498Y0142670D01*
X0152380Y0141552D01*
X0151775Y0140091D01*
X0151775Y0138509D01*
X0152380Y0137048D01*
X0153467Y0135962D01*
X0151702Y0135962D01*
X0150881Y0135142D01*
X0150881Y0129651D01*
X0151483Y0129050D01*
X0150881Y0128449D01*
X0150881Y0122958D01*
X0151702Y0122138D01*
X0156798Y0122138D01*
X0157618Y0122958D01*
X0157618Y0123900D01*
X0161537Y0123900D01*
X0163334Y0125697D01*
X0164405Y0126768D01*
X0165096Y0126768D01*
X0165500Y0127172D01*
X0165904Y0126768D01*
X0171001Y0126768D01*
X0171821Y0127588D01*
X0171821Y0128237D01*
X0173603Y0128237D01*
X0174014Y0127826D01*
X0173658Y0127826D01*
X0172838Y0127006D01*
X0172838Y0121594D01*
X0173257Y0121175D01*
X0172838Y0120756D01*
X0172838Y0118260D01*
X0172728Y0118150D01*
X0168991Y0118150D01*
X0169146Y0118418D01*
X0169268Y0118876D01*
X0169268Y0120897D01*
X0165684Y0120897D01*
X0165684Y0121266D01*
X0165316Y0121266D01*
X0165316Y0124850D01*
X0163295Y0124850D01*
X0162837Y0124727D01*
X0162426Y0124490D01*
X0162091Y0124155D01*
X0161854Y0123745D01*
X0161731Y0123287D01*
X0161731Y0121266D01*
X0165316Y0121266D01*
X0165316Y0120897D01*
X0161731Y0120897D01*
X0161731Y0118876D01*
X0161854Y0118418D01*
X0162009Y0118150D01*
X0159827Y0118150D01*
X0157723Y0120254D01*
X0156767Y0120650D01*
X0156021Y0120650D01*
X0155094Y0121034D01*
X0153906Y0121034D01*
X0152810Y0120580D01*
X0151970Y0119740D01*
X0151516Y0118644D01*
X0151516Y0117456D01*
X0151970Y0116360D01*
X0152810Y0115520D01*
X0153906Y0115066D01*
X0155094Y0115066D01*
X0155421Y0115202D01*
X0156546Y0114077D01*
X0157277Y0113346D01*
X0158233Y0112950D01*
X0163331Y0112950D01*
X0162900Y0112637D01*
X0162413Y0112150D01*
X0162008Y0111593D01*
X0161696Y0110979D01*
X0161483Y0110324D01*
X0161375Y0109644D01*
X0161375Y0109300D01*
X0165750Y0109300D01*
X0170125Y0109300D01*
X0170125Y0109644D01*
X0170017Y0110324D01*
X0169804Y0110979D01*
X0169492Y0111593D01*
X0169087Y0112150D01*
X0168600Y0112637D01*
X0168169Y0112950D01*
X0168423Y0112950D01*
X0171775Y0109598D01*
X0171775Y0108509D01*
X0172380Y0107048D01*
X0173096Y0106333D01*
X0170463Y0103700D01*
X0169350Y0102587D01*
X0169350Y0100367D01*
X0168344Y0100784D01*
X0167156Y0100784D01*
X0166060Y0100330D01*
X0165220Y0099490D01*
X0164766Y0098394D01*
X0164766Y0097503D01*
X0164600Y0097337D01*
X0164600Y0089387D01*
X0162900Y0091087D01*
X0162900Y0098480D01*
X0163530Y0099110D01*
X0163984Y0100206D01*
X0163984Y0101394D01*
X0163530Y0102490D01*
X0162690Y0103330D01*
X0161594Y0103784D01*
X0160406Y0103784D01*
X0159310Y0103330D01*
X0158470Y0102490D01*
X0158016Y0101394D01*
X0158016Y0100206D01*
X0158470Y0099110D01*
X0159100Y0098480D01*
X0159100Y0089513D01*
X0160213Y0088400D01*
X0163350Y0085263D01*
X0163350Y0081387D01*
X0157900Y0086837D01*
X0157900Y0105888D01*
X0158002Y0105930D01*
X0159120Y0107048D01*
X0159725Y0108509D01*
X0159725Y0110091D01*
X0159120Y0111552D01*
X0158002Y0112670D01*
X0156541Y0113275D01*
X0154959Y0113275D01*
X0153498Y0112670D01*
X0152380Y0111552D01*
X0151775Y0110091D01*
X0151775Y0108509D01*
X0152380Y0107048D01*
X0153498Y0105930D01*
X0154100Y0105681D01*
X0154100Y0085263D01*
X0155213Y0084150D01*
X0163413Y0075950D01*
X0156463Y0075950D01*
X0155350Y0074837D01*
X0155350Y0074837D01*
X0153245Y0072731D01*
X0153244Y0072731D01*
X0152131Y0071618D01*
X0152131Y0068415D01*
X0152041Y0068325D01*
X0152041Y0062441D01*
X0152131Y0062350D01*
X0152131Y0061250D01*
X0152041Y0061159D01*
X0152041Y0055275D01*
X0152861Y0054455D01*
X0154264Y0054455D01*
X0154304Y0054415D01*
X0154715Y0054178D01*
X0155172Y0054055D01*
X0156000Y0054055D01*
X0156828Y0054055D01*
X0157285Y0054178D01*
X0157696Y0054415D01*
X0157736Y0054455D01*
X0158612Y0054455D01*
X0158612Y0052493D01*
X0156782Y0052493D01*
X0155962Y0051673D01*
X0155962Y0043427D01*
X0156589Y0042800D01*
X0155962Y0042173D01*
X0155962Y0033927D01*
X0156782Y0033107D01*
X0164241Y0033107D01*
X0165061Y0033927D01*
X0165061Y0037424D01*
X0167287Y0039650D01*
X0168400Y0040763D01*
X0166612Y0038975D02*
X0180381Y0038975D01*
X0180381Y0037376D02*
X0165061Y0037376D01*
X0165061Y0035778D02*
X0180381Y0035778D01*
X0180381Y0034179D02*
X0165061Y0034179D01*
X0155962Y0034179D02*
X0154038Y0034179D01*
X0154038Y0035778D02*
X0155962Y0035778D01*
X0155962Y0037376D02*
X0154038Y0037376D01*
X0154038Y0038975D02*
X0155962Y0038975D01*
X0155962Y0040573D02*
X0154038Y0040573D01*
X0154038Y0042172D02*
X0155962Y0042172D01*
X0155962Y0043770D02*
X0154038Y0043770D01*
X0154038Y0045369D02*
X0155962Y0045369D01*
X0155962Y0046967D02*
X0154038Y0046967D01*
X0154038Y0048566D02*
X0155962Y0048566D01*
X0155962Y0050164D02*
X0154038Y0050164D01*
X0153948Y0051763D02*
X0156052Y0051763D01*
X0156000Y0054055D02*
X0156000Y0055253D01*
X0156000Y0055253D01*
X0156000Y0055253D01*
X0156000Y0054055D01*
X0156000Y0054960D02*
X0156000Y0054960D01*
X0158612Y0053361D02*
X0142315Y0053361D01*
X0142673Y0053101D02*
X0141955Y0053623D01*
X0141164Y0054025D01*
X0140320Y0054300D01*
X0139480Y0054433D01*
X0139480Y0049280D01*
X0144633Y0049280D01*
X0144500Y0050120D01*
X0144225Y0050964D01*
X0143823Y0051755D01*
X0143301Y0052473D01*
X0142673Y0053101D01*
X0143817Y0051763D02*
X0145028Y0051763D01*
X0144939Y0050164D02*
X0144485Y0050164D01*
X0144579Y0048566D02*
X0139480Y0048566D01*
X0138520Y0048566D02*
X0126800Y0048566D01*
X0126800Y0050164D02*
X0133515Y0050164D01*
X0134183Y0051763D02*
X0126800Y0051763D01*
X0126800Y0053361D02*
X0135685Y0053361D01*
X0138520Y0053361D02*
X0139480Y0053361D01*
X0139480Y0051763D02*
X0138520Y0051763D01*
X0138520Y0050164D02*
X0139480Y0050164D01*
X0133667Y0046967D02*
X0126800Y0046967D01*
X0126800Y0045369D02*
X0134523Y0045369D01*
X0136451Y0043770D02*
X0126800Y0043770D01*
X0126800Y0042172D02*
X0134963Y0042172D01*
X0134064Y0040573D02*
X0126800Y0040573D01*
X0126800Y0038975D02*
X0133761Y0038975D01*
X0133920Y0037376D02*
X0126800Y0037376D01*
X0126800Y0035778D02*
X0134614Y0035778D01*
X0136467Y0034179D02*
X0126800Y0034179D01*
X0126800Y0032581D02*
X0135372Y0032581D01*
X0134234Y0030982D02*
X0126800Y0030982D01*
X0126800Y0029384D02*
X0133761Y0029384D01*
X0133761Y0027785D02*
X0126800Y0027785D01*
X0126800Y0026187D02*
X0134412Y0026187D01*
X0135803Y0024588D02*
X0126800Y0024588D01*
X0126800Y0022990D02*
X0135781Y0022990D01*
X0134403Y0021391D02*
X0126800Y0021391D01*
X0126800Y0019793D02*
X0133761Y0019793D01*
X0133761Y0018194D02*
X0126800Y0018194D01*
X0126800Y0016596D02*
X0134243Y0016596D01*
X0135395Y0014997D02*
X0126800Y0014997D01*
X0142219Y0022990D02*
X0155005Y0022990D01*
X0154689Y0021391D02*
X0143597Y0021391D01*
X0144239Y0019793D02*
X0154689Y0019793D01*
X0153717Y0018194D02*
X0144239Y0018194D01*
X0142197Y0024588D02*
X0160547Y0024588D01*
X0163788Y0019793D02*
X0165342Y0019793D01*
X0165712Y0018194D02*
X0163788Y0018194D01*
X0163788Y0016596D02*
X0165712Y0016596D01*
X0165712Y0014997D02*
X0163788Y0014997D01*
X0174811Y0014997D02*
X0214626Y0014997D01*
X0218783Y0018194D02*
X0279217Y0018194D01*
X0280816Y0019793D02*
X0217184Y0019793D01*
X0215586Y0021391D02*
X0273814Y0021391D01*
X0273867Y0021369D02*
X0275133Y0021369D01*
X0276302Y0021853D01*
X0277197Y0022748D01*
X0277681Y0023917D01*
X0277681Y0025183D01*
X0277197Y0026352D01*
X0276302Y0027247D01*
X0275133Y0027731D01*
X0274006Y0027731D01*
X0269400Y0032337D01*
X0268287Y0033450D01*
X0253355Y0033450D01*
X0252356Y0034450D01*
X0250665Y0035150D01*
X0248835Y0035150D01*
X0248129Y0034858D01*
X0246900Y0036087D01*
X0246900Y0037440D01*
X0247129Y0037274D01*
X0247831Y0036916D01*
X0248579Y0036673D01*
X0249356Y0036550D01*
X0249664Y0036550D01*
X0249664Y0041464D01*
X0249836Y0041464D01*
X0249836Y0041636D01*
X0249664Y0041636D01*
X0249664Y0046550D01*
X0249356Y0046550D01*
X0248579Y0046427D01*
X0247831Y0046184D01*
X0247129Y0045826D01*
X0246900Y0045660D01*
X0246900Y0049490D01*
X0247412Y0050002D01*
X0247412Y0055098D01*
X0246592Y0055918D01*
X0241101Y0055918D01*
X0240500Y0055317D01*
X0239899Y0055918D01*
X0235318Y0055918D01*
X0234182Y0057055D01*
X0239473Y0062346D01*
X0240204Y0063077D01*
X0240600Y0064033D01*
X0240600Y0070067D01*
X0240204Y0071023D01*
X0240164Y0071063D01*
X0239861Y0071794D01*
X0240323Y0072255D01*
X0253277Y0072255D01*
X0253197Y0072117D01*
X0253074Y0071659D01*
X0253074Y0069589D01*
X0256766Y0069589D01*
X0256766Y0069122D01*
X0253074Y0069122D01*
X0253074Y0067051D01*
X0253197Y0066593D01*
X0253434Y0066183D01*
X0253769Y0065848D01*
X0254179Y0065611D01*
X0254637Y0065488D01*
X0254689Y0065488D01*
X0254053Y0064852D01*
X0253569Y0063683D01*
X0253569Y0062417D01*
X0254053Y0061248D01*
X0254948Y0060353D01*
X0256117Y0059869D01*
X0257383Y0059869D01*
X0258169Y0060194D01*
X0260867Y0057496D01*
X0275881Y0057496D01*
X0275881Y0056651D01*
X0276483Y0056050D01*
X0275881Y0055449D01*
X0275881Y0051524D01*
X0275383Y0051731D01*
X0274256Y0051731D01*
X0273537Y0052450D01*
X0254599Y0052450D01*
X0253802Y0053247D01*
X0252633Y0053731D01*
X0251367Y0053731D01*
X0250198Y0053247D01*
X0249303Y0052352D01*
X0248819Y0051183D01*
X0248819Y0049917D01*
X0249303Y0048748D01*
X0250198Y0047853D01*
X0251367Y0047369D01*
X0252633Y0047369D01*
X0253802Y0047853D01*
X0254599Y0048650D01*
X0271569Y0048650D01*
X0271569Y0047917D01*
X0272053Y0046748D01*
X0272948Y0045853D01*
X0274117Y0045369D01*
X0275383Y0045369D01*
X0276552Y0045853D01*
X0277447Y0046748D01*
X0277931Y0047917D01*
X0277931Y0049138D01*
X0281071Y0049138D01*
X0281117Y0049119D01*
X0282383Y0049119D01*
X0283552Y0049603D01*
X0284447Y0050498D01*
X0284863Y0051503D01*
X0285509Y0050857D01*
X0286100Y0050857D01*
X0286100Y0046513D01*
X0286569Y0046044D01*
X0286569Y0044917D01*
X0287053Y0043748D01*
X0287948Y0042853D01*
X0289117Y0042369D01*
X0290383Y0042369D01*
X0291552Y0042853D01*
X0292447Y0043748D01*
X0292931Y0044917D01*
X0292931Y0046183D01*
X0292447Y0047352D01*
X0291552Y0048247D01*
X0290383Y0048731D01*
X0289900Y0048731D01*
X0289900Y0050857D01*
X0292968Y0050857D01*
X0293788Y0051677D01*
X0293788Y0059923D01*
X0293286Y0060425D01*
X0293788Y0060927D01*
X0293788Y0069173D01*
X0292968Y0069993D01*
X0285509Y0069993D01*
X0284689Y0069173D01*
X0284689Y0060927D01*
X0285190Y0060425D01*
X0284689Y0059923D01*
X0284689Y0053518D01*
X0284447Y0054102D01*
X0283552Y0054997D01*
X0282618Y0055383D01*
X0282618Y0055449D01*
X0282017Y0056050D01*
X0282618Y0056651D01*
X0282618Y0062142D01*
X0281798Y0062962D01*
X0276702Y0062962D01*
X0275881Y0062142D01*
X0275881Y0061296D01*
X0262441Y0061296D01*
X0259900Y0063837D01*
X0259844Y0063893D01*
X0259447Y0064852D01*
X0258811Y0065488D01*
X0259363Y0065488D01*
X0259821Y0065611D01*
X0260230Y0065847D01*
X0260637Y0065738D01*
X0262767Y0065738D01*
X0262767Y0069372D01*
X0263233Y0069372D01*
X0263233Y0065738D01*
X0265363Y0065738D01*
X0265821Y0065861D01*
X0266231Y0066098D01*
X0266566Y0066433D01*
X0266803Y0066843D01*
X0266926Y0067301D01*
X0266926Y0069372D01*
X0263234Y0069372D01*
X0263234Y0069839D01*
X0266926Y0069839D01*
X0266926Y0071909D01*
X0266803Y0072367D01*
X0266566Y0072777D01*
X0266231Y0073112D01*
X0265952Y0073274D01*
X0266526Y0073848D01*
X0266526Y0079142D01*
X0265706Y0079962D01*
X0260294Y0079962D01*
X0259875Y0079543D01*
X0259706Y0079712D01*
X0259600Y0079712D01*
X0259600Y0080817D01*
X0259204Y0081773D01*
X0259164Y0081813D01*
X0258780Y0082740D01*
X0257940Y0083580D01*
X0256844Y0084034D01*
X0255656Y0084034D01*
X0254560Y0083580D01*
X0253720Y0082740D01*
X0253266Y0081644D01*
X0253266Y0080456D01*
X0253720Y0079360D01*
X0253831Y0079249D01*
X0253474Y0078892D01*
X0253474Y0077455D01*
X0240526Y0077455D01*
X0240526Y0077752D01*
X0239952Y0078326D01*
X0240231Y0078488D01*
X0240566Y0078823D01*
X0240803Y0079233D01*
X0240926Y0079691D01*
X0240926Y0081761D01*
X0237234Y0081761D01*
X0237234Y0082228D01*
X0240926Y0082228D01*
X0240926Y0084299D01*
X0240803Y0084757D01*
X0240566Y0085167D01*
X0240231Y0085502D01*
X0239821Y0085739D01*
X0239363Y0085862D01*
X0237233Y0085862D01*
X0237233Y0082228D01*
X0236767Y0082228D01*
X0236767Y0085862D01*
X0234791Y0085862D01*
X0234571Y0085989D01*
X0234113Y0086112D01*
X0231983Y0086112D01*
X0231983Y0082478D01*
X0231517Y0082478D01*
X0231517Y0086112D01*
X0229387Y0086112D01*
X0228929Y0085989D01*
X0228519Y0085752D01*
X0228184Y0085417D01*
X0227947Y0085007D01*
X0227824Y0084549D01*
X0227824Y0082478D01*
X0231516Y0082478D01*
X0231516Y0082011D01*
X0227824Y0082011D01*
X0227824Y0079941D01*
X0227947Y0079483D01*
X0228184Y0079073D01*
X0228519Y0078738D01*
X0228798Y0078576D01*
X0228224Y0078002D01*
X0228224Y0072708D01*
X0229044Y0071888D01*
X0234044Y0071888D01*
X0234294Y0071638D01*
X0234574Y0071638D01*
X0234266Y0070894D01*
X0234266Y0069706D01*
X0234720Y0068610D01*
X0235400Y0067930D01*
X0235400Y0065627D01*
X0228796Y0059023D01*
X0227546Y0057773D01*
X0227150Y0056817D01*
X0227150Y0045452D01*
X0227144Y0045450D01*
X0225850Y0044156D01*
X0225150Y0042465D01*
X0225150Y0040635D01*
X0225850Y0038944D01*
X0226595Y0038200D01*
X0218787Y0038200D01*
X0213110Y0043877D01*
X0213733Y0043619D01*
X0214999Y0043619D01*
X0216168Y0044103D01*
X0216246Y0044181D01*
X0218899Y0044181D01*
X0219500Y0044783D01*
X0220101Y0044181D01*
X0225592Y0044181D01*
X0226412Y0045002D01*
X0226412Y0046534D01*
X0226778Y0047417D01*
X0226778Y0048683D01*
X0226412Y0049566D01*
X0226412Y0050098D01*
X0225592Y0050918D01*
X0224984Y0050918D01*
X0224229Y0051231D01*
X0222964Y0051231D01*
X0222209Y0050918D01*
X0220101Y0050918D01*
X0219500Y0050317D01*
X0218899Y0050918D01*
X0213408Y0050918D01*
X0212588Y0050098D01*
X0212588Y0049507D01*
X0212564Y0049497D01*
X0211669Y0048602D01*
X0211185Y0047433D01*
X0211185Y0046167D01*
X0211443Y0045544D01*
X0201287Y0055700D01*
X0193070Y0055700D01*
X0192440Y0056330D01*
X0191344Y0056784D01*
X0190156Y0056784D01*
X0189060Y0056330D01*
X0188220Y0055490D01*
X0187893Y0054700D01*
X0174820Y0054700D01*
X0174190Y0055330D01*
X0173094Y0055784D01*
X0171906Y0055784D01*
X0170810Y0055330D01*
X0169970Y0054490D01*
X0169516Y0053394D01*
X0169516Y0052206D01*
X0169970Y0051110D01*
X0170810Y0050270D01*
X0171906Y0049816D01*
X0173094Y0049816D01*
X0174190Y0050270D01*
X0174820Y0050900D01*
X0189953Y0050900D01*
X0190156Y0050816D01*
X0191344Y0050816D01*
X0192440Y0051270D01*
X0193070Y0051900D01*
X0199713Y0051900D01*
X0216100Y0035513D01*
X0217213Y0034400D01*
X0227095Y0034400D01*
X0225850Y0033156D01*
X0225150Y0031465D01*
X0225150Y0029635D01*
X0225850Y0027944D01*
X0227144Y0026650D01*
X0228835Y0025950D01*
X0230665Y0025950D01*
X0232356Y0026650D01*
X0233650Y0027944D01*
X0234350Y0029635D01*
X0234350Y0031465D01*
X0233650Y0033156D01*
X0232405Y0034400D01*
X0234213Y0034400D01*
X0235442Y0033171D01*
X0235150Y0032465D01*
X0235150Y0030635D01*
X0235850Y0028944D01*
X0237144Y0027650D01*
X0238835Y0026950D01*
X0240665Y0026950D01*
X0242356Y0027650D01*
X0243650Y0028944D01*
X0244350Y0030635D01*
X0244350Y0032465D01*
X0243786Y0033827D01*
X0245442Y0032171D01*
X0245150Y0031465D01*
X0245150Y0029635D01*
X0245850Y0027944D01*
X0247144Y0026650D01*
X0248835Y0025950D01*
X0250665Y0025950D01*
X0252356Y0026650D01*
X0253650Y0027944D01*
X0254350Y0029635D01*
X0254350Y0029650D01*
X0266713Y0029650D01*
X0271319Y0025044D01*
X0271319Y0023917D01*
X0271803Y0022748D01*
X0272698Y0021853D01*
X0273867Y0021369D01*
X0275186Y0021391D02*
X0282414Y0021391D01*
X0284013Y0022990D02*
X0277297Y0022990D01*
X0277681Y0024588D02*
X0285595Y0024588D01*
X0281539Y0026187D02*
X0281072Y0026187D01*
X0281072Y0027785D02*
X0281539Y0027785D01*
X0281539Y0029384D02*
X0281072Y0029384D01*
X0281072Y0030982D02*
X0281539Y0030982D01*
X0277457Y0030982D02*
X0270755Y0030982D01*
X0272353Y0029384D02*
X0277438Y0029384D01*
X0277438Y0027785D02*
X0273952Y0027785D01*
X0277265Y0026187D02*
X0277438Y0026187D01*
X0271319Y0024588D02*
X0213850Y0024588D01*
X0213850Y0026187D02*
X0228264Y0026187D01*
X0226009Y0027785D02*
X0213540Y0027785D01*
X0213850Y0029384D02*
X0225254Y0029384D01*
X0225150Y0030982D02*
X0213850Y0030982D01*
X0214751Y0032581D02*
X0225612Y0032581D01*
X0226874Y0034179D02*
X0215484Y0034179D01*
X0215222Y0035778D02*
X0215835Y0035778D01*
X0214237Y0037376D02*
X0213475Y0037376D01*
X0216414Y0040573D02*
X0225176Y0040573D01*
X0225150Y0042172D02*
X0214815Y0042172D01*
X0215364Y0043770D02*
X0225691Y0043770D01*
X0226412Y0045369D02*
X0227063Y0045369D01*
X0227150Y0046967D02*
X0226591Y0046967D01*
X0226778Y0048566D02*
X0227150Y0048566D01*
X0227150Y0050164D02*
X0226346Y0050164D01*
X0227150Y0051763D02*
X0205224Y0051763D01*
X0203626Y0053361D02*
X0227150Y0053361D01*
X0227150Y0054960D02*
X0202027Y0054960D01*
X0199850Y0051763D02*
X0192933Y0051763D01*
X0191889Y0056558D02*
X0227150Y0056558D01*
X0227930Y0058157D02*
X0225563Y0058157D01*
X0223936Y0058157D02*
X0168400Y0058157D01*
X0168400Y0059755D02*
X0222056Y0059755D01*
X0221759Y0061354D02*
X0168524Y0061354D01*
X0169483Y0062952D02*
X0220161Y0062952D01*
X0223936Y0064551D02*
X0234324Y0064551D01*
X0235400Y0066149D02*
X0222338Y0066149D01*
X0219734Y0069346D02*
X0234415Y0069346D01*
X0234287Y0070945D02*
X0219734Y0070945D01*
X0219734Y0072543D02*
X0228389Y0072543D01*
X0228224Y0074142D02*
X0219056Y0074142D01*
X0214444Y0074142D02*
X0190292Y0074142D01*
X0189181Y0072543D02*
X0213766Y0072543D01*
X0213708Y0070945D02*
X0188394Y0070945D01*
X0183606Y0070945D02*
X0169542Y0070945D01*
X0163516Y0063629D02*
X0163516Y0062956D01*
X0163970Y0061860D01*
X0164600Y0061230D01*
X0164600Y0052135D01*
X0164241Y0052493D01*
X0162412Y0052493D01*
X0162412Y0062525D01*
X0163516Y0063629D01*
X0163517Y0062952D02*
X0162839Y0062952D01*
X0162412Y0061354D02*
X0164476Y0061354D01*
X0164600Y0059755D02*
X0162412Y0059755D01*
X0162412Y0058157D02*
X0164600Y0058157D01*
X0164600Y0056558D02*
X0162412Y0056558D01*
X0162412Y0054960D02*
X0164600Y0054960D01*
X0164600Y0053361D02*
X0162412Y0053361D01*
X0168400Y0053361D02*
X0169516Y0053361D01*
X0169699Y0051763D02*
X0168400Y0051763D01*
X0168400Y0050164D02*
X0171065Y0050164D01*
X0173935Y0050164D02*
X0201449Y0050164D01*
X0203047Y0048566D02*
X0168400Y0048566D01*
X0168400Y0046967D02*
X0204646Y0046967D01*
X0206244Y0045369D02*
X0168400Y0045369D01*
X0168400Y0054960D02*
X0170439Y0054960D01*
X0168400Y0056558D02*
X0189611Y0056558D01*
X0188000Y0054960D02*
X0174561Y0054960D01*
X0152356Y0054960D02*
X0126800Y0054960D01*
X0126800Y0056558D02*
X0152041Y0056558D01*
X0152041Y0058157D02*
X0126800Y0058157D01*
X0126800Y0059755D02*
X0152041Y0059755D01*
X0152131Y0061354D02*
X0126800Y0061354D01*
X0126800Y0062952D02*
X0152041Y0062952D01*
X0152041Y0064551D02*
X0126800Y0064551D01*
X0126800Y0066149D02*
X0152041Y0066149D01*
X0152041Y0067748D02*
X0144524Y0067748D01*
X0144384Y0067608D02*
X0145692Y0068916D01*
X0146400Y0070625D01*
X0146400Y0072475D01*
X0145692Y0074184D01*
X0144384Y0075492D01*
X0142675Y0076200D01*
X0141095Y0076200D01*
X0141095Y0078024D01*
X0141842Y0078024D01*
X0142662Y0078844D01*
X0142662Y0084256D01*
X0141842Y0085076D01*
X0136548Y0085076D01*
X0135974Y0084502D01*
X0135812Y0084781D01*
X0135477Y0085116D01*
X0135067Y0085353D01*
X0134609Y0085476D01*
X0132539Y0085476D01*
X0132539Y0081784D01*
X0132072Y0081784D01*
X0132072Y0085476D01*
X0130001Y0085476D01*
X0129543Y0085353D01*
X0129133Y0085116D01*
X0128798Y0084781D01*
X0128561Y0084371D01*
X0128438Y0083913D01*
X0128438Y0081783D01*
X0132072Y0081783D01*
X0132072Y0081317D01*
X0128438Y0081317D01*
X0128438Y0079187D01*
X0128561Y0078729D01*
X0128798Y0078319D01*
X0129133Y0077984D01*
X0129543Y0077747D01*
X0130001Y0077624D01*
X0132072Y0077624D01*
X0132072Y0081316D01*
X0132539Y0081316D01*
X0132539Y0077624D01*
X0134609Y0077624D01*
X0135067Y0077747D01*
X0135477Y0077984D01*
X0135812Y0078319D01*
X0135974Y0078598D01*
X0136548Y0078024D01*
X0137295Y0078024D01*
X0137295Y0073318D01*
X0137404Y0073209D01*
X0137100Y0072475D01*
X0137100Y0070625D01*
X0137808Y0068916D01*
X0139116Y0067608D01*
X0140825Y0066900D01*
X0142675Y0066900D01*
X0144384Y0067608D01*
X0145870Y0069346D02*
X0152131Y0069346D01*
X0152131Y0070945D02*
X0146400Y0070945D01*
X0146372Y0072543D02*
X0153056Y0072543D01*
X0154655Y0074142D02*
X0145709Y0074142D01*
X0143784Y0075740D02*
X0156253Y0075740D01*
X0162024Y0077339D02*
X0141095Y0077339D01*
X0142662Y0078937D02*
X0160426Y0078937D01*
X0158827Y0080536D02*
X0142662Y0080536D01*
X0142662Y0082134D02*
X0157228Y0082134D01*
X0155630Y0083733D02*
X0142662Y0083733D01*
X0142675Y0086900D02*
X0140825Y0086900D01*
X0139116Y0087608D01*
X0137808Y0088916D01*
X0137100Y0090625D01*
X0137100Y0092475D01*
X0137808Y0094184D01*
X0139116Y0095492D01*
X0140825Y0096200D01*
X0142675Y0096200D01*
X0144384Y0095492D01*
X0145692Y0094184D01*
X0146400Y0092475D01*
X0146400Y0090625D01*
X0145692Y0088916D01*
X0144384Y0087608D01*
X0142675Y0086900D01*
X0142747Y0086930D02*
X0154100Y0086930D01*
X0154100Y0085332D02*
X0135105Y0085332D01*
X0132539Y0085332D02*
X0132072Y0085332D01*
X0132072Y0083733D02*
X0132539Y0083733D01*
X0132539Y0082134D02*
X0132072Y0082134D01*
X0132072Y0080536D02*
X0132539Y0080536D01*
X0132539Y0078937D02*
X0132072Y0078937D01*
X0128505Y0078937D02*
X0126800Y0078937D01*
X0126800Y0077339D02*
X0137295Y0077339D01*
X0137295Y0075740D02*
X0126800Y0075740D01*
X0126800Y0074142D02*
X0137295Y0074142D01*
X0137128Y0072543D02*
X0126800Y0072543D01*
X0126800Y0070945D02*
X0137100Y0070945D01*
X0137630Y0069346D02*
X0126800Y0069346D01*
X0126800Y0067748D02*
X0138976Y0067748D01*
X0128438Y0080536D02*
X0126800Y0080536D01*
X0126800Y0082134D02*
X0128438Y0082134D01*
X0128438Y0083733D02*
X0126800Y0083733D01*
X0126800Y0085332D02*
X0129506Y0085332D01*
X0126800Y0086930D02*
X0140753Y0086930D01*
X0138195Y0088529D02*
X0126800Y0088529D01*
X0126800Y0090127D02*
X0137306Y0090127D01*
X0137100Y0091726D02*
X0126800Y0091726D01*
X0126800Y0093324D02*
X0137452Y0093324D01*
X0138547Y0094923D02*
X0126800Y0094923D01*
X0126800Y0096521D02*
X0154100Y0096521D01*
X0154100Y0094923D02*
X0144953Y0094923D01*
X0146048Y0093324D02*
X0154100Y0093324D01*
X0154100Y0091726D02*
X0146400Y0091726D01*
X0146194Y0090127D02*
X0154100Y0090127D01*
X0154100Y0088529D02*
X0145305Y0088529D01*
X0157900Y0088529D02*
X0160084Y0088529D01*
X0159100Y0090127D02*
X0157900Y0090127D01*
X0157900Y0091726D02*
X0159100Y0091726D01*
X0159100Y0093324D02*
X0157900Y0093324D01*
X0157900Y0094923D02*
X0159100Y0094923D01*
X0159100Y0096521D02*
X0157900Y0096521D01*
X0157900Y0098120D02*
X0159100Y0098120D01*
X0158218Y0099718D02*
X0157900Y0099718D01*
X0157900Y0101317D02*
X0158016Y0101317D01*
X0157900Y0102915D02*
X0158895Y0102915D01*
X0157900Y0104514D02*
X0171277Y0104514D01*
X0172875Y0106112D02*
X0168749Y0106112D01*
X0168600Y0105963D02*
X0169087Y0106450D01*
X0169492Y0107007D01*
X0169804Y0107621D01*
X0170017Y0108276D01*
X0170125Y0108956D01*
X0170125Y0109300D01*
X0165750Y0109300D01*
X0165750Y0109300D01*
X0165750Y0109300D01*
X0165750Y0104925D01*
X0166094Y0104925D01*
X0166774Y0105033D01*
X0167429Y0105246D01*
X0168043Y0105558D01*
X0168600Y0105963D01*
X0169834Y0107711D02*
X0172106Y0107711D01*
X0171775Y0109309D02*
X0170125Y0109309D01*
X0169828Y0110908D02*
X0170465Y0110908D01*
X0168867Y0112506D02*
X0168731Y0112506D01*
X0165750Y0109300D02*
X0165750Y0109300D01*
X0161375Y0109300D01*
X0161375Y0108956D01*
X0161483Y0108276D01*
X0161696Y0107621D01*
X0162008Y0107007D01*
X0162413Y0106450D01*
X0162900Y0105963D01*
X0163457Y0105558D01*
X0164071Y0105246D01*
X0164726Y0105033D01*
X0165406Y0104925D01*
X0165750Y0104925D01*
X0165750Y0109300D01*
X0165750Y0107711D02*
X0165750Y0107711D01*
X0165750Y0106112D02*
X0165750Y0106112D01*
X0162751Y0106112D02*
X0158183Y0106112D01*
X0159394Y0107711D02*
X0161666Y0107711D01*
X0161375Y0109309D02*
X0159725Y0109309D01*
X0159386Y0110908D02*
X0161672Y0110908D01*
X0162769Y0112506D02*
X0158165Y0112506D01*
X0156518Y0114105D02*
X0126800Y0114105D01*
X0126800Y0115703D02*
X0152626Y0115703D01*
X0151580Y0117302D02*
X0126800Y0117302D01*
X0126800Y0118900D02*
X0151622Y0118900D01*
X0152728Y0120499D02*
X0126800Y0120499D01*
X0126800Y0122097D02*
X0161731Y0122097D01*
X0161731Y0120499D02*
X0157132Y0120499D01*
X0159077Y0118900D02*
X0161731Y0118900D01*
X0165684Y0121266D02*
X0165684Y0124850D01*
X0167705Y0124850D01*
X0168163Y0124727D01*
X0168574Y0124490D01*
X0168909Y0124155D01*
X0169146Y0123745D01*
X0169268Y0123287D01*
X0169268Y0121266D01*
X0165684Y0121266D01*
X0165684Y0122097D02*
X0165316Y0122097D01*
X0165316Y0123696D02*
X0165684Y0123696D01*
X0162931Y0125294D02*
X0172838Y0125294D01*
X0172838Y0123696D02*
X0169159Y0123696D01*
X0169268Y0122097D02*
X0172838Y0122097D01*
X0172838Y0120499D02*
X0169268Y0120499D01*
X0169268Y0118900D02*
X0172838Y0118900D01*
X0176037Y0114105D02*
X0237119Y0114105D01*
X0237220Y0113860D02*
X0237850Y0113230D01*
X0237850Y0103899D01*
X0237553Y0103602D01*
X0237069Y0102433D01*
X0237069Y0101167D01*
X0237553Y0099998D01*
X0238448Y0099103D01*
X0239617Y0098619D01*
X0240883Y0098619D01*
X0242052Y0099103D01*
X0242947Y0099998D01*
X0243431Y0101167D01*
X0243431Y0102433D01*
X0242947Y0103602D01*
X0242052Y0104497D01*
X0241650Y0104663D01*
X0241650Y0113230D01*
X0242280Y0113860D01*
X0242734Y0114956D01*
X0242734Y0116144D01*
X0242280Y0117240D01*
X0241440Y0118080D01*
X0240344Y0118534D01*
X0239156Y0118534D01*
X0238060Y0118080D01*
X0237220Y0117240D01*
X0236766Y0116144D01*
X0236766Y0114956D01*
X0237220Y0113860D01*
X0237850Y0112506D02*
X0188165Y0112506D01*
X0189386Y0110908D02*
X0237850Y0110908D01*
X0237850Y0109309D02*
X0189725Y0109309D01*
X0189394Y0107711D02*
X0208979Y0107711D01*
X0210521Y0107711D02*
X0237850Y0107711D01*
X0237850Y0106112D02*
X0212437Y0106112D01*
X0212734Y0104514D02*
X0237850Y0104514D01*
X0237269Y0102915D02*
X0212086Y0102915D01*
X0212406Y0100284D02*
X0211310Y0099830D01*
X0210470Y0098990D01*
X0210016Y0097894D01*
X0210016Y0096706D01*
X0210470Y0095610D01*
X0211285Y0094795D01*
X0210588Y0094098D01*
X0210588Y0089002D01*
X0211408Y0088181D01*
X0216899Y0088181D01*
X0217500Y0088783D01*
X0218101Y0088181D01*
X0220100Y0088181D01*
X0220100Y0085870D01*
X0219470Y0085240D01*
X0219016Y0084144D01*
X0219016Y0082956D01*
X0219470Y0081860D01*
X0220310Y0081020D01*
X0221406Y0080566D01*
X0222594Y0080566D01*
X0223690Y0081020D01*
X0224530Y0081860D01*
X0224984Y0082956D01*
X0224984Y0084144D01*
X0224530Y0085240D01*
X0223900Y0085870D01*
X0223900Y0088490D01*
X0224412Y0089002D01*
X0224412Y0094098D01*
X0223592Y0094918D01*
X0218101Y0094918D01*
X0217500Y0094317D01*
X0216899Y0094918D01*
X0216054Y0094918D01*
X0216054Y0096933D01*
X0215984Y0097003D01*
X0215984Y0097894D01*
X0215530Y0098990D01*
X0214690Y0099830D01*
X0213594Y0100284D01*
X0212406Y0100284D01*
X0211198Y0099718D02*
X0204178Y0099718D01*
X0204484Y0101317D02*
X0237069Y0101317D01*
X0237833Y0099718D02*
X0214802Y0099718D01*
X0215891Y0098120D02*
X0243405Y0098120D01*
X0243266Y0098456D02*
X0243720Y0097360D01*
X0244560Y0096520D01*
X0245656Y0096066D01*
X0246844Y0096066D01*
X0247940Y0096520D01*
X0248780Y0097360D01*
X0249234Y0098456D01*
X0249234Y0099644D01*
X0248780Y0100740D01*
X0248150Y0101370D01*
X0248150Y0113003D01*
X0248190Y0113020D01*
X0249030Y0113860D01*
X0249484Y0114956D01*
X0249484Y0116144D01*
X0249030Y0117240D01*
X0248190Y0118080D01*
X0247094Y0118534D01*
X0245906Y0118534D01*
X0244810Y0118080D01*
X0243970Y0117240D01*
X0243516Y0116144D01*
X0243516Y0114956D01*
X0243970Y0113860D01*
X0244350Y0113480D01*
X0244350Y0101370D01*
X0243720Y0100740D01*
X0243266Y0099644D01*
X0243266Y0098456D01*
X0243297Y0099718D02*
X0242667Y0099718D01*
X0243431Y0101317D02*
X0244296Y0101317D01*
X0244350Y0102915D02*
X0243231Y0102915D01*
X0244350Y0104514D02*
X0242011Y0104514D01*
X0241650Y0106112D02*
X0244350Y0106112D01*
X0244350Y0107711D02*
X0241650Y0107711D01*
X0241650Y0109309D02*
X0244350Y0109309D01*
X0244350Y0110908D02*
X0241650Y0110908D01*
X0241650Y0112506D02*
X0244350Y0112506D01*
X0243869Y0114105D02*
X0242381Y0114105D01*
X0242734Y0115703D02*
X0243516Y0115703D01*
X0244031Y0117302D02*
X0242219Y0117302D01*
X0237281Y0117302D02*
X0209896Y0117302D01*
X0209594Y0117254D02*
X0210274Y0117362D01*
X0210929Y0117574D01*
X0211543Y0117887D01*
X0212100Y0118292D01*
X0212587Y0118779D01*
X0212992Y0119336D01*
X0213304Y0119949D01*
X0213517Y0120604D01*
X0213625Y0121284D01*
X0213625Y0121629D01*
X0213625Y0121973D01*
X0213517Y0122653D01*
X0213304Y0123308D01*
X0212992Y0123922D01*
X0212587Y0124479D01*
X0212100Y0124966D01*
X0211543Y0125370D01*
X0210929Y0125683D01*
X0210274Y0125896D01*
X0209594Y0126004D01*
X0209250Y0126004D01*
X0208906Y0126004D01*
X0208226Y0125896D01*
X0207571Y0125683D01*
X0206957Y0125370D01*
X0206400Y0124966D01*
X0205913Y0124479D01*
X0205508Y0123922D01*
X0205196Y0123308D01*
X0204983Y0122653D01*
X0204875Y0121973D01*
X0204875Y0121629D01*
X0209250Y0121629D01*
X0209250Y0121629D01*
X0209250Y0126004D01*
X0209250Y0121629D01*
X0213625Y0121629D01*
X0209250Y0121629D01*
X0209250Y0121629D01*
X0209250Y0121629D01*
X0204875Y0121629D01*
X0204875Y0121284D01*
X0204983Y0120604D01*
X0205196Y0119949D01*
X0205508Y0119336D01*
X0205913Y0118779D01*
X0206400Y0118292D01*
X0206957Y0117887D01*
X0207571Y0117574D01*
X0208226Y0117362D01*
X0208906Y0117254D01*
X0209250Y0117254D01*
X0209594Y0117254D01*
X0209250Y0117254D02*
X0209250Y0121629D01*
X0209250Y0121629D01*
X0209250Y0117254D01*
X0209250Y0117302D02*
X0209250Y0117302D01*
X0208604Y0117302D02*
X0187062Y0117302D01*
X0187062Y0118900D02*
X0205825Y0118900D01*
X0205017Y0120499D02*
X0187039Y0120499D01*
X0187062Y0122097D02*
X0191379Y0122097D01*
X0191324Y0123696D02*
X0187062Y0123696D01*
X0187062Y0125294D02*
X0191324Y0125294D01*
X0191324Y0126893D02*
X0187000Y0126893D01*
X0187690Y0128491D02*
X0192081Y0128491D01*
X0191724Y0133287D02*
X0188012Y0133287D01*
X0187650Y0134885D02*
X0192468Y0134885D01*
X0188555Y0136484D02*
X0236631Y0136484D01*
X0236631Y0138082D02*
X0189548Y0138082D01*
X0189725Y0139681D02*
X0225149Y0139681D01*
X0224516Y0141279D02*
X0189232Y0141279D01*
X0183494Y0142666D02*
X0182380Y0141552D01*
X0181775Y0140091D01*
X0181775Y0138509D01*
X0182380Y0137048D01*
X0183498Y0135930D01*
X0183850Y0135785D01*
X0183850Y0134418D01*
X0180851Y0134418D01*
X0180250Y0133817D01*
X0179649Y0134418D01*
X0174158Y0134418D01*
X0173338Y0133598D01*
X0173338Y0132037D01*
X0171821Y0132037D01*
X0171821Y0132684D01*
X0174608Y0135471D01*
X0174959Y0135325D01*
X0176541Y0135325D01*
X0178002Y0135930D01*
X0179120Y0137048D01*
X0179725Y0138509D01*
X0179725Y0140088D01*
X0182293Y0142656D01*
X0183494Y0142666D01*
X0182268Y0141279D02*
X0180916Y0141279D01*
X0181775Y0139681D02*
X0179725Y0139681D01*
X0179548Y0138082D02*
X0181952Y0138082D01*
X0182945Y0136484D02*
X0178555Y0136484D01*
X0174022Y0134885D02*
X0183850Y0134885D01*
X0177246Y0142983D02*
X0176541Y0143275D01*
X0174959Y0143275D01*
X0173498Y0142670D01*
X0172380Y0141552D01*
X0171775Y0140091D01*
X0171775Y0138509D01*
X0171921Y0138158D01*
X0167268Y0133505D01*
X0165904Y0133505D01*
X0165500Y0133101D01*
X0165096Y0133505D01*
X0164447Y0133505D01*
X0164447Y0135310D01*
X0164608Y0135471D01*
X0164959Y0135325D01*
X0166541Y0135325D01*
X0168002Y0135930D01*
X0169120Y0137048D01*
X0169725Y0138509D01*
X0169725Y0139338D01*
X0179287Y0148900D01*
X0213537Y0148900D01*
X0213787Y0149150D01*
X0215163Y0149150D01*
X0212707Y0146694D01*
X0181492Y0146450D01*
X0180713Y0146450D01*
X0180707Y0146444D01*
X0180698Y0146444D01*
X0180151Y0145888D01*
X0177246Y0142983D01*
X0178739Y0144476D02*
X0174863Y0144476D01*
X0174001Y0142878D02*
X0173265Y0142878D01*
X0172268Y0141279D02*
X0171666Y0141279D01*
X0171775Y0139681D02*
X0170068Y0139681D01*
X0169548Y0138082D02*
X0171845Y0138082D01*
X0170247Y0136484D02*
X0168555Y0136484D01*
X0168648Y0134885D02*
X0164447Y0134885D01*
X0165314Y0133287D02*
X0165686Y0133287D01*
X0160647Y0134885D02*
X0159913Y0134885D01*
X0160647Y0136484D02*
X0158555Y0136484D01*
X0159548Y0138082D02*
X0161845Y0138082D01*
X0161775Y0139681D02*
X0159725Y0139681D01*
X0159232Y0141279D02*
X0162268Y0141279D01*
X0164001Y0142878D02*
X0157499Y0142878D01*
X0154001Y0142878D02*
X0126800Y0142878D01*
X0126800Y0144476D02*
X0169489Y0144476D01*
X0167891Y0142878D02*
X0167499Y0142878D01*
X0171088Y0146075D02*
X0126800Y0146075D01*
X0126800Y0147673D02*
X0172686Y0147673D01*
X0174285Y0149272D02*
X0126800Y0149272D01*
X0126800Y0150870D02*
X0175884Y0150870D01*
X0177482Y0152469D02*
X0126800Y0152469D01*
X0126800Y0154068D02*
X0214783Y0154068D01*
X0215418Y0155666D02*
X0198164Y0155666D01*
X0198304Y0155737D02*
X0198912Y0156179D01*
X0199442Y0156709D01*
X0199884Y0157316D01*
X0200224Y0157985D01*
X0200456Y0158699D01*
X0200574Y0159440D01*
X0200574Y0159631D01*
X0195989Y0159631D01*
X0195989Y0155047D01*
X0196180Y0155047D01*
X0196922Y0155165D01*
X0197636Y0155397D01*
X0198304Y0155737D01*
X0199846Y0157265D02*
X0216447Y0157265D01*
X0219579Y0158863D02*
X0200482Y0158863D01*
X0200574Y0160000D02*
X0195989Y0160000D01*
X0195621Y0160000D01*
X0195621Y0164584D01*
X0195430Y0164584D01*
X0194688Y0164467D01*
X0193975Y0164235D01*
X0193306Y0163894D01*
X0192699Y0163453D01*
X0192168Y0162922D01*
X0191727Y0162315D01*
X0191386Y0161646D01*
X0191154Y0160932D01*
X0191127Y0160760D01*
X0190493Y0162290D01*
X0189264Y0163519D01*
X0187658Y0164184D01*
X0185920Y0164184D01*
X0185307Y0163930D01*
X0186327Y0164950D01*
X0216517Y0164950D01*
X0217473Y0165346D01*
X0220763Y0168636D01*
X0221690Y0169020D01*
X0222530Y0169860D01*
X0222984Y0170956D01*
X0222984Y0172144D01*
X0222530Y0173240D01*
X0221690Y0174080D01*
X0220594Y0174534D01*
X0219406Y0174534D01*
X0218310Y0174080D01*
X0217470Y0173240D01*
X0217086Y0172313D01*
X0214923Y0170150D01*
X0184733Y0170150D01*
X0183777Y0169754D01*
X0183046Y0169023D01*
X0177423Y0163400D01*
X0176785Y0163400D01*
X0176811Y0163427D01*
X0176811Y0170104D01*
X0181369Y0174662D01*
X0181944Y0174424D01*
X0183682Y0174424D01*
X0185288Y0175089D01*
X0186516Y0176318D01*
X0187181Y0177923D01*
X0187181Y0179661D01*
X0186516Y0181267D01*
X0185288Y0182496D01*
X0183682Y0183161D01*
X0182774Y0183161D01*
X0182876Y0183301D01*
X0183216Y0183970D01*
X0183448Y0184683D01*
X0183566Y0185425D01*
X0183566Y0185616D01*
X0178982Y0185616D01*
X0178982Y0185984D01*
X0183566Y0185984D01*
X0183566Y0186175D01*
X0183448Y0186917D01*
X0183216Y0187630D01*
X0182876Y0188299D01*
X0182434Y0188906D01*
X0181904Y0189437D01*
X0181296Y0189878D01*
X0180628Y0190219D01*
X0179914Y0190451D01*
X0179173Y0190568D01*
X0178981Y0190568D01*
X0178981Y0185984D01*
X0178613Y0185984D01*
X0178613Y0190568D01*
X0178422Y0190568D01*
X0177681Y0190451D01*
X0176967Y0190219D01*
X0176298Y0189878D01*
X0175691Y0189437D01*
X0175160Y0188906D01*
X0174719Y0188299D01*
X0174575Y0188018D01*
X0174469Y0188275D01*
X0173240Y0189503D01*
X0171635Y0190168D01*
X0169897Y0190168D01*
X0168291Y0189503D01*
X0167062Y0188275D01*
X0166956Y0188018D01*
X0166813Y0188299D01*
X0166371Y0188906D01*
X0165841Y0189437D01*
X0165233Y0189878D01*
X0164565Y0190219D01*
X0163851Y0190451D01*
X0163110Y0190568D01*
X0162919Y0190568D01*
X0162919Y0185984D01*
X0162550Y0185984D01*
X0162550Y0190568D01*
X0162359Y0190568D01*
X0161618Y0190451D01*
X0160904Y0190219D01*
X0160235Y0189878D01*
X0159628Y0189437D01*
X0159097Y0188906D01*
X0159071Y0188871D01*
X0159071Y0189348D01*
X0158251Y0190168D01*
X0151154Y0190168D01*
X0150334Y0189348D01*
X0150334Y0182252D01*
X0151154Y0181431D01*
X0155180Y0181431D01*
X0155015Y0181267D01*
X0154350Y0179661D01*
X0154350Y0177923D01*
X0155015Y0176318D01*
X0156244Y0175089D01*
X0157850Y0174424D01*
X0159587Y0174424D01*
X0161193Y0175089D01*
X0162422Y0176318D01*
X0162734Y0177072D01*
X0163047Y0176318D01*
X0164275Y0175089D01*
X0165881Y0174424D01*
X0167619Y0174424D01*
X0169225Y0175089D01*
X0170453Y0176318D01*
X0170560Y0176574D01*
X0170703Y0176293D01*
X0171144Y0175686D01*
X0171675Y0175155D01*
X0172282Y0174714D01*
X0172951Y0174373D01*
X0173665Y0174141D01*
X0174406Y0174024D01*
X0174597Y0174024D01*
X0174597Y0178608D01*
X0174966Y0178608D01*
X0174966Y0174024D01*
X0175157Y0174024D01*
X0175395Y0174061D01*
X0173827Y0172493D01*
X0168532Y0172493D01*
X0167712Y0171673D01*
X0167712Y0163427D01*
X0167739Y0163400D01*
X0166327Y0163400D01*
X0165788Y0163939D01*
X0165788Y0171673D01*
X0164968Y0172493D01*
X0157509Y0172493D01*
X0156689Y0171673D01*
X0156689Y0163427D01*
X0157509Y0162607D01*
X0159766Y0162607D01*
X0163046Y0159327D01*
X0163777Y0158596D01*
X0164733Y0158200D01*
X0179017Y0158200D01*
X0179973Y0158596D01*
X0182675Y0161298D01*
X0182421Y0160685D01*
X0182421Y0158947D01*
X0183086Y0157341D01*
X0184315Y0156112D01*
X0185920Y0155447D01*
X0187658Y0155447D01*
X0189264Y0156112D01*
X0190493Y0157341D01*
X0191127Y0158872D01*
X0191154Y0158699D01*
X0191386Y0157985D01*
X0191727Y0157316D01*
X0192168Y0156709D01*
X0192699Y0156179D01*
X0193306Y0155737D01*
X0193975Y0155397D01*
X0194688Y0155165D01*
X0195430Y0155047D01*
X0195621Y0155047D01*
X0195621Y0159631D01*
X0195989Y0159631D01*
X0195989Y0160000D01*
X0195989Y0164584D01*
X0196180Y0164584D01*
X0196922Y0164467D01*
X0197636Y0164235D01*
X0198304Y0163894D01*
X0198912Y0163453D01*
X0199442Y0162922D01*
X0199884Y0162315D01*
X0200224Y0161646D01*
X0200456Y0160932D01*
X0200574Y0160191D01*
X0200574Y0160000D01*
X0200531Y0160462D02*
X0221177Y0160462D01*
X0222776Y0162060D02*
X0200013Y0162060D01*
X0198629Y0163659D02*
X0224374Y0163659D01*
X0225973Y0165257D02*
X0217259Y0165257D01*
X0218983Y0166856D02*
X0227571Y0166856D01*
X0229170Y0168454D02*
X0220581Y0168454D01*
X0222610Y0170053D02*
X0230768Y0170053D01*
X0232367Y0171651D02*
X0222984Y0171651D01*
X0222521Y0173250D02*
X0233965Y0173250D01*
X0235564Y0174848D02*
X0184707Y0174848D01*
X0186570Y0176447D02*
X0196741Y0176447D01*
X0196844Y0176367D02*
X0197651Y0175901D01*
X0198513Y0175544D01*
X0199414Y0175303D01*
X0200005Y0175225D01*
X0200005Y0181496D01*
X0193734Y0181496D01*
X0193812Y0180905D01*
X0194053Y0180004D01*
X0194410Y0179142D01*
X0194877Y0178335D01*
X0195444Y0177595D01*
X0196104Y0176935D01*
X0196844Y0176367D01*
X0195099Y0178045D02*
X0187181Y0178045D01*
X0187181Y0179644D02*
X0194203Y0179644D01*
X0193767Y0181242D02*
X0186527Y0181242D01*
X0184454Y0182841D02*
X0200005Y0182841D01*
X0200005Y0183096D02*
X0200005Y0181496D01*
X0201605Y0181496D01*
X0201605Y0175225D01*
X0202196Y0175303D01*
X0203097Y0175544D01*
X0203959Y0175901D01*
X0204766Y0176367D01*
X0205506Y0176935D01*
X0206166Y0177595D01*
X0206734Y0178335D01*
X0207200Y0179142D01*
X0207557Y0180004D01*
X0207798Y0180905D01*
X0207876Y0181496D01*
X0201605Y0181496D01*
X0201605Y0183096D01*
X0200005Y0183096D01*
X0193734Y0183096D01*
X0193812Y0183687D01*
X0194053Y0184588D01*
X0194410Y0185450D01*
X0194877Y0186257D01*
X0195444Y0186997D01*
X0196104Y0187657D01*
X0196743Y0188147D01*
X0195428Y0187602D01*
X0192167Y0187602D01*
X0189154Y0188850D01*
X0186848Y0191156D01*
X0185600Y0194169D01*
X0185600Y0197431D01*
X0186848Y0200444D01*
X0189154Y0202750D01*
X0192167Y0203998D01*
X0195428Y0203998D01*
X0198441Y0202750D01*
X0200747Y0200444D01*
X0201995Y0197431D01*
X0201995Y0194169D01*
X0200747Y0191156D01*
X0198684Y0189094D01*
X0199414Y0189289D01*
X0200005Y0189367D01*
X0200005Y0183096D01*
X0200005Y0184439D02*
X0201605Y0184439D01*
X0201605Y0183096D02*
X0201605Y0189367D01*
X0202196Y0189289D01*
X0203097Y0189048D01*
X0203959Y0188691D01*
X0204766Y0188225D01*
X0205506Y0187657D01*
X0206166Y0186997D01*
X0206734Y0186257D01*
X0207200Y0185450D01*
X0207557Y0184588D01*
X0207798Y0183687D01*
X0207876Y0183096D01*
X0201605Y0183096D01*
X0201605Y0182841D02*
X0228942Y0182841D01*
X0228942Y0183596D02*
X0228942Y0181996D01*
X0222671Y0181996D01*
X0222749Y0181405D01*
X0222990Y0180504D01*
X0223347Y0179642D01*
X0223814Y0178835D01*
X0224381Y0178095D01*
X0225041Y0177435D01*
X0225781Y0176867D01*
X0226588Y0176401D01*
X0227450Y0176044D01*
X0228351Y0175803D01*
X0228942Y0175725D01*
X0228942Y0181996D01*
X0230542Y0181996D01*
X0230542Y0175725D01*
X0231133Y0175803D01*
X0232034Y0176044D01*
X0232896Y0176401D01*
X0233703Y0176867D01*
X0234443Y0177435D01*
X0235103Y0178095D01*
X0235671Y0178835D01*
X0236137Y0179642D01*
X0236494Y0180504D01*
X0236735Y0181405D01*
X0236813Y0181996D01*
X0230542Y0181996D01*
X0230542Y0183596D01*
X0228942Y0183596D01*
X0222671Y0183596D01*
X0222749Y0184187D01*
X0222990Y0185088D01*
X0223347Y0185950D01*
X0223814Y0186757D01*
X0224381Y0187497D01*
X0225041Y0188157D01*
X0225781Y0188725D01*
X0226588Y0189191D01*
X0227450Y0189548D01*
X0228351Y0189789D01*
X0228942Y0189867D01*
X0228942Y0183596D01*
X0228942Y0184439D02*
X0230542Y0184439D01*
X0230542Y0183596D02*
X0230542Y0189867D01*
X0231133Y0189789D01*
X0231863Y0189594D01*
X0229800Y0191656D01*
X0228552Y0194669D01*
X0228552Y0197931D01*
X0229800Y0200944D01*
X0232106Y0203250D01*
X0235119Y0204498D01*
X0238381Y0204498D01*
X0241394Y0203250D01*
X0243700Y0200944D01*
X0244948Y0197931D01*
X0244948Y0194669D01*
X0243700Y0191656D01*
X0241394Y0189350D01*
X0238381Y0188102D01*
X0235119Y0188102D01*
X0233805Y0188647D01*
X0234443Y0188157D01*
X0235103Y0187497D01*
X0235671Y0186757D01*
X0236137Y0185950D01*
X0236494Y0185088D01*
X0236735Y0184187D01*
X0236813Y0183596D01*
X0230542Y0183596D01*
X0230542Y0182841D02*
X0243556Y0182841D01*
X0241958Y0181242D02*
X0236692Y0181242D01*
X0236138Y0179644D02*
X0240359Y0179644D01*
X0238761Y0178045D02*
X0235053Y0178045D01*
X0232975Y0176447D02*
X0237162Y0176447D01*
X0230542Y0176447D02*
X0228942Y0176447D01*
X0228942Y0178045D02*
X0230542Y0178045D01*
X0230542Y0179644D02*
X0228942Y0179644D01*
X0228942Y0181242D02*
X0230542Y0181242D01*
X0226510Y0176447D02*
X0204870Y0176447D01*
X0206511Y0178045D02*
X0224431Y0178045D01*
X0223347Y0179644D02*
X0207408Y0179644D01*
X0207843Y0181242D02*
X0222793Y0181242D01*
X0222816Y0184439D02*
X0207597Y0184439D01*
X0206861Y0186038D02*
X0223398Y0186038D01*
X0224520Y0187636D02*
X0205527Y0187636D01*
X0202400Y0189235D02*
X0226694Y0189235D01*
X0228942Y0189235D02*
X0230542Y0189235D01*
X0230542Y0187636D02*
X0228942Y0187636D01*
X0228942Y0186038D02*
X0230542Y0186038D01*
X0234964Y0187636D02*
X0245334Y0187636D01*
X0245334Y0186038D02*
X0236086Y0186038D01*
X0236668Y0184439D02*
X0245155Y0184439D01*
X0245334Y0189235D02*
X0241114Y0189235D01*
X0242876Y0190833D02*
X0256255Y0190833D01*
X0257550Y0190833D02*
X0257919Y0190833D01*
X0259213Y0190833D02*
X0272318Y0190833D01*
X0273613Y0190833D02*
X0273981Y0190833D01*
X0275276Y0190833D02*
X0282671Y0190833D01*
X0281848Y0191656D02*
X0284154Y0189350D01*
X0287167Y0188102D01*
X0290428Y0188102D01*
X0291743Y0188647D01*
X0291104Y0188157D01*
X0290444Y0187497D01*
X0289877Y0186757D01*
X0289410Y0185950D01*
X0289053Y0185088D01*
X0288812Y0184187D01*
X0288734Y0183596D01*
X0295005Y0183596D01*
X0295005Y0181996D01*
X0288734Y0181996D01*
X0288812Y0181405D01*
X0289053Y0180504D01*
X0289410Y0179642D01*
X0289877Y0178835D01*
X0290444Y0178095D01*
X0291104Y0177435D01*
X0291844Y0176867D01*
X0292651Y0176401D01*
X0293513Y0176044D01*
X0294414Y0175803D01*
X0295005Y0175725D01*
X0295005Y0181996D01*
X0296605Y0181996D01*
X0296605Y0175725D01*
X0297196Y0175803D01*
X0298097Y0176044D01*
X0298959Y0176401D01*
X0299766Y0176867D01*
X0300506Y0177435D01*
X0301166Y0178095D01*
X0301734Y0178835D01*
X0302200Y0179642D01*
X0302557Y0180504D01*
X0302798Y0181405D01*
X0302876Y0181996D01*
X0296605Y0181996D01*
X0296605Y0183596D01*
X0295005Y0183596D01*
X0295005Y0189867D01*
X0294414Y0189789D01*
X0293684Y0189594D01*
X0295747Y0191656D01*
X0296995Y0194669D01*
X0296995Y0197931D01*
X0295747Y0200944D01*
X0293441Y0203250D01*
X0290428Y0204498D01*
X0287167Y0204498D01*
X0284154Y0203250D01*
X0281848Y0200944D01*
X0280600Y0197931D01*
X0280600Y0194669D01*
X0281848Y0191656D01*
X0281526Y0192432D02*
X0244021Y0192432D01*
X0244683Y0194030D02*
X0280864Y0194030D01*
X0280600Y0195629D02*
X0244948Y0195629D01*
X0244948Y0197227D02*
X0280600Y0197227D01*
X0280970Y0198826D02*
X0244577Y0198826D01*
X0243915Y0200424D02*
X0281633Y0200424D01*
X0282927Y0202023D02*
X0242620Y0202023D01*
X0240496Y0203621D02*
X0285051Y0203621D01*
X0292543Y0203621D02*
X0320050Y0203621D01*
X0320050Y0202023D02*
X0294668Y0202023D01*
X0295962Y0200424D02*
X0320050Y0200424D01*
X0320050Y0198826D02*
X0296624Y0198826D01*
X0296995Y0197227D02*
X0320050Y0197227D01*
X0320050Y0195629D02*
X0296995Y0195629D01*
X0296730Y0194030D02*
X0320050Y0194030D01*
X0320050Y0192432D02*
X0296068Y0192432D01*
X0294924Y0190833D02*
X0320050Y0190833D01*
X0320050Y0189235D02*
X0298853Y0189235D01*
X0298959Y0189191D02*
X0298097Y0189548D01*
X0297196Y0189789D01*
X0296605Y0189867D01*
X0296605Y0183596D01*
X0302876Y0183596D01*
X0302798Y0184187D01*
X0302557Y0185088D01*
X0302200Y0185950D01*
X0301734Y0186757D01*
X0301166Y0187497D01*
X0300506Y0188157D01*
X0299766Y0188725D01*
X0298959Y0189191D01*
X0296605Y0189235D02*
X0295005Y0189235D01*
X0295005Y0187636D02*
X0296605Y0187636D01*
X0296605Y0186038D02*
X0295005Y0186038D01*
X0295005Y0184439D02*
X0296605Y0184439D01*
X0296605Y0182841D02*
X0320050Y0182841D01*
X0320050Y0184439D02*
X0302731Y0184439D01*
X0302149Y0186038D02*
X0320050Y0186038D01*
X0320050Y0187636D02*
X0301027Y0187636D01*
X0295005Y0182841D02*
X0280442Y0182841D01*
X0281734Y0181242D02*
X0288856Y0181242D01*
X0289410Y0179644D02*
X0282181Y0179644D01*
X0282025Y0178045D02*
X0290494Y0178045D01*
X0292573Y0176447D02*
X0282805Y0176447D01*
X0281195Y0176447D02*
X0281146Y0176447D01*
X0284692Y0174848D02*
X0320050Y0174848D01*
X0320050Y0173250D02*
X0284984Y0173250D01*
X0284322Y0171651D02*
X0320050Y0171651D01*
X0320050Y0170053D02*
X0282180Y0170053D01*
X0280581Y0168454D02*
X0320050Y0168454D01*
X0320050Y0166856D02*
X0278983Y0166856D01*
X0277384Y0165257D02*
X0320050Y0165257D01*
X0320050Y0163659D02*
X0294206Y0163659D01*
X0294442Y0163422D02*
X0293912Y0163953D01*
X0293304Y0164394D01*
X0292636Y0164735D01*
X0291922Y0164967D01*
X0291180Y0165084D01*
X0290989Y0165084D01*
X0290989Y0160500D01*
X0290621Y0160500D01*
X0290621Y0165084D01*
X0290430Y0165084D01*
X0289688Y0164967D01*
X0288975Y0164735D01*
X0288306Y0164394D01*
X0287699Y0163953D01*
X0287168Y0163422D01*
X0286727Y0162815D01*
X0286386Y0162146D01*
X0286154Y0161432D01*
X0286127Y0161260D01*
X0285493Y0162790D01*
X0284264Y0164019D01*
X0282658Y0164684D01*
X0280920Y0164684D01*
X0279315Y0164019D01*
X0278086Y0162790D01*
X0277421Y0161185D01*
X0277421Y0159447D01*
X0278086Y0157841D01*
X0279315Y0156612D01*
X0280920Y0155947D01*
X0282658Y0155947D01*
X0284264Y0156612D01*
X0285493Y0157841D01*
X0286127Y0159372D01*
X0286154Y0159199D01*
X0286386Y0158485D01*
X0286727Y0157816D01*
X0287168Y0157209D01*
X0287699Y0156679D01*
X0288306Y0156237D01*
X0288975Y0155897D01*
X0289688Y0155665D01*
X0290430Y0155547D01*
X0290621Y0155547D01*
X0290621Y0160131D01*
X0290989Y0160131D01*
X0290989Y0155547D01*
X0291180Y0155547D01*
X0291922Y0155665D01*
X0292636Y0155897D01*
X0293304Y0156237D01*
X0293912Y0156679D01*
X0294442Y0157209D01*
X0294884Y0157816D01*
X0295224Y0158485D01*
X0295456Y0159199D01*
X0295574Y0159940D01*
X0295574Y0160131D01*
X0290989Y0160131D01*
X0290989Y0160500D01*
X0295574Y0160500D01*
X0295574Y0160691D01*
X0295456Y0161432D01*
X0295224Y0162146D01*
X0294884Y0162815D01*
X0294442Y0163422D01*
X0295252Y0162060D02*
X0320050Y0162060D01*
X0320050Y0160462D02*
X0290989Y0160462D01*
X0290989Y0162060D02*
X0290621Y0162060D01*
X0290621Y0163659D02*
X0290989Y0163659D01*
X0287404Y0163659D02*
X0284625Y0163659D01*
X0285795Y0162060D02*
X0286358Y0162060D01*
X0286263Y0158863D02*
X0285916Y0158863D01*
X0284916Y0157265D02*
X0287128Y0157265D01*
X0289684Y0155666D02*
X0246926Y0155666D01*
X0245989Y0155666D02*
X0245621Y0155666D01*
X0244684Y0155666D02*
X0238689Y0155666D01*
X0238689Y0154068D02*
X0308239Y0154068D01*
X0308417Y0154245D02*
X0307805Y0153633D01*
X0307296Y0152933D01*
X0306903Y0152161D01*
X0306635Y0151338D01*
X0306500Y0150483D01*
X0306500Y0150250D01*
X0311800Y0150250D01*
X0311800Y0155550D01*
X0311567Y0155550D01*
X0310712Y0155415D01*
X0309889Y0155147D01*
X0309117Y0154754D01*
X0308417Y0154245D01*
X0307060Y0152469D02*
X0238689Y0152469D01*
X0238689Y0150870D02*
X0268535Y0150870D01*
X0270513Y0150870D02*
X0273600Y0150870D01*
X0273220Y0150490D02*
X0272766Y0149394D01*
X0272766Y0148206D01*
X0273220Y0147110D01*
X0274060Y0146270D01*
X0275156Y0145816D01*
X0276344Y0145816D01*
X0277440Y0146270D01*
X0278070Y0146900D01*
X0278755Y0146900D01*
X0278755Y0146800D01*
X0279953Y0146800D01*
X0278755Y0146800D01*
X0278755Y0145972D01*
X0278878Y0145515D01*
X0279115Y0145104D01*
X0279155Y0145064D01*
X0279155Y0143756D01*
X0277849Y0142450D01*
X0272570Y0142450D01*
X0271940Y0143080D01*
X0270844Y0143534D01*
X0269656Y0143534D01*
X0268560Y0143080D01*
X0267720Y0142240D01*
X0267266Y0141144D01*
X0267266Y0139956D01*
X0267720Y0138860D01*
X0268560Y0138020D01*
X0269656Y0137566D01*
X0270795Y0137566D01*
X0270220Y0136990D01*
X0269766Y0135894D01*
X0269766Y0134706D01*
X0270220Y0133610D01*
X0271060Y0132770D01*
X0272156Y0132316D01*
X0273047Y0132316D01*
X0275463Y0129900D01*
X0283430Y0129900D01*
X0284060Y0129270D01*
X0285156Y0128816D01*
X0286344Y0128816D01*
X0287440Y0129270D01*
X0288280Y0130110D01*
X0288734Y0131206D01*
X0288734Y0132394D01*
X0288280Y0133490D01*
X0287440Y0134330D01*
X0286344Y0134784D01*
X0285156Y0134784D01*
X0284060Y0134330D01*
X0283430Y0133700D01*
X0277037Y0133700D01*
X0275734Y0135003D01*
X0275734Y0135894D01*
X0275280Y0136990D01*
X0274440Y0137830D01*
X0273344Y0138284D01*
X0272205Y0138284D01*
X0272570Y0138650D01*
X0279423Y0138650D01*
X0283614Y0142841D01*
X0285859Y0142841D01*
X0286500Y0143482D01*
X0287141Y0142841D01*
X0288183Y0142841D01*
X0288183Y0142670D01*
X0287797Y0142284D01*
X0286906Y0142284D01*
X0285810Y0141830D01*
X0284970Y0140990D01*
X0284516Y0139894D01*
X0284516Y0138706D01*
X0284970Y0137610D01*
X0285810Y0136770D01*
X0286906Y0136316D01*
X0288094Y0136316D01*
X0289190Y0136770D01*
X0290030Y0137610D01*
X0290484Y0138706D01*
X0290484Y0139597D01*
X0291350Y0140463D01*
X0291350Y0138620D01*
X0290720Y0137990D01*
X0290266Y0136894D01*
X0290266Y0135706D01*
X0290720Y0134610D01*
X0291560Y0133770D01*
X0292656Y0133316D01*
X0293844Y0133316D01*
X0294940Y0133770D01*
X0295557Y0134386D01*
X0295557Y0133059D01*
X0296377Y0132239D01*
X0304623Y0132239D01*
X0305443Y0133059D01*
X0305443Y0134888D01*
X0309525Y0134888D01*
X0309997Y0135360D01*
X0310744Y0135050D01*
X0309111Y0134374D01*
X0307676Y0132939D01*
X0306900Y0131064D01*
X0306900Y0129036D01*
X0307676Y0127161D01*
X0309111Y0125726D01*
X0310744Y0125050D01*
X0309111Y0124374D01*
X0307676Y0122939D01*
X0307557Y0122650D01*
X0306483Y0122650D01*
X0305527Y0122254D01*
X0304796Y0121523D01*
X0302546Y0119273D01*
X0302150Y0118317D01*
X0302150Y0118212D01*
X0296794Y0118212D01*
X0295974Y0117392D01*
X0295974Y0113906D01*
X0295150Y0113082D01*
X0295150Y0119087D01*
X0294984Y0119253D01*
X0294984Y0120144D01*
X0294530Y0121240D01*
X0293690Y0122080D01*
X0293633Y0122104D01*
X0291400Y0124337D01*
X0290287Y0125450D01*
X0274463Y0125450D01*
X0266547Y0117534D01*
X0265656Y0117534D01*
X0264560Y0117080D01*
X0263720Y0116240D01*
X0263266Y0115144D01*
X0263266Y0113956D01*
X0263720Y0112860D01*
X0264560Y0112020D01*
X0265656Y0111566D01*
X0266329Y0111566D01*
X0262963Y0108200D01*
X0261850Y0107087D01*
X0261850Y0100763D01*
X0263245Y0099368D01*
X0262844Y0099534D01*
X0261656Y0099534D01*
X0260560Y0099080D01*
X0259720Y0098240D01*
X0259266Y0097144D01*
X0259266Y0096253D01*
X0254713Y0091700D01*
X0251463Y0091700D01*
X0250350Y0090587D01*
X0248047Y0088284D01*
X0247156Y0088284D01*
X0246060Y0087830D01*
X0245220Y0086990D01*
X0244766Y0085894D01*
X0244766Y0084706D01*
X0245220Y0083610D01*
X0246060Y0082770D01*
X0247156Y0082316D01*
X0248344Y0082316D01*
X0249440Y0082770D01*
X0250280Y0083610D01*
X0250734Y0084706D01*
X0250734Y0085597D01*
X0253037Y0087900D01*
X0256287Y0087900D01*
X0261953Y0093566D01*
X0262844Y0093566D01*
X0263940Y0094020D01*
X0264780Y0094860D01*
X0265234Y0095956D01*
X0265234Y0097144D01*
X0265068Y0097545D01*
X0268463Y0094150D01*
X0278101Y0094150D01*
X0277116Y0093742D01*
X0275808Y0092434D01*
X0275100Y0090725D01*
X0275100Y0088875D01*
X0275808Y0087166D01*
X0277116Y0085858D01*
X0278825Y0085150D01*
X0280675Y0085150D01*
X0281409Y0085454D01*
X0281838Y0085025D01*
X0281838Y0080344D01*
X0282257Y0079925D01*
X0282088Y0079756D01*
X0282088Y0074825D01*
X0281409Y0074146D01*
X0280675Y0074450D01*
X0278825Y0074450D01*
X0277116Y0073742D01*
X0275808Y0072434D01*
X0275100Y0070725D01*
X0275100Y0068875D01*
X0275808Y0067166D01*
X0277116Y0065858D01*
X0278825Y0065150D01*
X0280675Y0065150D01*
X0282384Y0065858D01*
X0283692Y0067166D01*
X0284400Y0068875D01*
X0284400Y0070725D01*
X0284096Y0071459D01*
X0286161Y0073524D01*
X0288202Y0073524D01*
X0288776Y0074098D01*
X0288938Y0073819D01*
X0289273Y0073484D01*
X0289683Y0073247D01*
X0290141Y0073124D01*
X0292211Y0073124D01*
X0292211Y0076816D01*
X0292678Y0076816D01*
X0292678Y0073124D01*
X0294749Y0073124D01*
X0295207Y0073247D01*
X0295617Y0073484D01*
X0295952Y0073819D01*
X0296189Y0074229D01*
X0296312Y0074687D01*
X0296312Y0076817D01*
X0292678Y0076817D01*
X0292678Y0077283D01*
X0296312Y0077283D01*
X0296312Y0079413D01*
X0296189Y0079871D01*
X0295953Y0080280D01*
X0296062Y0080687D01*
X0296062Y0082817D01*
X0292428Y0082817D01*
X0292428Y0083283D01*
X0296062Y0083283D01*
X0296062Y0085413D01*
X0295939Y0085871D01*
X0295702Y0086281D01*
X0295367Y0086616D01*
X0294957Y0086853D01*
X0294499Y0086976D01*
X0292428Y0086976D01*
X0292428Y0083284D01*
X0291961Y0083284D01*
X0291961Y0086976D01*
X0289891Y0086976D01*
X0289433Y0086853D01*
X0289023Y0086616D01*
X0288688Y0086281D01*
X0288526Y0086002D01*
X0287952Y0086576D01*
X0285661Y0086576D01*
X0284096Y0088141D01*
X0284400Y0088875D01*
X0284400Y0090725D01*
X0283692Y0092434D01*
X0282384Y0093742D01*
X0281399Y0094150D01*
X0285713Y0094150D01*
X0286766Y0093097D01*
X0286766Y0092206D01*
X0287220Y0091110D01*
X0288060Y0090270D01*
X0289156Y0089816D01*
X0290344Y0089816D01*
X0291440Y0090270D01*
X0292280Y0091110D01*
X0292734Y0092206D01*
X0292734Y0093394D01*
X0292280Y0094490D01*
X0291440Y0095330D01*
X0290344Y0095784D01*
X0289453Y0095784D01*
X0287287Y0097950D01*
X0274537Y0097950D01*
X0274287Y0098200D01*
X0272713Y0098200D01*
X0272463Y0097950D01*
X0270037Y0097950D01*
X0267755Y0100232D01*
X0268156Y0100066D01*
X0269344Y0100066D01*
X0270440Y0100520D01*
X0271070Y0101150D01*
X0271633Y0101150D01*
X0272872Y0102388D01*
X0276298Y0102388D01*
X0277118Y0103208D01*
X0277118Y0108699D01*
X0276517Y0109300D01*
X0277118Y0109901D01*
X0277118Y0114740D01*
X0277190Y0114770D01*
X0278030Y0115610D01*
X0278484Y0116706D01*
X0278484Y0117894D01*
X0278030Y0118990D01*
X0277190Y0119830D01*
X0276094Y0120284D01*
X0274906Y0120284D01*
X0274505Y0120118D01*
X0276037Y0121650D01*
X0288713Y0121650D01*
X0289368Y0120995D01*
X0289016Y0120144D01*
X0289016Y0118956D01*
X0289470Y0117860D01*
X0290310Y0117020D01*
X0291350Y0116589D01*
X0291350Y0110962D01*
X0290544Y0110962D01*
X0289724Y0110142D01*
X0289724Y0104848D01*
X0290298Y0104274D01*
X0290019Y0104112D01*
X0289684Y0103777D01*
X0289447Y0103367D01*
X0289324Y0102909D01*
X0289324Y0100839D01*
X0293016Y0100839D01*
X0293016Y0100372D01*
X0289324Y0100372D01*
X0289324Y0098301D01*
X0289447Y0097843D01*
X0289684Y0097433D01*
X0290019Y0097098D01*
X0290429Y0096861D01*
X0290887Y0096738D01*
X0293017Y0096738D01*
X0293017Y0100372D01*
X0293483Y0100372D01*
X0293483Y0096738D01*
X0295613Y0096738D01*
X0296071Y0096861D01*
X0296481Y0097098D01*
X0296816Y0097433D01*
X0297053Y0097843D01*
X0297176Y0098301D01*
X0297176Y0100372D01*
X0293484Y0100372D01*
X0293484Y0100839D01*
X0297176Y0100839D01*
X0297176Y0102909D01*
X0297053Y0103367D01*
X0296816Y0103777D01*
X0296481Y0104112D01*
X0296202Y0104274D01*
X0296273Y0104345D01*
X0296679Y0104111D01*
X0297137Y0103988D01*
X0299267Y0103988D01*
X0299267Y0107622D01*
X0299733Y0107622D01*
X0299733Y0103988D01*
X0301863Y0103988D01*
X0302321Y0104111D01*
X0302491Y0104209D01*
X0302546Y0104077D01*
X0303277Y0103346D01*
X0305400Y0101223D01*
X0305400Y0100321D01*
X0305016Y0099394D01*
X0305016Y0098206D01*
X0305470Y0097110D01*
X0306310Y0096270D01*
X0307406Y0095816D01*
X0308594Y0095816D01*
X0309690Y0096270D01*
X0310530Y0097110D01*
X0310984Y0098206D01*
X0310984Y0099394D01*
X0310600Y0100321D01*
X0310600Y0102817D01*
X0310204Y0103773D01*
X0307350Y0106627D01*
X0307350Y0107949D01*
X0307676Y0107161D01*
X0309111Y0105726D01*
X0310986Y0104950D01*
X0313014Y0104950D01*
X0314889Y0105726D01*
X0316324Y0107161D01*
X0317100Y0109036D01*
X0317100Y0111064D01*
X0316324Y0112939D01*
X0314889Y0114374D01*
X0313256Y0115050D01*
X0314889Y0115726D01*
X0316324Y0117161D01*
X0317100Y0119036D01*
X0317100Y0121064D01*
X0316324Y0122939D01*
X0314889Y0124374D01*
X0313256Y0125050D01*
X0314889Y0125726D01*
X0316324Y0127161D01*
X0317100Y0129036D01*
X0317100Y0131064D01*
X0316324Y0132939D01*
X0314889Y0134374D01*
X0313256Y0135050D01*
X0314889Y0135726D01*
X0316324Y0137161D01*
X0317100Y0139036D01*
X0317100Y0141064D01*
X0316324Y0142939D01*
X0314889Y0144374D01*
X0313763Y0144840D01*
X0314111Y0144953D01*
X0314883Y0145346D01*
X0315583Y0145855D01*
X0316195Y0146467D01*
X0316704Y0147167D01*
X0317097Y0147939D01*
X0317365Y0148762D01*
X0317500Y0149617D01*
X0317500Y0149850D01*
X0312200Y0149850D01*
X0312200Y0150250D01*
X0311800Y0150250D01*
X0311800Y0149850D01*
X0306500Y0149850D01*
X0306500Y0149617D01*
X0306635Y0148762D01*
X0306903Y0147939D01*
X0307296Y0147167D01*
X0307805Y0146467D01*
X0308417Y0145855D01*
X0309117Y0145346D01*
X0309889Y0144953D01*
X0310237Y0144840D01*
X0309111Y0144374D01*
X0307676Y0142939D01*
X0306900Y0141064D01*
X0306900Y0139036D01*
X0307044Y0138688D01*
X0305443Y0138688D01*
X0305443Y0140518D01*
X0304623Y0141338D01*
X0296725Y0141338D01*
X0296900Y0141513D01*
X0296900Y0143262D01*
X0304623Y0143262D01*
X0305443Y0144082D01*
X0305443Y0151541D01*
X0304623Y0152361D01*
X0296377Y0152361D01*
X0295557Y0151541D01*
X0295557Y0150668D01*
X0293115Y0150668D01*
X0293025Y0150759D01*
X0287141Y0150759D01*
X0286500Y0150118D01*
X0285859Y0150759D01*
X0279975Y0150759D01*
X0279916Y0150700D01*
X0278070Y0150700D01*
X0277440Y0151330D01*
X0276344Y0151784D01*
X0275156Y0151784D01*
X0274060Y0151330D01*
X0273220Y0150490D01*
X0272766Y0149272D02*
X0272248Y0149272D01*
X0272508Y0147673D02*
X0272986Y0147673D01*
X0271769Y0146075D02*
X0274531Y0146075D01*
X0276969Y0146075D02*
X0278755Y0146075D01*
X0279953Y0146800D02*
X0279953Y0146800D01*
X0279953Y0146800D01*
X0279155Y0144476D02*
X0268637Y0144476D01*
X0268358Y0142878D02*
X0267039Y0142878D01*
X0267322Y0141279D02*
X0265440Y0141279D01*
X0267380Y0139681D02*
X0250368Y0139681D01*
X0250368Y0138082D02*
X0268497Y0138082D01*
X0270010Y0136484D02*
X0250368Y0136484D01*
X0250368Y0134885D02*
X0269766Y0134885D01*
X0270543Y0133287D02*
X0250368Y0133287D01*
X0248802Y0131688D02*
X0273675Y0131688D01*
X0275273Y0130090D02*
X0249234Y0130090D01*
X0248834Y0128491D02*
X0307125Y0128491D01*
X0306900Y0130090D02*
X0288260Y0130090D01*
X0288734Y0131688D02*
X0307158Y0131688D01*
X0308024Y0133287D02*
X0305443Y0133287D01*
X0305443Y0134885D02*
X0310347Y0134885D01*
X0313653Y0134885D02*
X0320050Y0134885D01*
X0320050Y0133287D02*
X0315976Y0133287D01*
X0316842Y0131688D02*
X0320050Y0131688D01*
X0320050Y0130090D02*
X0317100Y0130090D01*
X0316875Y0128491D02*
X0320050Y0128491D01*
X0320050Y0126893D02*
X0316055Y0126893D01*
X0313846Y0125294D02*
X0320050Y0125294D01*
X0320050Y0123696D02*
X0315567Y0123696D01*
X0316672Y0122097D02*
X0320050Y0122097D01*
X0320050Y0120499D02*
X0317100Y0120499D01*
X0317044Y0118900D02*
X0320050Y0118900D01*
X0320050Y0117302D02*
X0316382Y0117302D01*
X0314833Y0115703D02*
X0320050Y0115703D01*
X0320050Y0114105D02*
X0315158Y0114105D01*
X0316503Y0112506D02*
X0320050Y0112506D01*
X0320050Y0110908D02*
X0317100Y0110908D01*
X0317100Y0109309D02*
X0320050Y0109309D01*
X0320050Y0107711D02*
X0316551Y0107711D01*
X0315275Y0106112D02*
X0320050Y0106112D01*
X0320050Y0104514D02*
X0309463Y0104514D01*
X0308725Y0106112D02*
X0307865Y0106112D01*
X0307449Y0107711D02*
X0307350Y0107711D01*
X0310559Y0102915D02*
X0320050Y0102915D01*
X0320050Y0101317D02*
X0310600Y0101317D01*
X0310850Y0099718D02*
X0320050Y0099718D01*
X0320050Y0098120D02*
X0310948Y0098120D01*
X0309941Y0096521D02*
X0320050Y0096521D01*
X0320050Y0094923D02*
X0291848Y0094923D01*
X0292734Y0093324D02*
X0320050Y0093324D01*
X0320050Y0091726D02*
X0292535Y0091726D01*
X0291095Y0090127D02*
X0320050Y0090127D01*
X0320050Y0088529D02*
X0319872Y0088529D01*
X0317628Y0088529D02*
X0284256Y0088529D01*
X0284400Y0090127D02*
X0288405Y0090127D01*
X0286965Y0091726D02*
X0283986Y0091726D01*
X0282802Y0093324D02*
X0286539Y0093324D01*
X0288716Y0096521D02*
X0306059Y0096521D01*
X0305052Y0098120D02*
X0297127Y0098120D01*
X0297176Y0099718D02*
X0305150Y0099718D01*
X0305306Y0101317D02*
X0297176Y0101317D01*
X0297174Y0102915D02*
X0303708Y0102915D01*
X0299733Y0104514D02*
X0299267Y0104514D01*
X0299267Y0106112D02*
X0299733Y0106112D01*
X0293483Y0099718D02*
X0293017Y0099718D01*
X0293017Y0098120D02*
X0293483Y0098120D01*
X0289373Y0098120D02*
X0274367Y0098120D01*
X0272633Y0098120D02*
X0269867Y0098120D01*
X0268269Y0099718D02*
X0289324Y0099718D01*
X0289324Y0101317D02*
X0271800Y0101317D01*
X0276825Y0102915D02*
X0289326Y0102915D01*
X0290058Y0104514D02*
X0277118Y0104514D01*
X0277118Y0106112D02*
X0289724Y0106112D01*
X0289724Y0107711D02*
X0277118Y0107711D01*
X0276526Y0109309D02*
X0289724Y0109309D01*
X0290490Y0110908D02*
X0277118Y0110908D01*
X0277118Y0112506D02*
X0291350Y0112506D01*
X0291350Y0114105D02*
X0277118Y0114105D01*
X0278069Y0115703D02*
X0291350Y0115703D01*
X0290028Y0117302D02*
X0278484Y0117302D01*
X0278067Y0118900D02*
X0289039Y0118900D01*
X0289163Y0120499D02*
X0274886Y0120499D01*
X0272709Y0123696D02*
X0213107Y0123696D01*
X0213605Y0122097D02*
X0271110Y0122097D01*
X0269512Y0120499D02*
X0213483Y0120499D01*
X0212675Y0118900D02*
X0267913Y0118900D01*
X0265095Y0117302D02*
X0248969Y0117302D01*
X0249484Y0115703D02*
X0263498Y0115703D01*
X0263266Y0114105D02*
X0249131Y0114105D01*
X0248150Y0112506D02*
X0264073Y0112506D01*
X0265671Y0110908D02*
X0248150Y0110908D01*
X0248150Y0109309D02*
X0264072Y0109309D01*
X0262474Y0107711D02*
X0248150Y0107711D01*
X0248150Y0106112D02*
X0261850Y0106112D01*
X0261850Y0104514D02*
X0248150Y0104514D01*
X0248150Y0102915D02*
X0261850Y0102915D01*
X0261850Y0101317D02*
X0248204Y0101317D01*
X0249203Y0099718D02*
X0262895Y0099718D01*
X0259670Y0098120D02*
X0249095Y0098120D01*
X0247941Y0096521D02*
X0259266Y0096521D01*
X0257936Y0094923D02*
X0216054Y0094923D01*
X0216054Y0096521D02*
X0244559Y0096521D01*
X0249890Y0090127D02*
X0224412Y0090127D01*
X0224412Y0091726D02*
X0254739Y0091726D01*
X0256337Y0093324D02*
X0224412Y0093324D01*
X0223939Y0088529D02*
X0248292Y0088529D01*
X0245195Y0086930D02*
X0223900Y0086930D01*
X0224439Y0085332D02*
X0228134Y0085332D01*
X0227824Y0083733D02*
X0224984Y0083733D01*
X0224644Y0082134D02*
X0231516Y0082134D01*
X0231984Y0082134D02*
X0236766Y0082134D01*
X0236766Y0082228D02*
X0236766Y0081761D01*
X0235676Y0081761D01*
X0235676Y0082011D01*
X0231984Y0082011D01*
X0231984Y0082478D01*
X0233074Y0082478D01*
X0233074Y0082228D01*
X0236766Y0082228D01*
X0237234Y0082134D02*
X0253469Y0082134D01*
X0253266Y0080536D02*
X0240926Y0080536D01*
X0240633Y0078937D02*
X0253520Y0078937D01*
X0259600Y0080536D02*
X0281838Y0080536D01*
X0281838Y0082134D02*
X0259031Y0082134D01*
X0257571Y0083733D02*
X0281838Y0083733D01*
X0281531Y0085332D02*
X0281113Y0085332D01*
X0278387Y0085332D02*
X0250734Y0085332D01*
X0250331Y0083733D02*
X0254929Y0083733D01*
X0252067Y0086930D02*
X0276044Y0086930D01*
X0275244Y0088529D02*
X0256916Y0088529D01*
X0258514Y0090127D02*
X0275100Y0090127D01*
X0275514Y0091726D02*
X0260113Y0091726D01*
X0261711Y0093324D02*
X0276698Y0093324D01*
X0267690Y0094923D02*
X0264806Y0094923D01*
X0265234Y0096521D02*
X0266092Y0096521D01*
X0285307Y0086930D02*
X0289720Y0086930D01*
X0291961Y0086930D02*
X0292428Y0086930D01*
X0292428Y0085332D02*
X0291961Y0085332D01*
X0291961Y0083733D02*
X0292428Y0083733D01*
X0292428Y0082816D02*
X0292428Y0079124D01*
X0292678Y0079124D01*
X0292678Y0077284D01*
X0292211Y0077284D01*
X0292211Y0080976D01*
X0291961Y0080976D01*
X0291961Y0082816D01*
X0292428Y0082816D01*
X0292428Y0082134D02*
X0291961Y0082134D01*
X0292211Y0080536D02*
X0292428Y0080536D01*
X0292211Y0078937D02*
X0292678Y0078937D01*
X0292678Y0077339D02*
X0292211Y0077339D01*
X0292211Y0075740D02*
X0292678Y0075740D01*
X0292678Y0074142D02*
X0292211Y0074142D01*
X0296139Y0074142D02*
X0304400Y0074142D01*
X0304400Y0075740D02*
X0296312Y0075740D01*
X0296312Y0077339D02*
X0304400Y0077339D01*
X0304400Y0078937D02*
X0296312Y0078937D01*
X0296021Y0080536D02*
X0315650Y0080536D01*
X0315650Y0082134D02*
X0296062Y0082134D01*
X0296062Y0083733D02*
X0315650Y0083733D01*
X0315569Y0085332D02*
X0296062Y0085332D01*
X0294670Y0086930D02*
X0315878Y0086930D01*
X0315650Y0078937D02*
X0314600Y0078937D01*
X0314600Y0077339D02*
X0315650Y0077339D01*
X0315650Y0075740D02*
X0314600Y0075740D01*
X0314600Y0074142D02*
X0315650Y0074142D01*
X0315650Y0072543D02*
X0314600Y0072543D01*
X0314600Y0070945D02*
X0315650Y0070945D01*
X0315650Y0069346D02*
X0312416Y0069346D01*
X0313903Y0067748D02*
X0315650Y0067748D01*
X0315650Y0066149D02*
X0314565Y0066149D01*
X0314600Y0064551D02*
X0315650Y0064551D01*
X0315650Y0062952D02*
X0314151Y0062952D01*
X0313016Y0061354D02*
X0315650Y0061354D01*
X0315650Y0059755D02*
X0311467Y0059755D01*
X0313606Y0058157D02*
X0315650Y0058157D01*
X0315650Y0056558D02*
X0314395Y0056558D01*
X0314600Y0054960D02*
X0315650Y0054960D01*
X0315650Y0053361D02*
X0314321Y0053361D01*
X0313425Y0051763D02*
X0315650Y0051763D01*
X0315650Y0050164D02*
X0311032Y0050164D01*
X0313197Y0048566D02*
X0315650Y0048566D01*
X0315650Y0046967D02*
X0314226Y0046967D01*
X0314600Y0045369D02*
X0315650Y0045369D01*
X0315650Y0043770D02*
X0314490Y0043770D01*
X0313828Y0042172D02*
X0315650Y0042172D01*
X0315650Y0040573D02*
X0312019Y0040573D01*
X0312788Y0038975D02*
X0315650Y0038975D01*
X0315650Y0037376D02*
X0314057Y0037376D01*
X0314600Y0035778D02*
X0315650Y0035778D01*
X0315650Y0034179D02*
X0314600Y0034179D01*
X0313997Y0032581D02*
X0315650Y0032581D01*
X0315650Y0030982D02*
X0312645Y0030982D01*
X0312892Y0029384D02*
X0315650Y0029384D01*
X0315650Y0027785D02*
X0314279Y0027785D01*
X0314889Y0026187D02*
X0315650Y0026187D01*
X0315000Y0024850D02*
X0309700Y0024850D01*
X0309700Y0019550D01*
X0309933Y0019550D01*
X0310788Y0019685D01*
X0311611Y0019953D01*
X0312383Y0020346D01*
X0313083Y0020855D01*
X0313695Y0021467D01*
X0314204Y0022167D01*
X0314597Y0022939D01*
X0314865Y0023762D01*
X0315000Y0024617D01*
X0315000Y0024850D01*
X0314995Y0024588D02*
X0315650Y0024588D01*
X0315650Y0022990D02*
X0314614Y0022990D01*
X0313619Y0021391D02*
X0315650Y0021391D01*
X0315650Y0019793D02*
X0311118Y0019793D01*
X0309700Y0019793D02*
X0309300Y0019793D01*
X0309300Y0019550D02*
X0309300Y0024850D01*
X0304000Y0024850D01*
X0304000Y0024617D01*
X0304135Y0023762D01*
X0304403Y0022939D01*
X0304796Y0022167D01*
X0305305Y0021467D01*
X0305917Y0020855D01*
X0306617Y0020346D01*
X0307389Y0019953D01*
X0308212Y0019685D01*
X0309067Y0019550D01*
X0309300Y0019550D01*
X0307882Y0019793D02*
X0303184Y0019793D01*
X0301586Y0021391D02*
X0305381Y0021391D01*
X0304386Y0022990D02*
X0299987Y0022990D01*
X0298389Y0024588D02*
X0304005Y0024588D01*
X0304111Y0026187D02*
X0298100Y0026187D01*
X0292900Y0027785D02*
X0291662Y0027785D01*
X0291662Y0029384D02*
X0293918Y0029384D01*
X0295057Y0030982D02*
X0291662Y0030982D01*
X0295057Y0032581D02*
X0269156Y0032581D01*
X0266979Y0029384D02*
X0254246Y0029384D01*
X0253490Y0027785D02*
X0268578Y0027785D01*
X0270176Y0026187D02*
X0251236Y0026187D01*
X0248264Y0026187D02*
X0231236Y0026187D01*
X0233490Y0027785D02*
X0237009Y0027785D01*
X0235668Y0029384D02*
X0234246Y0029384D01*
X0234350Y0030982D02*
X0235150Y0030982D01*
X0235198Y0032581D02*
X0233888Y0032581D01*
X0234434Y0034179D02*
X0232626Y0034179D01*
X0232905Y0038200D02*
X0233650Y0038944D01*
X0234350Y0040635D01*
X0234350Y0042465D01*
X0233650Y0044156D01*
X0232356Y0045450D01*
X0232350Y0045452D01*
X0232350Y0053513D01*
X0233588Y0052275D01*
X0233588Y0050002D01*
X0234408Y0049181D01*
X0239899Y0049181D01*
X0240500Y0049783D01*
X0241101Y0049181D01*
X0243100Y0049181D01*
X0243100Y0043705D01*
X0242356Y0044450D01*
X0240665Y0045150D01*
X0238835Y0045150D01*
X0237144Y0044450D01*
X0235850Y0043156D01*
X0235150Y0041465D01*
X0235150Y0039635D01*
X0235744Y0038200D01*
X0232905Y0038200D01*
X0233662Y0038975D02*
X0235424Y0038975D01*
X0235150Y0040573D02*
X0234324Y0040573D01*
X0234350Y0042172D02*
X0235443Y0042172D01*
X0236465Y0043770D02*
X0233809Y0043770D01*
X0232437Y0045369D02*
X0243100Y0045369D01*
X0243100Y0046967D02*
X0232350Y0046967D01*
X0232350Y0048566D02*
X0243100Y0048566D01*
X0246900Y0048566D02*
X0249485Y0048566D01*
X0248819Y0050164D02*
X0247412Y0050164D01*
X0247412Y0051763D02*
X0249059Y0051763D01*
X0250474Y0053361D02*
X0247412Y0053361D01*
X0247412Y0054960D02*
X0275881Y0054960D01*
X0275881Y0053361D02*
X0253526Y0053361D01*
X0254515Y0048566D02*
X0271569Y0048566D01*
X0271962Y0046967D02*
X0246900Y0046967D01*
X0249836Y0046550D02*
X0249836Y0041636D01*
X0254750Y0041636D01*
X0254750Y0041944D01*
X0254627Y0042721D01*
X0254384Y0043469D01*
X0254026Y0044171D01*
X0253564Y0044807D01*
X0253007Y0045364D01*
X0252371Y0045826D01*
X0251669Y0046184D01*
X0250921Y0046427D01*
X0250144Y0046550D01*
X0249836Y0046550D01*
X0249836Y0045369D02*
X0249664Y0045369D01*
X0249664Y0043770D02*
X0249836Y0043770D01*
X0249836Y0042172D02*
X0249664Y0042172D01*
X0249836Y0041464D02*
X0254750Y0041464D01*
X0254750Y0041156D01*
X0254627Y0040379D01*
X0254384Y0039631D01*
X0254026Y0038929D01*
X0253564Y0038293D01*
X0253007Y0037736D01*
X0252371Y0037274D01*
X0251669Y0036916D01*
X0250921Y0036673D01*
X0250144Y0036550D01*
X0249836Y0036550D01*
X0249836Y0041464D01*
X0249836Y0040573D02*
X0249664Y0040573D01*
X0249664Y0038975D02*
X0249836Y0038975D01*
X0249836Y0037376D02*
X0249664Y0037376D01*
X0246988Y0037376D02*
X0246900Y0037376D01*
X0247209Y0035778D02*
X0294085Y0035778D01*
X0295057Y0034179D02*
X0252626Y0034179D01*
X0252512Y0037376D02*
X0290675Y0037376D01*
X0290069Y0038975D02*
X0254049Y0038975D01*
X0254658Y0040573D02*
X0290334Y0040573D01*
X0291870Y0042172D02*
X0254714Y0042172D01*
X0254230Y0043770D02*
X0287044Y0043770D01*
X0286569Y0045369D02*
X0253000Y0045369D01*
X0243100Y0043770D02*
X0243035Y0043770D01*
X0233588Y0050164D02*
X0232350Y0050164D01*
X0232350Y0051763D02*
X0233588Y0051763D01*
X0232502Y0053361D02*
X0232350Y0053361D01*
X0234679Y0056558D02*
X0275974Y0056558D01*
X0275881Y0051763D02*
X0274224Y0051763D01*
X0277931Y0048566D02*
X0286100Y0048566D01*
X0286100Y0050164D02*
X0284113Y0050164D01*
X0286100Y0046967D02*
X0277538Y0046967D01*
X0289900Y0050164D02*
X0307968Y0050164D01*
X0305803Y0048566D02*
X0290782Y0048566D01*
X0292606Y0046967D02*
X0295483Y0046967D01*
X0295057Y0045369D02*
X0292931Y0045369D01*
X0292456Y0043770D02*
X0295057Y0043770D01*
X0295057Y0042172D02*
X0294630Y0042172D01*
X0304517Y0046967D02*
X0304774Y0046967D01*
X0304811Y0051763D02*
X0305575Y0051763D01*
X0295712Y0051763D02*
X0293788Y0051763D01*
X0293788Y0053361D02*
X0295712Y0053361D01*
X0295712Y0054960D02*
X0293788Y0054960D01*
X0293788Y0056558D02*
X0295712Y0056558D01*
X0295712Y0058157D02*
X0293788Y0058157D01*
X0293788Y0059755D02*
X0295712Y0059755D01*
X0295712Y0061354D02*
X0293788Y0061354D01*
X0293788Y0062952D02*
X0295712Y0062952D01*
X0295712Y0064551D02*
X0293788Y0064551D01*
X0293788Y0066149D02*
X0295712Y0066149D01*
X0295712Y0067748D02*
X0293788Y0067748D01*
X0293615Y0069346D02*
X0295885Y0069346D01*
X0304400Y0070945D02*
X0284309Y0070945D01*
X0284400Y0069346D02*
X0284862Y0069346D01*
X0284689Y0067748D02*
X0283933Y0067748D01*
X0284689Y0066149D02*
X0282675Y0066149D01*
X0284689Y0064551D02*
X0259572Y0064551D01*
X0260785Y0062952D02*
X0276692Y0062952D01*
X0275881Y0061354D02*
X0262383Y0061354D01*
X0258608Y0059755D02*
X0236882Y0059755D01*
X0235284Y0058157D02*
X0260206Y0058157D01*
X0254009Y0061354D02*
X0238481Y0061354D01*
X0240079Y0062952D02*
X0253569Y0062952D01*
X0253928Y0064551D02*
X0240600Y0064551D01*
X0240600Y0066149D02*
X0253467Y0066149D01*
X0253074Y0067748D02*
X0240600Y0067748D01*
X0240600Y0069346D02*
X0256766Y0069346D01*
X0257234Y0069346D02*
X0259074Y0069346D01*
X0259074Y0069372D02*
X0259074Y0069122D01*
X0257234Y0069122D01*
X0257234Y0069589D01*
X0260926Y0069589D01*
X0260926Y0069839D01*
X0262766Y0069839D01*
X0262766Y0069372D01*
X0259074Y0069372D01*
X0262767Y0069346D02*
X0263233Y0069346D01*
X0263233Y0067748D02*
X0262767Y0067748D01*
X0262767Y0066149D02*
X0263233Y0066149D01*
X0266283Y0066149D02*
X0276825Y0066149D01*
X0275567Y0067748D02*
X0266926Y0067748D01*
X0266926Y0069346D02*
X0275100Y0069346D01*
X0275191Y0070945D02*
X0266926Y0070945D01*
X0266701Y0072543D02*
X0275917Y0072543D01*
X0278081Y0074142D02*
X0266526Y0074142D01*
X0266526Y0075740D02*
X0282088Y0075740D01*
X0282088Y0077339D02*
X0266526Y0077339D01*
X0266526Y0078937D02*
X0282088Y0078937D01*
X0285180Y0072543D02*
X0304400Y0072543D01*
X0304638Y0069346D02*
X0306584Y0069346D01*
X0305097Y0067748D02*
X0304811Y0067748D01*
X0284689Y0062952D02*
X0281808Y0062952D01*
X0282618Y0061354D02*
X0284689Y0061354D01*
X0284689Y0059755D02*
X0282618Y0059755D01*
X0282618Y0058157D02*
X0284689Y0058157D01*
X0284689Y0056558D02*
X0282526Y0056558D01*
X0283589Y0054960D02*
X0284689Y0054960D01*
X0253074Y0070945D02*
X0240236Y0070945D01*
X0235400Y0067748D02*
X0215885Y0067748D01*
X0227068Y0062952D02*
X0232725Y0062952D01*
X0231127Y0061354D02*
X0227734Y0061354D01*
X0227444Y0059755D02*
X0229528Y0059755D01*
X0212654Y0050164D02*
X0206823Y0050164D01*
X0208421Y0048566D02*
X0211654Y0048566D01*
X0211185Y0046967D02*
X0210020Y0046967D01*
X0213217Y0043770D02*
X0213368Y0043770D01*
X0218012Y0038975D02*
X0225838Y0038975D01*
X0244302Y0032581D02*
X0245032Y0032581D01*
X0245150Y0030982D02*
X0244350Y0030982D01*
X0243832Y0029384D02*
X0245254Y0029384D01*
X0246009Y0027785D02*
X0242490Y0027785D01*
X0213987Y0022990D02*
X0271703Y0022990D01*
X0281977Y0013600D02*
X0289577Y0021200D01*
X0294423Y0021200D01*
X0296652Y0018971D01*
X0296512Y0019052D01*
X0296054Y0019175D01*
X0294833Y0019175D01*
X0294833Y0015800D01*
X0294833Y0015800D01*
X0294833Y0019175D01*
X0293611Y0019175D01*
X0293154Y0019052D01*
X0292743Y0018815D01*
X0292408Y0018480D01*
X0292171Y0018070D01*
X0292048Y0017612D01*
X0292048Y0015800D01*
X0292048Y0013988D01*
X0292152Y0013600D01*
X0281977Y0013600D01*
X0283374Y0014997D02*
X0292048Y0014997D01*
X0292048Y0015800D02*
X0294833Y0015800D01*
X0294833Y0015800D01*
X0292048Y0015800D01*
X0292048Y0016596D02*
X0284972Y0016596D01*
X0286571Y0018194D02*
X0292243Y0018194D01*
X0294833Y0018194D02*
X0294833Y0018194D01*
X0294833Y0016596D02*
X0294833Y0016596D01*
X0295830Y0019793D02*
X0288169Y0019793D01*
X0304783Y0018194D02*
X0315217Y0018194D01*
X0309700Y0021391D02*
X0309300Y0021391D01*
X0309300Y0022990D02*
X0309700Y0022990D01*
X0309700Y0024588D02*
X0309300Y0024588D01*
X0304721Y0027785D02*
X0304670Y0027785D01*
X0228224Y0075740D02*
X0191901Y0075740D01*
X0192181Y0077339D02*
X0228224Y0077339D01*
X0228319Y0078937D02*
X0191611Y0078937D01*
X0184317Y0075796D02*
X0184198Y0075747D01*
X0183995Y0075544D01*
X0183995Y0075800D01*
X0183995Y0075900D01*
X0184213Y0075900D01*
X0184317Y0075796D01*
X0184192Y0075740D02*
X0183995Y0075740D01*
X0183995Y0075800D02*
X0182797Y0075800D01*
X0182797Y0075800D01*
X0182797Y0075800D01*
X0183995Y0075800D01*
X0174567Y0080536D02*
X0227824Y0080536D01*
X0231517Y0083733D02*
X0231983Y0083733D01*
X0231983Y0085332D02*
X0231517Y0085332D01*
X0236767Y0085332D02*
X0237233Y0085332D01*
X0237233Y0083733D02*
X0236767Y0083733D01*
X0240402Y0085332D02*
X0244766Y0085332D01*
X0245169Y0083733D02*
X0240926Y0083733D01*
X0220100Y0086930D02*
X0172307Y0086930D01*
X0172699Y0088529D02*
X0179301Y0088529D01*
X0178299Y0090127D02*
X0173848Y0090127D01*
X0179234Y0093005D02*
X0179234Y0093894D01*
X0178780Y0094990D01*
X0178150Y0095620D01*
X0178150Y0095763D01*
X0181537Y0099150D01*
X0190880Y0099150D01*
X0190430Y0098700D01*
X0185963Y0098700D01*
X0181047Y0093784D01*
X0180656Y0093784D01*
X0179560Y0093330D01*
X0179234Y0093005D01*
X0179234Y0093324D02*
X0179554Y0093324D01*
X0178808Y0094923D02*
X0182186Y0094923D01*
X0183784Y0096521D02*
X0178908Y0096521D01*
X0180507Y0098120D02*
X0185383Y0098120D01*
X0185961Y0093324D02*
X0210588Y0093324D01*
X0210588Y0091726D02*
X0184363Y0091726D01*
X0184201Y0090127D02*
X0210588Y0090127D01*
X0211061Y0088529D02*
X0183199Y0088529D01*
X0173905Y0085332D02*
X0219561Y0085332D01*
X0219016Y0083733D02*
X0174567Y0083733D01*
X0174567Y0082134D02*
X0219356Y0082134D01*
X0217754Y0088529D02*
X0217246Y0088529D01*
X0211157Y0094923D02*
X0195093Y0094923D01*
X0195734Y0096521D02*
X0210092Y0096521D01*
X0210109Y0098120D02*
X0202224Y0098120D01*
X0200776Y0098120D02*
X0195434Y0098120D01*
X0182106Y0107711D02*
X0179394Y0107711D01*
X0179725Y0109309D02*
X0181775Y0109309D01*
X0182114Y0110908D02*
X0179386Y0110908D01*
X0178165Y0112506D02*
X0183335Y0112506D01*
X0183428Y0115703D02*
X0182961Y0115703D01*
X0182961Y0117302D02*
X0183428Y0117302D01*
X0183428Y0118284D02*
X0182961Y0118284D01*
X0182961Y0124066D01*
X0183428Y0124066D01*
X0183428Y0120374D01*
X0183428Y0118284D01*
X0183428Y0118900D02*
X0182961Y0118900D01*
X0182961Y0120499D02*
X0183428Y0120499D01*
X0183428Y0122097D02*
X0182961Y0122097D01*
X0182961Y0123696D02*
X0183428Y0123696D01*
X0172838Y0126893D02*
X0171126Y0126893D01*
X0165780Y0126893D02*
X0165220Y0126893D01*
X0161841Y0123696D02*
X0157618Y0123696D01*
X0150881Y0123696D02*
X0126800Y0123696D01*
X0126800Y0125294D02*
X0150881Y0125294D01*
X0150881Y0126893D02*
X0126800Y0126893D01*
X0126800Y0128491D02*
X0150924Y0128491D01*
X0150881Y0130090D02*
X0126800Y0130090D01*
X0126800Y0131688D02*
X0150881Y0131688D01*
X0150881Y0133287D02*
X0126800Y0133287D01*
X0126800Y0134885D02*
X0150881Y0134885D01*
X0152945Y0136484D02*
X0126800Y0136484D01*
X0126800Y0138082D02*
X0151952Y0138082D01*
X0151775Y0139681D02*
X0126800Y0139681D01*
X0126800Y0141279D02*
X0152268Y0141279D01*
X0151180Y0155047D02*
X0151922Y0155165D01*
X0152636Y0155397D01*
X0153304Y0155737D01*
X0153912Y0156179D01*
X0154442Y0156709D01*
X0154884Y0157316D01*
X0155224Y0157985D01*
X0155456Y0158699D01*
X0155574Y0159440D01*
X0155574Y0159631D01*
X0150989Y0159631D01*
X0150989Y0155047D01*
X0151180Y0155047D01*
X0150621Y0155047D02*
X0150621Y0159631D01*
X0150989Y0159631D01*
X0150989Y0160000D01*
X0150621Y0160000D01*
X0150621Y0164584D01*
X0150430Y0164584D01*
X0149688Y0164467D01*
X0148975Y0164235D01*
X0148306Y0163894D01*
X0147699Y0163453D01*
X0147168Y0162922D01*
X0146727Y0162315D01*
X0146386Y0161646D01*
X0146154Y0160932D01*
X0146127Y0160760D01*
X0145493Y0162290D01*
X0144264Y0163519D01*
X0142658Y0164184D01*
X0140920Y0164184D01*
X0139315Y0163519D01*
X0138086Y0162290D01*
X0137421Y0160685D01*
X0137421Y0158947D01*
X0138086Y0157341D01*
X0139315Y0156112D01*
X0140920Y0155447D01*
X0142658Y0155447D01*
X0144264Y0156112D01*
X0145493Y0157341D01*
X0146127Y0158872D01*
X0146154Y0158699D01*
X0146386Y0157985D01*
X0146727Y0157316D01*
X0147168Y0156709D01*
X0147699Y0156179D01*
X0148306Y0155737D01*
X0148975Y0155397D01*
X0149688Y0155165D01*
X0150430Y0155047D01*
X0150621Y0155047D01*
X0150621Y0155666D02*
X0150989Y0155666D01*
X0150989Y0157265D02*
X0150621Y0157265D01*
X0150621Y0158863D02*
X0150989Y0158863D01*
X0150989Y0160000D02*
X0155574Y0160000D01*
X0155574Y0160191D01*
X0155456Y0160932D01*
X0155224Y0161646D01*
X0154884Y0162315D01*
X0154442Y0162922D01*
X0153912Y0163453D01*
X0153304Y0163894D01*
X0152636Y0164235D01*
X0151922Y0164467D01*
X0151180Y0164584D01*
X0150989Y0164584D01*
X0150989Y0160000D01*
X0150989Y0160462D02*
X0150621Y0160462D01*
X0150621Y0162060D02*
X0150989Y0162060D01*
X0150989Y0163659D02*
X0150621Y0163659D01*
X0147982Y0163659D02*
X0143927Y0163659D01*
X0145588Y0162060D02*
X0146597Y0162060D01*
X0146123Y0158863D02*
X0146128Y0158863D01*
X0146764Y0157265D02*
X0145416Y0157265D01*
X0143186Y0155666D02*
X0148446Y0155666D01*
X0153164Y0155666D02*
X0185392Y0155666D01*
X0183163Y0157265D02*
X0154846Y0157265D01*
X0155482Y0158863D02*
X0163510Y0158863D01*
X0161911Y0160462D02*
X0155531Y0160462D01*
X0155013Y0162060D02*
X0160313Y0162060D01*
X0156689Y0163659D02*
X0153629Y0163659D01*
X0156689Y0165257D02*
X0126800Y0165257D01*
X0126800Y0163659D02*
X0139651Y0163659D01*
X0137991Y0162060D02*
X0126800Y0162060D01*
X0126800Y0160462D02*
X0137421Y0160462D01*
X0137456Y0158863D02*
X0126800Y0158863D01*
X0126800Y0157265D02*
X0138163Y0157265D01*
X0140392Y0155666D02*
X0126800Y0155666D01*
X0126800Y0166856D02*
X0156689Y0166856D01*
X0156689Y0168454D02*
X0126800Y0168454D01*
X0126800Y0170053D02*
X0156689Y0170053D01*
X0156689Y0171651D02*
X0126800Y0171651D01*
X0126800Y0173250D02*
X0174584Y0173250D01*
X0174597Y0174848D02*
X0174966Y0174848D01*
X0174966Y0176447D02*
X0174597Y0176447D01*
X0174597Y0178045D02*
X0174966Y0178045D01*
X0170625Y0176447D02*
X0170507Y0176447D01*
X0172097Y0174848D02*
X0168644Y0174848D01*
X0167712Y0171651D02*
X0165788Y0171651D01*
X0165788Y0170053D02*
X0167712Y0170053D01*
X0167712Y0168454D02*
X0165788Y0168454D01*
X0165788Y0166856D02*
X0167712Y0166856D01*
X0167712Y0165257D02*
X0165788Y0165257D01*
X0166068Y0163659D02*
X0167712Y0163659D01*
X0176811Y0163659D02*
X0177682Y0163659D01*
X0176811Y0165257D02*
X0179280Y0165257D01*
X0180879Y0166856D02*
X0176811Y0166856D01*
X0176811Y0168454D02*
X0182477Y0168454D01*
X0184498Y0170053D02*
X0176811Y0170053D01*
X0178359Y0171651D02*
X0216424Y0171651D01*
X0217479Y0173250D02*
X0179957Y0173250D01*
X0164856Y0174848D02*
X0160612Y0174848D01*
X0162475Y0176447D02*
X0162993Y0176447D01*
X0156825Y0174848D02*
X0126800Y0174848D01*
X0126800Y0176447D02*
X0130678Y0176447D01*
X0130781Y0176367D02*
X0131588Y0175901D01*
X0132450Y0175544D01*
X0133351Y0175303D01*
X0133942Y0175225D01*
X0133942Y0181496D01*
X0127671Y0181496D01*
X0127749Y0180905D01*
X0127990Y0180004D01*
X0128347Y0179142D01*
X0128814Y0178335D01*
X0129381Y0177595D01*
X0130041Y0176935D01*
X0130781Y0176367D01*
X0129036Y0178045D02*
X0126800Y0178045D01*
X0126800Y0179644D02*
X0128140Y0179644D01*
X0127705Y0181242D02*
X0126800Y0181242D01*
X0126800Y0182841D02*
X0133942Y0182841D01*
X0133942Y0183096D02*
X0133942Y0181496D01*
X0135542Y0181496D01*
X0135542Y0175225D01*
X0136133Y0175303D01*
X0137034Y0175544D01*
X0137896Y0175901D01*
X0138703Y0176367D01*
X0139443Y0176935D01*
X0140103Y0177595D01*
X0140671Y0178335D01*
X0141137Y0179142D01*
X0141494Y0180004D01*
X0141735Y0180905D01*
X0141813Y0181496D01*
X0135542Y0181496D01*
X0135542Y0183096D01*
X0133942Y0183096D01*
X0127671Y0183096D01*
X0127749Y0183687D01*
X0127990Y0184588D01*
X0128347Y0185450D01*
X0128814Y0186257D01*
X0129381Y0186997D01*
X0130041Y0187657D01*
X0130781Y0188225D01*
X0131588Y0188691D01*
X0132450Y0189048D01*
X0133351Y0189289D01*
X0133942Y0189367D01*
X0133942Y0183096D01*
X0133942Y0184439D02*
X0135542Y0184439D01*
X0135542Y0183096D02*
X0135542Y0189367D01*
X0136133Y0189289D01*
X0136863Y0189094D01*
X0134800Y0191156D01*
X0133552Y0194169D01*
X0133552Y0197431D01*
X0134800Y0200444D01*
X0137106Y0202750D01*
X0140119Y0203998D01*
X0143381Y0203998D01*
X0146394Y0202750D01*
X0148700Y0200444D01*
X0149948Y0197431D01*
X0149948Y0194169D01*
X0148700Y0191156D01*
X0146394Y0188850D01*
X0143381Y0187602D01*
X0140119Y0187602D01*
X0138805Y0188147D01*
X0139443Y0187657D01*
X0140103Y0186997D01*
X0140671Y0186257D01*
X0141137Y0185450D01*
X0141494Y0184588D01*
X0141735Y0183687D01*
X0141813Y0183096D01*
X0135542Y0183096D01*
X0135542Y0182841D02*
X0150334Y0182841D01*
X0150334Y0184439D02*
X0141534Y0184439D01*
X0140798Y0186038D02*
X0150334Y0186038D01*
X0150334Y0187636D02*
X0143462Y0187636D01*
X0140038Y0187636D02*
X0139464Y0187636D01*
X0136722Y0189235D02*
X0136337Y0189235D01*
X0135542Y0189235D02*
X0133942Y0189235D01*
X0133148Y0189235D02*
X0126800Y0189235D01*
X0126800Y0190833D02*
X0135124Y0190833D01*
X0134272Y0192432D02*
X0126800Y0192432D01*
X0126800Y0194030D02*
X0133610Y0194030D01*
X0133552Y0195629D02*
X0126800Y0195629D01*
X0126800Y0197227D02*
X0133552Y0197227D01*
X0134130Y0198826D02*
X0126800Y0198826D01*
X0126800Y0200424D02*
X0134792Y0200424D01*
X0136380Y0202023D02*
X0126800Y0202023D01*
X0126800Y0203621D02*
X0139211Y0203621D01*
X0144289Y0203621D02*
X0191258Y0203621D01*
X0188427Y0202023D02*
X0147120Y0202023D01*
X0148708Y0200424D02*
X0186840Y0200424D01*
X0186178Y0198826D02*
X0149370Y0198826D01*
X0149948Y0197227D02*
X0185600Y0197227D01*
X0185600Y0195629D02*
X0149948Y0195629D01*
X0149890Y0194030D02*
X0185657Y0194030D01*
X0186319Y0192432D02*
X0149228Y0192432D01*
X0148376Y0190833D02*
X0187171Y0190833D01*
X0188769Y0189235D02*
X0182106Y0189235D01*
X0183213Y0187636D02*
X0192085Y0187636D01*
X0194750Y0186038D02*
X0183566Y0186038D01*
X0183369Y0184439D02*
X0194013Y0184439D01*
X0195510Y0187636D02*
X0196083Y0187636D01*
X0198825Y0189235D02*
X0199211Y0189235D01*
X0200005Y0189235D02*
X0201605Y0189235D01*
X0201605Y0187636D02*
X0200005Y0187636D01*
X0200005Y0186038D02*
X0201605Y0186038D01*
X0200424Y0190833D02*
X0230624Y0190833D01*
X0229479Y0192432D02*
X0201275Y0192432D01*
X0201937Y0194030D02*
X0228817Y0194030D01*
X0228552Y0195629D02*
X0201995Y0195629D01*
X0201995Y0197227D02*
X0228552Y0197227D01*
X0228923Y0198826D02*
X0201417Y0198826D01*
X0200755Y0200424D02*
X0229585Y0200424D01*
X0230880Y0202023D02*
X0199168Y0202023D01*
X0196336Y0203621D02*
X0233004Y0203621D01*
X0257550Y0189235D02*
X0257919Y0189235D01*
X0257919Y0187636D02*
X0257550Y0187636D01*
X0257550Y0186116D02*
X0257919Y0186116D01*
X0257919Y0181531D01*
X0257949Y0181531D01*
X0257734Y0181013D01*
X0257519Y0181531D01*
X0257550Y0181531D01*
X0257550Y0186116D01*
X0257550Y0186038D02*
X0257919Y0186038D01*
X0257919Y0184439D02*
X0257550Y0184439D01*
X0257550Y0182841D02*
X0257919Y0182841D01*
X0257829Y0181242D02*
X0257639Y0181242D01*
X0257051Y0176447D02*
X0258417Y0176447D01*
X0257167Y0171651D02*
X0243038Y0171651D01*
X0241440Y0170053D02*
X0256689Y0170053D01*
X0256689Y0168454D02*
X0239841Y0168454D01*
X0238243Y0166856D02*
X0256689Y0166856D01*
X0256689Y0165257D02*
X0236644Y0165257D01*
X0239625Y0163659D02*
X0242404Y0163659D01*
X0241358Y0162060D02*
X0240795Y0162060D01*
X0245621Y0162060D02*
X0245989Y0162060D01*
X0245989Y0160500D02*
X0245989Y0165084D01*
X0246180Y0165084D01*
X0246922Y0164967D01*
X0247636Y0164735D01*
X0248304Y0164394D01*
X0248912Y0163953D01*
X0249442Y0163422D01*
X0249884Y0162815D01*
X0250224Y0162146D01*
X0250456Y0161432D01*
X0250574Y0160691D01*
X0250574Y0160500D01*
X0245989Y0160500D01*
X0245989Y0160462D02*
X0254105Y0160462D01*
X0253766Y0158863D02*
X0250347Y0158863D01*
X0249482Y0157265D02*
X0254315Y0157265D01*
X0250252Y0162060D02*
X0263595Y0162060D01*
X0269350Y0160462D02*
X0277421Y0160462D01*
X0277663Y0158863D02*
X0267752Y0158863D01*
X0266153Y0157265D02*
X0278663Y0157265D01*
X0277900Y0150870D02*
X0295557Y0150870D01*
X0291926Y0155666D02*
X0320050Y0155666D01*
X0320050Y0154068D02*
X0315761Y0154068D01*
X0315583Y0154245D02*
X0316195Y0153633D01*
X0316704Y0152933D01*
X0317097Y0152161D01*
X0317365Y0151338D01*
X0317500Y0150483D01*
X0317500Y0150250D01*
X0312200Y0150250D01*
X0312200Y0155550D01*
X0312433Y0155550D01*
X0313288Y0155415D01*
X0314111Y0155147D01*
X0314883Y0154754D01*
X0315583Y0154245D01*
X0316940Y0152469D02*
X0320050Y0152469D01*
X0320050Y0150870D02*
X0317439Y0150870D01*
X0317445Y0149272D02*
X0320050Y0149272D01*
X0320050Y0147673D02*
X0316962Y0147673D01*
X0315803Y0146075D02*
X0320050Y0146075D01*
X0320050Y0144476D02*
X0314641Y0144476D01*
X0316349Y0142878D02*
X0320050Y0142878D01*
X0320050Y0141279D02*
X0317011Y0141279D01*
X0317100Y0139681D02*
X0320050Y0139681D01*
X0320050Y0138082D02*
X0316705Y0138082D01*
X0315646Y0136484D02*
X0320050Y0136484D01*
X0309359Y0144476D02*
X0305443Y0144476D01*
X0305443Y0146075D02*
X0308197Y0146075D01*
X0307038Y0147673D02*
X0305443Y0147673D01*
X0305443Y0149272D02*
X0306555Y0149272D01*
X0306561Y0150870D02*
X0305443Y0150870D01*
X0311800Y0150870D02*
X0312200Y0150870D01*
X0312200Y0152469D02*
X0311800Y0152469D01*
X0311800Y0154068D02*
X0312200Y0154068D01*
X0320050Y0157265D02*
X0294482Y0157265D01*
X0295347Y0158863D02*
X0320050Y0158863D01*
X0307651Y0142878D02*
X0296900Y0142878D01*
X0291350Y0139681D02*
X0290568Y0139681D01*
X0290812Y0138082D02*
X0290226Y0138082D01*
X0290266Y0136484D02*
X0288500Y0136484D01*
X0286500Y0136484D02*
X0275490Y0136484D01*
X0275852Y0134885D02*
X0290606Y0134885D01*
X0288364Y0133287D02*
X0295557Y0133287D01*
X0290443Y0125294D02*
X0310154Y0125294D01*
X0308433Y0123696D02*
X0292041Y0123696D01*
X0293649Y0122097D02*
X0305370Y0122097D01*
X0303772Y0120499D02*
X0294837Y0120499D01*
X0295150Y0118900D02*
X0302392Y0118900D01*
X0295974Y0117302D02*
X0295150Y0117302D01*
X0295150Y0115703D02*
X0295974Y0115703D01*
X0295974Y0114105D02*
X0295150Y0114105D01*
X0307945Y0126893D02*
X0199176Y0126893D01*
X0199176Y0125294D02*
X0206852Y0125294D01*
X0205393Y0123696D02*
X0199176Y0123696D01*
X0199121Y0122097D02*
X0204895Y0122097D01*
X0209250Y0122097D02*
X0209250Y0122097D01*
X0209250Y0120499D02*
X0209250Y0120499D01*
X0209250Y0118900D02*
X0209250Y0118900D01*
X0209250Y0123696D02*
X0209250Y0123696D01*
X0209250Y0125294D02*
X0209250Y0125294D01*
X0208459Y0127496D02*
X0206998Y0128102D01*
X0205880Y0129220D01*
X0205275Y0130681D01*
X0205275Y0132262D01*
X0205880Y0133723D01*
X0206998Y0134841D01*
X0208459Y0135446D01*
X0210041Y0135446D01*
X0211502Y0134841D01*
X0212620Y0133723D01*
X0213225Y0132262D01*
X0213225Y0130681D01*
X0212620Y0129220D01*
X0211502Y0128102D01*
X0210041Y0127496D01*
X0208459Y0127496D01*
X0206609Y0128491D02*
X0198419Y0128491D01*
X0198776Y0130090D02*
X0205520Y0130090D01*
X0205275Y0131688D02*
X0198776Y0131688D01*
X0198776Y0133287D02*
X0205700Y0133287D01*
X0207106Y0134885D02*
X0198032Y0134885D01*
X0211394Y0134885D02*
X0236631Y0134885D01*
X0236631Y0133287D02*
X0212800Y0133287D01*
X0213225Y0131688D02*
X0236991Y0131688D01*
X0236766Y0130090D02*
X0212980Y0130090D01*
X0211891Y0128491D02*
X0237588Y0128491D01*
X0241912Y0128491D02*
X0243665Y0128491D01*
X0243266Y0130090D02*
X0242734Y0130090D01*
X0242509Y0131688D02*
X0243698Y0131688D01*
X0243631Y0133287D02*
X0243368Y0133287D01*
X0243368Y0134885D02*
X0243631Y0134885D01*
X0243631Y0136484D02*
X0243368Y0136484D01*
X0243368Y0138082D02*
X0243631Y0138082D01*
X0243631Y0139681D02*
X0243368Y0139681D01*
X0243368Y0141279D02*
X0243631Y0141279D01*
X0243631Y0142878D02*
X0243368Y0142878D01*
X0243368Y0144476D02*
X0243631Y0144476D01*
X0250368Y0144476D02*
X0263263Y0144476D01*
X0272142Y0142878D02*
X0278277Y0142878D01*
X0282052Y0141279D02*
X0285259Y0141279D01*
X0285896Y0142878D02*
X0287104Y0142878D01*
X0284516Y0139681D02*
X0280454Y0139681D01*
X0284774Y0138082D02*
X0273831Y0138082D01*
X0274307Y0125294D02*
X0211648Y0125294D01*
X0195483Y0123696D02*
X0195017Y0123696D01*
X0195017Y0122097D02*
X0195483Y0122097D01*
X0187062Y0115703D02*
X0236766Y0115703D01*
X0236631Y0139681D02*
X0229851Y0139681D01*
X0224820Y0142878D02*
X0210683Y0142878D01*
X0215863Y0144476D02*
X0226767Y0144476D01*
X0229338Y0146075D02*
X0217462Y0146075D01*
X0219060Y0147673D02*
X0230936Y0147673D01*
X0232535Y0149272D02*
X0220659Y0149272D01*
X0222257Y0150870D02*
X0234133Y0150870D01*
X0234889Y0152469D02*
X0225389Y0152469D01*
X0226353Y0154068D02*
X0234889Y0154068D01*
X0234889Y0155666D02*
X0227053Y0155666D01*
X0228652Y0157265D02*
X0233663Y0157265D01*
X0232663Y0158863D02*
X0230250Y0158863D01*
X0231849Y0160462D02*
X0232421Y0160462D01*
X0239916Y0157265D02*
X0242128Y0157265D01*
X0241263Y0158863D02*
X0240916Y0158863D01*
X0245621Y0158863D02*
X0245989Y0158863D01*
X0245989Y0157265D02*
X0245621Y0157265D01*
X0245621Y0163659D02*
X0245989Y0163659D01*
X0249206Y0163659D02*
X0256689Y0163659D01*
X0270949Y0162060D02*
X0277783Y0162060D01*
X0276811Y0163659D02*
X0278954Y0163659D01*
X0290621Y0158863D02*
X0290989Y0158863D01*
X0290989Y0157265D02*
X0290621Y0157265D01*
X0290621Y0155666D02*
X0290989Y0155666D01*
X0304682Y0141279D02*
X0306989Y0141279D01*
X0306900Y0139681D02*
X0305443Y0139681D01*
X0268027Y0174848D02*
X0246235Y0174848D01*
X0244637Y0173250D02*
X0265013Y0173250D01*
X0265083Y0176447D02*
X0265955Y0176447D01*
X0278201Y0184439D02*
X0288879Y0184439D01*
X0289461Y0186038D02*
X0278566Y0186038D01*
X0278377Y0187636D02*
X0290583Y0187636D01*
X0284433Y0189235D02*
X0277559Y0189235D01*
X0273981Y0189235D02*
X0273613Y0189235D01*
X0273613Y0187636D02*
X0273981Y0187636D01*
X0270035Y0189235D02*
X0269009Y0189235D01*
X0262523Y0189235D02*
X0261496Y0189235D01*
X0250386Y0176447D02*
X0247834Y0176447D01*
X0213686Y0147673D02*
X0178060Y0147673D01*
X0176462Y0146075D02*
X0180335Y0146075D01*
X0188186Y0155666D02*
X0193446Y0155666D01*
X0195621Y0155666D02*
X0195989Y0155666D01*
X0195989Y0157265D02*
X0195621Y0157265D01*
X0195621Y0158863D02*
X0195989Y0158863D01*
X0195989Y0160462D02*
X0195621Y0160462D01*
X0195621Y0162060D02*
X0195989Y0162060D01*
X0195989Y0163659D02*
X0195621Y0163659D01*
X0192982Y0163659D02*
X0188927Y0163659D01*
X0190588Y0162060D02*
X0191597Y0162060D01*
X0191123Y0158863D02*
X0191128Y0158863D01*
X0191764Y0157265D02*
X0190416Y0157265D01*
X0182456Y0158863D02*
X0180240Y0158863D01*
X0181838Y0160462D02*
X0182421Y0160462D01*
X0200005Y0176447D02*
X0201605Y0176447D01*
X0201605Y0178045D02*
X0200005Y0178045D01*
X0200005Y0179644D02*
X0201605Y0179644D01*
X0201605Y0181242D02*
X0200005Y0181242D01*
X0178981Y0186038D02*
X0178613Y0186038D01*
X0178613Y0187636D02*
X0178981Y0187636D01*
X0178981Y0189235D02*
X0178613Y0189235D01*
X0175488Y0189235D02*
X0173509Y0189235D01*
X0168023Y0189235D02*
X0166043Y0189235D01*
X0162919Y0189235D02*
X0162550Y0189235D01*
X0162550Y0187636D02*
X0162919Y0187636D01*
X0162919Y0186038D02*
X0162550Y0186038D01*
X0162550Y0185616D02*
X0162919Y0185616D01*
X0162919Y0181031D01*
X0162949Y0181031D01*
X0162734Y0180513D01*
X0162519Y0181031D01*
X0162550Y0181031D01*
X0162550Y0185616D01*
X0162550Y0184439D02*
X0162919Y0184439D01*
X0162919Y0182841D02*
X0162550Y0182841D01*
X0162550Y0181242D02*
X0162919Y0181242D01*
X0155005Y0181242D02*
X0141780Y0181242D01*
X0141345Y0179644D02*
X0154350Y0179644D01*
X0154350Y0178045D02*
X0140448Y0178045D01*
X0138807Y0176447D02*
X0154962Y0176447D01*
X0135542Y0176447D02*
X0133942Y0176447D01*
X0133942Y0178045D02*
X0135542Y0178045D01*
X0135542Y0179644D02*
X0133942Y0179644D01*
X0133942Y0181242D02*
X0135542Y0181242D01*
X0135542Y0186038D02*
X0133942Y0186038D01*
X0133942Y0187636D02*
X0135542Y0187636D01*
X0130020Y0187636D02*
X0126800Y0187636D01*
X0126800Y0186038D02*
X0128687Y0186038D01*
X0127950Y0184439D02*
X0126800Y0184439D01*
X0146778Y0189235D02*
X0150334Y0189235D01*
X0159071Y0189235D02*
X0159425Y0189235D01*
X0126800Y0205220D02*
X0320050Y0205220D01*
X0320050Y0206818D02*
X0126800Y0206818D01*
X0172424Y0133287D02*
X0173338Y0133287D01*
X0153335Y0112506D02*
X0126800Y0112506D01*
X0126800Y0110908D02*
X0152114Y0110908D01*
X0151775Y0109309D02*
X0126800Y0109309D01*
X0126800Y0107711D02*
X0152106Y0107711D01*
X0153317Y0106112D02*
X0126800Y0106112D01*
X0126800Y0104514D02*
X0154100Y0104514D01*
X0154100Y0102915D02*
X0126800Y0102915D01*
X0126800Y0101317D02*
X0154100Y0101317D01*
X0154100Y0099718D02*
X0126800Y0099718D01*
X0126800Y0098120D02*
X0154100Y0098120D01*
X0162900Y0098120D02*
X0164766Y0098120D01*
X0164600Y0096521D02*
X0162900Y0096521D01*
X0162900Y0094923D02*
X0164600Y0094923D01*
X0164600Y0093324D02*
X0162900Y0093324D01*
X0162900Y0091726D02*
X0164600Y0091726D01*
X0164600Y0090127D02*
X0163860Y0090127D01*
X0161683Y0086930D02*
X0157900Y0086930D01*
X0159405Y0085332D02*
X0163281Y0085332D01*
X0163350Y0083733D02*
X0161004Y0083733D01*
X0162602Y0082134D02*
X0163350Y0082134D01*
X0163782Y0099718D02*
X0165448Y0099718D01*
X0163984Y0101317D02*
X0169350Y0101317D01*
X0169678Y0102915D02*
X0163105Y0102915D01*
X0191370Y0035778D02*
X0197057Y0035778D01*
X0197710Y0034179D02*
X0187118Y0034179D01*
X0180513Y0032581D02*
X0146706Y0032581D01*
X0148266Y0026187D02*
X0143588Y0026187D01*
X0186347Y0026187D02*
X0186926Y0026187D01*
X0206124Y0022990D02*
X0208650Y0022990D01*
X0208650Y0024588D02*
X0206943Y0024588D01*
X0295005Y0176447D02*
X0296605Y0176447D01*
X0296605Y0178045D02*
X0295005Y0178045D01*
X0295005Y0179644D02*
X0296605Y0179644D01*
X0296605Y0181242D02*
X0295005Y0181242D01*
X0301116Y0178045D02*
X0320050Y0178045D01*
X0320050Y0176447D02*
X0299038Y0176447D01*
X0302201Y0179644D02*
X0320050Y0179644D01*
X0320050Y0181242D02*
X0302755Y0181242D01*
M02*
