%
M48
M72
T01C0.01969
T02C0.02362
T03C0.02756
T04C0.03150
T05C0.03543
T06C0.03937
T07C0.04000
T08C0.05118
T09C0.07087
T10C0.12795
%
T01
X148000Y172050
X181750Y147800
X180750Y136050
X200750Y119050
X209750Y104800
X201500Y101050
X192750Y96800
X182000Y96800
X176250Y93300
X171000Y91050
X167750Y97800
X161000Y100800
X181250Y90800
X176250Y70550
X166500Y63550
X162000Y69050
X158000Y70550
X173500Y59800
X172500Y52800
X163500Y58300
X190750Y53800
X200250Y59050
X211000Y70800
X216750Y71300
X220750Y78800
X222000Y83550
X242500Y85050
X247750Y85300
X256250Y81050
X270000Y91050
X262250Y96550
X268750Y103050
X258250Y107300
X266250Y114550
X260000Y117050
X246500Y115550
X239750Y115550
X233750Y101050
X222000Y101050
X213000Y97300
X246250Y99050
X275500Y117300
X292000Y119550
X285750Y131800
X293250Y136300
X287500Y139300
X272750Y135300
X271000Y130800
X270250Y140550
X269524Y148050
X275750Y148800
X257000Y153550
X256750Y159050
X239500Y147800
X230250Y153550
X223375Y154675
X218351Y154949
X221750Y145050
X227500Y141550
X233750Y132300
X239750Y130550
X246250Y130050
X254000Y137050
X251500Y171550
X282000Y173550
X220000Y171550
X143000Y146050
X154500Y118050
X135000Y111800
X148250Y84800
X134500Y70550
X174500Y36300
X194000Y39300
X212500Y34550
X218250Y32550
X225750Y22050
X204500Y22050
X188000Y22550
X151250Y27800
X146750Y22050
X225000Y52800
X224750Y61050
X237250Y70300
X249250Y68550
X270250Y70800
X278750Y79800
X294750Y71800
X289750Y92800
X287750Y101050
X308000Y98800
X313250Y101550
X235500Y46550
X262000Y44300
X282250Y36050
X300750Y25050
X288500Y15050
X262000Y27300
T02
X189750Y38550
X214366Y46800
X223596Y48050
X252000Y50550
X256750Y63050
X274750Y48550
X281750Y52300
X289750Y45550
X293250Y39300
X274500Y24550
X289238Y65050
X300250Y77800
X318750Y85550
X240250Y101800
X189000Y77050
X186000Y73050
X147750Y64300
X148500Y97800
X185750Y131050
X157750Y132550
X221250Y166550
T03
X279750Y89800
X279750Y69800
X141750Y71550
X141750Y91550
T04
X155750Y109300
X165750Y109300
X175750Y109300
X185750Y109300
X209250Y121629
X209250Y131471
X185750Y139300
X175750Y139300
X165750Y139300
X155750Y139300
T05
X249750Y41550
X239750Y40550
X229750Y41550
X239750Y31550
X229750Y30550
X249750Y30550
T06
X141789Y159816
X150805Y159816
X158719Y178792
X166750Y178792
X174781Y178792
X182813Y178792
X178797Y185800
X170766Y185800
X162734Y185800
X154703Y185800
X249703Y186300
X257734Y186300
X265766Y186300
X273797Y186300
X269781Y179292
X261750Y179292
X253719Y179292
X277813Y179292
X281789Y160316
X290805Y160316
X245805Y160316
X236789Y160316
X195805Y159816
X186789Y159816
T07
X312000Y150050
X312000Y140050
X312000Y130050
X312000Y120050
X312000Y110050
X309500Y75050
X309500Y65050
X309500Y55050
X309500Y45050
X309500Y35050
X309500Y25050
T08
X139000Y18800
X139000Y28800
X139000Y38800
X139000Y48800
T09
X134742Y182296
X200805Y182296
X229742Y182796
X295805Y182796
T10
X141750Y195800
X193797Y195800
X236750Y196300
X288797Y196300
M30
