G75*
%MOIN*%
%OFA0B0*%
%FSLAX25Y25*%
%IPPOS*%
%LPD*%
%AMOC8*
5,1,8,0,0,1.08239X$1,22.5*
%
%ADD10C,0.00000*%
D10*
X0125000Y0011800D02*
X0125000Y0208650D01*
X0321850Y0208650D01*
X0321850Y0011800D01*
X0125000Y0011800D01*
X0135352Y0195800D02*
X0135354Y0195960D01*
X0135360Y0196119D01*
X0135370Y0196278D01*
X0135384Y0196437D01*
X0135402Y0196596D01*
X0135423Y0196754D01*
X0135449Y0196911D01*
X0135479Y0197068D01*
X0135512Y0197224D01*
X0135550Y0197379D01*
X0135591Y0197533D01*
X0135636Y0197686D01*
X0135685Y0197838D01*
X0135738Y0197988D01*
X0135794Y0198137D01*
X0135854Y0198285D01*
X0135918Y0198431D01*
X0135986Y0198576D01*
X0136057Y0198719D01*
X0136131Y0198860D01*
X0136209Y0198999D01*
X0136291Y0199136D01*
X0136376Y0199271D01*
X0136464Y0199404D01*
X0136555Y0199535D01*
X0136650Y0199663D01*
X0136748Y0199789D01*
X0136849Y0199913D01*
X0136953Y0200033D01*
X0137060Y0200152D01*
X0137170Y0200267D01*
X0137283Y0200380D01*
X0137398Y0200490D01*
X0137517Y0200597D01*
X0137637Y0200701D01*
X0137761Y0200802D01*
X0137887Y0200900D01*
X0138015Y0200995D01*
X0138146Y0201086D01*
X0138279Y0201174D01*
X0138414Y0201259D01*
X0138551Y0201341D01*
X0138690Y0201419D01*
X0138831Y0201493D01*
X0138974Y0201564D01*
X0139119Y0201632D01*
X0139265Y0201696D01*
X0139413Y0201756D01*
X0139562Y0201812D01*
X0139712Y0201865D01*
X0139864Y0201914D01*
X0140017Y0201959D01*
X0140171Y0202000D01*
X0140326Y0202038D01*
X0140482Y0202071D01*
X0140639Y0202101D01*
X0140796Y0202127D01*
X0140954Y0202148D01*
X0141113Y0202166D01*
X0141272Y0202180D01*
X0141431Y0202190D01*
X0141590Y0202196D01*
X0141750Y0202198D01*
X0141910Y0202196D01*
X0142069Y0202190D01*
X0142228Y0202180D01*
X0142387Y0202166D01*
X0142546Y0202148D01*
X0142704Y0202127D01*
X0142861Y0202101D01*
X0143018Y0202071D01*
X0143174Y0202038D01*
X0143329Y0202000D01*
X0143483Y0201959D01*
X0143636Y0201914D01*
X0143788Y0201865D01*
X0143938Y0201812D01*
X0144087Y0201756D01*
X0144235Y0201696D01*
X0144381Y0201632D01*
X0144526Y0201564D01*
X0144669Y0201493D01*
X0144810Y0201419D01*
X0144949Y0201341D01*
X0145086Y0201259D01*
X0145221Y0201174D01*
X0145354Y0201086D01*
X0145485Y0200995D01*
X0145613Y0200900D01*
X0145739Y0200802D01*
X0145863Y0200701D01*
X0145983Y0200597D01*
X0146102Y0200490D01*
X0146217Y0200380D01*
X0146330Y0200267D01*
X0146440Y0200152D01*
X0146547Y0200033D01*
X0146651Y0199913D01*
X0146752Y0199789D01*
X0146850Y0199663D01*
X0146945Y0199535D01*
X0147036Y0199404D01*
X0147124Y0199271D01*
X0147209Y0199136D01*
X0147291Y0198999D01*
X0147369Y0198860D01*
X0147443Y0198719D01*
X0147514Y0198576D01*
X0147582Y0198431D01*
X0147646Y0198285D01*
X0147706Y0198137D01*
X0147762Y0197988D01*
X0147815Y0197838D01*
X0147864Y0197686D01*
X0147909Y0197533D01*
X0147950Y0197379D01*
X0147988Y0197224D01*
X0148021Y0197068D01*
X0148051Y0196911D01*
X0148077Y0196754D01*
X0148098Y0196596D01*
X0148116Y0196437D01*
X0148130Y0196278D01*
X0148140Y0196119D01*
X0148146Y0195960D01*
X0148148Y0195800D01*
X0148146Y0195640D01*
X0148140Y0195481D01*
X0148130Y0195322D01*
X0148116Y0195163D01*
X0148098Y0195004D01*
X0148077Y0194846D01*
X0148051Y0194689D01*
X0148021Y0194532D01*
X0147988Y0194376D01*
X0147950Y0194221D01*
X0147909Y0194067D01*
X0147864Y0193914D01*
X0147815Y0193762D01*
X0147762Y0193612D01*
X0147706Y0193463D01*
X0147646Y0193315D01*
X0147582Y0193169D01*
X0147514Y0193024D01*
X0147443Y0192881D01*
X0147369Y0192740D01*
X0147291Y0192601D01*
X0147209Y0192464D01*
X0147124Y0192329D01*
X0147036Y0192196D01*
X0146945Y0192065D01*
X0146850Y0191937D01*
X0146752Y0191811D01*
X0146651Y0191687D01*
X0146547Y0191567D01*
X0146440Y0191448D01*
X0146330Y0191333D01*
X0146217Y0191220D01*
X0146102Y0191110D01*
X0145983Y0191003D01*
X0145863Y0190899D01*
X0145739Y0190798D01*
X0145613Y0190700D01*
X0145485Y0190605D01*
X0145354Y0190514D01*
X0145221Y0190426D01*
X0145086Y0190341D01*
X0144949Y0190259D01*
X0144810Y0190181D01*
X0144669Y0190107D01*
X0144526Y0190036D01*
X0144381Y0189968D01*
X0144235Y0189904D01*
X0144087Y0189844D01*
X0143938Y0189788D01*
X0143788Y0189735D01*
X0143636Y0189686D01*
X0143483Y0189641D01*
X0143329Y0189600D01*
X0143174Y0189562D01*
X0143018Y0189529D01*
X0142861Y0189499D01*
X0142704Y0189473D01*
X0142546Y0189452D01*
X0142387Y0189434D01*
X0142228Y0189420D01*
X0142069Y0189410D01*
X0141910Y0189404D01*
X0141750Y0189402D01*
X0141590Y0189404D01*
X0141431Y0189410D01*
X0141272Y0189420D01*
X0141113Y0189434D01*
X0140954Y0189452D01*
X0140796Y0189473D01*
X0140639Y0189499D01*
X0140482Y0189529D01*
X0140326Y0189562D01*
X0140171Y0189600D01*
X0140017Y0189641D01*
X0139864Y0189686D01*
X0139712Y0189735D01*
X0139562Y0189788D01*
X0139413Y0189844D01*
X0139265Y0189904D01*
X0139119Y0189968D01*
X0138974Y0190036D01*
X0138831Y0190107D01*
X0138690Y0190181D01*
X0138551Y0190259D01*
X0138414Y0190341D01*
X0138279Y0190426D01*
X0138146Y0190514D01*
X0138015Y0190605D01*
X0137887Y0190700D01*
X0137761Y0190798D01*
X0137637Y0190899D01*
X0137517Y0191003D01*
X0137398Y0191110D01*
X0137283Y0191220D01*
X0137170Y0191333D01*
X0137060Y0191448D01*
X0136953Y0191567D01*
X0136849Y0191687D01*
X0136748Y0191811D01*
X0136650Y0191937D01*
X0136555Y0192065D01*
X0136464Y0192196D01*
X0136376Y0192329D01*
X0136291Y0192464D01*
X0136209Y0192601D01*
X0136131Y0192740D01*
X0136057Y0192881D01*
X0135986Y0193024D01*
X0135918Y0193169D01*
X0135854Y0193315D01*
X0135794Y0193463D01*
X0135738Y0193612D01*
X0135685Y0193762D01*
X0135636Y0193914D01*
X0135591Y0194067D01*
X0135550Y0194221D01*
X0135512Y0194376D01*
X0135479Y0194532D01*
X0135449Y0194689D01*
X0135423Y0194846D01*
X0135402Y0195004D01*
X0135384Y0195163D01*
X0135370Y0195322D01*
X0135360Y0195481D01*
X0135354Y0195640D01*
X0135352Y0195800D01*
X0187399Y0195800D02*
X0187401Y0195960D01*
X0187407Y0196119D01*
X0187417Y0196278D01*
X0187431Y0196437D01*
X0187449Y0196596D01*
X0187470Y0196754D01*
X0187496Y0196911D01*
X0187526Y0197068D01*
X0187559Y0197224D01*
X0187597Y0197379D01*
X0187638Y0197533D01*
X0187683Y0197686D01*
X0187732Y0197838D01*
X0187785Y0197988D01*
X0187841Y0198137D01*
X0187901Y0198285D01*
X0187965Y0198431D01*
X0188033Y0198576D01*
X0188104Y0198719D01*
X0188178Y0198860D01*
X0188256Y0198999D01*
X0188338Y0199136D01*
X0188423Y0199271D01*
X0188511Y0199404D01*
X0188602Y0199535D01*
X0188697Y0199663D01*
X0188795Y0199789D01*
X0188896Y0199913D01*
X0189000Y0200033D01*
X0189107Y0200152D01*
X0189217Y0200267D01*
X0189330Y0200380D01*
X0189445Y0200490D01*
X0189564Y0200597D01*
X0189684Y0200701D01*
X0189808Y0200802D01*
X0189934Y0200900D01*
X0190062Y0200995D01*
X0190193Y0201086D01*
X0190326Y0201174D01*
X0190461Y0201259D01*
X0190598Y0201341D01*
X0190737Y0201419D01*
X0190878Y0201493D01*
X0191021Y0201564D01*
X0191166Y0201632D01*
X0191312Y0201696D01*
X0191460Y0201756D01*
X0191609Y0201812D01*
X0191759Y0201865D01*
X0191911Y0201914D01*
X0192064Y0201959D01*
X0192218Y0202000D01*
X0192373Y0202038D01*
X0192529Y0202071D01*
X0192686Y0202101D01*
X0192843Y0202127D01*
X0193001Y0202148D01*
X0193160Y0202166D01*
X0193319Y0202180D01*
X0193478Y0202190D01*
X0193637Y0202196D01*
X0193797Y0202198D01*
X0193957Y0202196D01*
X0194116Y0202190D01*
X0194275Y0202180D01*
X0194434Y0202166D01*
X0194593Y0202148D01*
X0194751Y0202127D01*
X0194908Y0202101D01*
X0195065Y0202071D01*
X0195221Y0202038D01*
X0195376Y0202000D01*
X0195530Y0201959D01*
X0195683Y0201914D01*
X0195835Y0201865D01*
X0195985Y0201812D01*
X0196134Y0201756D01*
X0196282Y0201696D01*
X0196428Y0201632D01*
X0196573Y0201564D01*
X0196716Y0201493D01*
X0196857Y0201419D01*
X0196996Y0201341D01*
X0197133Y0201259D01*
X0197268Y0201174D01*
X0197401Y0201086D01*
X0197532Y0200995D01*
X0197660Y0200900D01*
X0197786Y0200802D01*
X0197910Y0200701D01*
X0198030Y0200597D01*
X0198149Y0200490D01*
X0198264Y0200380D01*
X0198377Y0200267D01*
X0198487Y0200152D01*
X0198594Y0200033D01*
X0198698Y0199913D01*
X0198799Y0199789D01*
X0198897Y0199663D01*
X0198992Y0199535D01*
X0199083Y0199404D01*
X0199171Y0199271D01*
X0199256Y0199136D01*
X0199338Y0198999D01*
X0199416Y0198860D01*
X0199490Y0198719D01*
X0199561Y0198576D01*
X0199629Y0198431D01*
X0199693Y0198285D01*
X0199753Y0198137D01*
X0199809Y0197988D01*
X0199862Y0197838D01*
X0199911Y0197686D01*
X0199956Y0197533D01*
X0199997Y0197379D01*
X0200035Y0197224D01*
X0200068Y0197068D01*
X0200098Y0196911D01*
X0200124Y0196754D01*
X0200145Y0196596D01*
X0200163Y0196437D01*
X0200177Y0196278D01*
X0200187Y0196119D01*
X0200193Y0195960D01*
X0200195Y0195800D01*
X0200193Y0195640D01*
X0200187Y0195481D01*
X0200177Y0195322D01*
X0200163Y0195163D01*
X0200145Y0195004D01*
X0200124Y0194846D01*
X0200098Y0194689D01*
X0200068Y0194532D01*
X0200035Y0194376D01*
X0199997Y0194221D01*
X0199956Y0194067D01*
X0199911Y0193914D01*
X0199862Y0193762D01*
X0199809Y0193612D01*
X0199753Y0193463D01*
X0199693Y0193315D01*
X0199629Y0193169D01*
X0199561Y0193024D01*
X0199490Y0192881D01*
X0199416Y0192740D01*
X0199338Y0192601D01*
X0199256Y0192464D01*
X0199171Y0192329D01*
X0199083Y0192196D01*
X0198992Y0192065D01*
X0198897Y0191937D01*
X0198799Y0191811D01*
X0198698Y0191687D01*
X0198594Y0191567D01*
X0198487Y0191448D01*
X0198377Y0191333D01*
X0198264Y0191220D01*
X0198149Y0191110D01*
X0198030Y0191003D01*
X0197910Y0190899D01*
X0197786Y0190798D01*
X0197660Y0190700D01*
X0197532Y0190605D01*
X0197401Y0190514D01*
X0197268Y0190426D01*
X0197133Y0190341D01*
X0196996Y0190259D01*
X0196857Y0190181D01*
X0196716Y0190107D01*
X0196573Y0190036D01*
X0196428Y0189968D01*
X0196282Y0189904D01*
X0196134Y0189844D01*
X0195985Y0189788D01*
X0195835Y0189735D01*
X0195683Y0189686D01*
X0195530Y0189641D01*
X0195376Y0189600D01*
X0195221Y0189562D01*
X0195065Y0189529D01*
X0194908Y0189499D01*
X0194751Y0189473D01*
X0194593Y0189452D01*
X0194434Y0189434D01*
X0194275Y0189420D01*
X0194116Y0189410D01*
X0193957Y0189404D01*
X0193797Y0189402D01*
X0193637Y0189404D01*
X0193478Y0189410D01*
X0193319Y0189420D01*
X0193160Y0189434D01*
X0193001Y0189452D01*
X0192843Y0189473D01*
X0192686Y0189499D01*
X0192529Y0189529D01*
X0192373Y0189562D01*
X0192218Y0189600D01*
X0192064Y0189641D01*
X0191911Y0189686D01*
X0191759Y0189735D01*
X0191609Y0189788D01*
X0191460Y0189844D01*
X0191312Y0189904D01*
X0191166Y0189968D01*
X0191021Y0190036D01*
X0190878Y0190107D01*
X0190737Y0190181D01*
X0190598Y0190259D01*
X0190461Y0190341D01*
X0190326Y0190426D01*
X0190193Y0190514D01*
X0190062Y0190605D01*
X0189934Y0190700D01*
X0189808Y0190798D01*
X0189684Y0190899D01*
X0189564Y0191003D01*
X0189445Y0191110D01*
X0189330Y0191220D01*
X0189217Y0191333D01*
X0189107Y0191448D01*
X0189000Y0191567D01*
X0188896Y0191687D01*
X0188795Y0191811D01*
X0188697Y0191937D01*
X0188602Y0192065D01*
X0188511Y0192196D01*
X0188423Y0192329D01*
X0188338Y0192464D01*
X0188256Y0192601D01*
X0188178Y0192740D01*
X0188104Y0192881D01*
X0188033Y0193024D01*
X0187965Y0193169D01*
X0187901Y0193315D01*
X0187841Y0193463D01*
X0187785Y0193612D01*
X0187732Y0193762D01*
X0187683Y0193914D01*
X0187638Y0194067D01*
X0187597Y0194221D01*
X0187559Y0194376D01*
X0187526Y0194532D01*
X0187496Y0194689D01*
X0187470Y0194846D01*
X0187449Y0195004D01*
X0187431Y0195163D01*
X0187417Y0195322D01*
X0187407Y0195481D01*
X0187401Y0195640D01*
X0187399Y0195800D01*
X0230352Y0196300D02*
X0230354Y0196460D01*
X0230360Y0196619D01*
X0230370Y0196778D01*
X0230384Y0196937D01*
X0230402Y0197096D01*
X0230423Y0197254D01*
X0230449Y0197411D01*
X0230479Y0197568D01*
X0230512Y0197724D01*
X0230550Y0197879D01*
X0230591Y0198033D01*
X0230636Y0198186D01*
X0230685Y0198338D01*
X0230738Y0198488D01*
X0230794Y0198637D01*
X0230854Y0198785D01*
X0230918Y0198931D01*
X0230986Y0199076D01*
X0231057Y0199219D01*
X0231131Y0199360D01*
X0231209Y0199499D01*
X0231291Y0199636D01*
X0231376Y0199771D01*
X0231464Y0199904D01*
X0231555Y0200035D01*
X0231650Y0200163D01*
X0231748Y0200289D01*
X0231849Y0200413D01*
X0231953Y0200533D01*
X0232060Y0200652D01*
X0232170Y0200767D01*
X0232283Y0200880D01*
X0232398Y0200990D01*
X0232517Y0201097D01*
X0232637Y0201201D01*
X0232761Y0201302D01*
X0232887Y0201400D01*
X0233015Y0201495D01*
X0233146Y0201586D01*
X0233279Y0201674D01*
X0233414Y0201759D01*
X0233551Y0201841D01*
X0233690Y0201919D01*
X0233831Y0201993D01*
X0233974Y0202064D01*
X0234119Y0202132D01*
X0234265Y0202196D01*
X0234413Y0202256D01*
X0234562Y0202312D01*
X0234712Y0202365D01*
X0234864Y0202414D01*
X0235017Y0202459D01*
X0235171Y0202500D01*
X0235326Y0202538D01*
X0235482Y0202571D01*
X0235639Y0202601D01*
X0235796Y0202627D01*
X0235954Y0202648D01*
X0236113Y0202666D01*
X0236272Y0202680D01*
X0236431Y0202690D01*
X0236590Y0202696D01*
X0236750Y0202698D01*
X0236910Y0202696D01*
X0237069Y0202690D01*
X0237228Y0202680D01*
X0237387Y0202666D01*
X0237546Y0202648D01*
X0237704Y0202627D01*
X0237861Y0202601D01*
X0238018Y0202571D01*
X0238174Y0202538D01*
X0238329Y0202500D01*
X0238483Y0202459D01*
X0238636Y0202414D01*
X0238788Y0202365D01*
X0238938Y0202312D01*
X0239087Y0202256D01*
X0239235Y0202196D01*
X0239381Y0202132D01*
X0239526Y0202064D01*
X0239669Y0201993D01*
X0239810Y0201919D01*
X0239949Y0201841D01*
X0240086Y0201759D01*
X0240221Y0201674D01*
X0240354Y0201586D01*
X0240485Y0201495D01*
X0240613Y0201400D01*
X0240739Y0201302D01*
X0240863Y0201201D01*
X0240983Y0201097D01*
X0241102Y0200990D01*
X0241217Y0200880D01*
X0241330Y0200767D01*
X0241440Y0200652D01*
X0241547Y0200533D01*
X0241651Y0200413D01*
X0241752Y0200289D01*
X0241850Y0200163D01*
X0241945Y0200035D01*
X0242036Y0199904D01*
X0242124Y0199771D01*
X0242209Y0199636D01*
X0242291Y0199499D01*
X0242369Y0199360D01*
X0242443Y0199219D01*
X0242514Y0199076D01*
X0242582Y0198931D01*
X0242646Y0198785D01*
X0242706Y0198637D01*
X0242762Y0198488D01*
X0242815Y0198338D01*
X0242864Y0198186D01*
X0242909Y0198033D01*
X0242950Y0197879D01*
X0242988Y0197724D01*
X0243021Y0197568D01*
X0243051Y0197411D01*
X0243077Y0197254D01*
X0243098Y0197096D01*
X0243116Y0196937D01*
X0243130Y0196778D01*
X0243140Y0196619D01*
X0243146Y0196460D01*
X0243148Y0196300D01*
X0243146Y0196140D01*
X0243140Y0195981D01*
X0243130Y0195822D01*
X0243116Y0195663D01*
X0243098Y0195504D01*
X0243077Y0195346D01*
X0243051Y0195189D01*
X0243021Y0195032D01*
X0242988Y0194876D01*
X0242950Y0194721D01*
X0242909Y0194567D01*
X0242864Y0194414D01*
X0242815Y0194262D01*
X0242762Y0194112D01*
X0242706Y0193963D01*
X0242646Y0193815D01*
X0242582Y0193669D01*
X0242514Y0193524D01*
X0242443Y0193381D01*
X0242369Y0193240D01*
X0242291Y0193101D01*
X0242209Y0192964D01*
X0242124Y0192829D01*
X0242036Y0192696D01*
X0241945Y0192565D01*
X0241850Y0192437D01*
X0241752Y0192311D01*
X0241651Y0192187D01*
X0241547Y0192067D01*
X0241440Y0191948D01*
X0241330Y0191833D01*
X0241217Y0191720D01*
X0241102Y0191610D01*
X0240983Y0191503D01*
X0240863Y0191399D01*
X0240739Y0191298D01*
X0240613Y0191200D01*
X0240485Y0191105D01*
X0240354Y0191014D01*
X0240221Y0190926D01*
X0240086Y0190841D01*
X0239949Y0190759D01*
X0239810Y0190681D01*
X0239669Y0190607D01*
X0239526Y0190536D01*
X0239381Y0190468D01*
X0239235Y0190404D01*
X0239087Y0190344D01*
X0238938Y0190288D01*
X0238788Y0190235D01*
X0238636Y0190186D01*
X0238483Y0190141D01*
X0238329Y0190100D01*
X0238174Y0190062D01*
X0238018Y0190029D01*
X0237861Y0189999D01*
X0237704Y0189973D01*
X0237546Y0189952D01*
X0237387Y0189934D01*
X0237228Y0189920D01*
X0237069Y0189910D01*
X0236910Y0189904D01*
X0236750Y0189902D01*
X0236590Y0189904D01*
X0236431Y0189910D01*
X0236272Y0189920D01*
X0236113Y0189934D01*
X0235954Y0189952D01*
X0235796Y0189973D01*
X0235639Y0189999D01*
X0235482Y0190029D01*
X0235326Y0190062D01*
X0235171Y0190100D01*
X0235017Y0190141D01*
X0234864Y0190186D01*
X0234712Y0190235D01*
X0234562Y0190288D01*
X0234413Y0190344D01*
X0234265Y0190404D01*
X0234119Y0190468D01*
X0233974Y0190536D01*
X0233831Y0190607D01*
X0233690Y0190681D01*
X0233551Y0190759D01*
X0233414Y0190841D01*
X0233279Y0190926D01*
X0233146Y0191014D01*
X0233015Y0191105D01*
X0232887Y0191200D01*
X0232761Y0191298D01*
X0232637Y0191399D01*
X0232517Y0191503D01*
X0232398Y0191610D01*
X0232283Y0191720D01*
X0232170Y0191833D01*
X0232060Y0191948D01*
X0231953Y0192067D01*
X0231849Y0192187D01*
X0231748Y0192311D01*
X0231650Y0192437D01*
X0231555Y0192565D01*
X0231464Y0192696D01*
X0231376Y0192829D01*
X0231291Y0192964D01*
X0231209Y0193101D01*
X0231131Y0193240D01*
X0231057Y0193381D01*
X0230986Y0193524D01*
X0230918Y0193669D01*
X0230854Y0193815D01*
X0230794Y0193963D01*
X0230738Y0194112D01*
X0230685Y0194262D01*
X0230636Y0194414D01*
X0230591Y0194567D01*
X0230550Y0194721D01*
X0230512Y0194876D01*
X0230479Y0195032D01*
X0230449Y0195189D01*
X0230423Y0195346D01*
X0230402Y0195504D01*
X0230384Y0195663D01*
X0230370Y0195822D01*
X0230360Y0195981D01*
X0230354Y0196140D01*
X0230352Y0196300D01*
X0282399Y0196300D02*
X0282401Y0196460D01*
X0282407Y0196619D01*
X0282417Y0196778D01*
X0282431Y0196937D01*
X0282449Y0197096D01*
X0282470Y0197254D01*
X0282496Y0197411D01*
X0282526Y0197568D01*
X0282559Y0197724D01*
X0282597Y0197879D01*
X0282638Y0198033D01*
X0282683Y0198186D01*
X0282732Y0198338D01*
X0282785Y0198488D01*
X0282841Y0198637D01*
X0282901Y0198785D01*
X0282965Y0198931D01*
X0283033Y0199076D01*
X0283104Y0199219D01*
X0283178Y0199360D01*
X0283256Y0199499D01*
X0283338Y0199636D01*
X0283423Y0199771D01*
X0283511Y0199904D01*
X0283602Y0200035D01*
X0283697Y0200163D01*
X0283795Y0200289D01*
X0283896Y0200413D01*
X0284000Y0200533D01*
X0284107Y0200652D01*
X0284217Y0200767D01*
X0284330Y0200880D01*
X0284445Y0200990D01*
X0284564Y0201097D01*
X0284684Y0201201D01*
X0284808Y0201302D01*
X0284934Y0201400D01*
X0285062Y0201495D01*
X0285193Y0201586D01*
X0285326Y0201674D01*
X0285461Y0201759D01*
X0285598Y0201841D01*
X0285737Y0201919D01*
X0285878Y0201993D01*
X0286021Y0202064D01*
X0286166Y0202132D01*
X0286312Y0202196D01*
X0286460Y0202256D01*
X0286609Y0202312D01*
X0286759Y0202365D01*
X0286911Y0202414D01*
X0287064Y0202459D01*
X0287218Y0202500D01*
X0287373Y0202538D01*
X0287529Y0202571D01*
X0287686Y0202601D01*
X0287843Y0202627D01*
X0288001Y0202648D01*
X0288160Y0202666D01*
X0288319Y0202680D01*
X0288478Y0202690D01*
X0288637Y0202696D01*
X0288797Y0202698D01*
X0288957Y0202696D01*
X0289116Y0202690D01*
X0289275Y0202680D01*
X0289434Y0202666D01*
X0289593Y0202648D01*
X0289751Y0202627D01*
X0289908Y0202601D01*
X0290065Y0202571D01*
X0290221Y0202538D01*
X0290376Y0202500D01*
X0290530Y0202459D01*
X0290683Y0202414D01*
X0290835Y0202365D01*
X0290985Y0202312D01*
X0291134Y0202256D01*
X0291282Y0202196D01*
X0291428Y0202132D01*
X0291573Y0202064D01*
X0291716Y0201993D01*
X0291857Y0201919D01*
X0291996Y0201841D01*
X0292133Y0201759D01*
X0292268Y0201674D01*
X0292401Y0201586D01*
X0292532Y0201495D01*
X0292660Y0201400D01*
X0292786Y0201302D01*
X0292910Y0201201D01*
X0293030Y0201097D01*
X0293149Y0200990D01*
X0293264Y0200880D01*
X0293377Y0200767D01*
X0293487Y0200652D01*
X0293594Y0200533D01*
X0293698Y0200413D01*
X0293799Y0200289D01*
X0293897Y0200163D01*
X0293992Y0200035D01*
X0294083Y0199904D01*
X0294171Y0199771D01*
X0294256Y0199636D01*
X0294338Y0199499D01*
X0294416Y0199360D01*
X0294490Y0199219D01*
X0294561Y0199076D01*
X0294629Y0198931D01*
X0294693Y0198785D01*
X0294753Y0198637D01*
X0294809Y0198488D01*
X0294862Y0198338D01*
X0294911Y0198186D01*
X0294956Y0198033D01*
X0294997Y0197879D01*
X0295035Y0197724D01*
X0295068Y0197568D01*
X0295098Y0197411D01*
X0295124Y0197254D01*
X0295145Y0197096D01*
X0295163Y0196937D01*
X0295177Y0196778D01*
X0295187Y0196619D01*
X0295193Y0196460D01*
X0295195Y0196300D01*
X0295193Y0196140D01*
X0295187Y0195981D01*
X0295177Y0195822D01*
X0295163Y0195663D01*
X0295145Y0195504D01*
X0295124Y0195346D01*
X0295098Y0195189D01*
X0295068Y0195032D01*
X0295035Y0194876D01*
X0294997Y0194721D01*
X0294956Y0194567D01*
X0294911Y0194414D01*
X0294862Y0194262D01*
X0294809Y0194112D01*
X0294753Y0193963D01*
X0294693Y0193815D01*
X0294629Y0193669D01*
X0294561Y0193524D01*
X0294490Y0193381D01*
X0294416Y0193240D01*
X0294338Y0193101D01*
X0294256Y0192964D01*
X0294171Y0192829D01*
X0294083Y0192696D01*
X0293992Y0192565D01*
X0293897Y0192437D01*
X0293799Y0192311D01*
X0293698Y0192187D01*
X0293594Y0192067D01*
X0293487Y0191948D01*
X0293377Y0191833D01*
X0293264Y0191720D01*
X0293149Y0191610D01*
X0293030Y0191503D01*
X0292910Y0191399D01*
X0292786Y0191298D01*
X0292660Y0191200D01*
X0292532Y0191105D01*
X0292401Y0191014D01*
X0292268Y0190926D01*
X0292133Y0190841D01*
X0291996Y0190759D01*
X0291857Y0190681D01*
X0291716Y0190607D01*
X0291573Y0190536D01*
X0291428Y0190468D01*
X0291282Y0190404D01*
X0291134Y0190344D01*
X0290985Y0190288D01*
X0290835Y0190235D01*
X0290683Y0190186D01*
X0290530Y0190141D01*
X0290376Y0190100D01*
X0290221Y0190062D01*
X0290065Y0190029D01*
X0289908Y0189999D01*
X0289751Y0189973D01*
X0289593Y0189952D01*
X0289434Y0189934D01*
X0289275Y0189920D01*
X0289116Y0189910D01*
X0288957Y0189904D01*
X0288797Y0189902D01*
X0288637Y0189904D01*
X0288478Y0189910D01*
X0288319Y0189920D01*
X0288160Y0189934D01*
X0288001Y0189952D01*
X0287843Y0189973D01*
X0287686Y0189999D01*
X0287529Y0190029D01*
X0287373Y0190062D01*
X0287218Y0190100D01*
X0287064Y0190141D01*
X0286911Y0190186D01*
X0286759Y0190235D01*
X0286609Y0190288D01*
X0286460Y0190344D01*
X0286312Y0190404D01*
X0286166Y0190468D01*
X0286021Y0190536D01*
X0285878Y0190607D01*
X0285737Y0190681D01*
X0285598Y0190759D01*
X0285461Y0190841D01*
X0285326Y0190926D01*
X0285193Y0191014D01*
X0285062Y0191105D01*
X0284934Y0191200D01*
X0284808Y0191298D01*
X0284684Y0191399D01*
X0284564Y0191503D01*
X0284445Y0191610D01*
X0284330Y0191720D01*
X0284217Y0191833D01*
X0284107Y0191948D01*
X0284000Y0192067D01*
X0283896Y0192187D01*
X0283795Y0192311D01*
X0283697Y0192437D01*
X0283602Y0192565D01*
X0283511Y0192696D01*
X0283423Y0192829D01*
X0283338Y0192964D01*
X0283256Y0193101D01*
X0283178Y0193240D01*
X0283104Y0193381D01*
X0283033Y0193524D01*
X0282965Y0193669D01*
X0282901Y0193815D01*
X0282841Y0193963D01*
X0282785Y0194112D01*
X0282732Y0194262D01*
X0282683Y0194414D01*
X0282638Y0194567D01*
X0282597Y0194721D01*
X0282559Y0194876D01*
X0282526Y0195032D01*
X0282496Y0195189D01*
X0282470Y0195346D01*
X0282449Y0195504D01*
X0282431Y0195663D01*
X0282417Y0195822D01*
X0282407Y0195981D01*
X0282401Y0196140D01*
X0282399Y0196300D01*
M02*
