G75*
%MOIN*%
%OFA0B0*%
%FSLAX25Y25*%
%IPPOS*%
%LPD*%
%AMOC8*
5,1,8,0,0,1.08239X$1,22.5*
%
%ADD10C,0.00000*%
%ADD11R,0.02362X0.07874*%
%ADD12R,0.05000X0.02200*%
%ADD13R,0.02200X0.05000*%
%ADD14C,0.05150*%
%ADD15C,0.06500*%
%ADD16R,0.04134X0.04252*%
%ADD17C,0.06400*%
%ADD18R,0.07400X0.07400*%
%ADD19C,0.07400*%
%ADD20R,0.05937X0.05937*%
%ADD21C,0.05937*%
%ADD22C,0.10630*%
%ADD23R,0.03937X0.04331*%
%ADD24R,0.04724X0.04724*%
%ADD25R,0.07087X0.06299*%
%ADD26R,0.02756X0.02756*%
%ADD27R,0.06299X0.07087*%
%ADD28R,0.04331X0.03937*%
%ADD29C,0.07677*%
%ADD30R,0.04724X0.01181*%
%ADD31R,0.03937X0.03937*%
%ADD32R,0.04252X0.04134*%
%ADD33C,0.03169*%
%ADD34C,0.01000*%
%ADD35C,0.02400*%
%ADD36C,0.03562*%
%ADD37R,0.03169X0.03169*%
%ADD38C,0.01600*%
D10*
X0125000Y0011800D02*
X0125000Y0208650D01*
X0321850Y0208650D01*
X0321850Y0011800D01*
X0125000Y0011800D01*
X0135352Y0195800D02*
X0135354Y0195960D01*
X0135360Y0196119D01*
X0135370Y0196278D01*
X0135384Y0196437D01*
X0135402Y0196596D01*
X0135423Y0196754D01*
X0135449Y0196911D01*
X0135479Y0197068D01*
X0135512Y0197224D01*
X0135550Y0197379D01*
X0135591Y0197533D01*
X0135636Y0197686D01*
X0135685Y0197838D01*
X0135738Y0197988D01*
X0135794Y0198137D01*
X0135854Y0198285D01*
X0135918Y0198431D01*
X0135986Y0198576D01*
X0136057Y0198719D01*
X0136131Y0198860D01*
X0136209Y0198999D01*
X0136291Y0199136D01*
X0136376Y0199271D01*
X0136464Y0199404D01*
X0136555Y0199535D01*
X0136650Y0199663D01*
X0136748Y0199789D01*
X0136849Y0199913D01*
X0136953Y0200033D01*
X0137060Y0200152D01*
X0137170Y0200267D01*
X0137283Y0200380D01*
X0137398Y0200490D01*
X0137517Y0200597D01*
X0137637Y0200701D01*
X0137761Y0200802D01*
X0137887Y0200900D01*
X0138015Y0200995D01*
X0138146Y0201086D01*
X0138279Y0201174D01*
X0138414Y0201259D01*
X0138551Y0201341D01*
X0138690Y0201419D01*
X0138831Y0201493D01*
X0138974Y0201564D01*
X0139119Y0201632D01*
X0139265Y0201696D01*
X0139413Y0201756D01*
X0139562Y0201812D01*
X0139712Y0201865D01*
X0139864Y0201914D01*
X0140017Y0201959D01*
X0140171Y0202000D01*
X0140326Y0202038D01*
X0140482Y0202071D01*
X0140639Y0202101D01*
X0140796Y0202127D01*
X0140954Y0202148D01*
X0141113Y0202166D01*
X0141272Y0202180D01*
X0141431Y0202190D01*
X0141590Y0202196D01*
X0141750Y0202198D01*
X0141910Y0202196D01*
X0142069Y0202190D01*
X0142228Y0202180D01*
X0142387Y0202166D01*
X0142546Y0202148D01*
X0142704Y0202127D01*
X0142861Y0202101D01*
X0143018Y0202071D01*
X0143174Y0202038D01*
X0143329Y0202000D01*
X0143483Y0201959D01*
X0143636Y0201914D01*
X0143788Y0201865D01*
X0143938Y0201812D01*
X0144087Y0201756D01*
X0144235Y0201696D01*
X0144381Y0201632D01*
X0144526Y0201564D01*
X0144669Y0201493D01*
X0144810Y0201419D01*
X0144949Y0201341D01*
X0145086Y0201259D01*
X0145221Y0201174D01*
X0145354Y0201086D01*
X0145485Y0200995D01*
X0145613Y0200900D01*
X0145739Y0200802D01*
X0145863Y0200701D01*
X0145983Y0200597D01*
X0146102Y0200490D01*
X0146217Y0200380D01*
X0146330Y0200267D01*
X0146440Y0200152D01*
X0146547Y0200033D01*
X0146651Y0199913D01*
X0146752Y0199789D01*
X0146850Y0199663D01*
X0146945Y0199535D01*
X0147036Y0199404D01*
X0147124Y0199271D01*
X0147209Y0199136D01*
X0147291Y0198999D01*
X0147369Y0198860D01*
X0147443Y0198719D01*
X0147514Y0198576D01*
X0147582Y0198431D01*
X0147646Y0198285D01*
X0147706Y0198137D01*
X0147762Y0197988D01*
X0147815Y0197838D01*
X0147864Y0197686D01*
X0147909Y0197533D01*
X0147950Y0197379D01*
X0147988Y0197224D01*
X0148021Y0197068D01*
X0148051Y0196911D01*
X0148077Y0196754D01*
X0148098Y0196596D01*
X0148116Y0196437D01*
X0148130Y0196278D01*
X0148140Y0196119D01*
X0148146Y0195960D01*
X0148148Y0195800D01*
X0148146Y0195640D01*
X0148140Y0195481D01*
X0148130Y0195322D01*
X0148116Y0195163D01*
X0148098Y0195004D01*
X0148077Y0194846D01*
X0148051Y0194689D01*
X0148021Y0194532D01*
X0147988Y0194376D01*
X0147950Y0194221D01*
X0147909Y0194067D01*
X0147864Y0193914D01*
X0147815Y0193762D01*
X0147762Y0193612D01*
X0147706Y0193463D01*
X0147646Y0193315D01*
X0147582Y0193169D01*
X0147514Y0193024D01*
X0147443Y0192881D01*
X0147369Y0192740D01*
X0147291Y0192601D01*
X0147209Y0192464D01*
X0147124Y0192329D01*
X0147036Y0192196D01*
X0146945Y0192065D01*
X0146850Y0191937D01*
X0146752Y0191811D01*
X0146651Y0191687D01*
X0146547Y0191567D01*
X0146440Y0191448D01*
X0146330Y0191333D01*
X0146217Y0191220D01*
X0146102Y0191110D01*
X0145983Y0191003D01*
X0145863Y0190899D01*
X0145739Y0190798D01*
X0145613Y0190700D01*
X0145485Y0190605D01*
X0145354Y0190514D01*
X0145221Y0190426D01*
X0145086Y0190341D01*
X0144949Y0190259D01*
X0144810Y0190181D01*
X0144669Y0190107D01*
X0144526Y0190036D01*
X0144381Y0189968D01*
X0144235Y0189904D01*
X0144087Y0189844D01*
X0143938Y0189788D01*
X0143788Y0189735D01*
X0143636Y0189686D01*
X0143483Y0189641D01*
X0143329Y0189600D01*
X0143174Y0189562D01*
X0143018Y0189529D01*
X0142861Y0189499D01*
X0142704Y0189473D01*
X0142546Y0189452D01*
X0142387Y0189434D01*
X0142228Y0189420D01*
X0142069Y0189410D01*
X0141910Y0189404D01*
X0141750Y0189402D01*
X0141590Y0189404D01*
X0141431Y0189410D01*
X0141272Y0189420D01*
X0141113Y0189434D01*
X0140954Y0189452D01*
X0140796Y0189473D01*
X0140639Y0189499D01*
X0140482Y0189529D01*
X0140326Y0189562D01*
X0140171Y0189600D01*
X0140017Y0189641D01*
X0139864Y0189686D01*
X0139712Y0189735D01*
X0139562Y0189788D01*
X0139413Y0189844D01*
X0139265Y0189904D01*
X0139119Y0189968D01*
X0138974Y0190036D01*
X0138831Y0190107D01*
X0138690Y0190181D01*
X0138551Y0190259D01*
X0138414Y0190341D01*
X0138279Y0190426D01*
X0138146Y0190514D01*
X0138015Y0190605D01*
X0137887Y0190700D01*
X0137761Y0190798D01*
X0137637Y0190899D01*
X0137517Y0191003D01*
X0137398Y0191110D01*
X0137283Y0191220D01*
X0137170Y0191333D01*
X0137060Y0191448D01*
X0136953Y0191567D01*
X0136849Y0191687D01*
X0136748Y0191811D01*
X0136650Y0191937D01*
X0136555Y0192065D01*
X0136464Y0192196D01*
X0136376Y0192329D01*
X0136291Y0192464D01*
X0136209Y0192601D01*
X0136131Y0192740D01*
X0136057Y0192881D01*
X0135986Y0193024D01*
X0135918Y0193169D01*
X0135854Y0193315D01*
X0135794Y0193463D01*
X0135738Y0193612D01*
X0135685Y0193762D01*
X0135636Y0193914D01*
X0135591Y0194067D01*
X0135550Y0194221D01*
X0135512Y0194376D01*
X0135479Y0194532D01*
X0135449Y0194689D01*
X0135423Y0194846D01*
X0135402Y0195004D01*
X0135384Y0195163D01*
X0135370Y0195322D01*
X0135360Y0195481D01*
X0135354Y0195640D01*
X0135352Y0195800D01*
X0187399Y0195800D02*
X0187401Y0195960D01*
X0187407Y0196119D01*
X0187417Y0196278D01*
X0187431Y0196437D01*
X0187449Y0196596D01*
X0187470Y0196754D01*
X0187496Y0196911D01*
X0187526Y0197068D01*
X0187559Y0197224D01*
X0187597Y0197379D01*
X0187638Y0197533D01*
X0187683Y0197686D01*
X0187732Y0197838D01*
X0187785Y0197988D01*
X0187841Y0198137D01*
X0187901Y0198285D01*
X0187965Y0198431D01*
X0188033Y0198576D01*
X0188104Y0198719D01*
X0188178Y0198860D01*
X0188256Y0198999D01*
X0188338Y0199136D01*
X0188423Y0199271D01*
X0188511Y0199404D01*
X0188602Y0199535D01*
X0188697Y0199663D01*
X0188795Y0199789D01*
X0188896Y0199913D01*
X0189000Y0200033D01*
X0189107Y0200152D01*
X0189217Y0200267D01*
X0189330Y0200380D01*
X0189445Y0200490D01*
X0189564Y0200597D01*
X0189684Y0200701D01*
X0189808Y0200802D01*
X0189934Y0200900D01*
X0190062Y0200995D01*
X0190193Y0201086D01*
X0190326Y0201174D01*
X0190461Y0201259D01*
X0190598Y0201341D01*
X0190737Y0201419D01*
X0190878Y0201493D01*
X0191021Y0201564D01*
X0191166Y0201632D01*
X0191312Y0201696D01*
X0191460Y0201756D01*
X0191609Y0201812D01*
X0191759Y0201865D01*
X0191911Y0201914D01*
X0192064Y0201959D01*
X0192218Y0202000D01*
X0192373Y0202038D01*
X0192529Y0202071D01*
X0192686Y0202101D01*
X0192843Y0202127D01*
X0193001Y0202148D01*
X0193160Y0202166D01*
X0193319Y0202180D01*
X0193478Y0202190D01*
X0193637Y0202196D01*
X0193797Y0202198D01*
X0193957Y0202196D01*
X0194116Y0202190D01*
X0194275Y0202180D01*
X0194434Y0202166D01*
X0194593Y0202148D01*
X0194751Y0202127D01*
X0194908Y0202101D01*
X0195065Y0202071D01*
X0195221Y0202038D01*
X0195376Y0202000D01*
X0195530Y0201959D01*
X0195683Y0201914D01*
X0195835Y0201865D01*
X0195985Y0201812D01*
X0196134Y0201756D01*
X0196282Y0201696D01*
X0196428Y0201632D01*
X0196573Y0201564D01*
X0196716Y0201493D01*
X0196857Y0201419D01*
X0196996Y0201341D01*
X0197133Y0201259D01*
X0197268Y0201174D01*
X0197401Y0201086D01*
X0197532Y0200995D01*
X0197660Y0200900D01*
X0197786Y0200802D01*
X0197910Y0200701D01*
X0198030Y0200597D01*
X0198149Y0200490D01*
X0198264Y0200380D01*
X0198377Y0200267D01*
X0198487Y0200152D01*
X0198594Y0200033D01*
X0198698Y0199913D01*
X0198799Y0199789D01*
X0198897Y0199663D01*
X0198992Y0199535D01*
X0199083Y0199404D01*
X0199171Y0199271D01*
X0199256Y0199136D01*
X0199338Y0198999D01*
X0199416Y0198860D01*
X0199490Y0198719D01*
X0199561Y0198576D01*
X0199629Y0198431D01*
X0199693Y0198285D01*
X0199753Y0198137D01*
X0199809Y0197988D01*
X0199862Y0197838D01*
X0199911Y0197686D01*
X0199956Y0197533D01*
X0199997Y0197379D01*
X0200035Y0197224D01*
X0200068Y0197068D01*
X0200098Y0196911D01*
X0200124Y0196754D01*
X0200145Y0196596D01*
X0200163Y0196437D01*
X0200177Y0196278D01*
X0200187Y0196119D01*
X0200193Y0195960D01*
X0200195Y0195800D01*
X0200193Y0195640D01*
X0200187Y0195481D01*
X0200177Y0195322D01*
X0200163Y0195163D01*
X0200145Y0195004D01*
X0200124Y0194846D01*
X0200098Y0194689D01*
X0200068Y0194532D01*
X0200035Y0194376D01*
X0199997Y0194221D01*
X0199956Y0194067D01*
X0199911Y0193914D01*
X0199862Y0193762D01*
X0199809Y0193612D01*
X0199753Y0193463D01*
X0199693Y0193315D01*
X0199629Y0193169D01*
X0199561Y0193024D01*
X0199490Y0192881D01*
X0199416Y0192740D01*
X0199338Y0192601D01*
X0199256Y0192464D01*
X0199171Y0192329D01*
X0199083Y0192196D01*
X0198992Y0192065D01*
X0198897Y0191937D01*
X0198799Y0191811D01*
X0198698Y0191687D01*
X0198594Y0191567D01*
X0198487Y0191448D01*
X0198377Y0191333D01*
X0198264Y0191220D01*
X0198149Y0191110D01*
X0198030Y0191003D01*
X0197910Y0190899D01*
X0197786Y0190798D01*
X0197660Y0190700D01*
X0197532Y0190605D01*
X0197401Y0190514D01*
X0197268Y0190426D01*
X0197133Y0190341D01*
X0196996Y0190259D01*
X0196857Y0190181D01*
X0196716Y0190107D01*
X0196573Y0190036D01*
X0196428Y0189968D01*
X0196282Y0189904D01*
X0196134Y0189844D01*
X0195985Y0189788D01*
X0195835Y0189735D01*
X0195683Y0189686D01*
X0195530Y0189641D01*
X0195376Y0189600D01*
X0195221Y0189562D01*
X0195065Y0189529D01*
X0194908Y0189499D01*
X0194751Y0189473D01*
X0194593Y0189452D01*
X0194434Y0189434D01*
X0194275Y0189420D01*
X0194116Y0189410D01*
X0193957Y0189404D01*
X0193797Y0189402D01*
X0193637Y0189404D01*
X0193478Y0189410D01*
X0193319Y0189420D01*
X0193160Y0189434D01*
X0193001Y0189452D01*
X0192843Y0189473D01*
X0192686Y0189499D01*
X0192529Y0189529D01*
X0192373Y0189562D01*
X0192218Y0189600D01*
X0192064Y0189641D01*
X0191911Y0189686D01*
X0191759Y0189735D01*
X0191609Y0189788D01*
X0191460Y0189844D01*
X0191312Y0189904D01*
X0191166Y0189968D01*
X0191021Y0190036D01*
X0190878Y0190107D01*
X0190737Y0190181D01*
X0190598Y0190259D01*
X0190461Y0190341D01*
X0190326Y0190426D01*
X0190193Y0190514D01*
X0190062Y0190605D01*
X0189934Y0190700D01*
X0189808Y0190798D01*
X0189684Y0190899D01*
X0189564Y0191003D01*
X0189445Y0191110D01*
X0189330Y0191220D01*
X0189217Y0191333D01*
X0189107Y0191448D01*
X0189000Y0191567D01*
X0188896Y0191687D01*
X0188795Y0191811D01*
X0188697Y0191937D01*
X0188602Y0192065D01*
X0188511Y0192196D01*
X0188423Y0192329D01*
X0188338Y0192464D01*
X0188256Y0192601D01*
X0188178Y0192740D01*
X0188104Y0192881D01*
X0188033Y0193024D01*
X0187965Y0193169D01*
X0187901Y0193315D01*
X0187841Y0193463D01*
X0187785Y0193612D01*
X0187732Y0193762D01*
X0187683Y0193914D01*
X0187638Y0194067D01*
X0187597Y0194221D01*
X0187559Y0194376D01*
X0187526Y0194532D01*
X0187496Y0194689D01*
X0187470Y0194846D01*
X0187449Y0195004D01*
X0187431Y0195163D01*
X0187417Y0195322D01*
X0187407Y0195481D01*
X0187401Y0195640D01*
X0187399Y0195800D01*
X0230352Y0196300D02*
X0230354Y0196460D01*
X0230360Y0196619D01*
X0230370Y0196778D01*
X0230384Y0196937D01*
X0230402Y0197096D01*
X0230423Y0197254D01*
X0230449Y0197411D01*
X0230479Y0197568D01*
X0230512Y0197724D01*
X0230550Y0197879D01*
X0230591Y0198033D01*
X0230636Y0198186D01*
X0230685Y0198338D01*
X0230738Y0198488D01*
X0230794Y0198637D01*
X0230854Y0198785D01*
X0230918Y0198931D01*
X0230986Y0199076D01*
X0231057Y0199219D01*
X0231131Y0199360D01*
X0231209Y0199499D01*
X0231291Y0199636D01*
X0231376Y0199771D01*
X0231464Y0199904D01*
X0231555Y0200035D01*
X0231650Y0200163D01*
X0231748Y0200289D01*
X0231849Y0200413D01*
X0231953Y0200533D01*
X0232060Y0200652D01*
X0232170Y0200767D01*
X0232283Y0200880D01*
X0232398Y0200990D01*
X0232517Y0201097D01*
X0232637Y0201201D01*
X0232761Y0201302D01*
X0232887Y0201400D01*
X0233015Y0201495D01*
X0233146Y0201586D01*
X0233279Y0201674D01*
X0233414Y0201759D01*
X0233551Y0201841D01*
X0233690Y0201919D01*
X0233831Y0201993D01*
X0233974Y0202064D01*
X0234119Y0202132D01*
X0234265Y0202196D01*
X0234413Y0202256D01*
X0234562Y0202312D01*
X0234712Y0202365D01*
X0234864Y0202414D01*
X0235017Y0202459D01*
X0235171Y0202500D01*
X0235326Y0202538D01*
X0235482Y0202571D01*
X0235639Y0202601D01*
X0235796Y0202627D01*
X0235954Y0202648D01*
X0236113Y0202666D01*
X0236272Y0202680D01*
X0236431Y0202690D01*
X0236590Y0202696D01*
X0236750Y0202698D01*
X0236910Y0202696D01*
X0237069Y0202690D01*
X0237228Y0202680D01*
X0237387Y0202666D01*
X0237546Y0202648D01*
X0237704Y0202627D01*
X0237861Y0202601D01*
X0238018Y0202571D01*
X0238174Y0202538D01*
X0238329Y0202500D01*
X0238483Y0202459D01*
X0238636Y0202414D01*
X0238788Y0202365D01*
X0238938Y0202312D01*
X0239087Y0202256D01*
X0239235Y0202196D01*
X0239381Y0202132D01*
X0239526Y0202064D01*
X0239669Y0201993D01*
X0239810Y0201919D01*
X0239949Y0201841D01*
X0240086Y0201759D01*
X0240221Y0201674D01*
X0240354Y0201586D01*
X0240485Y0201495D01*
X0240613Y0201400D01*
X0240739Y0201302D01*
X0240863Y0201201D01*
X0240983Y0201097D01*
X0241102Y0200990D01*
X0241217Y0200880D01*
X0241330Y0200767D01*
X0241440Y0200652D01*
X0241547Y0200533D01*
X0241651Y0200413D01*
X0241752Y0200289D01*
X0241850Y0200163D01*
X0241945Y0200035D01*
X0242036Y0199904D01*
X0242124Y0199771D01*
X0242209Y0199636D01*
X0242291Y0199499D01*
X0242369Y0199360D01*
X0242443Y0199219D01*
X0242514Y0199076D01*
X0242582Y0198931D01*
X0242646Y0198785D01*
X0242706Y0198637D01*
X0242762Y0198488D01*
X0242815Y0198338D01*
X0242864Y0198186D01*
X0242909Y0198033D01*
X0242950Y0197879D01*
X0242988Y0197724D01*
X0243021Y0197568D01*
X0243051Y0197411D01*
X0243077Y0197254D01*
X0243098Y0197096D01*
X0243116Y0196937D01*
X0243130Y0196778D01*
X0243140Y0196619D01*
X0243146Y0196460D01*
X0243148Y0196300D01*
X0243146Y0196140D01*
X0243140Y0195981D01*
X0243130Y0195822D01*
X0243116Y0195663D01*
X0243098Y0195504D01*
X0243077Y0195346D01*
X0243051Y0195189D01*
X0243021Y0195032D01*
X0242988Y0194876D01*
X0242950Y0194721D01*
X0242909Y0194567D01*
X0242864Y0194414D01*
X0242815Y0194262D01*
X0242762Y0194112D01*
X0242706Y0193963D01*
X0242646Y0193815D01*
X0242582Y0193669D01*
X0242514Y0193524D01*
X0242443Y0193381D01*
X0242369Y0193240D01*
X0242291Y0193101D01*
X0242209Y0192964D01*
X0242124Y0192829D01*
X0242036Y0192696D01*
X0241945Y0192565D01*
X0241850Y0192437D01*
X0241752Y0192311D01*
X0241651Y0192187D01*
X0241547Y0192067D01*
X0241440Y0191948D01*
X0241330Y0191833D01*
X0241217Y0191720D01*
X0241102Y0191610D01*
X0240983Y0191503D01*
X0240863Y0191399D01*
X0240739Y0191298D01*
X0240613Y0191200D01*
X0240485Y0191105D01*
X0240354Y0191014D01*
X0240221Y0190926D01*
X0240086Y0190841D01*
X0239949Y0190759D01*
X0239810Y0190681D01*
X0239669Y0190607D01*
X0239526Y0190536D01*
X0239381Y0190468D01*
X0239235Y0190404D01*
X0239087Y0190344D01*
X0238938Y0190288D01*
X0238788Y0190235D01*
X0238636Y0190186D01*
X0238483Y0190141D01*
X0238329Y0190100D01*
X0238174Y0190062D01*
X0238018Y0190029D01*
X0237861Y0189999D01*
X0237704Y0189973D01*
X0237546Y0189952D01*
X0237387Y0189934D01*
X0237228Y0189920D01*
X0237069Y0189910D01*
X0236910Y0189904D01*
X0236750Y0189902D01*
X0236590Y0189904D01*
X0236431Y0189910D01*
X0236272Y0189920D01*
X0236113Y0189934D01*
X0235954Y0189952D01*
X0235796Y0189973D01*
X0235639Y0189999D01*
X0235482Y0190029D01*
X0235326Y0190062D01*
X0235171Y0190100D01*
X0235017Y0190141D01*
X0234864Y0190186D01*
X0234712Y0190235D01*
X0234562Y0190288D01*
X0234413Y0190344D01*
X0234265Y0190404D01*
X0234119Y0190468D01*
X0233974Y0190536D01*
X0233831Y0190607D01*
X0233690Y0190681D01*
X0233551Y0190759D01*
X0233414Y0190841D01*
X0233279Y0190926D01*
X0233146Y0191014D01*
X0233015Y0191105D01*
X0232887Y0191200D01*
X0232761Y0191298D01*
X0232637Y0191399D01*
X0232517Y0191503D01*
X0232398Y0191610D01*
X0232283Y0191720D01*
X0232170Y0191833D01*
X0232060Y0191948D01*
X0231953Y0192067D01*
X0231849Y0192187D01*
X0231748Y0192311D01*
X0231650Y0192437D01*
X0231555Y0192565D01*
X0231464Y0192696D01*
X0231376Y0192829D01*
X0231291Y0192964D01*
X0231209Y0193101D01*
X0231131Y0193240D01*
X0231057Y0193381D01*
X0230986Y0193524D01*
X0230918Y0193669D01*
X0230854Y0193815D01*
X0230794Y0193963D01*
X0230738Y0194112D01*
X0230685Y0194262D01*
X0230636Y0194414D01*
X0230591Y0194567D01*
X0230550Y0194721D01*
X0230512Y0194876D01*
X0230479Y0195032D01*
X0230449Y0195189D01*
X0230423Y0195346D01*
X0230402Y0195504D01*
X0230384Y0195663D01*
X0230370Y0195822D01*
X0230360Y0195981D01*
X0230354Y0196140D01*
X0230352Y0196300D01*
X0282399Y0196300D02*
X0282401Y0196460D01*
X0282407Y0196619D01*
X0282417Y0196778D01*
X0282431Y0196937D01*
X0282449Y0197096D01*
X0282470Y0197254D01*
X0282496Y0197411D01*
X0282526Y0197568D01*
X0282559Y0197724D01*
X0282597Y0197879D01*
X0282638Y0198033D01*
X0282683Y0198186D01*
X0282732Y0198338D01*
X0282785Y0198488D01*
X0282841Y0198637D01*
X0282901Y0198785D01*
X0282965Y0198931D01*
X0283033Y0199076D01*
X0283104Y0199219D01*
X0283178Y0199360D01*
X0283256Y0199499D01*
X0283338Y0199636D01*
X0283423Y0199771D01*
X0283511Y0199904D01*
X0283602Y0200035D01*
X0283697Y0200163D01*
X0283795Y0200289D01*
X0283896Y0200413D01*
X0284000Y0200533D01*
X0284107Y0200652D01*
X0284217Y0200767D01*
X0284330Y0200880D01*
X0284445Y0200990D01*
X0284564Y0201097D01*
X0284684Y0201201D01*
X0284808Y0201302D01*
X0284934Y0201400D01*
X0285062Y0201495D01*
X0285193Y0201586D01*
X0285326Y0201674D01*
X0285461Y0201759D01*
X0285598Y0201841D01*
X0285737Y0201919D01*
X0285878Y0201993D01*
X0286021Y0202064D01*
X0286166Y0202132D01*
X0286312Y0202196D01*
X0286460Y0202256D01*
X0286609Y0202312D01*
X0286759Y0202365D01*
X0286911Y0202414D01*
X0287064Y0202459D01*
X0287218Y0202500D01*
X0287373Y0202538D01*
X0287529Y0202571D01*
X0287686Y0202601D01*
X0287843Y0202627D01*
X0288001Y0202648D01*
X0288160Y0202666D01*
X0288319Y0202680D01*
X0288478Y0202690D01*
X0288637Y0202696D01*
X0288797Y0202698D01*
X0288957Y0202696D01*
X0289116Y0202690D01*
X0289275Y0202680D01*
X0289434Y0202666D01*
X0289593Y0202648D01*
X0289751Y0202627D01*
X0289908Y0202601D01*
X0290065Y0202571D01*
X0290221Y0202538D01*
X0290376Y0202500D01*
X0290530Y0202459D01*
X0290683Y0202414D01*
X0290835Y0202365D01*
X0290985Y0202312D01*
X0291134Y0202256D01*
X0291282Y0202196D01*
X0291428Y0202132D01*
X0291573Y0202064D01*
X0291716Y0201993D01*
X0291857Y0201919D01*
X0291996Y0201841D01*
X0292133Y0201759D01*
X0292268Y0201674D01*
X0292401Y0201586D01*
X0292532Y0201495D01*
X0292660Y0201400D01*
X0292786Y0201302D01*
X0292910Y0201201D01*
X0293030Y0201097D01*
X0293149Y0200990D01*
X0293264Y0200880D01*
X0293377Y0200767D01*
X0293487Y0200652D01*
X0293594Y0200533D01*
X0293698Y0200413D01*
X0293799Y0200289D01*
X0293897Y0200163D01*
X0293992Y0200035D01*
X0294083Y0199904D01*
X0294171Y0199771D01*
X0294256Y0199636D01*
X0294338Y0199499D01*
X0294416Y0199360D01*
X0294490Y0199219D01*
X0294561Y0199076D01*
X0294629Y0198931D01*
X0294693Y0198785D01*
X0294753Y0198637D01*
X0294809Y0198488D01*
X0294862Y0198338D01*
X0294911Y0198186D01*
X0294956Y0198033D01*
X0294997Y0197879D01*
X0295035Y0197724D01*
X0295068Y0197568D01*
X0295098Y0197411D01*
X0295124Y0197254D01*
X0295145Y0197096D01*
X0295163Y0196937D01*
X0295177Y0196778D01*
X0295187Y0196619D01*
X0295193Y0196460D01*
X0295195Y0196300D01*
X0295193Y0196140D01*
X0295187Y0195981D01*
X0295177Y0195822D01*
X0295163Y0195663D01*
X0295145Y0195504D01*
X0295124Y0195346D01*
X0295098Y0195189D01*
X0295068Y0195032D01*
X0295035Y0194876D01*
X0294997Y0194721D01*
X0294956Y0194567D01*
X0294911Y0194414D01*
X0294862Y0194262D01*
X0294809Y0194112D01*
X0294753Y0193963D01*
X0294693Y0193815D01*
X0294629Y0193669D01*
X0294561Y0193524D01*
X0294490Y0193381D01*
X0294416Y0193240D01*
X0294338Y0193101D01*
X0294256Y0192964D01*
X0294171Y0192829D01*
X0294083Y0192696D01*
X0293992Y0192565D01*
X0293897Y0192437D01*
X0293799Y0192311D01*
X0293698Y0192187D01*
X0293594Y0192067D01*
X0293487Y0191948D01*
X0293377Y0191833D01*
X0293264Y0191720D01*
X0293149Y0191610D01*
X0293030Y0191503D01*
X0292910Y0191399D01*
X0292786Y0191298D01*
X0292660Y0191200D01*
X0292532Y0191105D01*
X0292401Y0191014D01*
X0292268Y0190926D01*
X0292133Y0190841D01*
X0291996Y0190759D01*
X0291857Y0190681D01*
X0291716Y0190607D01*
X0291573Y0190536D01*
X0291428Y0190468D01*
X0291282Y0190404D01*
X0291134Y0190344D01*
X0290985Y0190288D01*
X0290835Y0190235D01*
X0290683Y0190186D01*
X0290530Y0190141D01*
X0290376Y0190100D01*
X0290221Y0190062D01*
X0290065Y0190029D01*
X0289908Y0189999D01*
X0289751Y0189973D01*
X0289593Y0189952D01*
X0289434Y0189934D01*
X0289275Y0189920D01*
X0289116Y0189910D01*
X0288957Y0189904D01*
X0288797Y0189902D01*
X0288637Y0189904D01*
X0288478Y0189910D01*
X0288319Y0189920D01*
X0288160Y0189934D01*
X0288001Y0189952D01*
X0287843Y0189973D01*
X0287686Y0189999D01*
X0287529Y0190029D01*
X0287373Y0190062D01*
X0287218Y0190100D01*
X0287064Y0190141D01*
X0286911Y0190186D01*
X0286759Y0190235D01*
X0286609Y0190288D01*
X0286460Y0190344D01*
X0286312Y0190404D01*
X0286166Y0190468D01*
X0286021Y0190536D01*
X0285878Y0190607D01*
X0285737Y0190681D01*
X0285598Y0190759D01*
X0285461Y0190841D01*
X0285326Y0190926D01*
X0285193Y0191014D01*
X0285062Y0191105D01*
X0284934Y0191200D01*
X0284808Y0191298D01*
X0284684Y0191399D01*
X0284564Y0191503D01*
X0284445Y0191610D01*
X0284330Y0191720D01*
X0284217Y0191833D01*
X0284107Y0191948D01*
X0284000Y0192067D01*
X0283896Y0192187D01*
X0283795Y0192311D01*
X0283697Y0192437D01*
X0283602Y0192565D01*
X0283511Y0192696D01*
X0283423Y0192829D01*
X0283338Y0192964D01*
X0283256Y0193101D01*
X0283178Y0193240D01*
X0283104Y0193381D01*
X0283033Y0193524D01*
X0282965Y0193669D01*
X0282901Y0193815D01*
X0282841Y0193963D01*
X0282785Y0194112D01*
X0282732Y0194262D01*
X0282683Y0194414D01*
X0282638Y0194567D01*
X0282597Y0194721D01*
X0282559Y0194876D01*
X0282526Y0195032D01*
X0282496Y0195189D01*
X0282470Y0195346D01*
X0282449Y0195504D01*
X0282431Y0195663D01*
X0282417Y0195822D01*
X0282407Y0195981D01*
X0282401Y0196140D01*
X0282399Y0196300D01*
D11*
X0196250Y0083400D03*
X0191250Y0083400D03*
X0186250Y0083400D03*
X0181250Y0083400D03*
X0176250Y0083400D03*
X0171250Y0083400D03*
X0166250Y0083400D03*
X0161250Y0083400D03*
X0156250Y0083400D03*
X0156250Y0045700D03*
X0161250Y0045700D03*
X0166250Y0045700D03*
X0171250Y0045700D03*
X0176250Y0045700D03*
X0181250Y0045700D03*
X0186250Y0045700D03*
X0191250Y0045700D03*
X0196250Y0045700D03*
D12*
X0229350Y0063526D03*
X0229350Y0066676D03*
X0229350Y0069826D03*
X0229350Y0072975D03*
X0229350Y0076125D03*
X0229350Y0079274D03*
X0229350Y0082424D03*
X0229350Y0085574D03*
X0263150Y0085574D03*
X0263150Y0082424D03*
X0263150Y0079274D03*
X0263150Y0076125D03*
X0263150Y0072975D03*
X0263150Y0069826D03*
X0263150Y0066676D03*
X0263150Y0063526D03*
D13*
X0257274Y0057650D03*
X0254124Y0057650D03*
X0250974Y0057650D03*
X0247825Y0057650D03*
X0244675Y0057650D03*
X0241526Y0057650D03*
X0238376Y0057650D03*
X0235226Y0057650D03*
X0235226Y0091450D03*
X0238376Y0091450D03*
X0241526Y0091450D03*
X0244675Y0091450D03*
X0247825Y0091450D03*
X0250974Y0091450D03*
X0254124Y0091450D03*
X0257274Y0091450D03*
D14*
X0209250Y0121629D03*
X0209250Y0131471D03*
X0185750Y0139300D03*
X0175750Y0139300D03*
X0165750Y0139300D03*
X0155750Y0139300D03*
X0155750Y0109300D03*
X0165750Y0109300D03*
X0175750Y0109300D03*
X0185750Y0109300D03*
D15*
X0141750Y0091550D03*
X0141750Y0071550D03*
X0279750Y0069800D03*
X0279750Y0089800D03*
D16*
X0204945Y0040300D03*
X0198055Y0040300D03*
X0198055Y0034050D03*
X0204945Y0034050D03*
X0161945Y0092800D03*
X0155055Y0092800D03*
D17*
X0229750Y0041550D03*
X0239750Y0040550D03*
X0249750Y0041550D03*
X0239750Y0031550D03*
X0229750Y0030550D03*
X0249750Y0030550D03*
D18*
X0309500Y0075050D03*
D19*
X0309500Y0065050D03*
X0309500Y0055050D03*
X0309500Y0045050D03*
X0309500Y0035050D03*
X0309500Y0025050D03*
X0312000Y0110050D03*
X0312000Y0120050D03*
X0312000Y0130050D03*
X0312000Y0140050D03*
X0312000Y0150050D03*
D20*
X0249703Y0186300D03*
X0154703Y0185800D03*
D21*
X0162734Y0185800D03*
X0170766Y0185800D03*
X0178797Y0185800D03*
X0174781Y0178792D03*
X0166750Y0178792D03*
X0158719Y0178792D03*
X0182813Y0178792D03*
X0186789Y0159816D03*
X0195805Y0159816D03*
X0236789Y0160316D03*
X0245805Y0160316D03*
X0253719Y0179292D03*
X0261750Y0179292D03*
X0269781Y0179292D03*
X0277813Y0179292D03*
X0273797Y0186300D03*
X0265766Y0186300D03*
X0257734Y0186300D03*
X0281789Y0160316D03*
X0290805Y0160316D03*
X0150805Y0159816D03*
X0141789Y0159816D03*
D22*
X0134742Y0182296D03*
X0200805Y0182296D03*
X0229742Y0182796D03*
X0295805Y0182796D03*
D23*
X0280750Y0119646D03*
X0280750Y0112954D03*
X0219500Y0064396D03*
X0219500Y0057704D03*
D24*
X0212750Y0056166D03*
X0206000Y0056166D03*
X0206000Y0064434D03*
X0212750Y0064434D03*
X0207634Y0095050D03*
X0199366Y0095050D03*
D25*
X0144250Y0118038D03*
X0144250Y0129062D03*
X0300000Y0096812D03*
X0300000Y0085788D03*
D26*
X0266559Y0128658D03*
X0261441Y0128658D03*
X0264000Y0135942D03*
X0275191Y0131158D03*
X0280309Y0131158D03*
X0277750Y0138442D03*
D27*
X0291988Y0127300D03*
X0303012Y0127300D03*
X0301262Y0107800D03*
X0290238Y0107800D03*
D28*
X0267096Y0122550D03*
X0260404Y0122550D03*
X0275154Y0126050D03*
X0281846Y0126050D03*
X0283846Y0042550D03*
X0277154Y0042550D03*
X0146096Y0139300D03*
X0139404Y0139300D03*
D29*
X0139000Y0048800D03*
X0139000Y0038800D03*
X0139000Y0028800D03*
X0139000Y0018800D03*
D30*
X0291167Y0050831D03*
X0291167Y0052800D03*
X0291167Y0054769D03*
X0298333Y0054769D03*
X0298333Y0052800D03*
X0298333Y0050831D03*
D31*
X0295994Y0035068D03*
X0276506Y0035068D03*
X0276506Y0018532D03*
X0295994Y0018532D03*
D32*
X0316500Y0175605D03*
X0316500Y0182495D03*
D33*
X0282000Y0173550D03*
X0256750Y0159050D03*
X0257000Y0153550D03*
X0269524Y0148050D03*
X0275750Y0148800D03*
X0270250Y0140550D03*
X0272750Y0135300D03*
X0271000Y0130800D03*
X0285750Y0131800D03*
X0293250Y0136300D03*
X0287500Y0139300D03*
X0292000Y0119550D03*
X0275500Y0117300D03*
X0266250Y0114550D03*
X0260000Y0117050D03*
X0246500Y0115550D03*
X0239750Y0115550D03*
X0258250Y0107300D03*
X0268750Y0103050D03*
X0262250Y0096550D03*
X0270000Y0091050D03*
X0256250Y0081050D03*
X0247750Y0085300D03*
X0242500Y0085050D03*
X0222000Y0083550D03*
X0220750Y0078800D03*
X0211000Y0070800D03*
X0200250Y0059050D03*
X0190750Y0053800D03*
X0173500Y0059800D03*
X0166500Y0063550D03*
X0162000Y0069050D03*
X0158000Y0070550D03*
X0176250Y0070550D03*
X0163500Y0058300D03*
X0172500Y0052800D03*
X0194000Y0039300D03*
X0174500Y0036300D03*
X0188000Y0022550D03*
X0204500Y0022050D03*
X0218250Y0032550D03*
X0212500Y0034550D03*
X0225750Y0022050D03*
X0262000Y0027300D03*
X0282250Y0036050D03*
X0300750Y0025050D03*
X0288500Y0015050D03*
X0262000Y0044300D03*
X0235500Y0046550D03*
X0225000Y0052800D03*
X0224750Y0061050D03*
X0237250Y0070300D03*
X0249250Y0068550D03*
X0270250Y0070800D03*
X0278750Y0079800D03*
X0294750Y0071800D03*
X0289750Y0092800D03*
X0287750Y0101050D03*
X0308000Y0098800D03*
X0313250Y0101550D03*
X0254000Y0137050D03*
X0246250Y0130050D03*
X0239750Y0130550D03*
X0233750Y0132300D03*
X0227500Y0141550D03*
X0221750Y0145050D03*
X0223375Y0154675D03*
X0218351Y0154949D03*
X0230250Y0153550D03*
X0239500Y0147800D03*
X0251500Y0171550D03*
X0220000Y0171550D03*
X0181750Y0147800D03*
X0180750Y0136050D03*
X0200750Y0119050D03*
X0209750Y0104800D03*
X0201500Y0101050D03*
X0192750Y0096800D03*
X0182000Y0096800D03*
X0176250Y0093300D03*
X0171000Y0091050D03*
X0167750Y0097800D03*
X0161000Y0100800D03*
X0181250Y0090800D03*
X0213000Y0097300D03*
X0222000Y0101050D03*
X0233750Y0101050D03*
X0246250Y0099050D03*
X0154500Y0118050D03*
X0135000Y0111800D03*
X0148250Y0084800D03*
X0134500Y0070550D03*
X0146750Y0022050D03*
X0143000Y0146050D03*
X0148000Y0172050D03*
D34*
X0152250Y0177550D02*
X0160000Y0169800D01*
X0203500Y0169800D01*
X0218351Y0154949D01*
X0223375Y0154675D02*
X0205250Y0172800D01*
X0164500Y0172800D01*
X0158719Y0178581D01*
X0158719Y0178792D01*
X0154703Y0182003D02*
X0152250Y0179550D01*
X0152250Y0177550D01*
X0154703Y0182003D02*
X0154703Y0185800D01*
X0141789Y0159816D02*
X0146805Y0154800D01*
X0183000Y0154800D01*
X0196250Y0141550D01*
X0227500Y0141550D01*
X0239500Y0147800D02*
X0199750Y0147800D01*
X0199500Y0148050D01*
X0197250Y0148050D01*
X0192500Y0152800D01*
X0192500Y0153300D01*
X0186789Y0159011D01*
X0186789Y0159816D01*
X0159250Y0131050D02*
X0157750Y0132550D01*
X0159250Y0131050D02*
X0185750Y0131050D01*
X0185750Y0109300D02*
X0177250Y0100800D01*
X0170750Y0100800D01*
X0167750Y0097800D01*
X0161000Y0100800D02*
X0161000Y0101550D01*
X0159250Y0103300D01*
X0129250Y0103300D01*
X0128250Y0102300D01*
X0141750Y0091550D02*
X0143000Y0092800D01*
X0155055Y0092800D01*
X0158555Y0089300D01*
X0164250Y0089300D01*
X0166250Y0087300D01*
X0166250Y0083400D01*
X0161250Y0083400D02*
X0161250Y0078800D01*
X0159250Y0076800D01*
X0147000Y0076800D01*
X0141750Y0071550D01*
X0144375Y0056425D02*
X0157500Y0069550D01*
X0158000Y0070550D01*
X0162000Y0069050D02*
X0164250Y0069050D01*
X0166500Y0066800D01*
X0166500Y0063550D01*
X0176250Y0055800D02*
X0176250Y0045700D01*
X0176250Y0042050D01*
X0193500Y0024800D01*
X0232500Y0024800D01*
X0234750Y0027050D01*
X0234750Y0034050D01*
X0239750Y0039050D01*
X0239750Y0040550D01*
X0245000Y0036050D02*
X0245000Y0049800D01*
X0248000Y0052800D01*
X0248000Y0057475D01*
X0247825Y0057650D01*
X0250974Y0057650D02*
X0250974Y0051576D01*
X0252000Y0050550D01*
X0254124Y0057650D02*
X0254000Y0057774D01*
X0254000Y0060300D01*
X0256750Y0063050D01*
X0263150Y0063526D02*
X0265524Y0063526D01*
X0268000Y0061050D01*
X0268000Y0027800D01*
X0257000Y0016800D01*
X0162250Y0016800D01*
X0161250Y0017800D01*
X0161250Y0045700D01*
X0156250Y0045700D02*
X0156000Y0045450D01*
X0156000Y0017800D01*
X0159000Y0014800D01*
X0257500Y0014800D01*
X0270750Y0028050D01*
X0270750Y0062050D01*
X0266124Y0066676D01*
X0263150Y0066676D01*
X0263150Y0072975D02*
X0260325Y0072975D01*
X0258750Y0074550D01*
X0258750Y0078550D01*
X0259250Y0079050D01*
X0257250Y0081050D01*
X0256250Y0081050D01*
X0259250Y0079050D02*
X0262926Y0079050D01*
X0263150Y0079274D01*
X0263150Y0082424D02*
X0267126Y0082424D01*
X0279750Y0069800D01*
X0289238Y0065050D02*
X0298333Y0055956D01*
X0298333Y0054769D01*
X0298333Y0052800D02*
X0302750Y0052800D01*
X0303750Y0051800D01*
X0303750Y0048800D01*
X0302500Y0047550D01*
X0296000Y0047550D01*
X0293250Y0044800D01*
X0293250Y0039300D01*
X0291250Y0045800D02*
X0290000Y0045800D01*
X0289750Y0045550D01*
X0291250Y0045800D02*
X0296281Y0050831D01*
X0298333Y0050831D01*
X0291167Y0050831D02*
X0291136Y0050800D01*
X0288000Y0050800D01*
X0283846Y0046646D01*
X0283846Y0042550D01*
X0277154Y0042550D02*
X0274750Y0044954D01*
X0274750Y0048550D01*
X0281750Y0052300D02*
X0284219Y0054769D01*
X0291167Y0054769D01*
X0291167Y0052800D02*
X0288000Y0052800D01*
X0257274Y0057650D02*
X0257250Y0057626D01*
X0257250Y0022800D01*
X0253500Y0019050D01*
X0167750Y0019050D01*
X0166250Y0020550D01*
X0166250Y0045700D01*
X0171250Y0045700D02*
X0171250Y0051550D01*
X0172500Y0052800D01*
X0176250Y0055800D02*
X0215750Y0095300D01*
X0238250Y0095300D01*
X0238376Y0095174D01*
X0238376Y0091450D01*
X0241526Y0091450D02*
X0241526Y0088576D01*
X0239750Y0086800D01*
X0234500Y0086800D01*
X0232000Y0089300D01*
X0216750Y0089300D01*
X0186500Y0059050D01*
X0186500Y0045950D01*
X0186250Y0045700D01*
X0181250Y0045700D02*
X0181250Y0042800D01*
X0195000Y0029050D01*
X0228250Y0029050D01*
X0229750Y0030550D01*
X0245000Y0036050D02*
X0249750Y0031300D01*
X0249750Y0030550D01*
X0274500Y0024550D02*
X0276506Y0022544D01*
X0276506Y0018532D01*
X0295994Y0018532D01*
X0238376Y0055176D02*
X0231250Y0048050D01*
X0223596Y0048050D01*
X0214366Y0046800D02*
X0206000Y0056166D01*
X0195250Y0052550D02*
X0195250Y0061300D01*
X0212500Y0078550D01*
X0216000Y0078550D01*
X0224750Y0069800D01*
X0229324Y0069800D01*
X0229350Y0069826D01*
X0229324Y0069800D02*
X0228824Y0069300D01*
X0229226Y0066800D02*
X0224500Y0066800D01*
X0220000Y0071300D01*
X0216750Y0071300D01*
X0214037Y0064396D02*
X0212750Y0064434D01*
X0214037Y0064396D02*
X0219500Y0064396D01*
X0224750Y0061050D02*
X0226874Y0061050D01*
X0229350Y0063526D01*
X0229350Y0066676D02*
X0229226Y0066800D01*
X0237250Y0070300D02*
X0231425Y0076125D01*
X0229350Y0076125D01*
X0232325Y0076125D01*
X0234250Y0078050D01*
X0234250Y0081050D01*
X0233000Y0082300D01*
X0229474Y0082300D01*
X0229350Y0082424D01*
X0229350Y0079274D02*
X0224526Y0079274D01*
X0223750Y0080050D01*
X0223750Y0081800D01*
X0222000Y0083550D01*
X0217750Y0087300D02*
X0227624Y0087300D01*
X0229350Y0085574D01*
X0235226Y0091450D02*
X0215400Y0091450D01*
X0181250Y0057300D01*
X0181250Y0045700D01*
X0189750Y0041050D02*
X0191250Y0042550D01*
X0191250Y0045700D01*
X0191250Y0048550D01*
X0195250Y0052550D01*
X0190750Y0053800D02*
X0190750Y0060300D01*
X0217750Y0087300D01*
X0209884Y0097300D02*
X0207634Y0095050D01*
X0209884Y0097300D02*
X0213000Y0097300D01*
X0209750Y0104800D02*
X0211250Y0106300D01*
X0244750Y0106300D01*
X0250974Y0100076D01*
X0250974Y0091450D01*
X0247825Y0091450D02*
X0247825Y0097475D01*
X0246250Y0099050D01*
X0244500Y0094300D02*
X0244500Y0091625D01*
X0244675Y0091450D01*
X0244500Y0094300D02*
X0240250Y0098550D01*
X0240250Y0101800D01*
X0245750Y0108800D02*
X0209250Y0108800D01*
X0201500Y0101050D01*
X0192750Y0096800D02*
X0207250Y0111300D01*
X0246500Y0111300D01*
X0257274Y0100526D01*
X0257274Y0091450D01*
X0254124Y0091450D02*
X0254124Y0100426D01*
X0245750Y0108800D01*
X0246500Y0115550D02*
X0246500Y0129800D01*
X0246250Y0130050D01*
X0239750Y0130550D02*
X0239750Y0115550D01*
X0254750Y0117050D02*
X0268750Y0103050D01*
X0262250Y0096550D01*
X0263150Y0085574D02*
X0275524Y0085574D01*
X0279750Y0089800D01*
X0289750Y0092800D02*
X0292988Y0092800D01*
X0300000Y0085788D01*
X0318250Y0096800D02*
X0319000Y0106300D01*
X0318750Y0106050D01*
X0297750Y0120050D02*
X0297750Y0131800D01*
X0293250Y0136300D01*
X0292000Y0131550D02*
X0292000Y0127312D01*
X0291988Y0127300D01*
X0292000Y0131550D02*
X0287500Y0136050D01*
X0287500Y0139300D01*
X0282000Y0139550D02*
X0282000Y0136300D01*
X0280309Y0134609D01*
X0280309Y0131158D01*
X0280309Y0126050D01*
X0281846Y0126050D01*
X0286750Y0122300D02*
X0286750Y0130800D01*
X0285750Y0131800D01*
X0282000Y0139550D02*
X0278500Y0143050D01*
X0273750Y0143050D01*
X0272750Y0144050D01*
X0272750Y0145800D01*
X0275750Y0148800D01*
X0269524Y0148050D02*
X0281789Y0160316D01*
X0270250Y0140550D02*
X0269250Y0139550D01*
X0269250Y0133800D01*
X0266559Y0131109D01*
X0266559Y0128658D01*
X0266559Y0122550D01*
X0267096Y0122550D01*
X0264904Y0118050D02*
X0263750Y0116896D01*
X0263750Y0115800D01*
X0265000Y0114550D01*
X0266250Y0114550D01*
X0264904Y0118050D02*
X0260404Y0122550D01*
X0261441Y0122550D01*
X0261441Y0128658D01*
X0254750Y0129550D02*
X0254750Y0117050D01*
X0264904Y0118050D02*
X0271250Y0118050D01*
X0275191Y0121991D01*
X0275191Y0131158D01*
X0275191Y0126050D01*
X0275154Y0126050D01*
X0280750Y0119646D02*
X0278404Y0117300D01*
X0275500Y0117300D01*
X0280750Y0112954D02*
X0284904Y0112954D01*
X0287750Y0115800D01*
X0287750Y0121300D01*
X0286750Y0122300D01*
X0290238Y0117788D02*
X0292000Y0119550D01*
X0290238Y0117788D02*
X0290238Y0112538D01*
X0297750Y0120050D01*
X0290238Y0112538D02*
X0290238Y0107800D01*
X0281000Y0109800D02*
X0281000Y0112704D01*
X0280750Y0112954D01*
X0281000Y0109800D02*
X0257000Y0085800D01*
X0253000Y0085800D01*
X0251250Y0084050D01*
X0251250Y0083800D01*
X0244675Y0077225D01*
X0244675Y0057650D01*
X0241526Y0057650D02*
X0241526Y0078826D01*
X0247750Y0085300D01*
X0237250Y0070300D02*
X0237500Y0070050D01*
X0238376Y0057650D02*
X0238376Y0055176D01*
X0235226Y0057650D02*
X0235173Y0057704D01*
X0219500Y0057704D01*
X0196250Y0078550D02*
X0190500Y0072800D01*
X0186250Y0072800D01*
X0186000Y0073050D01*
X0189000Y0077050D02*
X0191250Y0079300D01*
X0191250Y0083400D01*
X0196250Y0083400D02*
X0196250Y0078550D01*
X0181250Y0083400D02*
X0181250Y0090800D01*
X0176250Y0093300D02*
X0176250Y0083400D01*
X0171250Y0083400D02*
X0171000Y0083650D01*
X0171000Y0091050D01*
X0171250Y0045700D02*
X0171250Y0044050D01*
X0189750Y0041050D02*
X0189750Y0038550D01*
X0303012Y0127300D02*
X0309250Y0127300D01*
X0312000Y0130050D01*
X0277750Y0138442D02*
X0276858Y0137550D01*
X0273750Y0137550D01*
X0272750Y0136550D01*
X0272750Y0135300D01*
X0264000Y0135942D02*
X0261142Y0135942D01*
X0254750Y0129550D01*
D35*
X0234250Y0136550D02*
X0256750Y0159050D01*
X0244250Y0171550D01*
X0220000Y0171550D01*
X0217250Y0136550D02*
X0234250Y0136550D01*
X0217250Y0136550D02*
X0212171Y0131471D01*
X0209250Y0131471D01*
X0154500Y0118050D02*
X0154488Y0118038D01*
X0144250Y0118038D01*
X0139000Y0129550D02*
X0128250Y0118800D01*
X0128250Y0102300D01*
X0128250Y0066550D01*
X0134000Y0060800D01*
X0140000Y0060800D01*
X0144375Y0056425D01*
X0147500Y0053300D01*
X0147500Y0031550D01*
X0151250Y0027800D01*
X0194000Y0039300D02*
X0197055Y0039300D01*
X0198055Y0040300D01*
X0198055Y0043895D01*
X0196250Y0045700D01*
X0198055Y0040300D02*
X0198055Y0034050D01*
X0212500Y0034550D02*
X0212500Y0035050D01*
X0219000Y0041550D01*
X0229750Y0041550D01*
X0300000Y0085788D02*
X0307238Y0085788D01*
X0318250Y0096800D01*
X0308000Y0098800D02*
X0306012Y0096812D01*
X0300000Y0096812D01*
X0301262Y0107800D02*
X0309750Y0107800D01*
X0312000Y0110050D01*
X0318750Y0106050D02*
X0318750Y0085550D01*
X0319000Y0106300D02*
X0319000Y0159300D01*
X0309875Y0168425D01*
X0316500Y0175050D01*
X0316500Y0175605D01*
X0309875Y0168425D02*
X0304750Y0173550D01*
X0282000Y0173550D01*
X0144250Y0129062D02*
X0143762Y0129550D01*
X0139000Y0129550D01*
D36*
X0157750Y0132550D03*
X0185750Y0131050D03*
X0148500Y0097800D03*
X0186000Y0073050D03*
X0189000Y0077050D03*
X0147750Y0064300D03*
X0189750Y0038550D03*
X0214366Y0046800D03*
X0223596Y0048050D03*
X0252000Y0050550D03*
X0256750Y0063050D03*
X0274750Y0048550D03*
X0281750Y0052300D03*
X0289750Y0045550D03*
X0293250Y0039300D03*
X0274500Y0024550D03*
X0289238Y0065050D03*
X0300250Y0077800D03*
X0318750Y0085550D03*
X0240250Y0101800D03*
X0221250Y0166550D03*
D37*
X0216750Y0071300D03*
X0151250Y0027800D03*
D38*
X0148266Y0027107D02*
X0148266Y0025636D01*
X0149086Y0024816D01*
X0153414Y0024816D01*
X0154100Y0025502D01*
X0154100Y0017013D01*
X0155213Y0015900D01*
X0157100Y0014013D01*
X0157100Y0014013D01*
X0157513Y0013600D01*
X0140135Y0013600D01*
X0141967Y0014359D01*
X0143441Y0015833D01*
X0144239Y0017758D01*
X0144239Y0019842D01*
X0143441Y0021767D01*
X0141967Y0023241D01*
X0140618Y0023800D01*
X0141967Y0024359D01*
X0143441Y0025833D01*
X0144239Y0027758D01*
X0144239Y0029842D01*
X0143441Y0031767D01*
X0141967Y0033241D01*
X0140618Y0033800D01*
X0141967Y0034359D01*
X0143441Y0035833D01*
X0144239Y0037758D01*
X0144239Y0039842D01*
X0143441Y0041767D01*
X0141967Y0043241D01*
X0141163Y0043574D01*
X0141164Y0043575D01*
X0141955Y0043977D01*
X0142673Y0044499D01*
X0143301Y0045127D01*
X0143823Y0045845D01*
X0144225Y0046636D01*
X0144500Y0047480D01*
X0144633Y0048320D01*
X0139480Y0048320D01*
X0139480Y0049280D01*
X0138520Y0049280D01*
X0138520Y0054433D01*
X0137680Y0054300D01*
X0136836Y0054025D01*
X0136045Y0053623D01*
X0135327Y0053101D01*
X0134699Y0052473D01*
X0134177Y0051755D01*
X0133775Y0050964D01*
X0133500Y0050120D01*
X0133367Y0049280D01*
X0138520Y0049280D01*
X0138520Y0048320D01*
X0133367Y0048320D01*
X0133500Y0047480D01*
X0133775Y0046636D01*
X0134177Y0045845D01*
X0134699Y0045127D01*
X0135327Y0044499D01*
X0136045Y0043977D01*
X0136836Y0043575D01*
X0136837Y0043574D01*
X0136033Y0043241D01*
X0134559Y0041767D01*
X0133761Y0039842D01*
X0133761Y0037758D01*
X0134559Y0035833D01*
X0136033Y0034359D01*
X0137382Y0033800D01*
X0136033Y0033241D01*
X0134559Y0031767D01*
X0133761Y0029842D01*
X0133761Y0027758D01*
X0134559Y0025833D01*
X0136033Y0024359D01*
X0137382Y0023800D01*
X0136033Y0023241D01*
X0134559Y0021767D01*
X0133761Y0019842D01*
X0133761Y0017758D01*
X0134559Y0015833D01*
X0136033Y0014359D01*
X0137865Y0013600D01*
X0126800Y0013600D01*
X0126800Y0064323D01*
X0131796Y0059327D01*
X0132527Y0058596D01*
X0133483Y0058200D01*
X0138923Y0058200D01*
X0142171Y0054952D01*
X0144900Y0052223D01*
X0144900Y0031033D01*
X0145296Y0030077D01*
X0148266Y0027107D01*
X0148266Y0026187D02*
X0143588Y0026187D01*
X0144239Y0027785D02*
X0147588Y0027785D01*
X0145989Y0029384D02*
X0144239Y0029384D01*
X0143766Y0030982D02*
X0144921Y0030982D01*
X0144900Y0032581D02*
X0142628Y0032581D01*
X0141533Y0034179D02*
X0144900Y0034179D01*
X0144900Y0035778D02*
X0143386Y0035778D01*
X0144080Y0037376D02*
X0144900Y0037376D01*
X0144900Y0038975D02*
X0144239Y0038975D01*
X0143936Y0040573D02*
X0144900Y0040573D01*
X0144900Y0042172D02*
X0143037Y0042172D01*
X0141549Y0043770D02*
X0144900Y0043770D01*
X0144900Y0045369D02*
X0143477Y0045369D01*
X0144333Y0046967D02*
X0144900Y0046967D01*
X0144900Y0048566D02*
X0139480Y0048566D01*
X0139480Y0049280D02*
X0144633Y0049280D01*
X0144500Y0050120D01*
X0144225Y0050964D01*
X0143823Y0051755D01*
X0143301Y0052473D01*
X0142673Y0053101D01*
X0141955Y0053623D01*
X0141164Y0054025D01*
X0140320Y0054300D01*
X0139480Y0054433D01*
X0139480Y0049280D01*
X0139480Y0050164D02*
X0138520Y0050164D01*
X0138520Y0048566D02*
X0126800Y0048566D01*
X0126800Y0050164D02*
X0133515Y0050164D01*
X0134183Y0051763D02*
X0126800Y0051763D01*
X0126800Y0053361D02*
X0135685Y0053361D01*
X0138520Y0053361D02*
X0139480Y0053361D01*
X0139480Y0051763D02*
X0138520Y0051763D01*
X0142315Y0053361D02*
X0143762Y0053361D01*
X0143817Y0051763D02*
X0144900Y0051763D01*
X0144900Y0050164D02*
X0144485Y0050164D01*
X0150100Y0050164D02*
X0153669Y0050164D01*
X0153669Y0050217D02*
X0153669Y0041183D01*
X0154100Y0040752D01*
X0154100Y0030098D01*
X0153414Y0030784D01*
X0151943Y0030784D01*
X0150100Y0032627D01*
X0150100Y0053817D01*
X0149704Y0054773D01*
X0148973Y0055504D01*
X0147557Y0056920D01*
X0158203Y0067566D01*
X0158594Y0067566D01*
X0159269Y0067845D01*
X0159470Y0067360D01*
X0160310Y0066520D01*
X0161406Y0066066D01*
X0162594Y0066066D01*
X0163690Y0066520D01*
X0163892Y0066721D01*
X0164600Y0066013D01*
X0164600Y0065870D01*
X0163970Y0065240D01*
X0163516Y0064144D01*
X0163516Y0062956D01*
X0163970Y0061860D01*
X0164810Y0061020D01*
X0165906Y0060566D01*
X0167094Y0060566D01*
X0168190Y0061020D01*
X0169030Y0061860D01*
X0169484Y0062956D01*
X0169484Y0064144D01*
X0169030Y0065240D01*
X0168400Y0065870D01*
X0168400Y0067587D01*
X0167287Y0068700D01*
X0165037Y0070950D01*
X0164320Y0070950D01*
X0163690Y0071580D01*
X0162594Y0072034D01*
X0161406Y0072034D01*
X0160731Y0071755D01*
X0160530Y0072240D01*
X0159690Y0073080D01*
X0158594Y0073534D01*
X0157406Y0073534D01*
X0156310Y0073080D01*
X0155470Y0072240D01*
X0155016Y0071144D01*
X0155016Y0069956D01*
X0155075Y0069812D01*
X0144870Y0059607D01*
X0141473Y0063004D01*
X0140517Y0063400D01*
X0135077Y0063400D01*
X0130850Y0067627D01*
X0130850Y0101400D01*
X0158018Y0101400D01*
X0158016Y0101394D01*
X0158016Y0100206D01*
X0158470Y0099110D01*
X0159310Y0098270D01*
X0160406Y0097816D01*
X0161594Y0097816D01*
X0162690Y0098270D01*
X0163530Y0099110D01*
X0163984Y0100206D01*
X0163984Y0101394D01*
X0163530Y0102490D01*
X0162690Y0103330D01*
X0161594Y0103784D01*
X0161453Y0103784D01*
X0161150Y0104087D01*
X0160037Y0105200D01*
X0130850Y0105200D01*
X0130850Y0117723D01*
X0139307Y0126180D01*
X0139307Y0125332D01*
X0140127Y0124512D01*
X0148373Y0124512D01*
X0149193Y0125332D01*
X0149193Y0132791D01*
X0148373Y0133611D01*
X0140127Y0133611D01*
X0139307Y0132791D01*
X0139307Y0132150D01*
X0138483Y0132150D01*
X0137527Y0131754D01*
X0136796Y0131023D01*
X0126800Y0121027D01*
X0126800Y0206850D01*
X0320050Y0206850D01*
X0320050Y0185683D01*
X0319731Y0186002D01*
X0319321Y0186239D01*
X0318863Y0186362D01*
X0316733Y0186362D01*
X0316733Y0182728D01*
X0316267Y0182728D01*
X0316267Y0186362D01*
X0314137Y0186362D01*
X0313679Y0186239D01*
X0313269Y0186002D01*
X0312934Y0185667D01*
X0312697Y0185257D01*
X0312574Y0184799D01*
X0312574Y0182728D01*
X0316266Y0182728D01*
X0316266Y0182261D01*
X0312574Y0182261D01*
X0312574Y0180191D01*
X0312697Y0179733D01*
X0312934Y0179323D01*
X0313269Y0178988D01*
X0313548Y0178826D01*
X0312974Y0178252D01*
X0312974Y0175201D01*
X0309875Y0172102D01*
X0306954Y0175023D01*
X0306223Y0175754D01*
X0305267Y0176150D01*
X0298352Y0176150D01*
X0298959Y0176401D01*
X0299766Y0176867D01*
X0300506Y0177435D01*
X0301166Y0178095D01*
X0301734Y0178835D01*
X0302200Y0179642D01*
X0302557Y0180504D01*
X0302798Y0181405D01*
X0302876Y0181996D01*
X0296605Y0181996D01*
X0296605Y0183596D01*
X0295005Y0183596D01*
X0295005Y0181996D01*
X0288734Y0181996D01*
X0288812Y0181405D01*
X0289053Y0180504D01*
X0289410Y0179642D01*
X0289877Y0178835D01*
X0290444Y0178095D01*
X0291104Y0177435D01*
X0291844Y0176867D01*
X0292651Y0176401D01*
X0293258Y0176150D01*
X0283521Y0176150D01*
X0282594Y0176534D01*
X0281406Y0176534D01*
X0281111Y0176412D01*
X0281516Y0176818D01*
X0282181Y0178423D01*
X0282181Y0180161D01*
X0281516Y0181767D01*
X0280288Y0182996D01*
X0278682Y0183661D01*
X0277774Y0183661D01*
X0277876Y0183801D01*
X0278216Y0184470D01*
X0278448Y0185183D01*
X0278566Y0185925D01*
X0278566Y0186116D01*
X0273982Y0186116D01*
X0273982Y0186484D01*
X0278566Y0186484D01*
X0278566Y0186675D01*
X0278448Y0187417D01*
X0278216Y0188130D01*
X0277876Y0188799D01*
X0277434Y0189406D01*
X0276904Y0189937D01*
X0276296Y0190378D01*
X0275628Y0190719D01*
X0274914Y0190951D01*
X0274173Y0191068D01*
X0273981Y0191068D01*
X0273981Y0186484D01*
X0273613Y0186484D01*
X0273613Y0191068D01*
X0273422Y0191068D01*
X0272681Y0190951D01*
X0271967Y0190719D01*
X0271298Y0190378D01*
X0270691Y0189937D01*
X0270160Y0189406D01*
X0269719Y0188799D01*
X0269575Y0188518D01*
X0269469Y0188775D01*
X0268240Y0190003D01*
X0266635Y0190668D01*
X0264897Y0190668D01*
X0263291Y0190003D01*
X0262062Y0188775D01*
X0261956Y0188518D01*
X0261813Y0188799D01*
X0261371Y0189406D01*
X0260841Y0189937D01*
X0260233Y0190378D01*
X0259565Y0190719D01*
X0258851Y0190951D01*
X0258110Y0191068D01*
X0257919Y0191068D01*
X0257919Y0186484D01*
X0257550Y0186484D01*
X0257550Y0191068D01*
X0257359Y0191068D01*
X0256618Y0190951D01*
X0255904Y0190719D01*
X0255235Y0190378D01*
X0254628Y0189937D01*
X0254097Y0189406D01*
X0254071Y0189371D01*
X0254071Y0189848D01*
X0253251Y0190668D01*
X0246154Y0190668D01*
X0245334Y0189848D01*
X0245334Y0182752D01*
X0246154Y0181931D01*
X0250180Y0181931D01*
X0250015Y0181767D01*
X0249350Y0180161D01*
X0249350Y0178423D01*
X0250015Y0176818D01*
X0251244Y0175589D01*
X0252850Y0174924D01*
X0254587Y0174924D01*
X0256193Y0175589D01*
X0257422Y0176818D01*
X0257734Y0177572D01*
X0258047Y0176818D01*
X0259275Y0175589D01*
X0260881Y0174924D01*
X0262619Y0174924D01*
X0264225Y0175589D01*
X0265453Y0176818D01*
X0265560Y0177074D01*
X0265703Y0176793D01*
X0266144Y0176186D01*
X0266675Y0175655D01*
X0267282Y0175214D01*
X0267951Y0174873D01*
X0268665Y0174641D01*
X0269406Y0174524D01*
X0269597Y0174524D01*
X0269597Y0179108D01*
X0269966Y0179108D01*
X0269966Y0174524D01*
X0270157Y0174524D01*
X0270898Y0174641D01*
X0271612Y0174873D01*
X0272281Y0175214D01*
X0272888Y0175655D01*
X0273419Y0176186D01*
X0273860Y0176793D01*
X0274003Y0177074D01*
X0274110Y0176818D01*
X0275338Y0175589D01*
X0276944Y0174924D01*
X0278682Y0174924D01*
X0279487Y0175257D01*
X0279470Y0175240D01*
X0279016Y0174144D01*
X0279016Y0172956D01*
X0279470Y0171860D01*
X0280310Y0171020D01*
X0281406Y0170566D01*
X0282594Y0170566D01*
X0283521Y0170950D01*
X0303673Y0170950D01*
X0307671Y0166952D01*
X0308402Y0166221D01*
X0316400Y0158223D01*
X0316400Y0153351D01*
X0316195Y0153633D01*
X0315583Y0154245D01*
X0314883Y0154754D01*
X0314111Y0155147D01*
X0313288Y0155415D01*
X0312433Y0155550D01*
X0312200Y0155550D01*
X0312200Y0150250D01*
X0311800Y0150250D01*
X0311800Y0155550D01*
X0311567Y0155550D01*
X0310712Y0155415D01*
X0309889Y0155147D01*
X0309117Y0154754D01*
X0308417Y0154245D01*
X0307805Y0153633D01*
X0307296Y0152933D01*
X0306903Y0152161D01*
X0306635Y0151338D01*
X0306500Y0150483D01*
X0306500Y0150250D01*
X0311800Y0150250D01*
X0311800Y0149850D01*
X0306500Y0149850D01*
X0306500Y0149617D01*
X0306635Y0148762D01*
X0306903Y0147939D01*
X0307296Y0147167D01*
X0307805Y0146467D01*
X0308417Y0145855D01*
X0309117Y0145346D01*
X0309889Y0144953D01*
X0310237Y0144840D01*
X0309111Y0144374D01*
X0307676Y0142939D01*
X0306900Y0141064D01*
X0306900Y0139036D01*
X0307676Y0137161D01*
X0309111Y0135726D01*
X0310744Y0135050D01*
X0309111Y0134374D01*
X0307676Y0132939D01*
X0307199Y0131786D01*
X0306741Y0132243D01*
X0299650Y0132243D01*
X0299650Y0132587D01*
X0296234Y0136003D01*
X0296234Y0136894D01*
X0295780Y0137990D01*
X0294940Y0138830D01*
X0293844Y0139284D01*
X0292656Y0139284D01*
X0291560Y0138830D01*
X0290720Y0137990D01*
X0290266Y0136894D01*
X0290266Y0135971D01*
X0289400Y0136837D01*
X0289400Y0136980D01*
X0290030Y0137610D01*
X0290484Y0138706D01*
X0290484Y0139894D01*
X0290030Y0140990D01*
X0289190Y0141830D01*
X0288094Y0142284D01*
X0286906Y0142284D01*
X0285810Y0141830D01*
X0284970Y0140990D01*
X0284516Y0139894D01*
X0284516Y0138706D01*
X0284970Y0137610D01*
X0285600Y0136980D01*
X0285600Y0135263D01*
X0286079Y0134784D01*
X0285156Y0134784D01*
X0284060Y0134330D01*
X0283220Y0133490D01*
X0283071Y0133132D01*
X0282295Y0133908D01*
X0282787Y0134400D01*
X0283900Y0135513D01*
X0283900Y0140337D01*
X0280400Y0143837D01*
X0279287Y0144950D01*
X0274650Y0144950D01*
X0274650Y0145013D01*
X0275453Y0145816D01*
X0276344Y0145816D01*
X0277440Y0146270D01*
X0278280Y0147110D01*
X0278734Y0148206D01*
X0278734Y0149394D01*
X0278280Y0150490D01*
X0277440Y0151330D01*
X0276344Y0151784D01*
X0275945Y0151784D01*
X0280346Y0156185D01*
X0280920Y0155947D01*
X0282658Y0155947D01*
X0284264Y0156612D01*
X0285493Y0157841D01*
X0286127Y0159372D01*
X0286154Y0159199D01*
X0286386Y0158485D01*
X0286727Y0157816D01*
X0287168Y0157209D01*
X0287699Y0156679D01*
X0288306Y0156237D01*
X0288975Y0155897D01*
X0289688Y0155665D01*
X0290430Y0155547D01*
X0290621Y0155547D01*
X0290621Y0160131D01*
X0290989Y0160131D01*
X0290989Y0155547D01*
X0291180Y0155547D01*
X0291922Y0155665D01*
X0292636Y0155897D01*
X0293304Y0156237D01*
X0293912Y0156679D01*
X0294442Y0157209D01*
X0294884Y0157816D01*
X0295224Y0158485D01*
X0295456Y0159199D01*
X0295574Y0159940D01*
X0295574Y0160131D01*
X0290989Y0160131D01*
X0290989Y0160500D01*
X0290621Y0160500D01*
X0290621Y0165084D01*
X0290430Y0165084D01*
X0289688Y0164967D01*
X0288975Y0164735D01*
X0288306Y0164394D01*
X0287699Y0163953D01*
X0287168Y0163422D01*
X0286727Y0162815D01*
X0286386Y0162146D01*
X0286154Y0161432D01*
X0286127Y0161260D01*
X0285493Y0162790D01*
X0284264Y0164019D01*
X0282658Y0164684D01*
X0280920Y0164684D01*
X0279315Y0164019D01*
X0278086Y0162790D01*
X0277421Y0161185D01*
X0277421Y0159447D01*
X0277659Y0158872D01*
X0269821Y0151034D01*
X0268930Y0151034D01*
X0267833Y0150580D01*
X0266994Y0149740D01*
X0266539Y0148644D01*
X0266539Y0147456D01*
X0266994Y0146360D01*
X0267833Y0145520D01*
X0268930Y0145066D01*
X0270117Y0145066D01*
X0270850Y0145369D01*
X0270850Y0143532D01*
X0270844Y0143534D01*
X0269656Y0143534D01*
X0268560Y0143080D01*
X0267720Y0142240D01*
X0267266Y0141144D01*
X0267266Y0139956D01*
X0267350Y0139753D01*
X0267350Y0134587D01*
X0266778Y0134015D01*
X0266778Y0137900D01*
X0265958Y0138720D01*
X0262042Y0138720D01*
X0261222Y0137900D01*
X0261222Y0137842D01*
X0260355Y0137842D01*
X0253963Y0131450D01*
X0252850Y0130337D01*
X0252850Y0116263D01*
X0265766Y0103347D01*
X0265766Y0102753D01*
X0262547Y0099534D01*
X0261656Y0099534D01*
X0260560Y0099080D01*
X0259720Y0098240D01*
X0259266Y0097144D01*
X0259266Y0095956D01*
X0259720Y0094860D01*
X0260560Y0094020D01*
X0261656Y0093566D01*
X0262079Y0093566D01*
X0259774Y0091261D01*
X0259774Y0094530D01*
X0259174Y0095130D01*
X0259174Y0101313D01*
X0248400Y0112087D01*
X0247679Y0112808D01*
X0248190Y0113020D01*
X0249030Y0113860D01*
X0249484Y0114956D01*
X0249484Y0116144D01*
X0249030Y0117240D01*
X0248400Y0117870D01*
X0248400Y0127980D01*
X0248780Y0128360D01*
X0249234Y0129456D01*
X0249234Y0130644D01*
X0248780Y0131740D01*
X0247940Y0132580D01*
X0246844Y0133034D01*
X0245656Y0133034D01*
X0244560Y0132580D01*
X0243720Y0131740D01*
X0243266Y0130644D01*
X0243266Y0129456D01*
X0243720Y0128360D01*
X0244560Y0127520D01*
X0244600Y0127503D01*
X0244600Y0117870D01*
X0243970Y0117240D01*
X0243516Y0116144D01*
X0243516Y0114956D01*
X0243970Y0113860D01*
X0244630Y0113200D01*
X0241620Y0113200D01*
X0242280Y0113860D01*
X0242734Y0114956D01*
X0242734Y0116144D01*
X0242280Y0117240D01*
X0241650Y0117870D01*
X0241650Y0128230D01*
X0242280Y0128860D01*
X0242734Y0129956D01*
X0242734Y0131144D01*
X0242280Y0132240D01*
X0241440Y0133080D01*
X0240344Y0133534D01*
X0239156Y0133534D01*
X0238060Y0133080D01*
X0237220Y0132240D01*
X0236766Y0131144D01*
X0236766Y0129956D01*
X0237220Y0128860D01*
X0237850Y0128230D01*
X0237850Y0117870D01*
X0237220Y0117240D01*
X0236766Y0116144D01*
X0236766Y0114956D01*
X0237220Y0113860D01*
X0237880Y0113200D01*
X0206463Y0113200D01*
X0193047Y0099784D01*
X0192156Y0099784D01*
X0191060Y0099330D01*
X0190220Y0098490D01*
X0189766Y0097394D01*
X0189766Y0096206D01*
X0190220Y0095110D01*
X0191060Y0094270D01*
X0192156Y0093816D01*
X0193344Y0093816D01*
X0194440Y0094270D01*
X0195280Y0095110D01*
X0195413Y0095431D01*
X0198985Y0095431D01*
X0198985Y0094669D01*
X0195204Y0094669D01*
X0195204Y0092451D01*
X0195327Y0091993D01*
X0195564Y0091583D01*
X0195899Y0091247D01*
X0196309Y0091010D01*
X0196767Y0090888D01*
X0198985Y0090888D01*
X0198985Y0094669D01*
X0199747Y0094669D01*
X0199747Y0090888D01*
X0201965Y0090888D01*
X0202423Y0091010D01*
X0202834Y0091247D01*
X0203169Y0091583D01*
X0203406Y0091993D01*
X0203528Y0092451D01*
X0203528Y0094669D01*
X0199747Y0094669D01*
X0199747Y0095431D01*
X0199747Y0098582D01*
X0198970Y0099360D01*
X0198685Y0100048D01*
X0197849Y0099212D01*
X0198985Y0099212D01*
X0198985Y0095431D01*
X0199747Y0095431D01*
X0203528Y0095431D01*
X0203528Y0097649D01*
X0203406Y0098107D01*
X0203172Y0098512D01*
X0203190Y0098520D01*
X0204030Y0099360D01*
X0204484Y0100456D01*
X0204484Y0101347D01*
X0206935Y0103798D01*
X0207220Y0103110D01*
X0208060Y0102270D01*
X0209156Y0101816D01*
X0210344Y0101816D01*
X0211440Y0102270D01*
X0212280Y0103110D01*
X0212734Y0104206D01*
X0212734Y0104400D01*
X0238351Y0104400D01*
X0237553Y0103602D01*
X0237069Y0102433D01*
X0237069Y0101167D01*
X0237553Y0099998D01*
X0238350Y0099201D01*
X0238350Y0097763D01*
X0238913Y0097200D01*
X0215984Y0097200D01*
X0215984Y0097894D01*
X0215530Y0098990D01*
X0214690Y0099830D01*
X0213594Y0100284D01*
X0212406Y0100284D01*
X0211310Y0099830D01*
X0210680Y0099200D01*
X0209097Y0099200D01*
X0208709Y0098812D01*
X0204692Y0098812D01*
X0203872Y0097992D01*
X0203872Y0092108D01*
X0204692Y0091288D01*
X0209051Y0091288D01*
X0198831Y0081068D01*
X0198831Y0087917D01*
X0198011Y0088737D01*
X0194489Y0088737D01*
X0193750Y0087998D01*
X0193011Y0088737D01*
X0189489Y0088737D01*
X0188750Y0087998D01*
X0188011Y0088737D01*
X0184489Y0088737D01*
X0183750Y0087998D01*
X0183209Y0088539D01*
X0183780Y0089110D01*
X0184234Y0090206D01*
X0184234Y0091394D01*
X0183780Y0092490D01*
X0182940Y0093330D01*
X0181844Y0093784D01*
X0180656Y0093784D01*
X0179560Y0093330D01*
X0179234Y0093005D01*
X0179234Y0093894D01*
X0178780Y0094990D01*
X0177940Y0095830D01*
X0176844Y0096284D01*
X0175656Y0096284D01*
X0174560Y0095830D01*
X0173720Y0094990D01*
X0173266Y0093894D01*
X0173266Y0093005D01*
X0172690Y0093580D01*
X0171594Y0094034D01*
X0170406Y0094034D01*
X0169310Y0093580D01*
X0168470Y0092740D01*
X0168016Y0091644D01*
X0168016Y0090456D01*
X0168470Y0089360D01*
X0169100Y0088730D01*
X0169100Y0088348D01*
X0168750Y0087998D01*
X0168011Y0088737D01*
X0167500Y0088737D01*
X0165809Y0090428D01*
X0165812Y0090437D01*
X0165812Y0092567D01*
X0162178Y0092567D01*
X0162178Y0093033D01*
X0165812Y0093033D01*
X0165812Y0095163D01*
X0165689Y0095621D01*
X0165662Y0095667D01*
X0166060Y0095270D01*
X0167156Y0094816D01*
X0168344Y0094816D01*
X0169440Y0095270D01*
X0170280Y0096110D01*
X0170734Y0097206D01*
X0170734Y0098097D01*
X0171537Y0098900D01*
X0178037Y0098900D01*
X0184608Y0105471D01*
X0184959Y0105325D01*
X0186541Y0105325D01*
X0188002Y0105930D01*
X0189120Y0107048D01*
X0189725Y0108509D01*
X0189725Y0110091D01*
X0189120Y0111552D01*
X0188002Y0112670D01*
X0186541Y0113275D01*
X0184959Y0113275D01*
X0183498Y0112670D01*
X0182380Y0111552D01*
X0181775Y0110091D01*
X0181775Y0108509D01*
X0181921Y0108158D01*
X0176463Y0102700D01*
X0169963Y0102700D01*
X0168850Y0101587D01*
X0168047Y0100784D01*
X0167156Y0100784D01*
X0166060Y0100330D01*
X0165220Y0099490D01*
X0164766Y0098394D01*
X0164766Y0097206D01*
X0165113Y0096369D01*
X0164707Y0096603D01*
X0164249Y0096726D01*
X0162178Y0096726D01*
X0162178Y0093034D01*
X0161711Y0093034D01*
X0161711Y0096726D01*
X0159641Y0096726D01*
X0159183Y0096603D01*
X0158773Y0096366D01*
X0158438Y0096031D01*
X0158276Y0095752D01*
X0157702Y0096326D01*
X0152408Y0096326D01*
X0151588Y0095506D01*
X0151588Y0094700D01*
X0145176Y0094700D01*
X0144384Y0095492D01*
X0142675Y0096200D01*
X0140825Y0096200D01*
X0139116Y0095492D01*
X0137808Y0094184D01*
X0137100Y0092475D01*
X0137100Y0090625D01*
X0137808Y0088916D01*
X0139116Y0087608D01*
X0140825Y0086900D01*
X0142675Y0086900D01*
X0144384Y0087608D01*
X0145692Y0088916D01*
X0146400Y0090625D01*
X0146400Y0090900D01*
X0151588Y0090900D01*
X0151588Y0090094D01*
X0152408Y0089274D01*
X0155894Y0089274D01*
X0156031Y0089137D01*
X0154832Y0089137D01*
X0154374Y0089014D01*
X0153964Y0088777D01*
X0153629Y0088442D01*
X0153392Y0088032D01*
X0153269Y0087574D01*
X0153269Y0083400D01*
X0156250Y0083400D01*
X0156250Y0083400D01*
X0153269Y0083400D01*
X0153269Y0079226D01*
X0153392Y0078768D01*
X0153431Y0078700D01*
X0146213Y0078700D01*
X0143409Y0075896D01*
X0142675Y0076200D01*
X0140825Y0076200D01*
X0139116Y0075492D01*
X0137808Y0074184D01*
X0137100Y0072475D01*
X0137100Y0070625D01*
X0137808Y0068916D01*
X0139116Y0067608D01*
X0140825Y0066900D01*
X0142675Y0066900D01*
X0144384Y0067608D01*
X0145692Y0068916D01*
X0146400Y0070625D01*
X0146400Y0072475D01*
X0146096Y0073209D01*
X0147787Y0074900D01*
X0160037Y0074900D01*
X0161150Y0076013D01*
X0163150Y0078013D01*
X0163150Y0078202D01*
X0163750Y0078802D01*
X0164489Y0078063D01*
X0168011Y0078063D01*
X0168750Y0078802D01*
X0169489Y0078063D01*
X0173011Y0078063D01*
X0173750Y0078802D01*
X0174489Y0078063D01*
X0178011Y0078063D01*
X0178750Y0078802D01*
X0179489Y0078063D01*
X0183011Y0078063D01*
X0183750Y0078802D01*
X0184489Y0078063D01*
X0185976Y0078063D01*
X0185819Y0077683D01*
X0185819Y0076417D01*
X0185896Y0076231D01*
X0185367Y0076231D01*
X0184198Y0075747D01*
X0183303Y0074852D01*
X0182819Y0073683D01*
X0182819Y0072417D01*
X0183303Y0071248D01*
X0184198Y0070353D01*
X0185367Y0069869D01*
X0186633Y0069869D01*
X0187802Y0070353D01*
X0188349Y0070900D01*
X0188663Y0070900D01*
X0175463Y0057700D01*
X0174350Y0056587D01*
X0174350Y0055170D01*
X0174190Y0055330D01*
X0173094Y0055784D01*
X0171906Y0055784D01*
X0170810Y0055330D01*
X0169970Y0054490D01*
X0169516Y0053394D01*
X0169516Y0052503D01*
X0169350Y0052337D01*
X0169350Y0050898D01*
X0168750Y0050298D01*
X0168011Y0051037D01*
X0164489Y0051037D01*
X0163750Y0050298D01*
X0163011Y0051037D01*
X0159489Y0051037D01*
X0158750Y0050298D01*
X0158011Y0051037D01*
X0154489Y0051037D01*
X0153669Y0050217D01*
X0153669Y0048566D02*
X0150100Y0048566D01*
X0150100Y0046967D02*
X0153669Y0046967D01*
X0153669Y0045369D02*
X0150100Y0045369D01*
X0150100Y0043770D02*
X0153669Y0043770D01*
X0153669Y0042172D02*
X0150100Y0042172D01*
X0150100Y0040573D02*
X0154100Y0040573D01*
X0154100Y0038975D02*
X0150100Y0038975D01*
X0150100Y0037376D02*
X0154100Y0037376D01*
X0154100Y0035778D02*
X0150100Y0035778D01*
X0150100Y0034179D02*
X0154100Y0034179D01*
X0154100Y0032581D02*
X0150146Y0032581D01*
X0151745Y0030982D02*
X0154100Y0030982D01*
X0154100Y0024588D02*
X0142197Y0024588D01*
X0142219Y0022990D02*
X0154100Y0022990D01*
X0154100Y0021391D02*
X0143597Y0021391D01*
X0144239Y0019793D02*
X0154100Y0019793D01*
X0154100Y0018194D02*
X0144239Y0018194D01*
X0143757Y0016596D02*
X0154517Y0016596D01*
X0156116Y0014997D02*
X0142605Y0014997D01*
X0135395Y0014997D02*
X0126800Y0014997D01*
X0126800Y0016596D02*
X0134243Y0016596D01*
X0133761Y0018194D02*
X0126800Y0018194D01*
X0126800Y0019793D02*
X0133761Y0019793D01*
X0134403Y0021391D02*
X0126800Y0021391D01*
X0126800Y0022990D02*
X0135781Y0022990D01*
X0135803Y0024588D02*
X0126800Y0024588D01*
X0126800Y0026187D02*
X0134412Y0026187D01*
X0133761Y0027785D02*
X0126800Y0027785D01*
X0126800Y0029384D02*
X0133761Y0029384D01*
X0134234Y0030982D02*
X0126800Y0030982D01*
X0126800Y0032581D02*
X0135372Y0032581D01*
X0136467Y0034179D02*
X0126800Y0034179D01*
X0126800Y0035778D02*
X0134614Y0035778D01*
X0133920Y0037376D02*
X0126800Y0037376D01*
X0126800Y0038975D02*
X0133761Y0038975D01*
X0134064Y0040573D02*
X0126800Y0040573D01*
X0126800Y0042172D02*
X0134963Y0042172D01*
X0136451Y0043770D02*
X0126800Y0043770D01*
X0126800Y0045369D02*
X0134523Y0045369D01*
X0133667Y0046967D02*
X0126800Y0046967D01*
X0126800Y0054960D02*
X0142163Y0054960D01*
X0140565Y0056558D02*
X0126800Y0056558D01*
X0126800Y0058157D02*
X0138966Y0058157D01*
X0144722Y0059755D02*
X0145018Y0059755D01*
X0146617Y0061354D02*
X0143123Y0061354D01*
X0141525Y0062952D02*
X0148215Y0062952D01*
X0149814Y0064551D02*
X0133926Y0064551D01*
X0132328Y0066149D02*
X0151412Y0066149D01*
X0153011Y0067748D02*
X0144524Y0067748D01*
X0145870Y0069346D02*
X0154609Y0069346D01*
X0155016Y0070945D02*
X0146400Y0070945D01*
X0146372Y0072543D02*
X0155773Y0072543D01*
X0160227Y0072543D02*
X0182819Y0072543D01*
X0183009Y0074142D02*
X0147029Y0074142D01*
X0144852Y0077339D02*
X0130850Y0077339D01*
X0130850Y0078937D02*
X0153346Y0078937D01*
X0153269Y0080536D02*
X0130850Y0080536D01*
X0130850Y0082134D02*
X0153269Y0082134D01*
X0153269Y0083733D02*
X0130850Y0083733D01*
X0130850Y0085332D02*
X0153269Y0085332D01*
X0153269Y0086930D02*
X0142747Y0086930D01*
X0140753Y0086930D02*
X0130850Y0086930D01*
X0130850Y0088529D02*
X0138195Y0088529D01*
X0137306Y0090127D02*
X0130850Y0090127D01*
X0130850Y0091726D02*
X0137100Y0091726D01*
X0137452Y0093324D02*
X0130850Y0093324D01*
X0130850Y0094923D02*
X0138547Y0094923D01*
X0144953Y0094923D02*
X0151588Y0094923D01*
X0151588Y0090127D02*
X0146194Y0090127D01*
X0145305Y0088529D02*
X0153715Y0088529D01*
X0161711Y0093324D02*
X0162178Y0093324D01*
X0162178Y0094923D02*
X0161711Y0094923D01*
X0161711Y0096521D02*
X0162178Y0096521D01*
X0162327Y0098120D02*
X0164766Y0098120D01*
X0164849Y0096521D02*
X0165050Y0096521D01*
X0165812Y0094923D02*
X0166898Y0094923D01*
X0168602Y0094923D02*
X0173692Y0094923D01*
X0173266Y0093324D02*
X0172946Y0093324D01*
X0169054Y0093324D02*
X0165812Y0093324D01*
X0165812Y0091726D02*
X0168050Y0091726D01*
X0168152Y0090127D02*
X0166110Y0090127D01*
X0168219Y0088529D02*
X0169100Y0088529D01*
X0179234Y0093324D02*
X0179554Y0093324D01*
X0178808Y0094923D02*
X0190407Y0094923D01*
X0189766Y0096521D02*
X0170450Y0096521D01*
X0170757Y0098120D02*
X0190066Y0098120D01*
X0191997Y0099718D02*
X0178855Y0099718D01*
X0180454Y0101317D02*
X0194580Y0101317D01*
X0196178Y0102915D02*
X0182052Y0102915D01*
X0183651Y0104514D02*
X0197777Y0104514D01*
X0199375Y0106112D02*
X0188183Y0106112D01*
X0189394Y0107711D02*
X0200974Y0107711D01*
X0202572Y0109309D02*
X0189725Y0109309D01*
X0189386Y0110908D02*
X0204171Y0110908D01*
X0205769Y0112506D02*
X0188165Y0112506D01*
X0183335Y0112506D02*
X0178165Y0112506D01*
X0178002Y0112670D02*
X0176541Y0113275D01*
X0174959Y0113275D01*
X0173498Y0112670D01*
X0172380Y0111552D01*
X0171775Y0110091D01*
X0171775Y0108509D01*
X0172380Y0107048D01*
X0173498Y0105930D01*
X0174959Y0105325D01*
X0176541Y0105325D01*
X0178002Y0105930D01*
X0179120Y0107048D01*
X0179725Y0108509D01*
X0179725Y0110091D01*
X0179120Y0111552D01*
X0178002Y0112670D01*
X0179386Y0110908D02*
X0182114Y0110908D01*
X0181775Y0109309D02*
X0179725Y0109309D01*
X0179394Y0107711D02*
X0181474Y0107711D01*
X0179875Y0106112D02*
X0178183Y0106112D01*
X0178277Y0104514D02*
X0160723Y0104514D01*
X0161150Y0104087D02*
X0161150Y0104087D01*
X0163105Y0102915D02*
X0176678Y0102915D01*
X0173317Y0106112D02*
X0168749Y0106112D01*
X0168600Y0105963D02*
X0169087Y0106450D01*
X0169492Y0107007D01*
X0169804Y0107621D01*
X0170017Y0108276D01*
X0170125Y0108956D01*
X0170125Y0109300D01*
X0170125Y0109644D01*
X0170017Y0110324D01*
X0169804Y0110979D01*
X0169492Y0111593D01*
X0169087Y0112150D01*
X0168600Y0112637D01*
X0168043Y0113042D01*
X0167429Y0113354D01*
X0166774Y0113567D01*
X0166094Y0113675D01*
X0165750Y0113675D01*
X0165406Y0113675D01*
X0164726Y0113567D01*
X0164071Y0113354D01*
X0163457Y0113042D01*
X0162900Y0112637D01*
X0162413Y0112150D01*
X0162008Y0111593D01*
X0161696Y0110979D01*
X0161483Y0110324D01*
X0161375Y0109644D01*
X0161375Y0109300D01*
X0165750Y0109300D01*
X0165750Y0109300D01*
X0165750Y0113675D01*
X0165750Y0109300D01*
X0170125Y0109300D01*
X0165750Y0109300D01*
X0165750Y0109300D01*
X0165750Y0109300D01*
X0165750Y0104925D01*
X0166094Y0104925D01*
X0166774Y0105033D01*
X0167429Y0105246D01*
X0168043Y0105558D01*
X0168600Y0105963D01*
X0169834Y0107711D02*
X0172106Y0107711D01*
X0171775Y0109309D02*
X0170125Y0109309D01*
X0169828Y0110908D02*
X0172114Y0110908D01*
X0173335Y0112506D02*
X0168731Y0112506D01*
X0165750Y0112506D02*
X0165750Y0112506D01*
X0165750Y0110908D02*
X0165750Y0110908D01*
X0165750Y0109309D02*
X0165750Y0109309D01*
X0165750Y0109300D02*
X0161375Y0109300D01*
X0161375Y0108956D01*
X0161483Y0108276D01*
X0161696Y0107621D01*
X0162008Y0107007D01*
X0162413Y0106450D01*
X0162900Y0105963D01*
X0163457Y0105558D01*
X0164071Y0105246D01*
X0164726Y0105033D01*
X0165406Y0104925D01*
X0165750Y0104925D01*
X0165750Y0109300D01*
X0165750Y0109300D01*
X0165750Y0107711D02*
X0165750Y0107711D01*
X0165750Y0106112D02*
X0165750Y0106112D01*
X0162751Y0106112D02*
X0158183Y0106112D01*
X0158002Y0105930D02*
X0159120Y0107048D01*
X0159725Y0108509D01*
X0159725Y0110091D01*
X0159120Y0111552D01*
X0158002Y0112670D01*
X0156541Y0113275D01*
X0154959Y0113275D01*
X0153498Y0112670D01*
X0152380Y0111552D01*
X0151775Y0110091D01*
X0151775Y0108509D01*
X0152380Y0107048D01*
X0153498Y0105930D01*
X0154959Y0105325D01*
X0156541Y0105325D01*
X0158002Y0105930D01*
X0159394Y0107711D02*
X0161666Y0107711D01*
X0161375Y0109309D02*
X0159725Y0109309D01*
X0159386Y0110908D02*
X0161672Y0110908D01*
X0162769Y0112506D02*
X0158165Y0112506D01*
X0156190Y0115520D02*
X0155094Y0115066D01*
X0153906Y0115066D01*
X0153007Y0115438D01*
X0149193Y0115438D01*
X0149193Y0114309D01*
X0148373Y0113489D01*
X0140127Y0113489D01*
X0139307Y0114309D01*
X0139307Y0121768D01*
X0140127Y0122588D01*
X0148373Y0122588D01*
X0149193Y0121768D01*
X0149193Y0120638D01*
X0152950Y0120638D01*
X0153906Y0121034D01*
X0155094Y0121034D01*
X0156190Y0120580D01*
X0157030Y0119740D01*
X0157484Y0118644D01*
X0157484Y0117456D01*
X0157030Y0116360D01*
X0156190Y0115520D01*
X0156374Y0115703D02*
X0236766Y0115703D01*
X0237119Y0114105D02*
X0148989Y0114105D01*
X0152114Y0110908D02*
X0130850Y0110908D01*
X0130850Y0112506D02*
X0153335Y0112506D01*
X0151775Y0109309D02*
X0130850Y0109309D01*
X0130850Y0107711D02*
X0152106Y0107711D01*
X0153317Y0106112D02*
X0130850Y0106112D01*
X0130850Y0101317D02*
X0158016Y0101317D01*
X0158218Y0099718D02*
X0130850Y0099718D01*
X0130850Y0098120D02*
X0159673Y0098120D01*
X0159041Y0096521D02*
X0130850Y0096521D01*
X0130850Y0114105D02*
X0139511Y0114105D01*
X0139307Y0115703D02*
X0130850Y0115703D01*
X0130850Y0117302D02*
X0139307Y0117302D01*
X0139307Y0118900D02*
X0132027Y0118900D01*
X0133626Y0120499D02*
X0139307Y0120499D01*
X0139636Y0122097D02*
X0135224Y0122097D01*
X0136823Y0123696D02*
X0205393Y0123696D01*
X0205508Y0123922D02*
X0205196Y0123308D01*
X0204983Y0122653D01*
X0204875Y0121973D01*
X0204875Y0121629D01*
X0209250Y0121629D01*
X0209250Y0121629D01*
X0209250Y0126004D01*
X0208906Y0126004D01*
X0208226Y0125896D01*
X0207571Y0125683D01*
X0206957Y0125370D01*
X0206400Y0124966D01*
X0205913Y0124479D01*
X0205508Y0123922D01*
X0206852Y0125294D02*
X0149155Y0125294D01*
X0149193Y0126893D02*
X0237850Y0126893D01*
X0237850Y0125294D02*
X0211648Y0125294D01*
X0211543Y0125370D02*
X0212100Y0124966D01*
X0212587Y0124479D01*
X0212992Y0123922D01*
X0213304Y0123308D01*
X0213517Y0122653D01*
X0213625Y0121973D01*
X0213625Y0121629D01*
X0209250Y0121629D01*
X0209250Y0126004D01*
X0209594Y0126004D01*
X0210274Y0125896D01*
X0210929Y0125683D01*
X0211543Y0125370D01*
X0213107Y0123696D02*
X0237850Y0123696D01*
X0237850Y0122097D02*
X0213605Y0122097D01*
X0213625Y0121629D02*
X0209250Y0121629D01*
X0209250Y0121629D01*
X0209250Y0121629D01*
X0204875Y0121629D01*
X0204875Y0121284D01*
X0204983Y0120604D01*
X0205196Y0119949D01*
X0205508Y0119336D01*
X0205913Y0118779D01*
X0206400Y0118292D01*
X0206957Y0117887D01*
X0207571Y0117574D01*
X0208226Y0117362D01*
X0208906Y0117254D01*
X0209250Y0117254D01*
X0209594Y0117254D01*
X0210274Y0117362D01*
X0210929Y0117574D01*
X0211543Y0117887D01*
X0212100Y0118292D01*
X0212587Y0118779D01*
X0212992Y0119336D01*
X0213304Y0119949D01*
X0213517Y0120604D01*
X0213625Y0121284D01*
X0213625Y0121629D01*
X0213483Y0120499D02*
X0237850Y0120499D01*
X0237850Y0118900D02*
X0212675Y0118900D01*
X0209896Y0117302D02*
X0237281Y0117302D01*
X0241650Y0118900D02*
X0244600Y0118900D01*
X0244600Y0120499D02*
X0241650Y0120499D01*
X0241650Y0122097D02*
X0244600Y0122097D01*
X0244600Y0123696D02*
X0241650Y0123696D01*
X0241650Y0125294D02*
X0244600Y0125294D01*
X0244600Y0126893D02*
X0241650Y0126893D01*
X0241912Y0128491D02*
X0243665Y0128491D01*
X0243266Y0130090D02*
X0242734Y0130090D01*
X0242509Y0131688D02*
X0243698Y0131688D01*
X0240941Y0133287D02*
X0255800Y0133287D01*
X0257398Y0134885D02*
X0236262Y0134885D01*
X0235723Y0134346D02*
X0257513Y0156136D01*
X0258440Y0156520D01*
X0259280Y0157360D01*
X0259734Y0158456D01*
X0259734Y0159644D01*
X0259280Y0160740D01*
X0258440Y0161580D01*
X0257513Y0161964D01*
X0245723Y0173754D01*
X0244767Y0174150D01*
X0221521Y0174150D01*
X0220594Y0174534D01*
X0219406Y0174534D01*
X0218310Y0174080D01*
X0217470Y0173240D01*
X0217016Y0172144D01*
X0217016Y0170956D01*
X0217470Y0169860D01*
X0218310Y0169020D01*
X0219406Y0168566D01*
X0220594Y0168566D01*
X0221521Y0168950D01*
X0243173Y0168950D01*
X0247269Y0164854D01*
X0246922Y0164967D01*
X0246180Y0165084D01*
X0245989Y0165084D01*
X0245989Y0160500D01*
X0245621Y0160500D01*
X0245621Y0165084D01*
X0245430Y0165084D01*
X0244688Y0164967D01*
X0243975Y0164735D01*
X0243306Y0164394D01*
X0242699Y0163953D01*
X0242168Y0163422D01*
X0241727Y0162815D01*
X0241386Y0162146D01*
X0241154Y0161432D01*
X0241127Y0161260D01*
X0240493Y0162790D01*
X0239264Y0164019D01*
X0237658Y0164684D01*
X0235920Y0164684D01*
X0234315Y0164019D01*
X0233086Y0162790D01*
X0232421Y0161185D01*
X0232421Y0159447D01*
X0233086Y0157841D01*
X0234315Y0156612D01*
X0235920Y0155947D01*
X0237658Y0155947D01*
X0239264Y0156612D01*
X0240493Y0157841D01*
X0241127Y0159372D01*
X0241154Y0159199D01*
X0241386Y0158485D01*
X0241727Y0157816D01*
X0242168Y0157209D01*
X0242699Y0156679D01*
X0243306Y0156237D01*
X0243975Y0155897D01*
X0244688Y0155665D01*
X0245430Y0155547D01*
X0245621Y0155547D01*
X0245621Y0160131D01*
X0245989Y0160131D01*
X0245989Y0155547D01*
X0246180Y0155547D01*
X0246922Y0155665D01*
X0247636Y0155897D01*
X0248304Y0156237D01*
X0248912Y0156679D01*
X0249442Y0157209D01*
X0249884Y0157816D01*
X0250224Y0158485D01*
X0250456Y0159199D01*
X0250574Y0159940D01*
X0250574Y0160131D01*
X0245989Y0160131D01*
X0245989Y0160500D01*
X0250574Y0160500D01*
X0250574Y0160691D01*
X0250456Y0161432D01*
X0250343Y0161780D01*
X0253073Y0159050D01*
X0242464Y0148441D01*
X0242030Y0149490D01*
X0241190Y0150330D01*
X0240094Y0150784D01*
X0238906Y0150784D01*
X0237810Y0150330D01*
X0237180Y0149700D01*
X0200537Y0149700D01*
X0200287Y0149950D01*
X0198037Y0149950D01*
X0194400Y0153587D01*
X0194400Y0154087D01*
X0193287Y0155200D01*
X0190684Y0157803D01*
X0191127Y0158872D01*
X0191154Y0158699D01*
X0191386Y0157985D01*
X0191727Y0157316D01*
X0192168Y0156709D01*
X0192699Y0156179D01*
X0193306Y0155737D01*
X0193975Y0155397D01*
X0194688Y0155165D01*
X0195430Y0155047D01*
X0195621Y0155047D01*
X0195621Y0159631D01*
X0195989Y0159631D01*
X0195989Y0155047D01*
X0196180Y0155047D01*
X0196922Y0155165D01*
X0197636Y0155397D01*
X0198304Y0155737D01*
X0198912Y0156179D01*
X0199442Y0156709D01*
X0199884Y0157316D01*
X0200224Y0157985D01*
X0200456Y0158699D01*
X0200574Y0159440D01*
X0200574Y0159631D01*
X0195989Y0159631D01*
X0195989Y0160000D01*
X0195621Y0160000D01*
X0195621Y0164584D01*
X0195430Y0164584D01*
X0194688Y0164467D01*
X0193975Y0164235D01*
X0193306Y0163894D01*
X0192699Y0163453D01*
X0192168Y0162922D01*
X0191727Y0162315D01*
X0191386Y0161646D01*
X0191154Y0160932D01*
X0191127Y0160760D01*
X0190493Y0162290D01*
X0189264Y0163519D01*
X0187658Y0164184D01*
X0185920Y0164184D01*
X0184315Y0163519D01*
X0183086Y0162290D01*
X0182421Y0160685D01*
X0182421Y0158947D01*
X0183086Y0157341D01*
X0183727Y0156700D01*
X0154433Y0156700D01*
X0154442Y0156709D01*
X0154884Y0157316D01*
X0155224Y0157985D01*
X0155456Y0158699D01*
X0155574Y0159440D01*
X0155574Y0159631D01*
X0150989Y0159631D01*
X0150989Y0160000D01*
X0150621Y0160000D01*
X0150621Y0164584D01*
X0150430Y0164584D01*
X0149688Y0164467D01*
X0148975Y0164235D01*
X0148306Y0163894D01*
X0147699Y0163453D01*
X0147168Y0162922D01*
X0146727Y0162315D01*
X0146386Y0161646D01*
X0146154Y0160932D01*
X0146127Y0160760D01*
X0145493Y0162290D01*
X0144264Y0163519D01*
X0142658Y0164184D01*
X0140920Y0164184D01*
X0139315Y0163519D01*
X0138086Y0162290D01*
X0137421Y0160685D01*
X0137421Y0158947D01*
X0138086Y0157341D01*
X0139315Y0156112D01*
X0140920Y0155447D01*
X0142658Y0155447D01*
X0143233Y0155685D01*
X0146018Y0152900D01*
X0182213Y0152900D01*
X0195463Y0139650D01*
X0225180Y0139650D01*
X0225680Y0139150D01*
X0216733Y0139150D01*
X0215777Y0138754D01*
X0215046Y0138023D01*
X0211683Y0134660D01*
X0211502Y0134841D01*
X0210041Y0135446D01*
X0208459Y0135446D01*
X0206998Y0134841D01*
X0205880Y0133723D01*
X0205275Y0132262D01*
X0205275Y0130681D01*
X0205880Y0129220D01*
X0206998Y0128102D01*
X0208459Y0127496D01*
X0210041Y0127496D01*
X0211502Y0128102D01*
X0212271Y0128871D01*
X0212688Y0128871D01*
X0213644Y0129267D01*
X0218327Y0133950D01*
X0234767Y0133950D01*
X0235723Y0134346D01*
X0236991Y0131688D02*
X0216065Y0131688D01*
X0214467Y0130090D02*
X0236766Y0130090D01*
X0237588Y0128491D02*
X0211891Y0128491D01*
X0209250Y0125294D02*
X0209250Y0125294D01*
X0209250Y0123696D02*
X0209250Y0123696D01*
X0209250Y0122097D02*
X0209250Y0122097D01*
X0209250Y0121629D02*
X0209250Y0117254D01*
X0209250Y0121629D01*
X0209250Y0121629D01*
X0209250Y0120499D02*
X0209250Y0120499D01*
X0209250Y0118900D02*
X0209250Y0118900D01*
X0209250Y0117302D02*
X0209250Y0117302D01*
X0208604Y0117302D02*
X0157420Y0117302D01*
X0157378Y0118900D02*
X0205825Y0118900D01*
X0205017Y0120499D02*
X0156272Y0120499D01*
X0148864Y0122097D02*
X0204895Y0122097D01*
X0206609Y0128491D02*
X0187690Y0128491D01*
X0187552Y0128353D02*
X0188447Y0129248D01*
X0188931Y0130417D01*
X0188931Y0131683D01*
X0188447Y0132852D01*
X0187552Y0133747D01*
X0186383Y0134231D01*
X0185117Y0134231D01*
X0183948Y0133747D01*
X0183151Y0132950D01*
X0160931Y0132950D01*
X0160931Y0133183D01*
X0160447Y0134352D01*
X0159552Y0135247D01*
X0158383Y0135731D01*
X0157521Y0135731D01*
X0158002Y0135930D01*
X0159120Y0137048D01*
X0159725Y0138509D01*
X0159725Y0140091D01*
X0159120Y0141552D01*
X0158002Y0142670D01*
X0156541Y0143275D01*
X0154959Y0143275D01*
X0153498Y0142670D01*
X0152380Y0141552D01*
X0152359Y0141500D01*
X0149662Y0141500D01*
X0149662Y0141848D01*
X0148842Y0142668D01*
X0143351Y0142668D01*
X0143027Y0142344D01*
X0143009Y0142374D01*
X0142674Y0142709D01*
X0142264Y0142946D01*
X0141806Y0143068D01*
X0139588Y0143068D01*
X0139588Y0139484D01*
X0139219Y0139484D01*
X0139219Y0139116D01*
X0135438Y0139116D01*
X0135438Y0137095D01*
X0135561Y0136637D01*
X0135798Y0136226D01*
X0136133Y0135891D01*
X0136543Y0135654D01*
X0137001Y0135531D01*
X0139219Y0135531D01*
X0139219Y0139116D01*
X0139588Y0139116D01*
X0139588Y0135531D01*
X0141806Y0135531D01*
X0142264Y0135654D01*
X0142674Y0135891D01*
X0143009Y0136226D01*
X0143027Y0136256D01*
X0143351Y0135931D01*
X0148842Y0135931D01*
X0149662Y0136752D01*
X0149662Y0137100D01*
X0152359Y0137100D01*
X0152380Y0137048D01*
X0153498Y0135930D01*
X0154959Y0135325D01*
X0156137Y0135325D01*
X0155948Y0135247D01*
X0155053Y0134352D01*
X0154569Y0133183D01*
X0154569Y0131917D01*
X0155053Y0130748D01*
X0155948Y0129853D01*
X0157117Y0129369D01*
X0158244Y0129369D01*
X0158463Y0129150D01*
X0183151Y0129150D01*
X0183948Y0128353D01*
X0185117Y0127869D01*
X0186383Y0127869D01*
X0187552Y0128353D01*
X0188795Y0130090D02*
X0205520Y0130090D01*
X0205275Y0131688D02*
X0188929Y0131688D01*
X0188012Y0133287D02*
X0205700Y0133287D01*
X0207106Y0134885D02*
X0159913Y0134885D01*
X0160888Y0133287D02*
X0183488Y0133287D01*
X0184959Y0135325D02*
X0186541Y0135325D01*
X0188002Y0135930D01*
X0189120Y0137048D01*
X0189725Y0138509D01*
X0189725Y0140091D01*
X0189120Y0141552D01*
X0188002Y0142670D01*
X0186541Y0143275D01*
X0184959Y0143275D01*
X0183498Y0142670D01*
X0182380Y0141552D01*
X0181775Y0140091D01*
X0181775Y0138509D01*
X0182380Y0137048D01*
X0183498Y0135930D01*
X0184959Y0135325D01*
X0182945Y0136484D02*
X0178555Y0136484D01*
X0178002Y0135930D02*
X0179120Y0137048D01*
X0179725Y0138509D01*
X0179725Y0140091D01*
X0179120Y0141552D01*
X0178002Y0142670D01*
X0176541Y0143275D01*
X0174959Y0143275D01*
X0173498Y0142670D01*
X0172380Y0141552D01*
X0171775Y0140091D01*
X0171775Y0138509D01*
X0172380Y0137048D01*
X0173498Y0135930D01*
X0174959Y0135325D01*
X0176541Y0135325D01*
X0178002Y0135930D01*
X0179548Y0138082D02*
X0181952Y0138082D01*
X0181775Y0139681D02*
X0179725Y0139681D01*
X0179232Y0141279D02*
X0182268Y0141279D01*
X0184001Y0142878D02*
X0177499Y0142878D01*
X0174001Y0142878D02*
X0167499Y0142878D01*
X0168002Y0142670D02*
X0166541Y0143275D01*
X0164959Y0143275D01*
X0163498Y0142670D01*
X0162380Y0141552D01*
X0161775Y0140091D01*
X0161775Y0138509D01*
X0162380Y0137048D01*
X0163498Y0135930D01*
X0164959Y0135325D01*
X0166541Y0135325D01*
X0168002Y0135930D01*
X0169120Y0137048D01*
X0169725Y0138509D01*
X0169725Y0140091D01*
X0169120Y0141552D01*
X0168002Y0142670D01*
X0169232Y0141279D02*
X0172268Y0141279D01*
X0171775Y0139681D02*
X0169725Y0139681D01*
X0169548Y0138082D02*
X0171952Y0138082D01*
X0172945Y0136484D02*
X0168555Y0136484D01*
X0162945Y0136484D02*
X0158555Y0136484D01*
X0159548Y0138082D02*
X0161952Y0138082D01*
X0161775Y0139681D02*
X0159725Y0139681D01*
X0159232Y0141279D02*
X0162268Y0141279D01*
X0164001Y0142878D02*
X0157499Y0142878D01*
X0154001Y0142878D02*
X0142381Y0142878D01*
X0139588Y0142878D02*
X0139219Y0142878D01*
X0139219Y0143068D02*
X0137001Y0143068D01*
X0136543Y0142946D01*
X0136133Y0142709D01*
X0135798Y0142374D01*
X0135561Y0141963D01*
X0135438Y0141505D01*
X0135438Y0139484D01*
X0139219Y0139484D01*
X0139219Y0143068D01*
X0139219Y0141279D02*
X0139588Y0141279D01*
X0139588Y0139681D02*
X0139219Y0139681D01*
X0139219Y0138082D02*
X0139588Y0138082D01*
X0139588Y0136484D02*
X0139219Y0136484D01*
X0135649Y0136484D02*
X0126800Y0136484D01*
X0126800Y0138082D02*
X0135438Y0138082D01*
X0135438Y0139681D02*
X0126800Y0139681D01*
X0126800Y0141279D02*
X0135438Y0141279D01*
X0136426Y0142878D02*
X0126800Y0142878D01*
X0126800Y0144476D02*
X0190637Y0144476D01*
X0192235Y0142878D02*
X0187499Y0142878D01*
X0189232Y0141279D02*
X0193834Y0141279D01*
X0195432Y0139681D02*
X0189725Y0139681D01*
X0189548Y0138082D02*
X0215105Y0138082D01*
X0213507Y0136484D02*
X0188555Y0136484D01*
X0197037Y0143450D02*
X0184900Y0155587D01*
X0184417Y0156070D01*
X0185920Y0155447D01*
X0187658Y0155447D01*
X0187664Y0155449D01*
X0190600Y0152513D01*
X0190600Y0152013D01*
X0195350Y0147263D01*
X0196463Y0146150D01*
X0198713Y0146150D01*
X0198963Y0145900D01*
X0237180Y0145900D01*
X0237810Y0145270D01*
X0238859Y0144836D01*
X0233173Y0139150D01*
X0229320Y0139150D01*
X0230030Y0139860D01*
X0230484Y0140956D01*
X0230484Y0142144D01*
X0230030Y0143240D01*
X0229190Y0144080D01*
X0228094Y0144534D01*
X0226906Y0144534D01*
X0225810Y0144080D01*
X0225180Y0143450D01*
X0197037Y0143450D01*
X0196011Y0144476D02*
X0226767Y0144476D01*
X0228233Y0144476D02*
X0238499Y0144476D01*
X0236901Y0142878D02*
X0230180Y0142878D01*
X0230484Y0141279D02*
X0235302Y0141279D01*
X0233704Y0139681D02*
X0229851Y0139681D01*
X0237861Y0136484D02*
X0258997Y0136484D01*
X0261405Y0138082D02*
X0239459Y0138082D01*
X0241058Y0139681D02*
X0267350Y0139681D01*
X0267350Y0138082D02*
X0266595Y0138082D01*
X0266778Y0136484D02*
X0267350Y0136484D01*
X0267350Y0134885D02*
X0266778Y0134885D01*
X0265927Y0133164D02*
X0262042Y0133164D01*
X0261546Y0133659D01*
X0256650Y0128763D01*
X0256650Y0117837D01*
X0268453Y0106034D01*
X0269344Y0106034D01*
X0270440Y0105580D01*
X0271280Y0104740D01*
X0271734Y0103644D01*
X0271734Y0103221D01*
X0278051Y0109538D01*
X0277381Y0110208D01*
X0277381Y0114961D01*
X0277190Y0114770D01*
X0276094Y0114316D01*
X0274906Y0114316D01*
X0273810Y0114770D01*
X0272970Y0115610D01*
X0272538Y0116652D01*
X0272037Y0116150D01*
X0268817Y0116150D01*
X0269234Y0115144D01*
X0269234Y0113956D01*
X0268780Y0112860D01*
X0267940Y0112020D01*
X0266844Y0111566D01*
X0265656Y0111566D01*
X0264560Y0112020D01*
X0263720Y0112860D01*
X0263520Y0113343D01*
X0262963Y0113900D01*
X0261850Y0115013D01*
X0261850Y0117683D01*
X0262217Y0118050D01*
X0261085Y0119181D01*
X0257658Y0119181D01*
X0256838Y0120002D01*
X0256838Y0125098D01*
X0257658Y0125918D01*
X0259445Y0125918D01*
X0258663Y0126700D01*
X0258663Y0130616D01*
X0259483Y0131436D01*
X0263399Y0131436D01*
X0264000Y0130835D01*
X0264601Y0131436D01*
X0264659Y0131436D01*
X0264659Y0131896D01*
X0265927Y0133164D01*
X0264659Y0131688D02*
X0259575Y0131688D01*
X0258663Y0130090D02*
X0257977Y0130090D01*
X0258663Y0128491D02*
X0256650Y0128491D01*
X0256650Y0126893D02*
X0258663Y0126893D01*
X0257034Y0125294D02*
X0256650Y0125294D01*
X0256650Y0123696D02*
X0256838Y0123696D01*
X0256838Y0122097D02*
X0256650Y0122097D01*
X0256650Y0120499D02*
X0256838Y0120499D01*
X0256650Y0118900D02*
X0261366Y0118900D01*
X0261850Y0117302D02*
X0257185Y0117302D01*
X0258784Y0115703D02*
X0261850Y0115703D01*
X0262758Y0114105D02*
X0260382Y0114105D01*
X0261981Y0112506D02*
X0264073Y0112506D01*
X0263579Y0110908D02*
X0277381Y0110908D01*
X0277381Y0112506D02*
X0268427Y0112506D01*
X0269234Y0114105D02*
X0277381Y0114105D01*
X0272931Y0115703D02*
X0269002Y0115703D01*
X0270662Y0120149D02*
X0270662Y0125098D01*
X0269842Y0125918D01*
X0268555Y0125918D01*
X0269337Y0126700D01*
X0269337Y0130616D01*
X0269045Y0130908D01*
X0270037Y0131900D01*
X0270983Y0132846D01*
X0271060Y0132770D01*
X0272156Y0132316D01*
X0272413Y0132316D01*
X0272413Y0129418D01*
X0272408Y0129418D01*
X0271588Y0128598D01*
X0271588Y0123502D01*
X0272408Y0122681D01*
X0273195Y0122681D01*
X0270662Y0120149D01*
X0270662Y0120499D02*
X0271012Y0120499D01*
X0270662Y0122097D02*
X0272610Y0122097D01*
X0271588Y0123696D02*
X0270662Y0123696D01*
X0270466Y0125294D02*
X0271588Y0125294D01*
X0271588Y0126893D02*
X0269337Y0126893D01*
X0269337Y0128491D02*
X0271588Y0128491D01*
X0272413Y0130090D02*
X0269337Y0130090D01*
X0269825Y0131688D02*
X0272413Y0131688D01*
X0261919Y0133287D02*
X0261174Y0133287D01*
X0254201Y0131688D02*
X0248802Y0131688D01*
X0249234Y0130090D02*
X0252850Y0130090D01*
X0252850Y0128491D02*
X0248834Y0128491D01*
X0248400Y0126893D02*
X0252850Y0126893D01*
X0252850Y0125294D02*
X0248400Y0125294D01*
X0248400Y0123696D02*
X0252850Y0123696D01*
X0252850Y0122097D02*
X0248400Y0122097D01*
X0248400Y0120499D02*
X0252850Y0120499D01*
X0252850Y0118900D02*
X0248400Y0118900D01*
X0248969Y0117302D02*
X0252850Y0117302D01*
X0253410Y0115703D02*
X0249484Y0115703D01*
X0249131Y0114105D02*
X0255008Y0114105D01*
X0256607Y0112506D02*
X0247981Y0112506D01*
X0249579Y0110908D02*
X0258205Y0110908D01*
X0259804Y0109309D02*
X0251178Y0109309D01*
X0252776Y0107711D02*
X0261402Y0107711D01*
X0263001Y0106112D02*
X0254375Y0106112D01*
X0255973Y0104514D02*
X0264599Y0104514D01*
X0265766Y0102915D02*
X0257572Y0102915D01*
X0259170Y0101317D02*
X0264330Y0101317D01*
X0262731Y0099718D02*
X0259174Y0099718D01*
X0259174Y0098120D02*
X0259670Y0098120D01*
X0259266Y0096521D02*
X0259174Y0096521D01*
X0259381Y0094923D02*
X0259694Y0094923D01*
X0259774Y0093324D02*
X0261837Y0093324D01*
X0260239Y0091726D02*
X0259774Y0091726D01*
X0262416Y0088529D02*
X0275244Y0088529D01*
X0275100Y0088875D02*
X0275404Y0088141D01*
X0274737Y0087474D01*
X0266830Y0087474D01*
X0266230Y0088074D01*
X0261961Y0088074D01*
X0281787Y0107900D01*
X0282900Y0109013D01*
X0282900Y0109388D01*
X0283298Y0109388D01*
X0284118Y0110208D01*
X0284118Y0111054D01*
X0285689Y0111054D01*
X0285689Y0103677D01*
X0286509Y0102857D01*
X0293968Y0102857D01*
X0294788Y0103677D01*
X0294788Y0111923D01*
X0293968Y0112743D01*
X0293130Y0112743D01*
X0298537Y0118150D01*
X0299650Y0119263D01*
X0299650Y0122357D01*
X0306741Y0122357D01*
X0307561Y0123177D01*
X0307561Y0125400D01*
X0309899Y0125400D01*
X0310744Y0125050D01*
X0309111Y0124374D01*
X0307676Y0122939D01*
X0306900Y0121064D01*
X0306900Y0119036D01*
X0307676Y0117161D01*
X0309111Y0115726D01*
X0310744Y0115050D01*
X0309111Y0114374D01*
X0307676Y0112939D01*
X0306900Y0111064D01*
X0306900Y0110400D01*
X0305811Y0110400D01*
X0305811Y0111923D01*
X0304991Y0112743D01*
X0297532Y0112743D01*
X0296712Y0111923D01*
X0296712Y0103677D01*
X0297532Y0102857D01*
X0304991Y0102857D01*
X0305811Y0103677D01*
X0305811Y0105200D01*
X0310267Y0105200D01*
X0310325Y0105224D01*
X0310986Y0104950D01*
X0313014Y0104950D01*
X0314889Y0105726D01*
X0316324Y0107161D01*
X0316400Y0107346D01*
X0316400Y0107171D01*
X0316150Y0106567D01*
X0316150Y0098377D01*
X0306161Y0088388D01*
X0304943Y0088388D01*
X0304943Y0089518D01*
X0304123Y0090338D01*
X0298137Y0090338D01*
X0296213Y0092262D01*
X0304123Y0092262D01*
X0304943Y0093082D01*
X0304943Y0094212D01*
X0306529Y0094212D01*
X0307485Y0094608D01*
X0308763Y0095886D01*
X0309690Y0096270D01*
X0310530Y0097110D01*
X0310984Y0098206D01*
X0310984Y0099394D01*
X0310530Y0100490D01*
X0309690Y0101330D01*
X0308594Y0101784D01*
X0307406Y0101784D01*
X0306310Y0101330D01*
X0305470Y0100490D01*
X0305086Y0099563D01*
X0304943Y0099420D01*
X0304943Y0100541D01*
X0304123Y0101361D01*
X0295877Y0101361D01*
X0295057Y0100541D01*
X0295057Y0093418D01*
X0293775Y0094700D01*
X0292070Y0094700D01*
X0291440Y0095330D01*
X0290344Y0095784D01*
X0289156Y0095784D01*
X0288060Y0095330D01*
X0287220Y0094490D01*
X0286766Y0093394D01*
X0286766Y0092206D01*
X0287220Y0091110D01*
X0288060Y0090270D01*
X0289156Y0089816D01*
X0290344Y0089816D01*
X0291440Y0090270D01*
X0292070Y0090900D01*
X0292201Y0090900D01*
X0295057Y0088044D01*
X0295057Y0082059D01*
X0295877Y0081239D01*
X0304123Y0081239D01*
X0304943Y0082059D01*
X0304943Y0083188D01*
X0307755Y0083188D01*
X0308711Y0083584D01*
X0316150Y0091023D01*
X0316150Y0087449D01*
X0316053Y0087352D01*
X0315569Y0086183D01*
X0315569Y0084917D01*
X0316053Y0083748D01*
X0316948Y0082853D01*
X0318117Y0082369D01*
X0319383Y0082369D01*
X0320050Y0082645D01*
X0320050Y0013600D01*
X0258987Y0013600D01*
X0259400Y0014013D01*
X0272650Y0027263D01*
X0272650Y0046151D01*
X0272850Y0045951D01*
X0272850Y0044167D01*
X0273588Y0043428D01*
X0273588Y0040002D01*
X0274408Y0039181D01*
X0279899Y0039181D01*
X0280500Y0039783D01*
X0281101Y0039181D01*
X0286592Y0039181D01*
X0287412Y0040002D01*
X0287412Y0043389D01*
X0287948Y0042853D01*
X0289117Y0042369D01*
X0290383Y0042369D01*
X0291350Y0042770D01*
X0291350Y0041899D01*
X0290553Y0041102D01*
X0290069Y0039933D01*
X0290069Y0038667D01*
X0290553Y0037498D01*
X0291448Y0036603D01*
X0292226Y0036281D01*
X0292226Y0035252D01*
X0295810Y0035252D01*
X0295810Y0034883D01*
X0296178Y0034883D01*
X0296178Y0031299D01*
X0298200Y0031299D01*
X0298657Y0031422D01*
X0299068Y0031659D01*
X0299403Y0031994D01*
X0299640Y0032404D01*
X0299763Y0032862D01*
X0299763Y0034883D01*
X0296178Y0034883D01*
X0296178Y0035252D01*
X0299763Y0035252D01*
X0299763Y0037273D01*
X0299640Y0037731D01*
X0299403Y0038141D01*
X0299068Y0038477D01*
X0298657Y0038714D01*
X0298200Y0038836D01*
X0296431Y0038836D01*
X0296431Y0039933D01*
X0295947Y0041102D01*
X0295150Y0041899D01*
X0295150Y0044013D01*
X0296787Y0045650D01*
X0303287Y0045650D01*
X0304400Y0046763D01*
X0304537Y0046900D01*
X0304894Y0047257D01*
X0304400Y0046064D01*
X0304400Y0044036D01*
X0305176Y0042161D01*
X0306611Y0040726D01*
X0308244Y0040050D01*
X0306611Y0039374D01*
X0305176Y0037939D01*
X0304400Y0036064D01*
X0304400Y0034036D01*
X0305176Y0032161D01*
X0306611Y0030726D01*
X0307737Y0030260D01*
X0307389Y0030147D01*
X0306617Y0029754D01*
X0305917Y0029245D01*
X0305305Y0028633D01*
X0304796Y0027933D01*
X0304403Y0027161D01*
X0304135Y0026338D01*
X0304000Y0025483D01*
X0304000Y0025250D01*
X0309300Y0025250D01*
X0309300Y0024850D01*
X0309700Y0024850D01*
X0309700Y0025250D01*
X0315000Y0025250D01*
X0315000Y0025483D01*
X0314865Y0026338D01*
X0314597Y0027161D01*
X0314204Y0027933D01*
X0313695Y0028633D01*
X0313083Y0029245D01*
X0312383Y0029754D01*
X0311611Y0030147D01*
X0311263Y0030260D01*
X0312389Y0030726D01*
X0313824Y0032161D01*
X0314600Y0034036D01*
X0314600Y0036064D01*
X0313824Y0037939D01*
X0312389Y0039374D01*
X0310756Y0040050D01*
X0312389Y0040726D01*
X0313824Y0042161D01*
X0314600Y0044036D01*
X0314600Y0046064D01*
X0313824Y0047939D01*
X0312389Y0049374D01*
X0310756Y0050050D01*
X0312389Y0050726D01*
X0313824Y0052161D01*
X0314600Y0054036D01*
X0314600Y0056064D01*
X0313824Y0057939D01*
X0312389Y0059374D01*
X0310756Y0060050D01*
X0312389Y0060726D01*
X0313824Y0062161D01*
X0314600Y0064036D01*
X0314600Y0066064D01*
X0313824Y0067939D01*
X0312389Y0069374D01*
X0310997Y0069950D01*
X0313780Y0069950D01*
X0314600Y0070770D01*
X0314600Y0079330D01*
X0313780Y0080150D01*
X0305220Y0080150D01*
X0304400Y0079330D01*
X0304400Y0070770D01*
X0305220Y0069950D01*
X0308003Y0069950D01*
X0306611Y0069374D01*
X0305176Y0067939D01*
X0304400Y0066064D01*
X0304400Y0064036D01*
X0305176Y0062161D01*
X0306611Y0060726D01*
X0308244Y0060050D01*
X0306611Y0059374D01*
X0305176Y0057939D01*
X0304400Y0056064D01*
X0304400Y0054036D01*
X0304540Y0053697D01*
X0304537Y0053700D01*
X0303537Y0054700D01*
X0302095Y0054700D01*
X0302095Y0055939D01*
X0301275Y0056759D01*
X0300216Y0056759D01*
X0292419Y0064556D01*
X0292419Y0065683D01*
X0291935Y0066852D01*
X0291040Y0067747D01*
X0289871Y0068231D01*
X0288605Y0068231D01*
X0287436Y0067747D01*
X0286541Y0066852D01*
X0286057Y0065683D01*
X0286057Y0064417D01*
X0286541Y0063248D01*
X0287436Y0062353D01*
X0288605Y0061869D01*
X0289732Y0061869D01*
X0295116Y0056485D01*
X0294750Y0056118D01*
X0294109Y0056759D01*
X0288225Y0056759D01*
X0288135Y0056668D01*
X0283431Y0056668D01*
X0282244Y0055481D01*
X0281117Y0055481D01*
X0279948Y0054997D01*
X0279053Y0054102D01*
X0278569Y0052933D01*
X0278569Y0051667D01*
X0279053Y0050498D01*
X0279948Y0049603D01*
X0281117Y0049119D01*
X0282383Y0049119D01*
X0283552Y0049603D01*
X0284447Y0050498D01*
X0284931Y0051667D01*
X0284931Y0052794D01*
X0285005Y0052869D01*
X0287005Y0052869D01*
X0287005Y0052800D01*
X0288203Y0052800D01*
X0288203Y0052800D01*
X0287005Y0052800D01*
X0287005Y0052492D01*
X0286100Y0051587D01*
X0281946Y0047433D01*
X0281946Y0045918D01*
X0281101Y0045918D01*
X0280500Y0045317D01*
X0279899Y0045918D01*
X0276650Y0045918D01*
X0276650Y0045951D01*
X0277447Y0046748D01*
X0277931Y0047917D01*
X0277931Y0049183D01*
X0277447Y0050352D01*
X0276552Y0051247D01*
X0275383Y0051731D01*
X0274117Y0051731D01*
X0272948Y0051247D01*
X0272650Y0050949D01*
X0272650Y0062837D01*
X0271537Y0063950D01*
X0267355Y0068132D01*
X0267450Y0068489D01*
X0267450Y0069826D01*
X0267450Y0071163D01*
X0267327Y0071620D01*
X0267090Y0072031D01*
X0267050Y0072071D01*
X0267050Y0073879D01*
X0267090Y0073920D01*
X0267327Y0074330D01*
X0267450Y0074788D01*
X0267450Y0076125D01*
X0267450Y0077462D01*
X0267327Y0077920D01*
X0267090Y0078330D01*
X0267050Y0078370D01*
X0267050Y0079813D01*
X0275404Y0071459D01*
X0275100Y0070725D01*
X0275100Y0068875D01*
X0275808Y0067166D01*
X0277116Y0065858D01*
X0278825Y0065150D01*
X0280675Y0065150D01*
X0282384Y0065858D01*
X0283692Y0067166D01*
X0284400Y0068875D01*
X0284400Y0070725D01*
X0283692Y0072434D01*
X0282384Y0073742D01*
X0280675Y0074450D01*
X0278825Y0074450D01*
X0278091Y0074146D01*
X0268563Y0083674D01*
X0276311Y0083674D01*
X0278091Y0085454D01*
X0278825Y0085150D01*
X0280675Y0085150D01*
X0282384Y0085858D01*
X0283692Y0087166D01*
X0284400Y0088875D01*
X0284400Y0090725D01*
X0283692Y0092434D01*
X0282384Y0093742D01*
X0280675Y0094450D01*
X0278825Y0094450D01*
X0277116Y0093742D01*
X0275808Y0092434D01*
X0275100Y0090725D01*
X0275100Y0088875D01*
X0275100Y0090127D02*
X0264014Y0090127D01*
X0265613Y0091726D02*
X0275514Y0091726D01*
X0276698Y0093324D02*
X0267211Y0093324D01*
X0268810Y0094923D02*
X0287652Y0094923D01*
X0286766Y0093324D02*
X0282802Y0093324D01*
X0283986Y0091726D02*
X0286965Y0091726D01*
X0288405Y0090127D02*
X0284400Y0090127D01*
X0284256Y0088529D02*
X0294573Y0088529D01*
X0295057Y0086930D02*
X0283456Y0086930D01*
X0281113Y0085332D02*
X0295057Y0085332D01*
X0295057Y0083733D02*
X0276370Y0083733D01*
X0277969Y0085332D02*
X0278387Y0085332D01*
X0273299Y0078937D02*
X0304400Y0078937D01*
X0304400Y0077339D02*
X0274898Y0077339D01*
X0276497Y0075740D02*
X0304400Y0075740D01*
X0304400Y0074142D02*
X0281419Y0074142D01*
X0283583Y0072543D02*
X0304400Y0072543D01*
X0304400Y0070945D02*
X0284309Y0070945D01*
X0284400Y0069346D02*
X0306584Y0069346D01*
X0305097Y0067748D02*
X0291038Y0067748D01*
X0292226Y0066149D02*
X0304435Y0066149D01*
X0304400Y0064551D02*
X0292424Y0064551D01*
X0294023Y0062952D02*
X0304849Y0062952D01*
X0305984Y0061354D02*
X0295621Y0061354D01*
X0297220Y0059755D02*
X0307533Y0059755D01*
X0305394Y0058157D02*
X0298818Y0058157D01*
X0301476Y0056558D02*
X0304605Y0056558D01*
X0304400Y0054960D02*
X0302095Y0054960D01*
X0295043Y0056558D02*
X0294310Y0056558D01*
X0293444Y0058157D02*
X0272650Y0058157D01*
X0272650Y0059755D02*
X0291846Y0059755D01*
X0290247Y0061354D02*
X0272650Y0061354D01*
X0272535Y0062952D02*
X0286837Y0062952D01*
X0286057Y0064551D02*
X0270936Y0064551D01*
X0269338Y0066149D02*
X0276825Y0066149D01*
X0275567Y0067748D02*
X0267739Y0067748D01*
X0267450Y0069346D02*
X0275100Y0069346D01*
X0275191Y0070945D02*
X0267450Y0070945D01*
X0267450Y0069826D02*
X0263150Y0069826D01*
X0263150Y0069826D01*
X0263150Y0069826D01*
X0258850Y0069826D01*
X0258850Y0071163D01*
X0258973Y0071620D01*
X0258980Y0071633D01*
X0257963Y0072650D01*
X0256850Y0073763D01*
X0256850Y0078068D01*
X0256844Y0078066D01*
X0255656Y0078066D01*
X0254560Y0078520D01*
X0253720Y0079360D01*
X0253266Y0080456D01*
X0253266Y0081644D01*
X0253720Y0082740D01*
X0254560Y0083580D01*
X0255332Y0083900D01*
X0253787Y0083900D01*
X0253150Y0083263D01*
X0253150Y0083013D01*
X0252037Y0081900D01*
X0246575Y0076438D01*
X0246575Y0061550D01*
X0252563Y0061550D01*
X0253213Y0062200D01*
X0253569Y0062556D01*
X0253569Y0063683D01*
X0254053Y0064852D01*
X0254948Y0065747D01*
X0256117Y0066231D01*
X0257383Y0066231D01*
X0258552Y0065747D01*
X0259250Y0065049D01*
X0259250Y0067580D01*
X0259210Y0067620D01*
X0258973Y0068031D01*
X0258850Y0068489D01*
X0258850Y0069826D01*
X0263150Y0069826D01*
X0267450Y0069826D01*
X0267050Y0072543D02*
X0274320Y0072543D01*
X0272721Y0074142D02*
X0267219Y0074142D01*
X0267450Y0075740D02*
X0271123Y0075740D01*
X0269524Y0077339D02*
X0267450Y0077339D01*
X0267450Y0076125D02*
X0263150Y0076125D01*
X0263150Y0076125D01*
X0267450Y0076125D01*
X0267050Y0078937D02*
X0267926Y0078937D01*
X0270102Y0082134D02*
X0295057Y0082134D01*
X0304943Y0082134D02*
X0320050Y0082134D01*
X0320050Y0080536D02*
X0271701Y0080536D01*
X0256850Y0077339D02*
X0247476Y0077339D01*
X0246575Y0075740D02*
X0256850Y0075740D01*
X0256850Y0074142D02*
X0246575Y0074142D01*
X0246575Y0072543D02*
X0258070Y0072543D01*
X0258850Y0070945D02*
X0246575Y0070945D01*
X0246575Y0069346D02*
X0258850Y0069346D01*
X0259136Y0067748D02*
X0246575Y0067748D01*
X0246575Y0066149D02*
X0255920Y0066149D01*
X0257580Y0066149D02*
X0259250Y0066149D01*
X0253928Y0064551D02*
X0246575Y0064551D01*
X0246575Y0062952D02*
X0253569Y0062952D01*
X0259351Y0061152D02*
X0259447Y0061248D01*
X0259564Y0061532D01*
X0260070Y0061026D01*
X0265337Y0061026D01*
X0266100Y0060263D01*
X0266100Y0028587D01*
X0256213Y0018700D01*
X0255837Y0018700D01*
X0258037Y0020900D01*
X0259150Y0022013D01*
X0259150Y0053946D01*
X0259774Y0054570D01*
X0259774Y0060730D01*
X0259351Y0061152D01*
X0259491Y0061354D02*
X0259743Y0061354D01*
X0259774Y0059755D02*
X0266100Y0059755D01*
X0266100Y0058157D02*
X0259774Y0058157D01*
X0259774Y0056558D02*
X0266100Y0056558D01*
X0266100Y0054960D02*
X0259774Y0054960D01*
X0259150Y0053361D02*
X0266100Y0053361D01*
X0266100Y0051763D02*
X0259150Y0051763D01*
X0259150Y0050164D02*
X0266100Y0050164D01*
X0266100Y0048566D02*
X0259150Y0048566D01*
X0259150Y0046967D02*
X0266100Y0046967D01*
X0266100Y0045369D02*
X0259150Y0045369D01*
X0259150Y0043770D02*
X0266100Y0043770D01*
X0266100Y0042172D02*
X0259150Y0042172D01*
X0259150Y0040573D02*
X0266100Y0040573D01*
X0266100Y0038975D02*
X0259150Y0038975D01*
X0259150Y0037376D02*
X0266100Y0037376D01*
X0266100Y0035778D02*
X0259150Y0035778D01*
X0259150Y0034179D02*
X0266100Y0034179D01*
X0266100Y0032581D02*
X0259150Y0032581D01*
X0259150Y0030982D02*
X0266100Y0030982D01*
X0266100Y0029384D02*
X0259150Y0029384D01*
X0259150Y0027785D02*
X0265298Y0027785D01*
X0263700Y0026187D02*
X0259150Y0026187D01*
X0259150Y0024588D02*
X0262101Y0024588D01*
X0260503Y0022990D02*
X0259150Y0022990D01*
X0258904Y0021391D02*
X0258528Y0021391D01*
X0257306Y0019793D02*
X0256930Y0019793D01*
X0254753Y0022990D02*
X0233377Y0022990D01*
X0233287Y0022900D02*
X0234400Y0024013D01*
X0236650Y0026263D01*
X0236650Y0028145D01*
X0237144Y0027650D01*
X0238835Y0026950D01*
X0240665Y0026950D01*
X0242356Y0027650D01*
X0243650Y0028944D01*
X0244350Y0030635D01*
X0244350Y0032465D01*
X0243650Y0034156D01*
X0242356Y0035450D01*
X0240906Y0036050D01*
X0242356Y0036650D01*
X0243100Y0037395D01*
X0243100Y0035263D01*
X0244213Y0034150D01*
X0245662Y0032701D01*
X0245150Y0031465D01*
X0245150Y0029635D01*
X0245850Y0027944D01*
X0247144Y0026650D01*
X0248835Y0025950D01*
X0250665Y0025950D01*
X0252356Y0026650D01*
X0253650Y0027944D01*
X0254350Y0029635D01*
X0254350Y0031465D01*
X0253650Y0033156D01*
X0252356Y0034450D01*
X0250665Y0035150D01*
X0248835Y0035150D01*
X0248660Y0035077D01*
X0246900Y0036837D01*
X0246900Y0037440D01*
X0247129Y0037274D01*
X0247831Y0036916D01*
X0248579Y0036673D01*
X0249356Y0036550D01*
X0249664Y0036550D01*
X0249664Y0041464D01*
X0249836Y0041464D01*
X0249836Y0041636D01*
X0249664Y0041636D01*
X0249664Y0046550D01*
X0249356Y0046550D01*
X0248579Y0046427D01*
X0247831Y0046184D01*
X0247129Y0045826D01*
X0246900Y0045660D01*
X0246900Y0049013D01*
X0248787Y0050900D01*
X0248819Y0050932D01*
X0248819Y0049917D01*
X0249303Y0048748D01*
X0250198Y0047853D01*
X0251367Y0047369D01*
X0252633Y0047369D01*
X0253802Y0047853D01*
X0254697Y0048748D01*
X0255181Y0049917D01*
X0255181Y0051183D01*
X0254697Y0052352D01*
X0253802Y0053247D01*
X0252874Y0053631D01*
X0252874Y0053750D01*
X0255350Y0053750D01*
X0255350Y0023587D01*
X0252713Y0020950D01*
X0168537Y0020950D01*
X0168150Y0021337D01*
X0168150Y0040502D01*
X0168750Y0041102D01*
X0169489Y0040363D01*
X0173011Y0040363D01*
X0173750Y0041102D01*
X0174489Y0040363D01*
X0175250Y0040363D01*
X0175463Y0040150D01*
X0192713Y0022900D01*
X0233287Y0022900D01*
X0234975Y0024588D02*
X0255350Y0024588D01*
X0255350Y0026187D02*
X0251236Y0026187D01*
X0253490Y0027785D02*
X0255350Y0027785D01*
X0255350Y0029384D02*
X0254246Y0029384D01*
X0254350Y0030982D02*
X0255350Y0030982D01*
X0255350Y0032581D02*
X0253888Y0032581D01*
X0252626Y0034179D02*
X0255350Y0034179D01*
X0255350Y0035778D02*
X0247959Y0035778D01*
X0246988Y0037376D02*
X0246900Y0037376D01*
X0249664Y0037376D02*
X0249836Y0037376D01*
X0249836Y0036550D02*
X0250144Y0036550D01*
X0250921Y0036673D01*
X0251669Y0036916D01*
X0252371Y0037274D01*
X0253007Y0037736D01*
X0253564Y0038293D01*
X0254026Y0038929D01*
X0254384Y0039631D01*
X0254627Y0040379D01*
X0254750Y0041156D01*
X0254750Y0041464D01*
X0249836Y0041464D01*
X0249836Y0036550D01*
X0249836Y0038975D02*
X0249664Y0038975D01*
X0249664Y0040573D02*
X0249836Y0040573D01*
X0249836Y0041636D02*
X0254750Y0041636D01*
X0254750Y0041944D01*
X0254627Y0042721D01*
X0254384Y0043469D01*
X0254026Y0044171D01*
X0253564Y0044807D01*
X0253007Y0045364D01*
X0252371Y0045826D01*
X0251669Y0046184D01*
X0250921Y0046427D01*
X0250144Y0046550D01*
X0249836Y0046550D01*
X0249836Y0041636D01*
X0249836Y0042172D02*
X0249664Y0042172D01*
X0249664Y0043770D02*
X0249836Y0043770D01*
X0249836Y0045369D02*
X0249664Y0045369D01*
X0246900Y0046967D02*
X0255350Y0046967D01*
X0255350Y0045369D02*
X0253000Y0045369D01*
X0254230Y0043770D02*
X0255350Y0043770D01*
X0255350Y0042172D02*
X0254714Y0042172D01*
X0254658Y0040573D02*
X0255350Y0040573D01*
X0255350Y0038975D02*
X0254049Y0038975D01*
X0255350Y0037376D02*
X0252512Y0037376D01*
X0244184Y0034179D02*
X0243626Y0034179D01*
X0243100Y0035778D02*
X0241564Y0035778D01*
X0243082Y0037376D02*
X0243100Y0037376D01*
X0243100Y0043705D02*
X0243100Y0049013D01*
X0243100Y0050587D01*
X0246100Y0053587D01*
X0246100Y0053750D01*
X0239637Y0053750D01*
X0233150Y0047263D01*
X0232037Y0046150D01*
X0226195Y0046150D01*
X0225398Y0045353D01*
X0224229Y0044869D01*
X0222964Y0044869D01*
X0221795Y0045353D01*
X0220900Y0046248D01*
X0220415Y0047417D01*
X0220415Y0048683D01*
X0220900Y0049852D01*
X0221795Y0050747D01*
X0222964Y0051231D01*
X0224229Y0051231D01*
X0225398Y0050747D01*
X0226195Y0049950D01*
X0230463Y0049950D01*
X0234263Y0053750D01*
X0233546Y0053750D01*
X0232726Y0054570D01*
X0232726Y0055804D01*
X0222868Y0055804D01*
X0222868Y0054958D01*
X0222048Y0054138D01*
X0216952Y0054138D01*
X0216912Y0054178D01*
X0216912Y0053567D01*
X0216790Y0053109D01*
X0216553Y0052699D01*
X0216217Y0052364D01*
X0215807Y0052127D01*
X0215349Y0052004D01*
X0213131Y0052004D01*
X0213131Y0055785D01*
X0212369Y0055785D01*
X0212369Y0052004D01*
X0212265Y0052004D01*
X0214072Y0049981D01*
X0214999Y0049981D01*
X0216168Y0049497D01*
X0217063Y0048602D01*
X0217547Y0047433D01*
X0217547Y0046167D01*
X0217063Y0044998D01*
X0216168Y0044103D01*
X0214999Y0043619D01*
X0213733Y0043619D01*
X0212564Y0044103D01*
X0211669Y0044998D01*
X0211185Y0046167D01*
X0211185Y0047433D01*
X0211207Y0047485D01*
X0206813Y0052404D01*
X0203058Y0052404D01*
X0202238Y0053224D01*
X0202238Y0059108D01*
X0203058Y0059928D01*
X0208942Y0059928D01*
X0209092Y0059778D01*
X0209283Y0059969D01*
X0209693Y0060206D01*
X0210151Y0060328D01*
X0212369Y0060328D01*
X0212369Y0056547D01*
X0213131Y0056547D01*
X0213131Y0060328D01*
X0215349Y0060328D01*
X0215807Y0060206D01*
X0216131Y0060018D01*
X0216131Y0060449D01*
X0216733Y0061050D01*
X0216402Y0061381D01*
X0215692Y0060672D01*
X0209808Y0060672D01*
X0209658Y0060822D01*
X0209467Y0060631D01*
X0209057Y0060394D01*
X0208599Y0060272D01*
X0206381Y0060272D01*
X0206381Y0064053D01*
X0205619Y0064053D01*
X0201838Y0064053D01*
X0201838Y0061835D01*
X0201960Y0061377D01*
X0202197Y0060966D01*
X0202533Y0060631D01*
X0202943Y0060394D01*
X0203401Y0060272D01*
X0205619Y0060272D01*
X0205619Y0064053D01*
X0205619Y0064815D01*
X0205619Y0068596D01*
X0205233Y0068596D01*
X0213287Y0076650D01*
X0215213Y0076650D01*
X0217579Y0074284D01*
X0214586Y0074284D01*
X0213766Y0073464D01*
X0213766Y0069136D01*
X0214586Y0068316D01*
X0218914Y0068316D01*
X0219606Y0069007D01*
X0220651Y0067962D01*
X0216952Y0067962D01*
X0216439Y0067449D01*
X0215692Y0068196D01*
X0209808Y0068196D01*
X0209658Y0068046D01*
X0209467Y0068236D01*
X0209057Y0068473D01*
X0208599Y0068596D01*
X0206381Y0068596D01*
X0206381Y0064815D01*
X0205619Y0064815D01*
X0201838Y0064815D01*
X0201838Y0065201D01*
X0197150Y0060513D01*
X0197150Y0051763D01*
X0196424Y0051037D01*
X0198011Y0051037D01*
X0198831Y0050217D01*
X0198831Y0046796D01*
X0200259Y0045368D01*
X0200655Y0044412D01*
X0200655Y0043826D01*
X0200702Y0043826D01*
X0201276Y0043252D01*
X0201438Y0043531D01*
X0201773Y0043866D01*
X0202183Y0044103D01*
X0202641Y0044226D01*
X0204711Y0044226D01*
X0204711Y0040534D01*
X0205178Y0040534D01*
X0205178Y0044226D01*
X0207249Y0044226D01*
X0207707Y0044103D01*
X0208117Y0043866D01*
X0208452Y0043531D01*
X0208689Y0043121D01*
X0208812Y0042663D01*
X0208812Y0040533D01*
X0205178Y0040533D01*
X0205178Y0040067D01*
X0208812Y0040067D01*
X0208812Y0037937D01*
X0208689Y0037479D01*
X0208513Y0037175D01*
X0208689Y0036871D01*
X0208812Y0036413D01*
X0208812Y0034283D01*
X0205178Y0034283D01*
X0205178Y0033817D01*
X0208812Y0033817D01*
X0208812Y0031687D01*
X0208689Y0031229D01*
X0208528Y0030950D01*
X0225150Y0030950D01*
X0225150Y0031465D01*
X0225850Y0033156D01*
X0227144Y0034450D01*
X0228835Y0035150D01*
X0230665Y0035150D01*
X0232356Y0034450D01*
X0232850Y0033955D01*
X0232850Y0034837D01*
X0233963Y0035950D01*
X0235904Y0037891D01*
X0235850Y0037944D01*
X0235150Y0039635D01*
X0235150Y0041465D01*
X0235850Y0043156D01*
X0237144Y0044450D01*
X0238835Y0045150D01*
X0240665Y0045150D01*
X0242356Y0044450D01*
X0243100Y0043705D01*
X0243100Y0043770D02*
X0243035Y0043770D01*
X0243100Y0045369D02*
X0232437Y0045369D01*
X0232356Y0045450D02*
X0233650Y0044156D01*
X0234350Y0042465D01*
X0234350Y0040635D01*
X0233650Y0038944D01*
X0232356Y0037650D01*
X0230665Y0036950D01*
X0228835Y0036950D01*
X0227144Y0037650D01*
X0225850Y0038944D01*
X0225848Y0038950D01*
X0220077Y0038950D01*
X0215484Y0034357D01*
X0215484Y0033956D01*
X0215030Y0032860D01*
X0214190Y0032020D01*
X0213094Y0031566D01*
X0211906Y0031566D01*
X0210810Y0032020D01*
X0209970Y0032860D01*
X0209516Y0033956D01*
X0209516Y0035144D01*
X0209970Y0036240D01*
X0210810Y0037080D01*
X0210884Y0037111D01*
X0216796Y0043023D01*
X0217527Y0043754D01*
X0218483Y0044150D01*
X0225848Y0044150D01*
X0225850Y0044156D01*
X0227144Y0045450D01*
X0228835Y0046150D01*
X0230665Y0046150D01*
X0232356Y0045450D01*
X0232854Y0046967D02*
X0243100Y0046967D01*
X0243100Y0048566D02*
X0234453Y0048566D01*
X0236051Y0050164D02*
X0243100Y0050164D01*
X0244276Y0051763D02*
X0237650Y0051763D01*
X0239248Y0053361D02*
X0245874Y0053361D01*
X0248051Y0050164D02*
X0248819Y0050164D01*
X0249485Y0048566D02*
X0246900Y0048566D01*
X0254515Y0048566D02*
X0255350Y0048566D01*
X0255350Y0050164D02*
X0255181Y0050164D01*
X0255350Y0051763D02*
X0254941Y0051763D01*
X0255350Y0053361D02*
X0253526Y0053361D01*
X0272650Y0053361D02*
X0278746Y0053361D01*
X0278569Y0051763D02*
X0272650Y0051763D01*
X0272650Y0054960D02*
X0279911Y0054960D01*
X0283321Y0056558D02*
X0272650Y0056558D01*
X0277525Y0050164D02*
X0279387Y0050164D01*
X0277931Y0048566D02*
X0283079Y0048566D01*
X0284113Y0050164D02*
X0284677Y0050164D01*
X0284931Y0051763D02*
X0286276Y0051763D01*
X0288203Y0052800D02*
X0288203Y0052800D01*
X0281946Y0046967D02*
X0277538Y0046967D01*
X0280449Y0045369D02*
X0280551Y0045369D01*
X0273246Y0043770D02*
X0272650Y0043770D01*
X0272650Y0042172D02*
X0273588Y0042172D01*
X0273588Y0040573D02*
X0272650Y0040573D01*
X0272650Y0038975D02*
X0290069Y0038975D01*
X0290334Y0040573D02*
X0287412Y0040573D01*
X0287412Y0042172D02*
X0291350Y0042172D01*
X0295150Y0042172D02*
X0305172Y0042172D01*
X0304510Y0043770D02*
X0295150Y0043770D01*
X0296506Y0045369D02*
X0304400Y0045369D01*
X0304604Y0046967D02*
X0304774Y0046967D01*
X0311032Y0050164D02*
X0320050Y0050164D01*
X0320050Y0048566D02*
X0313197Y0048566D01*
X0314226Y0046967D02*
X0320050Y0046967D01*
X0320050Y0045369D02*
X0314600Y0045369D01*
X0314490Y0043770D02*
X0320050Y0043770D01*
X0320050Y0042172D02*
X0313828Y0042172D01*
X0312019Y0040573D02*
X0320050Y0040573D01*
X0320050Y0038975D02*
X0312788Y0038975D01*
X0314057Y0037376D02*
X0320050Y0037376D01*
X0320050Y0035778D02*
X0314600Y0035778D01*
X0314600Y0034179D02*
X0320050Y0034179D01*
X0320050Y0032581D02*
X0313997Y0032581D01*
X0312645Y0030982D02*
X0320050Y0030982D01*
X0320050Y0029384D02*
X0312892Y0029384D01*
X0314279Y0027785D02*
X0320050Y0027785D01*
X0320050Y0026187D02*
X0314889Y0026187D01*
X0315000Y0024850D02*
X0309700Y0024850D01*
X0309700Y0019550D01*
X0309933Y0019550D01*
X0310788Y0019685D01*
X0311611Y0019953D01*
X0312383Y0020346D01*
X0313083Y0020855D01*
X0313695Y0021467D01*
X0314204Y0022167D01*
X0314597Y0022939D01*
X0314865Y0023762D01*
X0315000Y0024617D01*
X0315000Y0024850D01*
X0314995Y0024588D02*
X0320050Y0024588D01*
X0320050Y0022990D02*
X0314614Y0022990D01*
X0313619Y0021391D02*
X0320050Y0021391D01*
X0320050Y0019793D02*
X0311118Y0019793D01*
X0309700Y0019793D02*
X0309300Y0019793D01*
X0309300Y0019550D02*
X0309300Y0024850D01*
X0304000Y0024850D01*
X0304000Y0024617D01*
X0304135Y0023762D01*
X0304403Y0022939D01*
X0304796Y0022167D01*
X0305305Y0021467D01*
X0305917Y0020855D01*
X0306617Y0020346D01*
X0307389Y0019953D01*
X0308212Y0019685D01*
X0309067Y0019550D01*
X0309300Y0019550D01*
X0307882Y0019793D02*
X0299363Y0019793D01*
X0299363Y0021081D02*
X0298542Y0021901D01*
X0293446Y0021901D01*
X0292626Y0021081D01*
X0292626Y0020432D01*
X0279874Y0020432D01*
X0279874Y0021081D01*
X0279054Y0021901D01*
X0278406Y0021901D01*
X0278406Y0023331D01*
X0277681Y0024056D01*
X0277681Y0025183D01*
X0277197Y0026352D01*
X0276302Y0027247D01*
X0275133Y0027731D01*
X0273867Y0027731D01*
X0272698Y0027247D01*
X0271803Y0026352D01*
X0271319Y0025183D01*
X0271319Y0023917D01*
X0271803Y0022748D01*
X0272698Y0021853D01*
X0273555Y0021498D01*
X0273137Y0021081D01*
X0273137Y0015984D01*
X0273957Y0015164D01*
X0279054Y0015164D01*
X0279874Y0015984D01*
X0279874Y0016632D01*
X0292626Y0016632D01*
X0292626Y0015984D01*
X0293446Y0015164D01*
X0298542Y0015164D01*
X0299363Y0015984D01*
X0299363Y0021081D01*
X0299052Y0021391D02*
X0305381Y0021391D01*
X0304386Y0022990D02*
X0278406Y0022990D01*
X0277681Y0024588D02*
X0304005Y0024588D01*
X0304111Y0026187D02*
X0277265Y0026187D01*
X0272650Y0027785D02*
X0304721Y0027785D01*
X0306108Y0029384D02*
X0272650Y0029384D01*
X0272650Y0030982D02*
X0306355Y0030982D01*
X0305003Y0032581D02*
X0299687Y0032581D01*
X0299763Y0034179D02*
X0304400Y0034179D01*
X0304400Y0035778D02*
X0299763Y0035778D01*
X0299735Y0037376D02*
X0304943Y0037376D01*
X0306212Y0038975D02*
X0296431Y0038975D01*
X0296166Y0040573D02*
X0306981Y0040573D01*
X0295810Y0034883D02*
X0295810Y0031299D01*
X0293789Y0031299D01*
X0293331Y0031422D01*
X0292920Y0031659D01*
X0292585Y0031994D01*
X0292348Y0032404D01*
X0292226Y0032862D01*
X0292226Y0034883D01*
X0295810Y0034883D01*
X0295810Y0034179D02*
X0296178Y0034179D01*
X0296178Y0032581D02*
X0295810Y0032581D01*
X0292301Y0032581D02*
X0280199Y0032581D01*
X0280152Y0032404D02*
X0280274Y0032862D01*
X0280274Y0034883D01*
X0276690Y0034883D01*
X0276690Y0031299D01*
X0278711Y0031299D01*
X0279169Y0031422D01*
X0279580Y0031659D01*
X0279915Y0031994D01*
X0280152Y0032404D01*
X0280274Y0034179D02*
X0292226Y0034179D01*
X0292226Y0035778D02*
X0280274Y0035778D01*
X0280274Y0035252D02*
X0280274Y0037273D01*
X0280152Y0037731D01*
X0279915Y0038141D01*
X0279580Y0038477D01*
X0279169Y0038714D01*
X0278711Y0038836D01*
X0276690Y0038836D01*
X0276690Y0035252D01*
X0276322Y0035252D01*
X0276322Y0038836D01*
X0274300Y0038836D01*
X0273843Y0038714D01*
X0273432Y0038477D01*
X0273097Y0038141D01*
X0272860Y0037731D01*
X0272737Y0037273D01*
X0272737Y0035252D01*
X0276322Y0035252D01*
X0276322Y0034883D01*
X0276690Y0034883D01*
X0276690Y0035252D01*
X0280274Y0035252D01*
X0280247Y0037376D02*
X0290675Y0037376D01*
X0276690Y0037376D02*
X0276322Y0037376D01*
X0276322Y0035778D02*
X0276690Y0035778D01*
X0276322Y0034883D02*
X0272737Y0034883D01*
X0272737Y0032862D01*
X0272860Y0032404D01*
X0273097Y0031994D01*
X0273432Y0031659D01*
X0273843Y0031422D01*
X0274300Y0031299D01*
X0276322Y0031299D01*
X0276322Y0034883D01*
X0276322Y0034179D02*
X0276690Y0034179D01*
X0276690Y0032581D02*
X0276322Y0032581D01*
X0272813Y0032581D02*
X0272650Y0032581D01*
X0272650Y0034179D02*
X0272737Y0034179D01*
X0272737Y0035778D02*
X0272650Y0035778D01*
X0272650Y0037376D02*
X0272765Y0037376D01*
X0272650Y0045369D02*
X0272850Y0045369D01*
X0245612Y0032581D02*
X0244302Y0032581D01*
X0244350Y0030982D02*
X0245150Y0030982D01*
X0245254Y0029384D02*
X0243832Y0029384D01*
X0242490Y0027785D02*
X0246009Y0027785D01*
X0248264Y0026187D02*
X0236574Y0026187D01*
X0236650Y0027785D02*
X0237009Y0027785D01*
X0232850Y0034179D02*
X0232626Y0034179D01*
X0233791Y0035778D02*
X0216905Y0035778D01*
X0215484Y0034179D02*
X0226874Y0034179D01*
X0225612Y0032581D02*
X0214751Y0032581D01*
X0210249Y0032581D02*
X0208812Y0032581D01*
X0208546Y0030982D02*
X0225150Y0030982D01*
X0227806Y0037376D02*
X0218503Y0037376D01*
X0214346Y0040573D02*
X0208812Y0040573D01*
X0208812Y0038975D02*
X0212748Y0038975D01*
X0211149Y0037376D02*
X0208630Y0037376D01*
X0208812Y0035778D02*
X0209778Y0035778D01*
X0209516Y0034179D02*
X0205178Y0034179D01*
X0205178Y0034284D02*
X0204711Y0034284D01*
X0204711Y0037976D01*
X0204711Y0040066D01*
X0205178Y0040066D01*
X0205178Y0034284D01*
X0205178Y0035778D02*
X0204711Y0035778D01*
X0204711Y0037376D02*
X0205178Y0037376D01*
X0205178Y0038975D02*
X0204711Y0038975D01*
X0204711Y0040573D02*
X0205178Y0040573D01*
X0205178Y0042172D02*
X0204711Y0042172D01*
X0204711Y0043770D02*
X0205178Y0043770D01*
X0208213Y0043770D02*
X0213368Y0043770D01*
X0215364Y0043770D02*
X0217566Y0043770D01*
X0217216Y0045369D02*
X0221779Y0045369D01*
X0220602Y0046967D02*
X0217547Y0046967D01*
X0217078Y0048566D02*
X0220415Y0048566D01*
X0221212Y0050164D02*
X0213909Y0050164D01*
X0212481Y0051763D02*
X0232276Y0051763D01*
X0233874Y0053361D02*
X0216857Y0053361D01*
X0213131Y0053361D02*
X0212369Y0053361D01*
X0212369Y0054960D02*
X0213131Y0054960D01*
X0213131Y0056558D02*
X0212369Y0056558D01*
X0212369Y0058157D02*
X0213131Y0058157D01*
X0213131Y0059755D02*
X0212369Y0059755D01*
X0216374Y0061354D02*
X0216429Y0061354D01*
X0216140Y0067748D02*
X0216738Y0067748D01*
X0213766Y0069346D02*
X0205983Y0069346D01*
X0205619Y0067748D02*
X0206381Y0067748D01*
X0206381Y0066149D02*
X0205619Y0066149D01*
X0205619Y0064551D02*
X0201188Y0064551D01*
X0201838Y0062952D02*
X0199589Y0062952D01*
X0197991Y0061354D02*
X0201974Y0061354D01*
X0202885Y0059755D02*
X0197150Y0059755D01*
X0197150Y0058157D02*
X0202238Y0058157D01*
X0202238Y0056558D02*
X0197150Y0056558D01*
X0197150Y0054960D02*
X0202238Y0054960D01*
X0202238Y0053361D02*
X0197150Y0053361D01*
X0197150Y0051763D02*
X0207386Y0051763D01*
X0208813Y0050164D02*
X0198831Y0050164D01*
X0198831Y0048566D02*
X0210241Y0048566D01*
X0211185Y0046967D02*
X0198831Y0046967D01*
X0200258Y0045369D02*
X0211516Y0045369D01*
X0208812Y0042172D02*
X0215945Y0042172D01*
X0225414Y0045369D02*
X0227063Y0045369D01*
X0225981Y0050164D02*
X0230677Y0050164D01*
X0233809Y0043770D02*
X0236465Y0043770D01*
X0235443Y0042172D02*
X0234350Y0042172D01*
X0234324Y0040573D02*
X0235150Y0040573D01*
X0235423Y0038975D02*
X0233662Y0038975D01*
X0235389Y0037376D02*
X0231694Y0037376D01*
X0232726Y0054960D02*
X0222868Y0054960D01*
X0206381Y0061354D02*
X0205619Y0061354D01*
X0205619Y0062952D02*
X0206381Y0062952D01*
X0207582Y0070945D02*
X0213766Y0070945D01*
X0213766Y0072543D02*
X0209180Y0072543D01*
X0210779Y0074142D02*
X0214444Y0074142D01*
X0216123Y0075740D02*
X0212377Y0075740D01*
X0213587Y0080450D02*
X0218537Y0085400D01*
X0219630Y0085400D01*
X0219470Y0085240D01*
X0219016Y0084144D01*
X0219016Y0082956D01*
X0219470Y0081860D01*
X0220310Y0081020D01*
X0221406Y0080566D01*
X0221850Y0080566D01*
X0221850Y0079263D01*
X0222963Y0078150D01*
X0223739Y0077374D01*
X0225450Y0077374D01*
X0225450Y0075221D01*
X0225410Y0075180D01*
X0225173Y0074770D01*
X0225050Y0074312D01*
X0225050Y0072975D01*
X0225050Y0072187D01*
X0217900Y0079337D01*
X0216787Y0080450D01*
X0213587Y0080450D01*
X0213673Y0080536D02*
X0221850Y0080536D01*
X0222176Y0078937D02*
X0218300Y0078937D01*
X0219898Y0077339D02*
X0225450Y0077339D01*
X0225450Y0075740D02*
X0221497Y0075740D01*
X0223095Y0074142D02*
X0225050Y0074142D01*
X0225050Y0072975D02*
X0229350Y0072975D01*
X0225050Y0072975D01*
X0225050Y0072543D02*
X0224694Y0072543D01*
X0229350Y0072975D02*
X0229350Y0072975D01*
X0234562Y0075675D02*
X0235037Y0076150D01*
X0236150Y0077263D01*
X0236150Y0081837D01*
X0234900Y0083087D01*
X0233787Y0084200D01*
X0233250Y0084200D01*
X0233250Y0085363D01*
X0233713Y0084900D01*
X0240537Y0084900D01*
X0241650Y0086013D01*
X0243187Y0087550D01*
X0245780Y0087550D01*
X0245220Y0086990D01*
X0244766Y0085894D01*
X0244766Y0084937D01*
X0240169Y0080156D01*
X0239626Y0079613D01*
X0239626Y0079591D01*
X0239610Y0079575D01*
X0239626Y0078807D01*
X0239626Y0072145D01*
X0238940Y0072830D01*
X0237844Y0073284D01*
X0236953Y0073284D01*
X0234562Y0075675D01*
X0234627Y0075740D02*
X0239626Y0075740D01*
X0239626Y0074142D02*
X0236095Y0074142D01*
X0239227Y0072543D02*
X0239626Y0072543D01*
X0239626Y0077339D02*
X0236150Y0077339D01*
X0236150Y0078937D02*
X0239623Y0078937D01*
X0240534Y0080536D02*
X0236150Y0080536D01*
X0235852Y0082134D02*
X0242071Y0082134D01*
X0243608Y0083733D02*
X0234254Y0083733D01*
X0233281Y0085332D02*
X0233250Y0085332D01*
X0240969Y0085332D02*
X0244766Y0085332D01*
X0245195Y0086930D02*
X0242567Y0086930D01*
X0249074Y0078937D02*
X0254142Y0078937D01*
X0253266Y0080536D02*
X0250673Y0080536D01*
X0252271Y0082134D02*
X0253469Y0082134D01*
X0253620Y0083733D02*
X0254929Y0083733D01*
X0270408Y0096521D02*
X0295057Y0096521D01*
X0295057Y0094923D02*
X0291848Y0094923D01*
X0295057Y0098120D02*
X0272007Y0098120D01*
X0273605Y0099718D02*
X0295057Y0099718D01*
X0295832Y0101317D02*
X0275204Y0101317D01*
X0276802Y0102915D02*
X0286450Y0102915D01*
X0285689Y0104514D02*
X0278401Y0104514D01*
X0279999Y0106112D02*
X0285689Y0106112D01*
X0285689Y0107711D02*
X0281598Y0107711D01*
X0282900Y0109309D02*
X0285689Y0109309D01*
X0285689Y0110908D02*
X0284118Y0110908D01*
X0277822Y0109309D02*
X0265178Y0109309D01*
X0266776Y0107711D02*
X0276224Y0107711D01*
X0274625Y0106112D02*
X0268375Y0106112D01*
X0271374Y0104514D02*
X0273027Y0104514D01*
X0294026Y0102915D02*
X0297474Y0102915D01*
X0296712Y0104514D02*
X0294788Y0104514D01*
X0294788Y0106112D02*
X0296712Y0106112D01*
X0296712Y0107711D02*
X0294788Y0107711D01*
X0294788Y0109309D02*
X0296712Y0109309D01*
X0296712Y0110908D02*
X0294788Y0110908D01*
X0294205Y0112506D02*
X0297295Y0112506D01*
X0294492Y0114105D02*
X0308842Y0114105D01*
X0309167Y0115703D02*
X0296090Y0115703D01*
X0297689Y0117302D02*
X0307618Y0117302D01*
X0306956Y0118900D02*
X0299287Y0118900D01*
X0299650Y0120499D02*
X0306900Y0120499D01*
X0307328Y0122097D02*
X0299650Y0122097D01*
X0307561Y0123696D02*
X0308433Y0123696D01*
X0307561Y0125294D02*
X0310154Y0125294D01*
X0308024Y0133287D02*
X0298950Y0133287D01*
X0297352Y0134885D02*
X0310347Y0134885D01*
X0308354Y0136484D02*
X0296234Y0136484D01*
X0295688Y0138082D02*
X0307295Y0138082D01*
X0306900Y0139681D02*
X0290484Y0139681D01*
X0290226Y0138082D02*
X0290812Y0138082D01*
X0290266Y0136484D02*
X0289753Y0136484D01*
X0285978Y0134885D02*
X0283272Y0134885D01*
X0283136Y0133287D02*
X0282916Y0133287D01*
X0283900Y0136484D02*
X0285600Y0136484D01*
X0284774Y0138082D02*
X0283900Y0138082D01*
X0283900Y0139681D02*
X0284516Y0139681D01*
X0285259Y0141279D02*
X0282958Y0141279D01*
X0281359Y0142878D02*
X0307651Y0142878D01*
X0306989Y0141279D02*
X0289741Y0141279D01*
X0279761Y0144476D02*
X0309359Y0144476D01*
X0308197Y0146075D02*
X0276969Y0146075D01*
X0278513Y0147673D02*
X0307038Y0147673D01*
X0306555Y0149272D02*
X0278734Y0149272D01*
X0277900Y0150870D02*
X0306561Y0150870D01*
X0307060Y0152469D02*
X0276630Y0152469D01*
X0278228Y0154068D02*
X0308239Y0154068D01*
X0311800Y0154068D02*
X0312200Y0154068D01*
X0312200Y0152469D02*
X0311800Y0152469D01*
X0311800Y0150870D02*
X0312200Y0150870D01*
X0315761Y0154068D02*
X0316400Y0154068D01*
X0316400Y0155666D02*
X0291926Y0155666D01*
X0290989Y0155666D02*
X0290621Y0155666D01*
X0289684Y0155666D02*
X0279827Y0155666D01*
X0277650Y0158863D02*
X0259734Y0158863D01*
X0259395Y0160462D02*
X0277421Y0160462D01*
X0277783Y0162060D02*
X0257417Y0162060D01*
X0255818Y0163659D02*
X0278954Y0163659D01*
X0284625Y0163659D02*
X0287404Y0163659D01*
X0286358Y0162060D02*
X0285795Y0162060D01*
X0290621Y0162060D02*
X0290989Y0162060D01*
X0290989Y0160500D02*
X0290989Y0165084D01*
X0291180Y0165084D01*
X0291922Y0164967D01*
X0292636Y0164735D01*
X0293304Y0164394D01*
X0293912Y0163953D01*
X0294442Y0163422D01*
X0294884Y0162815D01*
X0295224Y0162146D01*
X0295456Y0161432D01*
X0295574Y0160691D01*
X0295574Y0160500D01*
X0290989Y0160500D01*
X0290989Y0160462D02*
X0314161Y0160462D01*
X0312563Y0162060D02*
X0295252Y0162060D01*
X0294206Y0163659D02*
X0310964Y0163659D01*
X0309366Y0165257D02*
X0254220Y0165257D01*
X0252621Y0166856D02*
X0307767Y0166856D01*
X0307671Y0166952D02*
X0307671Y0166952D01*
X0308402Y0166221D02*
X0308402Y0166221D01*
X0306169Y0168454D02*
X0251023Y0168454D01*
X0249424Y0170053D02*
X0304570Y0170053D01*
X0308727Y0173250D02*
X0311023Y0173250D01*
X0312621Y0174848D02*
X0307129Y0174848D01*
X0312974Y0176447D02*
X0299038Y0176447D01*
X0301116Y0178045D02*
X0312974Y0178045D01*
X0312748Y0179644D02*
X0302201Y0179644D01*
X0302755Y0181242D02*
X0312574Y0181242D01*
X0312574Y0182841D02*
X0296605Y0182841D01*
X0296605Y0183596D02*
X0302876Y0183596D01*
X0302798Y0184187D01*
X0302557Y0185088D01*
X0302200Y0185950D01*
X0301734Y0186757D01*
X0301166Y0187497D01*
X0300506Y0188157D01*
X0299766Y0188725D01*
X0298959Y0189191D01*
X0298097Y0189548D01*
X0297196Y0189789D01*
X0296605Y0189867D01*
X0296605Y0183596D01*
X0296605Y0184439D02*
X0295005Y0184439D01*
X0295005Y0183596D02*
X0295005Y0189867D01*
X0294414Y0189789D01*
X0293684Y0189594D01*
X0295747Y0191656D01*
X0296995Y0194669D01*
X0296995Y0197931D01*
X0295747Y0200944D01*
X0293441Y0203250D01*
X0290428Y0204498D01*
X0287167Y0204498D01*
X0284154Y0203250D01*
X0281848Y0200944D01*
X0280600Y0197931D01*
X0280600Y0194669D01*
X0281848Y0191656D01*
X0284154Y0189350D01*
X0287167Y0188102D01*
X0290428Y0188102D01*
X0291743Y0188647D01*
X0291104Y0188157D01*
X0290444Y0187497D01*
X0289877Y0186757D01*
X0289410Y0185950D01*
X0289053Y0185088D01*
X0288812Y0184187D01*
X0288734Y0183596D01*
X0295005Y0183596D01*
X0295005Y0182841D02*
X0280442Y0182841D01*
X0281734Y0181242D02*
X0288856Y0181242D01*
X0289410Y0179644D02*
X0282181Y0179644D01*
X0282025Y0178045D02*
X0290494Y0178045D01*
X0292573Y0176447D02*
X0282805Y0176447D01*
X0281195Y0176447D02*
X0281146Y0176447D01*
X0279308Y0174848D02*
X0271536Y0174848D01*
X0269966Y0174848D02*
X0269597Y0174848D01*
X0268027Y0174848D02*
X0184707Y0174848D01*
X0184349Y0174700D02*
X0185288Y0175089D01*
X0186516Y0176318D01*
X0187181Y0177923D01*
X0187181Y0179661D01*
X0186516Y0181267D01*
X0185288Y0182496D01*
X0183682Y0183161D01*
X0182774Y0183161D01*
X0182876Y0183301D01*
X0183216Y0183970D01*
X0183448Y0184683D01*
X0183566Y0185425D01*
X0183566Y0185616D01*
X0178982Y0185616D01*
X0178982Y0185984D01*
X0183566Y0185984D01*
X0183566Y0186175D01*
X0183448Y0186917D01*
X0183216Y0187630D01*
X0182876Y0188299D01*
X0182434Y0188906D01*
X0181904Y0189437D01*
X0181296Y0189878D01*
X0180628Y0190219D01*
X0179914Y0190451D01*
X0179173Y0190568D01*
X0178981Y0190568D01*
X0178981Y0185984D01*
X0178613Y0185984D01*
X0178613Y0190568D01*
X0178422Y0190568D01*
X0177681Y0190451D01*
X0176967Y0190219D01*
X0176298Y0189878D01*
X0175691Y0189437D01*
X0175160Y0188906D01*
X0174719Y0188299D01*
X0174575Y0188018D01*
X0174469Y0188275D01*
X0173240Y0189503D01*
X0171635Y0190168D01*
X0169897Y0190168D01*
X0168291Y0189503D01*
X0167062Y0188275D01*
X0166956Y0188018D01*
X0166813Y0188299D01*
X0166371Y0188906D01*
X0165841Y0189437D01*
X0165233Y0189878D01*
X0164565Y0190219D01*
X0163851Y0190451D01*
X0163110Y0190568D01*
X0162919Y0190568D01*
X0162919Y0185984D01*
X0162550Y0185984D01*
X0162550Y0190568D01*
X0162359Y0190568D01*
X0161618Y0190451D01*
X0160904Y0190219D01*
X0160235Y0189878D01*
X0159628Y0189437D01*
X0159097Y0188906D01*
X0159071Y0188871D01*
X0159071Y0189348D01*
X0158251Y0190168D01*
X0151154Y0190168D01*
X0150334Y0189348D01*
X0150334Y0182252D01*
X0151154Y0181431D01*
X0151445Y0181431D01*
X0150350Y0180337D01*
X0150350Y0176763D01*
X0158100Y0169013D01*
X0159213Y0167900D01*
X0202713Y0167900D01*
X0215367Y0155246D01*
X0215367Y0154355D01*
X0215821Y0153258D01*
X0216661Y0152419D01*
X0217758Y0151964D01*
X0218945Y0151964D01*
X0220042Y0152419D01*
X0220776Y0153152D01*
X0220845Y0152985D01*
X0221685Y0152145D01*
X0222781Y0151691D01*
X0223969Y0151691D01*
X0225065Y0152145D01*
X0225905Y0152985D01*
X0226359Y0154081D01*
X0226359Y0155269D01*
X0225905Y0156365D01*
X0225065Y0157205D01*
X0223969Y0157659D01*
X0223078Y0157659D01*
X0206037Y0174700D01*
X0184349Y0174700D01*
X0186570Y0176447D02*
X0196741Y0176447D01*
X0196844Y0176367D02*
X0197651Y0175901D01*
X0198513Y0175544D01*
X0199414Y0175303D01*
X0200005Y0175225D01*
X0200005Y0181496D01*
X0193734Y0181496D01*
X0193812Y0180905D01*
X0194053Y0180004D01*
X0194410Y0179142D01*
X0194877Y0178335D01*
X0195444Y0177595D01*
X0196104Y0176935D01*
X0196844Y0176367D01*
X0195099Y0178045D02*
X0187181Y0178045D01*
X0187181Y0179644D02*
X0194203Y0179644D01*
X0193767Y0181242D02*
X0186527Y0181242D01*
X0184454Y0182841D02*
X0200005Y0182841D01*
X0200005Y0183096D02*
X0200005Y0181496D01*
X0201605Y0181496D01*
X0201605Y0175225D01*
X0202196Y0175303D01*
X0203097Y0175544D01*
X0203959Y0175901D01*
X0204766Y0176367D01*
X0205506Y0176935D01*
X0206166Y0177595D01*
X0206734Y0178335D01*
X0207200Y0179142D01*
X0207557Y0180004D01*
X0207798Y0180905D01*
X0207876Y0181496D01*
X0201605Y0181496D01*
X0201605Y0183096D01*
X0200005Y0183096D01*
X0193734Y0183096D01*
X0193812Y0183687D01*
X0194053Y0184588D01*
X0194410Y0185450D01*
X0194877Y0186257D01*
X0195444Y0186997D01*
X0196104Y0187657D01*
X0196743Y0188147D01*
X0195428Y0187602D01*
X0192167Y0187602D01*
X0189154Y0188850D01*
X0186848Y0191156D01*
X0185600Y0194169D01*
X0185600Y0197431D01*
X0186848Y0200444D01*
X0189154Y0202750D01*
X0192167Y0203998D01*
X0195428Y0203998D01*
X0198441Y0202750D01*
X0200747Y0200444D01*
X0201995Y0197431D01*
X0201995Y0194169D01*
X0200747Y0191156D01*
X0198684Y0189094D01*
X0199414Y0189289D01*
X0200005Y0189367D01*
X0200005Y0183096D01*
X0200005Y0184439D02*
X0201605Y0184439D01*
X0201605Y0183096D02*
X0201605Y0189367D01*
X0202196Y0189289D01*
X0203097Y0189048D01*
X0203959Y0188691D01*
X0204766Y0188225D01*
X0205506Y0187657D01*
X0206166Y0186997D01*
X0206734Y0186257D01*
X0207200Y0185450D01*
X0207557Y0184588D01*
X0207798Y0183687D01*
X0207876Y0183096D01*
X0201605Y0183096D01*
X0201605Y0182841D02*
X0228942Y0182841D01*
X0228942Y0183596D02*
X0228942Y0181996D01*
X0222671Y0181996D01*
X0222749Y0181405D01*
X0222990Y0180504D01*
X0223347Y0179642D01*
X0223814Y0178835D01*
X0224381Y0178095D01*
X0225041Y0177435D01*
X0225781Y0176867D01*
X0226588Y0176401D01*
X0227450Y0176044D01*
X0228351Y0175803D01*
X0228942Y0175725D01*
X0228942Y0181996D01*
X0230542Y0181996D01*
X0230542Y0175725D01*
X0231133Y0175803D01*
X0232034Y0176044D01*
X0232896Y0176401D01*
X0233703Y0176867D01*
X0234443Y0177435D01*
X0235103Y0178095D01*
X0235671Y0178835D01*
X0236137Y0179642D01*
X0236494Y0180504D01*
X0236735Y0181405D01*
X0236813Y0181996D01*
X0230542Y0181996D01*
X0230542Y0183596D01*
X0228942Y0183596D01*
X0222671Y0183596D01*
X0222749Y0184187D01*
X0222990Y0185088D01*
X0223347Y0185950D01*
X0223814Y0186757D01*
X0224381Y0187497D01*
X0225041Y0188157D01*
X0225781Y0188725D01*
X0226588Y0189191D01*
X0227450Y0189548D01*
X0228351Y0189789D01*
X0228942Y0189867D01*
X0228942Y0183596D01*
X0228942Y0184439D02*
X0230542Y0184439D01*
X0230542Y0183596D02*
X0230542Y0189867D01*
X0231133Y0189789D01*
X0231863Y0189594D01*
X0229800Y0191656D01*
X0228552Y0194669D01*
X0228552Y0197931D01*
X0229800Y0200944D01*
X0232106Y0203250D01*
X0235119Y0204498D01*
X0238381Y0204498D01*
X0241394Y0203250D01*
X0243700Y0200944D01*
X0244948Y0197931D01*
X0244948Y0194669D01*
X0243700Y0191656D01*
X0241394Y0189350D01*
X0238381Y0188102D01*
X0235119Y0188102D01*
X0233805Y0188647D01*
X0234443Y0188157D01*
X0235103Y0187497D01*
X0235671Y0186757D01*
X0236137Y0185950D01*
X0236494Y0185088D01*
X0236735Y0184187D01*
X0236813Y0183596D01*
X0230542Y0183596D01*
X0230542Y0182841D02*
X0245334Y0182841D01*
X0245334Y0184439D02*
X0236668Y0184439D01*
X0236086Y0186038D02*
X0245334Y0186038D01*
X0245334Y0187636D02*
X0234964Y0187636D01*
X0230542Y0187636D02*
X0228942Y0187636D01*
X0228942Y0186038D02*
X0230542Y0186038D01*
X0230542Y0189235D02*
X0228942Y0189235D01*
X0226694Y0189235D02*
X0202400Y0189235D01*
X0201605Y0189235D02*
X0200005Y0189235D01*
X0199211Y0189235D02*
X0198825Y0189235D01*
X0200005Y0187636D02*
X0201605Y0187636D01*
X0201605Y0186038D02*
X0200005Y0186038D01*
X0196083Y0187636D02*
X0195510Y0187636D01*
X0194750Y0186038D02*
X0183566Y0186038D01*
X0183369Y0184439D02*
X0194013Y0184439D01*
X0192085Y0187636D02*
X0183213Y0187636D01*
X0182106Y0189235D02*
X0188769Y0189235D01*
X0187171Y0190833D02*
X0148376Y0190833D01*
X0148700Y0191156D02*
X0149948Y0194169D01*
X0149948Y0197431D01*
X0148700Y0200444D01*
X0146394Y0202750D01*
X0143381Y0203998D01*
X0140119Y0203998D01*
X0137106Y0202750D01*
X0134800Y0200444D01*
X0133552Y0197431D01*
X0133552Y0194169D01*
X0134800Y0191156D01*
X0136863Y0189094D01*
X0136133Y0189289D01*
X0135542Y0189367D01*
X0135542Y0183096D01*
X0133942Y0183096D01*
X0133942Y0181496D01*
X0127671Y0181496D01*
X0127749Y0180905D01*
X0127990Y0180004D01*
X0128347Y0179142D01*
X0128814Y0178335D01*
X0129381Y0177595D01*
X0130041Y0176935D01*
X0130781Y0176367D01*
X0131588Y0175901D01*
X0132450Y0175544D01*
X0133351Y0175303D01*
X0133942Y0175225D01*
X0133942Y0181496D01*
X0135542Y0181496D01*
X0135542Y0175225D01*
X0136133Y0175303D01*
X0137034Y0175544D01*
X0137896Y0175901D01*
X0138703Y0176367D01*
X0139443Y0176935D01*
X0140103Y0177595D01*
X0140671Y0178335D01*
X0141137Y0179142D01*
X0141494Y0180004D01*
X0141735Y0180905D01*
X0141813Y0181496D01*
X0135542Y0181496D01*
X0135542Y0183096D01*
X0141813Y0183096D01*
X0141735Y0183687D01*
X0141494Y0184588D01*
X0141137Y0185450D01*
X0140671Y0186257D01*
X0140103Y0186997D01*
X0139443Y0187657D01*
X0138805Y0188147D01*
X0140119Y0187602D01*
X0143381Y0187602D01*
X0146394Y0188850D01*
X0148700Y0191156D01*
X0149228Y0192432D02*
X0186319Y0192432D01*
X0185657Y0194030D02*
X0149890Y0194030D01*
X0149948Y0195629D02*
X0185600Y0195629D01*
X0185600Y0197227D02*
X0149948Y0197227D01*
X0149370Y0198826D02*
X0186178Y0198826D01*
X0186840Y0200424D02*
X0148708Y0200424D01*
X0147120Y0202023D02*
X0188427Y0202023D01*
X0191258Y0203621D02*
X0144289Y0203621D01*
X0139211Y0203621D02*
X0126800Y0203621D01*
X0126800Y0202023D02*
X0136380Y0202023D01*
X0134792Y0200424D02*
X0126800Y0200424D01*
X0126800Y0198826D02*
X0134130Y0198826D01*
X0133552Y0197227D02*
X0126800Y0197227D01*
X0126800Y0195629D02*
X0133552Y0195629D01*
X0133610Y0194030D02*
X0126800Y0194030D01*
X0126800Y0192432D02*
X0134272Y0192432D01*
X0135124Y0190833D02*
X0126800Y0190833D01*
X0126800Y0189235D02*
X0133148Y0189235D01*
X0133351Y0189289D02*
X0132450Y0189048D01*
X0131588Y0188691D01*
X0130781Y0188225D01*
X0130041Y0187657D01*
X0129381Y0186997D01*
X0128814Y0186257D01*
X0128347Y0185450D01*
X0127990Y0184588D01*
X0127749Y0183687D01*
X0127671Y0183096D01*
X0133942Y0183096D01*
X0133942Y0189367D01*
X0133351Y0189289D01*
X0133942Y0189235D02*
X0135542Y0189235D01*
X0136337Y0189235D02*
X0136722Y0189235D01*
X0135542Y0187636D02*
X0133942Y0187636D01*
X0133942Y0186038D02*
X0135542Y0186038D01*
X0135542Y0184439D02*
X0133942Y0184439D01*
X0133942Y0182841D02*
X0126800Y0182841D01*
X0126800Y0184439D02*
X0127950Y0184439D01*
X0128687Y0186038D02*
X0126800Y0186038D01*
X0126800Y0187636D02*
X0130020Y0187636D01*
X0135542Y0182841D02*
X0150334Y0182841D01*
X0150334Y0184439D02*
X0141534Y0184439D01*
X0140798Y0186038D02*
X0150334Y0186038D01*
X0150334Y0187636D02*
X0143462Y0187636D01*
X0140038Y0187636D02*
X0139464Y0187636D01*
X0146778Y0189235D02*
X0150334Y0189235D01*
X0159071Y0189235D02*
X0159425Y0189235D01*
X0162550Y0189235D02*
X0162919Y0189235D01*
X0162919Y0187636D02*
X0162550Y0187636D01*
X0162550Y0186038D02*
X0162919Y0186038D01*
X0162919Y0185616D02*
X0162919Y0181031D01*
X0162949Y0181031D01*
X0162734Y0180513D01*
X0162519Y0181031D01*
X0162550Y0181031D01*
X0162550Y0185616D01*
X0162919Y0185616D01*
X0162919Y0184439D02*
X0162550Y0184439D01*
X0162550Y0182841D02*
X0162919Y0182841D01*
X0162919Y0181242D02*
X0162550Y0181242D01*
X0151255Y0181242D02*
X0141780Y0181242D01*
X0141345Y0179644D02*
X0150350Y0179644D01*
X0150350Y0178045D02*
X0140448Y0178045D01*
X0138807Y0176447D02*
X0150666Y0176447D01*
X0152265Y0174848D02*
X0126800Y0174848D01*
X0126800Y0173250D02*
X0153863Y0173250D01*
X0155462Y0171651D02*
X0126800Y0171651D01*
X0126800Y0170053D02*
X0157060Y0170053D01*
X0158659Y0168454D02*
X0126800Y0168454D01*
X0126800Y0166856D02*
X0203757Y0166856D01*
X0205356Y0165257D02*
X0126800Y0165257D01*
X0126800Y0163659D02*
X0139651Y0163659D01*
X0137991Y0162060D02*
X0126800Y0162060D01*
X0126800Y0160462D02*
X0137421Y0160462D01*
X0137456Y0158863D02*
X0126800Y0158863D01*
X0126800Y0157265D02*
X0138163Y0157265D01*
X0140392Y0155666D02*
X0126800Y0155666D01*
X0126800Y0154068D02*
X0144851Y0154068D01*
X0143252Y0155666D02*
X0143186Y0155666D01*
X0150621Y0160462D02*
X0150989Y0160462D01*
X0150989Y0160000D02*
X0150989Y0164584D01*
X0151180Y0164584D01*
X0151922Y0164467D01*
X0152636Y0164235D01*
X0153304Y0163894D01*
X0153912Y0163453D01*
X0154442Y0162922D01*
X0154884Y0162315D01*
X0155224Y0161646D01*
X0155456Y0160932D01*
X0155574Y0160191D01*
X0155574Y0160000D01*
X0150989Y0160000D01*
X0150989Y0162060D02*
X0150621Y0162060D01*
X0150621Y0163659D02*
X0150989Y0163659D01*
X0153629Y0163659D02*
X0184651Y0163659D01*
X0182991Y0162060D02*
X0155013Y0162060D01*
X0155531Y0160462D02*
X0182421Y0160462D01*
X0182456Y0158863D02*
X0155482Y0158863D01*
X0154846Y0157265D02*
X0183163Y0157265D01*
X0184821Y0155666D02*
X0185392Y0155666D01*
X0186419Y0154068D02*
X0189045Y0154068D01*
X0188018Y0152469D02*
X0190600Y0152469D01*
X0189616Y0150870D02*
X0191743Y0150870D01*
X0191215Y0149272D02*
X0193341Y0149272D01*
X0192814Y0147673D02*
X0194940Y0147673D01*
X0194412Y0146075D02*
X0198788Y0146075D01*
X0197116Y0150870D02*
X0244894Y0150870D01*
X0243295Y0149272D02*
X0242120Y0149272D01*
X0246492Y0152469D02*
X0225389Y0152469D01*
X0226353Y0154068D02*
X0248091Y0154068D01*
X0246926Y0155666D02*
X0249689Y0155666D01*
X0249482Y0157265D02*
X0251288Y0157265D01*
X0250347Y0158863D02*
X0252886Y0158863D01*
X0251662Y0160462D02*
X0245989Y0160462D01*
X0245989Y0162060D02*
X0245621Y0162060D01*
X0245621Y0163659D02*
X0245989Y0163659D01*
X0246866Y0165257D02*
X0215480Y0165257D01*
X0217078Y0163659D02*
X0233954Y0163659D01*
X0232783Y0162060D02*
X0218677Y0162060D01*
X0220275Y0160462D02*
X0232421Y0160462D01*
X0232663Y0158863D02*
X0221874Y0158863D01*
X0224922Y0157265D02*
X0233663Y0157265D01*
X0239916Y0157265D02*
X0242128Y0157265D01*
X0241263Y0158863D02*
X0240916Y0158863D01*
X0245621Y0158863D02*
X0245989Y0158863D01*
X0245989Y0157265D02*
X0245621Y0157265D01*
X0245621Y0155666D02*
X0245989Y0155666D01*
X0244684Y0155666D02*
X0226195Y0155666D01*
X0221361Y0152469D02*
X0220092Y0152469D01*
X0216611Y0152469D02*
X0195518Y0152469D01*
X0194400Y0154068D02*
X0215486Y0154068D01*
X0214947Y0155666D02*
X0198164Y0155666D01*
X0195989Y0155666D02*
X0195621Y0155666D01*
X0195621Y0157265D02*
X0195989Y0157265D01*
X0195989Y0158863D02*
X0195621Y0158863D01*
X0195989Y0160000D02*
X0200574Y0160000D01*
X0200574Y0160191D01*
X0200456Y0160932D01*
X0200224Y0161646D01*
X0199884Y0162315D01*
X0199442Y0162922D01*
X0198912Y0163453D01*
X0198304Y0163894D01*
X0197636Y0164235D01*
X0196922Y0164467D01*
X0196180Y0164584D01*
X0195989Y0164584D01*
X0195989Y0160000D01*
X0195989Y0160462D02*
X0195621Y0160462D01*
X0195621Y0162060D02*
X0195989Y0162060D01*
X0195989Y0163659D02*
X0195621Y0163659D01*
X0192982Y0163659D02*
X0188927Y0163659D01*
X0190588Y0162060D02*
X0191597Y0162060D01*
X0191123Y0158863D02*
X0191128Y0158863D01*
X0191222Y0157265D02*
X0191764Y0157265D01*
X0192821Y0155666D02*
X0193446Y0155666D01*
X0199846Y0157265D02*
X0213348Y0157265D01*
X0211750Y0158863D02*
X0200482Y0158863D01*
X0200531Y0160462D02*
X0210151Y0160462D01*
X0208553Y0162060D02*
X0200013Y0162060D01*
X0198629Y0163659D02*
X0206954Y0163659D01*
X0213881Y0166856D02*
X0245267Y0166856D01*
X0243669Y0168454D02*
X0212283Y0168454D01*
X0210684Y0170053D02*
X0217390Y0170053D01*
X0217016Y0171651D02*
X0209086Y0171651D01*
X0207487Y0173250D02*
X0217479Y0173250D01*
X0224431Y0178045D02*
X0206511Y0178045D01*
X0207408Y0179644D02*
X0223347Y0179644D01*
X0222793Y0181242D02*
X0207843Y0181242D01*
X0201605Y0181242D02*
X0200005Y0181242D01*
X0200005Y0179644D02*
X0201605Y0179644D01*
X0201605Y0178045D02*
X0200005Y0178045D01*
X0200005Y0176447D02*
X0201605Y0176447D01*
X0204870Y0176447D02*
X0226510Y0176447D01*
X0228942Y0176447D02*
X0230542Y0176447D01*
X0230542Y0178045D02*
X0228942Y0178045D01*
X0228942Y0179644D02*
X0230542Y0179644D01*
X0230542Y0181242D02*
X0228942Y0181242D01*
X0235053Y0178045D02*
X0249507Y0178045D01*
X0249350Y0179644D02*
X0236138Y0179644D01*
X0236692Y0181242D02*
X0249798Y0181242D01*
X0250386Y0176447D02*
X0232975Y0176447D01*
X0246227Y0173250D02*
X0279016Y0173250D01*
X0279678Y0171651D02*
X0247826Y0171651D01*
X0257051Y0176447D02*
X0258417Y0176447D01*
X0257734Y0181013D02*
X0257519Y0181531D01*
X0257550Y0181531D01*
X0257550Y0186116D01*
X0257919Y0186116D01*
X0257919Y0181531D01*
X0257949Y0181531D01*
X0257734Y0181013D01*
X0257639Y0181242D02*
X0257829Y0181242D01*
X0257919Y0182841D02*
X0257550Y0182841D01*
X0257550Y0184439D02*
X0257919Y0184439D01*
X0257919Y0186038D02*
X0257550Y0186038D01*
X0257550Y0187636D02*
X0257919Y0187636D01*
X0257919Y0189235D02*
X0257550Y0189235D01*
X0257550Y0190833D02*
X0257919Y0190833D01*
X0259213Y0190833D02*
X0272318Y0190833D01*
X0273613Y0190833D02*
X0273981Y0190833D01*
X0275276Y0190833D02*
X0282671Y0190833D01*
X0281526Y0192432D02*
X0244021Y0192432D01*
X0244683Y0194030D02*
X0280864Y0194030D01*
X0280600Y0195629D02*
X0244948Y0195629D01*
X0244948Y0197227D02*
X0280600Y0197227D01*
X0280970Y0198826D02*
X0244577Y0198826D01*
X0243915Y0200424D02*
X0281633Y0200424D01*
X0282927Y0202023D02*
X0242620Y0202023D01*
X0240496Y0203621D02*
X0285051Y0203621D01*
X0292543Y0203621D02*
X0320050Y0203621D01*
X0320050Y0202023D02*
X0294668Y0202023D01*
X0295962Y0200424D02*
X0320050Y0200424D01*
X0320050Y0198826D02*
X0296624Y0198826D01*
X0296995Y0197227D02*
X0320050Y0197227D01*
X0320050Y0195629D02*
X0296995Y0195629D01*
X0296730Y0194030D02*
X0320050Y0194030D01*
X0320050Y0192432D02*
X0296068Y0192432D01*
X0294924Y0190833D02*
X0320050Y0190833D01*
X0320050Y0189235D02*
X0298853Y0189235D01*
X0296605Y0189235D02*
X0295005Y0189235D01*
X0295005Y0187636D02*
X0296605Y0187636D01*
X0296605Y0186038D02*
X0295005Y0186038D01*
X0301027Y0187636D02*
X0320050Y0187636D01*
X0320050Y0186038D02*
X0319670Y0186038D01*
X0316733Y0186038D02*
X0316267Y0186038D01*
X0316267Y0184439D02*
X0316733Y0184439D01*
X0316733Y0182841D02*
X0316267Y0182841D01*
X0312574Y0184439D02*
X0302731Y0184439D01*
X0302149Y0186038D02*
X0313330Y0186038D01*
X0290583Y0187636D02*
X0278377Y0187636D01*
X0278566Y0186038D02*
X0289461Y0186038D01*
X0288879Y0184439D02*
X0278201Y0184439D01*
X0273981Y0187636D02*
X0273613Y0187636D01*
X0273613Y0189235D02*
X0273981Y0189235D01*
X0277559Y0189235D02*
X0284433Y0189235D01*
X0270035Y0189235D02*
X0269009Y0189235D01*
X0262523Y0189235D02*
X0261496Y0189235D01*
X0256255Y0190833D02*
X0242876Y0190833D01*
X0241114Y0189235D02*
X0245334Y0189235D01*
X0230624Y0190833D02*
X0200424Y0190833D01*
X0201275Y0192432D02*
X0229479Y0192432D01*
X0228817Y0194030D02*
X0201937Y0194030D01*
X0201995Y0195629D02*
X0228552Y0195629D01*
X0228552Y0197227D02*
X0201995Y0197227D01*
X0201417Y0198826D02*
X0228923Y0198826D01*
X0229585Y0200424D02*
X0200755Y0200424D01*
X0199168Y0202023D02*
X0230880Y0202023D01*
X0233004Y0203621D02*
X0196336Y0203621D01*
X0178981Y0189235D02*
X0178613Y0189235D01*
X0178613Y0187636D02*
X0178981Y0187636D01*
X0178981Y0186038D02*
X0178613Y0186038D01*
X0175488Y0189235D02*
X0173509Y0189235D01*
X0168023Y0189235D02*
X0166043Y0189235D01*
X0135542Y0181242D02*
X0133942Y0181242D01*
X0133942Y0179644D02*
X0135542Y0179644D01*
X0135542Y0178045D02*
X0133942Y0178045D01*
X0133942Y0176447D02*
X0135542Y0176447D01*
X0130678Y0176447D02*
X0126800Y0176447D01*
X0126800Y0178045D02*
X0129036Y0178045D01*
X0128140Y0179644D02*
X0126800Y0179644D01*
X0126800Y0181242D02*
X0127705Y0181242D01*
X0143927Y0163659D02*
X0147982Y0163659D01*
X0146597Y0162060D02*
X0145588Y0162060D01*
X0126800Y0152469D02*
X0182644Y0152469D01*
X0184243Y0150870D02*
X0126800Y0150870D01*
X0126800Y0149272D02*
X0185841Y0149272D01*
X0187440Y0147673D02*
X0126800Y0147673D01*
X0126800Y0146075D02*
X0189038Y0146075D01*
X0211394Y0134885D02*
X0211908Y0134885D01*
X0217664Y0133287D02*
X0238559Y0133287D01*
X0242656Y0141279D02*
X0267322Y0141279D01*
X0268358Y0142878D02*
X0244255Y0142878D01*
X0245853Y0144476D02*
X0270850Y0144476D01*
X0267278Y0146075D02*
X0247452Y0146075D01*
X0249050Y0147673D02*
X0266539Y0147673D01*
X0266800Y0149272D02*
X0250649Y0149272D01*
X0252247Y0150870D02*
X0268535Y0150870D01*
X0271256Y0152469D02*
X0253846Y0152469D01*
X0255444Y0154068D02*
X0272854Y0154068D01*
X0274453Y0155666D02*
X0257043Y0155666D01*
X0259185Y0157265D02*
X0276051Y0157265D01*
X0284916Y0157265D02*
X0287128Y0157265D01*
X0286263Y0158863D02*
X0285916Y0158863D01*
X0290621Y0158863D02*
X0290989Y0158863D01*
X0290989Y0157265D02*
X0290621Y0157265D01*
X0294482Y0157265D02*
X0316400Y0157265D01*
X0315760Y0158863D02*
X0295347Y0158863D01*
X0290989Y0163659D02*
X0290621Y0163659D01*
X0274480Y0176447D02*
X0273608Y0176447D01*
X0269966Y0176447D02*
X0269597Y0176447D01*
X0269597Y0178045D02*
X0269966Y0178045D01*
X0265955Y0176447D02*
X0265083Y0176447D01*
X0242404Y0163659D02*
X0239625Y0163659D01*
X0240795Y0162060D02*
X0241358Y0162060D01*
X0222816Y0184439D02*
X0207597Y0184439D01*
X0206861Y0186038D02*
X0223398Y0186038D01*
X0224520Y0187636D02*
X0205527Y0187636D01*
X0155750Y0139300D02*
X0146096Y0139300D01*
X0149394Y0136484D02*
X0152945Y0136484D01*
X0155587Y0134885D02*
X0126800Y0134885D01*
X0126800Y0133287D02*
X0139802Y0133287D01*
X0137461Y0131688D02*
X0126800Y0131688D01*
X0126800Y0130090D02*
X0135863Y0130090D01*
X0134264Y0128491D02*
X0126800Y0128491D01*
X0126800Y0126893D02*
X0132666Y0126893D01*
X0131067Y0125294D02*
X0126800Y0125294D01*
X0126800Y0123696D02*
X0129469Y0123696D01*
X0127870Y0122097D02*
X0126800Y0122097D01*
X0138421Y0125294D02*
X0139345Y0125294D01*
X0149193Y0128491D02*
X0183810Y0128491D01*
X0155711Y0130090D02*
X0149193Y0130090D01*
X0149193Y0131688D02*
X0154664Y0131688D01*
X0154612Y0133287D02*
X0148698Y0133287D01*
X0163984Y0101317D02*
X0168580Y0101317D01*
X0165448Y0099718D02*
X0163782Y0099718D01*
X0182946Y0093324D02*
X0195204Y0093324D01*
X0195093Y0094923D02*
X0198985Y0094923D01*
X0199747Y0094923D02*
X0203872Y0094923D01*
X0203872Y0096521D02*
X0203528Y0096521D01*
X0203398Y0098120D02*
X0203999Y0098120D01*
X0204178Y0099718D02*
X0211198Y0099718D01*
X0214802Y0099718D02*
X0237833Y0099718D01*
X0238350Y0098120D02*
X0215891Y0098120D01*
X0212086Y0102915D02*
X0237269Y0102915D01*
X0237069Y0101317D02*
X0204484Y0101317D01*
X0206052Y0102915D02*
X0207414Y0102915D01*
X0198822Y0099718D02*
X0198355Y0099718D01*
X0198985Y0098120D02*
X0199747Y0098120D01*
X0199747Y0096521D02*
X0198985Y0096521D01*
X0198985Y0093324D02*
X0199747Y0093324D01*
X0199747Y0091726D02*
X0198985Y0091726D01*
X0198219Y0088529D02*
X0206292Y0088529D01*
X0207890Y0090127D02*
X0184201Y0090127D01*
X0184281Y0088529D02*
X0183219Y0088529D01*
X0184097Y0091726D02*
X0195481Y0091726D01*
X0194281Y0088529D02*
X0193219Y0088529D01*
X0189281Y0088529D02*
X0188219Y0088529D01*
X0198831Y0086930D02*
X0204693Y0086930D01*
X0203095Y0085332D02*
X0198831Y0085332D01*
X0198831Y0083733D02*
X0201496Y0083733D01*
X0199898Y0082134D02*
X0198831Y0082134D01*
X0203251Y0091726D02*
X0204254Y0091726D01*
X0203872Y0093324D02*
X0203528Y0093324D01*
X0216870Y0083733D02*
X0219016Y0083733D01*
X0219356Y0082134D02*
X0215271Y0082134D01*
X0218469Y0085332D02*
X0219561Y0085332D01*
X0185819Y0077339D02*
X0162476Y0077339D01*
X0160877Y0075740D02*
X0184192Y0075740D01*
X0183606Y0070945D02*
X0165042Y0070945D01*
X0166641Y0069346D02*
X0187109Y0069346D01*
X0185511Y0067748D02*
X0168239Y0067748D01*
X0168400Y0066149D02*
X0183912Y0066149D01*
X0182314Y0064551D02*
X0169316Y0064551D01*
X0169483Y0062952D02*
X0180715Y0062952D01*
X0179117Y0061354D02*
X0168524Y0061354D01*
X0164476Y0061354D02*
X0151991Y0061354D01*
X0153589Y0062952D02*
X0163517Y0062952D01*
X0163684Y0064551D02*
X0155188Y0064551D01*
X0156786Y0066149D02*
X0161204Y0066149D01*
X0162796Y0066149D02*
X0164464Y0066149D01*
X0159309Y0067748D02*
X0159033Y0067748D01*
X0150392Y0059755D02*
X0177518Y0059755D01*
X0175920Y0058157D02*
X0148794Y0058157D01*
X0147919Y0056558D02*
X0174350Y0056558D01*
X0170439Y0054960D02*
X0149517Y0054960D01*
X0150100Y0053361D02*
X0169516Y0053361D01*
X0169350Y0051763D02*
X0150100Y0051763D01*
X0168221Y0040573D02*
X0169279Y0040573D01*
X0168150Y0038975D02*
X0176638Y0038975D01*
X0178237Y0037376D02*
X0168150Y0037376D01*
X0168150Y0035778D02*
X0179835Y0035778D01*
X0181434Y0034179D02*
X0168150Y0034179D01*
X0168150Y0032581D02*
X0183032Y0032581D01*
X0184631Y0030982D02*
X0168150Y0030982D01*
X0168150Y0029384D02*
X0186229Y0029384D01*
X0187828Y0027785D02*
X0168150Y0027785D01*
X0168150Y0026187D02*
X0189426Y0026187D01*
X0191025Y0024588D02*
X0168150Y0024588D01*
X0168150Y0022990D02*
X0192623Y0022990D01*
X0168150Y0021391D02*
X0253154Y0021391D01*
X0260384Y0014997D02*
X0320050Y0014997D01*
X0320050Y0016596D02*
X0299363Y0016596D01*
X0299363Y0018194D02*
X0320050Y0018194D01*
X0309700Y0021391D02*
X0309300Y0021391D01*
X0309300Y0022990D02*
X0309700Y0022990D01*
X0309700Y0024588D02*
X0309300Y0024588D01*
X0292936Y0021391D02*
X0279564Y0021391D01*
X0279874Y0016596D02*
X0292626Y0016596D01*
X0273137Y0016596D02*
X0261983Y0016596D01*
X0263581Y0018194D02*
X0273137Y0018194D01*
X0273137Y0019793D02*
X0265180Y0019793D01*
X0266778Y0021391D02*
X0273448Y0021391D01*
X0271703Y0022990D02*
X0268377Y0022990D01*
X0269975Y0024588D02*
X0271319Y0024588D01*
X0271574Y0026187D02*
X0271735Y0026187D01*
X0313425Y0051763D02*
X0320050Y0051763D01*
X0320050Y0053361D02*
X0314321Y0053361D01*
X0314600Y0054960D02*
X0320050Y0054960D01*
X0320050Y0056558D02*
X0314395Y0056558D01*
X0313606Y0058157D02*
X0320050Y0058157D01*
X0320050Y0059755D02*
X0311467Y0059755D01*
X0313016Y0061354D02*
X0320050Y0061354D01*
X0320050Y0062952D02*
X0314151Y0062952D01*
X0314600Y0064551D02*
X0320050Y0064551D01*
X0320050Y0066149D02*
X0314565Y0066149D01*
X0313903Y0067748D02*
X0320050Y0067748D01*
X0320050Y0069346D02*
X0312416Y0069346D01*
X0314600Y0070945D02*
X0320050Y0070945D01*
X0320050Y0072543D02*
X0314600Y0072543D01*
X0314600Y0074142D02*
X0320050Y0074142D01*
X0320050Y0075740D02*
X0314600Y0075740D01*
X0314600Y0077339D02*
X0320050Y0077339D01*
X0320050Y0078937D02*
X0314600Y0078937D01*
X0316068Y0083733D02*
X0308860Y0083733D01*
X0310458Y0085332D02*
X0315569Y0085332D01*
X0315878Y0086930D02*
X0312057Y0086930D01*
X0313655Y0088529D02*
X0316150Y0088529D01*
X0316150Y0090127D02*
X0315254Y0090127D01*
X0311097Y0093324D02*
X0304943Y0093324D01*
X0304334Y0090127D02*
X0307900Y0090127D01*
X0306302Y0088529D02*
X0304943Y0088529D01*
X0309499Y0091726D02*
X0296750Y0091726D01*
X0292974Y0090127D02*
X0291095Y0090127D01*
X0304943Y0099718D02*
X0305150Y0099718D01*
X0304168Y0101317D02*
X0306296Y0101317D01*
X0305050Y0102915D02*
X0316150Y0102915D01*
X0316150Y0101317D02*
X0309704Y0101317D01*
X0310850Y0099718D02*
X0316150Y0099718D01*
X0315893Y0098120D02*
X0310948Y0098120D01*
X0309941Y0096521D02*
X0314294Y0096521D01*
X0312696Y0094923D02*
X0307800Y0094923D01*
X0305811Y0104514D02*
X0316150Y0104514D01*
X0316150Y0106112D02*
X0315275Y0106112D01*
X0306900Y0110908D02*
X0305811Y0110908D01*
X0305228Y0112506D02*
X0307497Y0112506D01*
X0244031Y0117302D02*
X0242219Y0117302D01*
X0242734Y0115703D02*
X0243516Y0115703D01*
X0243869Y0114105D02*
X0242381Y0114105D01*
X0283933Y0067748D02*
X0287439Y0067748D01*
X0286250Y0066149D02*
X0282675Y0066149D01*
X0201677Y0043770D02*
X0200758Y0043770D01*
X0174279Y0040573D02*
X0173221Y0040573D01*
X0138976Y0067748D02*
X0130850Y0067748D01*
X0130850Y0069346D02*
X0137630Y0069346D01*
X0137100Y0070945D02*
X0130850Y0070945D01*
X0130850Y0072543D02*
X0137128Y0072543D01*
X0137791Y0074142D02*
X0130850Y0074142D01*
X0130850Y0075740D02*
X0139716Y0075740D01*
X0128171Y0062952D02*
X0126800Y0062952D01*
X0126800Y0061354D02*
X0129769Y0061354D01*
X0131368Y0059755D02*
X0126800Y0059755D01*
X0126800Y0205220D02*
X0320050Y0205220D01*
X0320050Y0206818D02*
X0126800Y0206818D01*
M02*
